<svg id="Camada_1" data-name="Camada 1" xmlns="http://www.w3.org/2000/svg" xmlns:xlink="http://www.w3.org/1999/xlink" viewBox="0 0 2100 699"><defs><style>.cls-1{fill:none;}.cls-2{clip-path:url(#clip-path);}.cls-3{fill:#fff;}</style><clipPath id="clip-path"><rect class="cls-1" width="2100" height="699"/></clipPath></defs><title>CLA_logo</title><g class="cls-2"><rect y="-18" width="2101" height="753"/><polygon class="cls-3" points="756.38 172.13 775.64 217.43 776.2 217.43 756.41 172.07 756.38 172.13"/><polygon class="cls-3" points="876.57 172.07 776.34 171.99 796.16 217.43 857.24 217.43 826.64 287.27 848.71 337.87 876.57 273.99 957.74 460.11 1002.25 460.11 876.57 172.07"/><polygon class="cls-3" points="784.34 383.8 750.9 460.11 795.41 460.11 806.51 434.65 784.34 383.8"/><path class="cls-3" d="M523.7,172.07v309h72.52a126.7,126.7,0,0,0,33.22,30.29A129.19,129.19,0,0,0,670.8,527.9H475.38V172.07Z"/><path class="cls-3" d="M454.34,466.77c-19.59,11-41.65,16.6-66.24,16.6q-38.06,0-67.21-17.1a114.92,114.92,0,0,1-44.8-47.45q-15.66-30.36-15.66-67.94,0-36.61,17.1-67.21a131.35,131.35,0,0,1,45.77-48.41,115.93,115.93,0,0,1,62.39-17.83q34.5,0,68.65,19.68V185.6c-4.91-1.89-9.93-3.68-15.17-5.27a189.7,189.7,0,0,0-54.93-7.7q-49.62,0-88.88,23.37t-61.43,64.55q-22.17,41.2-22.16,92.74,0,48.18,21.92,88.17t62.63,63.59q40.71,23.61,94.18,23.6,30.36,0,56.13-9.39c2.68-1,5.16-2,7.7-3Z"/><polygon class="cls-3" points="882.08 460.11 756.41 172.07 630.74 460.11 675.24 460.11 756.41 273.99 837.58 460.11 882.08 460.11"/><path class="cls-3" d="M629.59,481.22H883.23S841,527.9,756.41,527.9,629.59,481.22,629.59,481.22Z"/><path class="cls-3" d="M907.91,481.22,896.79,493.5c-1.12,1.23-17,18.35-47.54,32.75a218.16,218.16,0,0,0,26.94,1.65c84.54,0,126.82-46.68,126.82-46.68Z"/><path class="cls-3" d="M1086.75,332.19a.93.93,0,0,1,.69.29l1.63,1.76a26.84,26.84,0,0,1-3.92,3.45,24.38,24.38,0,0,1-4.64,2.62A27.7,27.7,0,0,1,1075,342a34.57,34.57,0,0,1-6.6.59,28,28,0,0,1-11-2.11,24.52,24.52,0,0,1-8.59-6,27.58,27.58,0,0,1-5.58-9.34,35.41,35.41,0,0,1-2-12.18,33.62,33.62,0,0,1,2.07-12,27.28,27.28,0,0,1,5.8-9.34,26,26,0,0,1,9-6.05,30,30,0,0,1,11.51-2.15,32.88,32.88,0,0,1,5.76.47,26.12,26.12,0,0,1,4.89,1.35,22.6,22.6,0,0,1,4.28,2.19,32.71,32.71,0,0,1,3.92,3l-1.27,1.84a1.13,1.13,0,0,1-1,.49,1.73,1.73,0,0,1-.94-.43l-1.46-1.06c-.59-.43-1.3-.89-2.12-1.39a17.48,17.48,0,0,0-3-1.38,24.5,24.5,0,0,0-4-1.06,27.59,27.59,0,0,0-5.11-.43,25.1,25.1,0,0,0-9.69,1.83,21.49,21.49,0,0,0-7.6,5.19,23.52,23.52,0,0,0-5,8.17A30.8,30.8,0,0,0,1045.5,313a31.85,31.85,0,0,0,1.76,10.95,23.63,23.63,0,0,0,4.87,8.16,21.13,21.13,0,0,0,7.34,5.11,23.55,23.55,0,0,0,9.17,1.77,33.46,33.46,0,0,0,5.55-.41,22.11,22.11,0,0,0,4.47-1.22,20.42,20.42,0,0,0,3.81-2,28.54,28.54,0,0,0,3.48-2.78,3,3,0,0,1,.38-.27A.85.85,0,0,1,1086.75,332.19Z"/><path class="cls-3" d="M1126.25,341.92a1.4,1.4,0,0,1-1.52-1.14l-.57-5.19c-1.12,1.09-2.24,2.07-3.34,2.95a19.69,19.69,0,0,1-3.45,2.2,17.23,17.23,0,0,1-3.89,1.38,21,21,0,0,1-4.58.47,13.47,13.47,0,0,1-4-.61,10,10,0,0,1-3.48-1.88,9.26,9.26,0,0,1-2.43-3.26,11.27,11.27,0,0,1-.92-4.76,8.44,8.44,0,0,1,1.47-4.78,12.1,12.1,0,0,1,4.6-3.84,30.43,30.43,0,0,1,8.06-2.62,71.4,71.4,0,0,1,11.84-1.14v-4.25q0-5.64-2.43-8.69t-7.21-3a13.52,13.52,0,0,0-5,.82,18,18,0,0,0-3.5,1.79,22.68,22.68,0,0,0-2.32,1.8,2.51,2.51,0,0,1-1.52.82,1.31,1.31,0,0,1-1.22-.74l-.7-1.18a23.69,23.69,0,0,1,6.71-4.83,18.68,18.68,0,0,1,8-1.63,14.61,14.61,0,0,1,5.72,1,10.62,10.62,0,0,1,4.06,3,13,13,0,0,1,2.44,4.7,21.71,21.71,0,0,1,.82,6.15v26.49Zm-16.36-2.16a17.16,17.16,0,0,0,4.36-.51,16.11,16.11,0,0,0,3.68-1.43,17.86,17.86,0,0,0,3.17-2.19q1.48-1.26,2.9-2.73V322.29a73.25,73.25,0,0,0-10,.88,29,29,0,0,0-6.9,1.94,10.07,10.07,0,0,0-4,2.93,6.19,6.19,0,0,0-1.29,3.86,8.49,8.49,0,0,0,.67,3.54,7.15,7.15,0,0,0,1.77,2.45,7,7,0,0,0,2.58,1.41A10.35,10.35,0,0,0,1109.89,339.76ZM1125,294.12h-2.66a1.43,1.43,0,0,1-1.1-.49l-6.38-6.66a1.82,1.82,0,0,1-.45-.45.89.89,0,0,1-.2.27l-.2.19-6.42,6.66a2.06,2.06,0,0,1-.5.35,1.3,1.3,0,0,1-.61.14h-2.73l8.91-10.05h3.48Z"/><path class="cls-3" d="M1140.06,342.58V301.89h2.13a1.1,1.1,0,0,1,1.22,1l.37,5.89a25.5,25.5,0,0,1,2.54-3.07,16.83,16.83,0,0,1,2.87-2.39,13,13,0,0,1,3.27-1.55,11.89,11.89,0,0,1,3.66-.56,9.74,9.74,0,0,1,7.12,2.6,13.57,13.57,0,0,1,3.6,7.21,14.05,14.05,0,0,1,2.06-4.37,13,13,0,0,1,3-3,12.65,12.65,0,0,1,3.74-1.8,14.8,14.8,0,0,1,4.14-.59,14.07,14.07,0,0,1,5.43,1,10.93,10.93,0,0,1,4.1,3,13.46,13.46,0,0,1,2.59,4.83,21.7,21.7,0,0,1,.9,6.54v26H1189v-26q0-6-2.58-9.09a9,9,0,0,0-7.36-3.12,10.93,10.93,0,0,0-4.07.77,9.81,9.81,0,0,0-3.43,2.31,11.18,11.18,0,0,0-2.37,3.82,14.8,14.8,0,0,0-.88,5.31v26h-3.89v-26q0-5.92-2.37-9.08a8.13,8.13,0,0,0-6.91-3.14,10.43,10.43,0,0,0-6.13,2,18.86,18.86,0,0,0-5,5.5v30.74Z"/><path class="cls-3" d="M1231.08,341.92a1.4,1.4,0,0,1-1.52-1.14l-.57-5.19c-1.12,1.09-2.24,2.07-3.34,2.95a19.69,19.69,0,0,1-3.45,2.2,17.23,17.23,0,0,1-3.89,1.38,21,21,0,0,1-4.58.47,13.47,13.47,0,0,1-4-.61,10,10,0,0,1-3.48-1.88,9.26,9.26,0,0,1-2.43-3.26,11.27,11.27,0,0,1-.92-4.76,8.44,8.44,0,0,1,1.47-4.78,12.1,12.1,0,0,1,4.6-3.84,30.43,30.43,0,0,1,8.06-2.62,71.4,71.4,0,0,1,11.84-1.14v-4.25q0-5.64-2.43-8.69t-7.21-3a13.52,13.52,0,0,0-5,.82,18,18,0,0,0-3.5,1.79,22.68,22.68,0,0,0-2.32,1.8,2.51,2.51,0,0,1-1.52.82,1.31,1.31,0,0,1-1.22-.74l-.7-1.18a23.69,23.69,0,0,1,6.71-4.83,18.68,18.68,0,0,1,8-1.63,14.61,14.61,0,0,1,5.72,1,10.62,10.62,0,0,1,4.06,3,13,13,0,0,1,2.44,4.7,21.71,21.71,0,0,1,.82,6.15v26.49Zm-16.36-2.16a17.16,17.16,0,0,0,4.36-.51,16.11,16.11,0,0,0,3.68-1.43,17.86,17.86,0,0,0,3.17-2.19q1.48-1.26,2.9-2.73V322.29a73.25,73.25,0,0,0-10,.88,29,29,0,0,0-6.9,1.94,10.07,10.07,0,0,0-4,2.93,6.19,6.19,0,0,0-1.29,3.86,8.49,8.49,0,0,0,.67,3.54,7.15,7.15,0,0,0,1.77,2.45,7,7,0,0,0,2.58,1.41A10.35,10.35,0,0,0,1214.72,339.76Z"/><path class="cls-3" d="M1244.89,342.58V301.89h2a1.47,1.47,0,0,1,1,.28,1.44,1.44,0,0,1,.35,1l.33,8.59a19.34,19.34,0,0,1,5.23-7.75,12,12,0,0,1,8-2.79,14.08,14.08,0,0,1,3.4.38,13.57,13.57,0,0,1,2.95,1.13l-.53,2.7a.74.74,0,0,1-.82.66,2.28,2.28,0,0,1-.7-.16c-.3-.12-.67-.23-1.12-.37a13.71,13.71,0,0,0-1.66-.36,13.11,13.11,0,0,0-2.25-.17,10.45,10.45,0,0,0-7.58,2.87,20.38,20.38,0,0,0-4.81,8.26v26.45Z"/><path class="cls-3" d="M1301.29,341.92a1.4,1.4,0,0,1-1.52-1.14l-.57-5.19c-1.12,1.09-2.24,2.07-3.34,2.95a19.69,19.69,0,0,1-3.45,2.2,17.23,17.23,0,0,1-3.89,1.38,21,21,0,0,1-4.58.47,13.47,13.47,0,0,1-4-.61,10,10,0,0,1-3.48-1.88,9.26,9.26,0,0,1-2.43-3.26,11.27,11.27,0,0,1-.92-4.76,8.44,8.44,0,0,1,1.47-4.78,12.1,12.1,0,0,1,4.6-3.84,30.43,30.43,0,0,1,8.06-2.62,71.4,71.4,0,0,1,11.84-1.14v-4.25q0-5.64-2.43-8.69t-7.21-3a13.52,13.52,0,0,0-5,.82,18,18,0,0,0-3.5,1.79,22.68,22.68,0,0,0-2.32,1.8,2.51,2.51,0,0,1-1.52.82,1.31,1.31,0,0,1-1.22-.74l-.7-1.18a23.69,23.69,0,0,1,6.71-4.83,18.68,18.68,0,0,1,8-1.63,14.61,14.61,0,0,1,5.72,1,10.62,10.62,0,0,1,4.06,3,13,13,0,0,1,2.44,4.7,21.71,21.71,0,0,1,.82,6.15v26.49Zm-16.36-2.16a17.16,17.16,0,0,0,4.36-.51,16.11,16.11,0,0,0,3.68-1.43,17.86,17.86,0,0,0,3.17-2.19q1.48-1.26,2.9-2.73V322.29a73.25,73.25,0,0,0-10,.88,29,29,0,0,0-6.9,1.94,10.07,10.07,0,0,0-4,2.93,6.19,6.19,0,0,0-1.29,3.86,8.49,8.49,0,0,0,.67,3.54,7.15,7.15,0,0,0,1.77,2.45,7,7,0,0,0,2.58,1.41A10.35,10.35,0,0,0,1284.93,339.76Z"/><path class="cls-3" d="M1347.16,339h27.43v3.56H1343V284.73h4.17Z"/><path class="cls-3" d="M1389.6,287.87a3.13,3.13,0,0,1-.31,1.38,4.06,4.06,0,0,1-.8,1.13,3.67,3.67,0,0,1-1.14.77,3.54,3.54,0,0,1-2.78,0,3.77,3.77,0,0,1-1.14-.77,3.83,3.83,0,0,1-.78-1.13,3.38,3.38,0,0,1-.28-1.38,3.6,3.6,0,0,1,.28-1.4,3.71,3.71,0,0,1,.78-1.17,3.62,3.62,0,0,1,1.14-.77,3.44,3.44,0,0,1,2.78,0,3.52,3.52,0,0,1,1.14.77,3.91,3.91,0,0,1,.8,1.17A3.33,3.33,0,0,1,1389.6,287.87Zm-1.72,14v40.68H1384V301.89Z"/><path class="cls-3" d="M1402.69,342V282.55h3.88l0,25.93a21.4,21.4,0,0,1,6.26-5.69,15.59,15.59,0,0,1,8-2.09q7.48,0,11.68,5.17t4.19,15.56a28.53,28.53,0,0,1-1.17,8.31,19.51,19.51,0,0,1-3.43,6.71,16.32,16.32,0,0,1-5.57,4.48,17,17,0,0,1-7.59,1.63,14.23,14.23,0,0,1-12.62-6.54l-.24,5a1,1,0,0,1-1.09,1Zm17.06-38.22a13.35,13.35,0,0,0-7.33,2.09,20.65,20.65,0,0,0-5.86,5.8v21.46a13.89,13.89,0,0,0,5.16,4.92,15.8,15.8,0,0,0,12.81.11,12.37,12.37,0,0,0,4.53-3.7,16.83,16.83,0,0,0,2.75-5.72,27.6,27.6,0,0,0,.91-7.34q0-9.08-3.35-13.35T1419.75,303.82Z"/><path class="cls-3" d="M1462.25,300.71a16.77,16.77,0,0,1,6.36,1.19,14.26,14.26,0,0,1,5.07,3.45,15.79,15.79,0,0,1,3.35,5.58,22.09,22.09,0,0,1,1.21,7.6,2.06,2.06,0,0,1-.27,1.23,1,1,0,0,1-.83.33h-29.36v.77a27.57,27.57,0,0,0,1.06,8.06,16.52,16.52,0,0,0,3,5.82,12.49,12.49,0,0,0,4.75,3.54,15.66,15.66,0,0,0,6.21,1.19,18.84,18.84,0,0,0,5.31-.67,19.88,19.88,0,0,0,3.78-1.52,21.33,21.33,0,0,0,2.43-1.51,2.74,2.74,0,0,1,1.31-.67.92.92,0,0,1,.82.41l1.06,1.3a11.1,11.1,0,0,1-2.6,2.29,18.42,18.42,0,0,1-3.59,1.82,26.35,26.35,0,0,1-4.25,1.21,23.31,23.31,0,0,1-4.56.45,19.33,19.33,0,0,1-7.6-1.46,16.21,16.21,0,0,1-5.9-4.23,19.38,19.38,0,0,1-3.8-6.81,29.06,29.06,0,0,1-1.34-9.22,25.05,25.05,0,0,1,1.24-8.07,18.48,18.48,0,0,1,3.6-6.38,16.31,16.31,0,0,1,5.76-4.19A18.91,18.91,0,0,1,1462.25,300.71Zm.06,2.9a15.22,15.22,0,0,0-5.63,1,12.34,12.34,0,0,0-4.3,2.82,14.19,14.19,0,0,0-2.94,4.42,19.73,19.73,0,0,0-1.49,5.76h26.78a18,18,0,0,0-.9-5.86,12.57,12.57,0,0,0-2.54-4.39,10.86,10.86,0,0,0-3.91-2.76A13,13,0,0,0,1462.31,303.61Z"/><path class="cls-3" d="M1488.7,342.58V301.89h2a1.47,1.47,0,0,1,1,.28,1.44,1.44,0,0,1,.35,1l.33,8.59a19.34,19.34,0,0,1,5.23-7.75,12,12,0,0,1,8-2.79,14.08,14.08,0,0,1,3.4.38,13.57,13.57,0,0,1,2.95,1.13l-.53,2.7a.74.74,0,0,1-.82.66,2.28,2.28,0,0,1-.7-.16c-.3-.12-.67-.23-1.12-.37a13.71,13.71,0,0,0-1.66-.36A13.11,13.11,0,0,0,1505,305a10.45,10.45,0,0,0-7.58,2.87,20.38,20.38,0,0,0-4.81,8.26v26.45Z"/><path class="cls-3" d="M1532.25,342.58a8.67,8.67,0,0,1-6.42-2.29q-2.29-2.29-2.29-7.08v-27.8h-5.85a1.06,1.06,0,0,1-.74-.25.84.84,0,0,1-.28-.69V303l6.95-.5,1-14.55a1.13,1.13,0,0,1,.31-.66.91.91,0,0,1,.7-.28h1.83v15.54h12.79v2.9h-12.79V333a8.67,8.67,0,0,0,.43,2.88,5.37,5.37,0,0,0,1.19,2,4.64,4.64,0,0,0,1.77,1.14,6.63,6.63,0,0,0,2.21.36,6.84,6.84,0,0,0,2.54-.43,11.06,11.06,0,0,0,1.84-.94,12.12,12.12,0,0,0,1.27-.94,1.41,1.41,0,0,1,.77-.43.88.88,0,0,1,.66.41l1.06,1.71a11.31,11.31,0,0,1-3.95,2.76A12.21,12.21,0,0,1,1532.25,342.58Z"/><path class="cls-3" d="M1576.28,341.92a1.4,1.4,0,0,1-1.52-1.14l-.57-5.19c-1.12,1.09-2.24,2.07-3.34,2.95a19.69,19.69,0,0,1-3.45,2.2,17.23,17.23,0,0,1-3.89,1.38,21,21,0,0,1-4.58.47,13.47,13.47,0,0,1-4-.61,10,10,0,0,1-3.48-1.88,9.26,9.26,0,0,1-2.43-3.26,11.27,11.27,0,0,1-.92-4.76,8.44,8.44,0,0,1,1.47-4.78,12.1,12.1,0,0,1,4.6-3.84,30.43,30.43,0,0,1,8.06-2.62,71.4,71.4,0,0,1,11.84-1.14v-4.25q0-5.64-2.43-8.69t-7.21-3a13.52,13.52,0,0,0-5,.82,18,18,0,0,0-3.5,1.79,22.68,22.68,0,0,0-2.32,1.8,2.51,2.51,0,0,1-1.52.82,1.31,1.31,0,0,1-1.22-.74l-.7-1.18a23.69,23.69,0,0,1,6.71-4.83,18.68,18.68,0,0,1,8-1.63,14.61,14.61,0,0,1,5.72,1,10.62,10.62,0,0,1,4.06,3,13,13,0,0,1,2.44,4.7,21.71,21.71,0,0,1,.82,6.15v26.49Zm-16.36-2.16a17.16,17.16,0,0,0,4.36-.51,16.11,16.11,0,0,0,3.68-1.43,17.86,17.86,0,0,0,3.17-2.19q1.48-1.26,2.9-2.73V322.29a73.25,73.25,0,0,0-10,.88,29,29,0,0,0-6.9,1.94,10.07,10.07,0,0,0-4,2.93,6.19,6.19,0,0,0-1.29,3.86,8.49,8.49,0,0,0,.67,3.54,7.15,7.15,0,0,0,1.77,2.45,7,7,0,0,0,2.58,1.41A10.35,10.35,0,0,0,1559.92,339.76Zm13.66-56.34-8.83,10.35a1.78,1.78,0,0,1-.67.55,2.16,2.16,0,0,1-.83.14h-2.33l6.42-9.73a2.31,2.31,0,0,1,2.41-1.3Z"/><path class="cls-3" d="M1590.1,342.58V301.89h2a1.47,1.47,0,0,1,1,.28,1.44,1.44,0,0,1,.35,1l.33,8.59a19.34,19.34,0,0,1,5.23-7.75,12,12,0,0,1,8-2.79,14.08,14.08,0,0,1,3.4.38,13.57,13.57,0,0,1,2.95,1.13l-.53,2.7a.74.74,0,0,1-.82.66,2.28,2.28,0,0,1-.7-.16c-.3-.12-.67-.23-1.12-.37a13.71,13.71,0,0,0-1.66-.36,13.11,13.11,0,0,0-2.25-.17,10.45,10.45,0,0,0-7.58,2.87,20.38,20.38,0,0,0-4.81,8.26v26.45Z"/><path class="cls-3" d="M1629.31,287.87a3.13,3.13,0,0,1-.31,1.38,4.06,4.06,0,0,1-.8,1.13,3.67,3.67,0,0,1-1.14.77,3.54,3.54,0,0,1-2.78,0,3.77,3.77,0,0,1-1.14-.77,3.83,3.83,0,0,1-.78-1.13,3.38,3.38,0,0,1-.28-1.38,3.6,3.6,0,0,1,.28-1.4,3.71,3.71,0,0,1,.78-1.17,3.62,3.62,0,0,1,1.14-.77,3.44,3.44,0,0,1,2.78,0,3.52,3.52,0,0,1,1.14.77,3.91,3.91,0,0,1,.8,1.17A3.33,3.33,0,0,1,1629.31,287.87Zm-1.72,14v40.68h-3.88V301.89Z"/><path class="cls-3" d="M1668,341.92a1.4,1.4,0,0,1-1.52-1.14l-.57-5.19c-1.12,1.09-2.24,2.07-3.34,2.95a19.69,19.69,0,0,1-3.45,2.2,17.23,17.23,0,0,1-3.89,1.38,21,21,0,0,1-4.58.47,13.47,13.47,0,0,1-4-.61,10,10,0,0,1-3.48-1.88,9.26,9.26,0,0,1-2.43-3.26,11.27,11.27,0,0,1-.92-4.76,8.44,8.44,0,0,1,1.47-4.78,12.1,12.1,0,0,1,4.6-3.84,30.43,30.43,0,0,1,8.06-2.62,71.4,71.4,0,0,1,11.84-1.14v-4.25q0-5.64-2.43-8.69t-7.21-3a13.52,13.52,0,0,0-5,.82,18,18,0,0,0-3.5,1.79,22.68,22.68,0,0,0-2.32,1.8,2.51,2.51,0,0,1-1.52.82,1.31,1.31,0,0,1-1.22-.74l-.7-1.18a23.69,23.69,0,0,1,6.71-4.83,18.68,18.68,0,0,1,8-1.63,14.61,14.61,0,0,1,5.72,1,10.62,10.62,0,0,1,4.06,3,13,13,0,0,1,2.44,4.7,21.71,21.71,0,0,1,.82,6.15v26.49Zm-16.36-2.16a17.16,17.16,0,0,0,4.36-.51,16.11,16.11,0,0,0,3.68-1.43,17.86,17.86,0,0,0,3.17-2.19q1.48-1.26,2.9-2.73V322.29a73.25,73.25,0,0,0-10,.88,29,29,0,0,0-6.9,1.94,10.07,10.07,0,0,0-4,2.93,6.19,6.19,0,0,0-1.29,3.86,8.49,8.49,0,0,0,.67,3.54,7.15,7.15,0,0,0,1.77,2.45,7,7,0,0,0,2.58,1.41A10.35,10.35,0,0,0,1651.59,339.76Z"/><path class="cls-3" d="M1740.21,342A1.09,1.09,0,0,1,1739,341l-.41-6.42a21.68,21.68,0,0,1-6.33,5.85,15.52,15.52,0,0,1-8.13,2.16q-7.49,0-11.69-5.19t-4.2-15.58a28.89,28.89,0,0,1,1.16-8.32,19.72,19.72,0,0,1,3.44-6.7,16.32,16.32,0,0,1,5.57-4.48,16.84,16.84,0,0,1,7.6-1.63,15.6,15.6,0,0,1,7.16,1.53,15,15,0,0,1,5.24,4.47V282.55h3.88V342Zm-14.92-2.62a13.37,13.37,0,0,0,7.33-2.09,20.89,20.89,0,0,0,5.86-5.8V310.08a14.43,14.43,0,0,0-18-5,12.23,12.23,0,0,0-4.53,3.7,16.75,16.75,0,0,0-2.75,5.72,27.55,27.55,0,0,0-.92,7.34q0,9.08,3.36,13.35T1725.29,339.43Z"/><path class="cls-3" d="M1771.34,300.71a16.77,16.77,0,0,1,6.36,1.19,14.26,14.26,0,0,1,5.07,3.45,15.79,15.79,0,0,1,3.35,5.58,22.09,22.09,0,0,1,1.21,7.6,2.06,2.06,0,0,1-.27,1.23,1,1,0,0,1-.83.33h-29.36v.77a27.57,27.57,0,0,0,1.06,8.06,16.52,16.52,0,0,0,3,5.82,12.49,12.49,0,0,0,4.75,3.54,15.66,15.66,0,0,0,6.21,1.19,18.84,18.84,0,0,0,5.31-.67,19.88,19.88,0,0,0,3.78-1.52,21.33,21.33,0,0,0,2.43-1.51,2.74,2.74,0,0,1,1.31-.67.92.92,0,0,1,.82.41l1.06,1.3a11.1,11.1,0,0,1-2.6,2.29,18.42,18.42,0,0,1-3.59,1.82,26.35,26.35,0,0,1-4.25,1.21,23.31,23.31,0,0,1-4.56.45,19.33,19.33,0,0,1-7.6-1.46,16.21,16.21,0,0,1-5.9-4.23,19.38,19.38,0,0,1-3.8-6.81,29.06,29.06,0,0,1-1.34-9.22,25.05,25.05,0,0,1,1.24-8.07,18.48,18.48,0,0,1,3.6-6.38,16.31,16.31,0,0,1,5.76-4.19A18.91,18.91,0,0,1,1771.34,300.71Zm.06,2.9a15.22,15.22,0,0,0-5.63,1,12.34,12.34,0,0,0-4.3,2.82,14.19,14.19,0,0,0-2.94,4.42,19.73,19.73,0,0,0-1.49,5.76h26.78a18,18,0,0,0-.9-5.86,12.57,12.57,0,0,0-2.54-4.39,10.86,10.86,0,0,0-3.91-2.76A13,13,0,0,0,1771.4,303.61Z"/><path class="cls-3" d="M1153.42,457.95h-3.23a1.43,1.43,0,0,1-.94-.31,2.08,2.08,0,0,1-.57-.79L1141.85,440h-28.41l-6.79,16.81a1.79,1.79,0,0,1-.58.77,1.49,1.49,0,0,1-1,.33h-3.19l23.67-57.85h4.17Zm-38.72-21h25.93l-11.82-29.23c-.19-.46-.38-1-.57-1.58s-.38-1.21-.58-1.85c-.19.65-.38,1.27-.57,1.85s-.38,1.13-.58,1.61Z"/><path class="cls-3" d="M1187.4,422.7c-.14.13-.27.25-.39.35a.81.81,0,0,1-.51.14,2.14,2.14,0,0,1-1.12-.55,15.88,15.88,0,0,0-1.91-1.21,16.33,16.33,0,0,0-3-1.21,14.77,14.77,0,0,0-4.31-.55,14.94,14.94,0,0,0-6.24,1.24,12.48,12.48,0,0,0-4.58,3.58,16.54,16.54,0,0,0-2.84,5.64,26,26,0,0,0-1,7.44,26.36,26.36,0,0,0,1,7.6,16.15,16.15,0,0,0,2.85,5.58,12,12,0,0,0,4.45,3.46,13.9,13.9,0,0,0,5.8,1.18,15.19,15.19,0,0,0,4.93-.69,15.89,15.89,0,0,0,3.27-1.52,14.67,14.67,0,0,0,2-1.51,2.1,2.1,0,0,1,1.2-.69,1,1,0,0,1,.83.41l1.06,1.3a11.68,11.68,0,0,1-2.37,2.29,16.22,16.22,0,0,1-3.23,1.85,20.49,20.49,0,0,1-3.9,1.21,22.08,22.08,0,0,1-4.39.43,17.45,17.45,0,0,1-7.1-1.41,15.45,15.45,0,0,1-5.52-4.09,19.12,19.12,0,0,1-3.59-6.56,30.56,30.56,0,0,1-.06-17.34,19.07,19.07,0,0,1,3.58-6.63,16,16,0,0,1,5.77-4.31,18.92,18.92,0,0,1,7.83-1.53,18.49,18.49,0,0,1,7.05,1.27,17.21,17.21,0,0,1,5.38,3.43Z"/><path class="cls-3" d="M1213.32,416.61a19.39,19.39,0,0,1,7.83,1.5,16,16,0,0,1,5.83,4.22,18.81,18.81,0,0,1,3.62,6.61,30.65,30.65,0,0,1,0,17.28,18.8,18.8,0,0,1-3.62,6.57,15.75,15.75,0,0,1-5.83,4.21,21.55,21.55,0,0,1-15.66,0,15.93,15.93,0,0,1-5.84-4.21,18.57,18.57,0,0,1-3.65-6.57,30.65,30.65,0,0,1,0-17.28,18.58,18.58,0,0,1,3.65-6.61,16.16,16.16,0,0,1,5.84-4.22A19.46,19.46,0,0,1,1213.32,416.61Zm0,38.8a15.06,15.06,0,0,0,6.35-1.24,12.05,12.05,0,0,0,4.54-3.58,15.75,15.75,0,0,0,2.72-5.63,30.45,30.45,0,0,0,0-14.74,15.78,15.78,0,0,0-2.72-5.66,12.08,12.08,0,0,0-4.54-3.62,16.56,16.56,0,0,0-12.71,0,12.12,12.12,0,0,0-4.53,3.62,16.11,16.11,0,0,0-2.74,5.66,29.88,29.88,0,0,0,0,14.74,16.08,16.08,0,0,0,2.74,5.63,12.09,12.09,0,0,0,4.53,3.58A15.1,15.1,0,0,0,1213.32,455.41Z"/><path class="cls-3" d="M1242.06,457.95V417.26h2a1.47,1.47,0,0,1,1,.28,1.44,1.44,0,0,1,.35,1l.33,8.59a19.34,19.34,0,0,1,5.23-7.75,12,12,0,0,1,8-2.79,14.08,14.08,0,0,1,3.4.38,13.57,13.57,0,0,1,2.95,1.13l-.53,2.7a.74.74,0,0,1-.82.66,2.28,2.28,0,0,1-.7-.16c-.3-.12-.67-.23-1.12-.37a13.71,13.71,0,0,0-1.66-.36,13.11,13.11,0,0,0-2.25-.17,10.45,10.45,0,0,0-7.58,2.87,20.38,20.38,0,0,0-4.81,8.26v26.45Z"/><path class="cls-3" d="M1303.38,457.95a1.09,1.09,0,0,1-1.17-1.06l-.41-6.42a21.68,21.68,0,0,1-6.33,5.85,15.52,15.52,0,0,1-8.13,2.16q-7.49,0-11.69-5.19t-4.2-15.58a28.89,28.89,0,0,1,1.16-8.32,19.72,19.72,0,0,1,3.44-6.7,16.32,16.32,0,0,1,5.57-4.48,16.84,16.84,0,0,1,7.6-1.63,15.6,15.6,0,0,1,7.16,1.53,15,15,0,0,1,5.24,4.47V398.45h3.88v59.49Zm-14.92-2.62a13.37,13.37,0,0,0,7.33-2.09,20.89,20.89,0,0,0,5.86-5.8V426a14.43,14.43,0,0,0-18-5,12.23,12.23,0,0,0-4.53,3.7,16.75,16.75,0,0,0-2.75,5.72,27.55,27.55,0,0,0-.92,7.34q0,9.08,3.36,13.35T1288.46,455.33Z"/><path class="cls-3" d="M1334.68,416.61a19.39,19.39,0,0,1,7.83,1.5,16,16,0,0,1,5.83,4.22,18.81,18.81,0,0,1,3.62,6.61,30.65,30.65,0,0,1,0,17.28,18.8,18.8,0,0,1-3.62,6.57,15.75,15.75,0,0,1-5.83,4.21,21.55,21.55,0,0,1-15.66,0,15.93,15.93,0,0,1-5.84-4.21,18.57,18.57,0,0,1-3.65-6.57,30.65,30.65,0,0,1,0-17.28,18.58,18.58,0,0,1,3.65-6.61,16.16,16.16,0,0,1,5.84-4.22A19.46,19.46,0,0,1,1334.68,416.61Zm0,38.8a15.06,15.06,0,0,0,6.35-1.24,12.05,12.05,0,0,0,4.54-3.58,15.75,15.75,0,0,0,2.72-5.63,30.45,30.45,0,0,0,0-14.74,15.78,15.78,0,0,0-2.72-5.66,12.08,12.08,0,0,0-4.54-3.62,16.56,16.56,0,0,0-12.71,0,12.12,12.12,0,0,0-4.53,3.62,16.11,16.11,0,0,0-2.74,5.66,29.88,29.88,0,0,0,0,14.74,16.08,16.08,0,0,0,2.74,5.63,12.09,12.09,0,0,0,4.53,3.58A15.1,15.1,0,0,0,1334.68,455.41Z"/><path class="cls-3" d="M1385.83,422.33a1,1,0,0,1-.91.58,2.18,2.18,0,0,1-1.16-.51,19.75,19.75,0,0,0-1.88-1.14,16,16,0,0,0-2.87-1.14,14.64,14.64,0,0,0-4.14-.51,12.1,12.1,0,0,0-4,.63,9.74,9.74,0,0,0-3.11,1.69,7.62,7.62,0,0,0-2,2.47,6.37,6.37,0,0,0-.72,3,5,5,0,0,0,1,3.18,8.4,8.4,0,0,0,2.57,2.16,20,20,0,0,0,3.62,1.55q2,.65,4.15,1.3t4.14,1.45a15.76,15.76,0,0,1,3.62,2,9.26,9.26,0,0,1,2.57,2.9,8.26,8.26,0,0,1,1,4.17,12.69,12.69,0,0,1-1,5,11.22,11.22,0,0,1-2.79,4,13.33,13.33,0,0,1-4.47,2.65,17.35,17.35,0,0,1-6.05,1,18.21,18.21,0,0,1-7.4-1.38,20.66,20.66,0,0,1-5.56-3.58l.94-1.39a1.61,1.61,0,0,1,.45-.49,1.25,1.25,0,0,1,.69-.16,2.26,2.26,0,0,1,1.31.65,14.49,14.49,0,0,0,2,1.41,16.3,16.3,0,0,0,3.11,1.41,13.77,13.77,0,0,0,4.6.66,13.42,13.42,0,0,0,4.54-.71,9.48,9.48,0,0,0,3.27-1.94,8.16,8.16,0,0,0,2-2.88,9.15,9.15,0,0,0,.67-3.5,5.62,5.62,0,0,0-1-3.4,8.39,8.39,0,0,0-2.57-2.29,18.33,18.33,0,0,0-3.62-1.59q-2-.67-4.17-1.31t-4.17-1.43a15,15,0,0,1-3.62-2,9.63,9.63,0,0,1-2.57-2.88,8.34,8.34,0,0,1-1-4.23,9.77,9.77,0,0,1,.94-4.17,10.6,10.6,0,0,1,2.68-3.51,13.1,13.1,0,0,1,4.23-2.41,16.38,16.38,0,0,1,5.61-.91,18.79,18.79,0,0,1,6.6,1.08,16.23,16.23,0,0,1,5.29,3.29Z"/><path class="cls-3" d="M1436.38,416.92a16.77,16.77,0,0,1,6.36,1.19,14.26,14.26,0,0,1,5.07,3.45,15.79,15.79,0,0,1,3.35,5.58,22.09,22.09,0,0,1,1.21,7.6,2.06,2.06,0,0,1-.27,1.23,1,1,0,0,1-.83.33h-29.36v.77a27.57,27.57,0,0,0,1.06,8.06,16.52,16.52,0,0,0,3,5.82,12.49,12.49,0,0,0,4.75,3.54,15.66,15.66,0,0,0,6.21,1.19,18.84,18.84,0,0,0,5.31-.67,19.88,19.88,0,0,0,3.78-1.52,21.33,21.33,0,0,0,2.43-1.51,2.74,2.74,0,0,1,1.31-.67.92.92,0,0,1,.82.41l1.06,1.3a11.1,11.1,0,0,1-2.6,2.29,18.42,18.42,0,0,1-3.59,1.82,26.35,26.35,0,0,1-4.25,1.21,23.31,23.31,0,0,1-4.56.45,19.33,19.33,0,0,1-7.6-1.46,16.21,16.21,0,0,1-5.9-4.23,19.38,19.38,0,0,1-3.8-6.81,29.06,29.06,0,0,1-1.34-9.22,25.05,25.05,0,0,1,1.24-8.07,18.48,18.48,0,0,1,3.6-6.38,16.31,16.31,0,0,1,5.76-4.19A18.91,18.91,0,0,1,1436.38,416.92Zm.06,2.9a15.22,15.22,0,0,0-5.63,1,12.34,12.34,0,0,0-4.3,2.82,14.19,14.19,0,0,0-2.94,4.42,19.73,19.73,0,0,0-1.49,5.76h26.78a18,18,0,0,0-.9-5.86,12.57,12.57,0,0,0-2.54-4.39,10.86,10.86,0,0,0-3.91-2.76A13,13,0,0,0,1436.44,419.82Z"/><path class="cls-3" d="M1534.25,457.95H1531a1.43,1.43,0,0,1-.94-.31,2.08,2.08,0,0,1-.57-.79L1522.68,440h-28.41l-6.79,16.81a1.79,1.79,0,0,1-.58.77,1.49,1.49,0,0,1-1,.33h-3.19l23.67-57.85h4.17Zm-38.72-21h25.93l-11.82-29.23c-.19-.46-.38-1-.57-1.58s-.38-1.21-.58-1.85c-.19.65-.38,1.27-.57,1.85s-.38,1.13-.58,1.61Z"/><path class="cls-3" d="M1541.45,457.95V417.26h2a1.47,1.47,0,0,1,1,.28,1.44,1.44,0,0,1,.35,1l.33,8.59a19.34,19.34,0,0,1,5.23-7.75,12,12,0,0,1,8-2.79,14.08,14.08,0,0,1,3.4.38,13.57,13.57,0,0,1,2.95,1.13l-.53,2.7a.74.74,0,0,1-.82.66,2.28,2.28,0,0,1-.7-.16c-.3-.12-.67-.23-1.12-.37a13.71,13.71,0,0,0-1.66-.36,13.11,13.11,0,0,0-2.25-.17,10.45,10.45,0,0,0-7.58,2.87,20.38,20.38,0,0,0-4.81,8.26v26.45Z"/><path class="cls-3" d="M1574.33,457.95V398.45h3.88l0,25.93a21.4,21.4,0,0,1,6.26-5.69,15.59,15.59,0,0,1,8-2.09q7.48,0,11.68,5.17t4.19,15.56a28.53,28.53,0,0,1-1.17,8.31,19.51,19.51,0,0,1-3.43,6.71,16.32,16.32,0,0,1-5.57,4.48,17,17,0,0,1-7.59,1.63,14.23,14.23,0,0,1-12.62-6.54l-.24,5a1,1,0,0,1-1.09,1Zm17.06-38.22a13.35,13.35,0,0,0-7.33,2.09,20.65,20.65,0,0,0-5.86,5.8v21.46a13.89,13.89,0,0,0,5.16,4.92,15.8,15.8,0,0,0,12.81.11,12.37,12.37,0,0,0,4.53-3.7,16.83,16.83,0,0,0,2.75-5.72,27.6,27.6,0,0,0,.91-7.34q0-9.08-3.35-13.35T1591.39,419.72Z"/><path class="cls-3" d="M1625.31,403.24a3.13,3.13,0,0,1-.31,1.38,4.06,4.06,0,0,1-.8,1.13,3.67,3.67,0,0,1-1.14.77,3.54,3.54,0,0,1-2.78,0,3.77,3.77,0,0,1-1.14-.77,3.83,3.83,0,0,1-.78-1.13,3.38,3.38,0,0,1-.28-1.38,3.6,3.6,0,0,1,.28-1.4,3.71,3.71,0,0,1,.78-1.17,3.62,3.62,0,0,1,1.14-.77,3.44,3.44,0,0,1,2.78,0,3.52,3.52,0,0,1,1.14.77,3.91,3.91,0,0,1,.8,1.17A3.33,3.33,0,0,1,1625.31,403.24Zm-1.72,14v40.68h-3.88V417.26Z"/><path class="cls-3" d="M1649.06,458.6a8.67,8.67,0,0,1-6.42-2.29q-2.29-2.29-2.29-7.08v-27.8h-5.85a1.06,1.06,0,0,1-.74-.25.84.84,0,0,1-.28-.69V419l6.95-.5,1-14.55a1.13,1.13,0,0,1,.31-.66.91.91,0,0,1,.7-.28h1.83v15.54H1657v2.9h-12.79V449a8.67,8.67,0,0,0,.43,2.88,5.37,5.37,0,0,0,1.19,2,4.64,4.64,0,0,0,1.77,1.14,6.63,6.63,0,0,0,2.21.36,6.84,6.84,0,0,0,2.54-.43,11.06,11.06,0,0,0,1.84-.94,12.12,12.12,0,0,0,1.27-.94,1.41,1.41,0,0,1,.77-.43.88.88,0,0,1,.66.41l1.06,1.71a11.31,11.31,0,0,1-3.95,2.76A12.21,12.21,0,0,1,1649.06,458.6Z"/><path class="cls-3" d="M1667.13,457.95V417.26h2a1.47,1.47,0,0,1,1,.28,1.44,1.44,0,0,1,.35,1l.33,8.59a19.34,19.34,0,0,1,5.23-7.75,12,12,0,0,1,8-2.79,14.08,14.08,0,0,1,3.4.38,13.57,13.57,0,0,1,2.95,1.13l-.53,2.7a.74.74,0,0,1-.82.66,2.28,2.28,0,0,1-.7-.16c-.3-.12-.67-.23-1.12-.37a13.71,13.71,0,0,0-1.66-.36,13.11,13.11,0,0,0-2.25-.17,10.45,10.45,0,0,0-7.58,2.87,20.38,20.38,0,0,0-4.81,8.26v26.45Z"/><path class="cls-3" d="M1723.53,457.95a1.4,1.4,0,0,1-1.52-1.14l-.57-5.19c-1.12,1.09-2.24,2.07-3.34,2.95a19.69,19.69,0,0,1-3.45,2.2,17.23,17.23,0,0,1-3.89,1.38,21,21,0,0,1-4.58.47,13.47,13.47,0,0,1-4-.61,10,10,0,0,1-3.48-1.88,9.26,9.26,0,0,1-2.43-3.26,11.27,11.27,0,0,1-.92-4.76,8.44,8.44,0,0,1,1.47-4.78,12.1,12.1,0,0,1,4.6-3.84,30.43,30.43,0,0,1,8.06-2.62,71.4,71.4,0,0,1,11.84-1.14v-4.25q0-5.64-2.43-8.69t-7.21-3a13.52,13.52,0,0,0-5,.82,18,18,0,0,0-3.5,1.79,22.68,22.68,0,0,0-2.32,1.8,2.51,2.51,0,0,1-1.52.82,1.31,1.31,0,0,1-1.22-.74l-.7-1.18a23.69,23.69,0,0,1,6.71-4.83,18.68,18.68,0,0,1,8-1.63,14.61,14.61,0,0,1,5.72,1,10.62,10.62,0,0,1,4.06,3,13,13,0,0,1,2.44,4.7,21.71,21.71,0,0,1,.82,6.15v26.49Zm-16.36-2.16a17.16,17.16,0,0,0,4.36-.51,16.11,16.11,0,0,0,3.68-1.43,17.86,17.86,0,0,0,3.17-2.19q1.48-1.26,2.9-2.73V438.32a73.25,73.25,0,0,0-10,.88,29,29,0,0,0-6.9,1.94,10.07,10.07,0,0,0-4,2.93,6.19,6.19,0,0,0-1.29,3.86,8.49,8.49,0,0,0,.67,3.54,7.15,7.15,0,0,0,1.77,2.45,7,7,0,0,0,2.58,1.41A10.35,10.35,0,0,0,1707.16,455.78Z"/><path class="cls-3" d="M1750.76,416.57a17.73,17.73,0,0,1,4.92.65,15.11,15.11,0,0,1,4.07,1.85h10.43v1.35c0,.68-.38,1-1.14,1.1l-6.18.45a11.87,11.87,0,0,1,1.76,3.5,13.74,13.74,0,0,1,.61,4.15,13,13,0,0,1-1.06,5.33,11.89,11.89,0,0,1-3,4.09,13.65,13.65,0,0,1-4.56,2.64,17.41,17.41,0,0,1-5.88.94,18.19,18.19,0,0,1-6.38-1.06,8.44,8.44,0,0,0-2.7,2.33,4.46,4.46,0,0,0-1,2.62,3.18,3.18,0,0,0,1.23,2.7,7.93,7.93,0,0,0,3.25,1.37,28.12,28.12,0,0,0,4.62.55l5.27.27q2.68.15,5.27.51a16.92,16.92,0,0,1,4.62,1.29,8.25,8.25,0,0,1,3.26,2.57,7.25,7.25,0,0,1,1.22,4.4,10.07,10.07,0,0,1-1.27,4.86,13,13,0,0,1-3.66,4.13,19.33,19.33,0,0,1-5.79,2.87,24.74,24.74,0,0,1-7.6,1.09,28.35,28.35,0,0,1-7.52-.89,17.88,17.88,0,0,1-5.42-2.37,10.44,10.44,0,0,1-3.29-3.45,8.38,8.38,0,0,1-1.1-4.17,8,8,0,0,1,2.12-5.56,13.74,13.74,0,0,1,5.85-3.59,7.76,7.76,0,0,1-3.25-2,5.15,5.15,0,0,1-1.21-3.64,5.39,5.39,0,0,1,.33-1.8,7.24,7.24,0,0,1,1-1.86,10.65,10.65,0,0,1,1.58-1.74,11.12,11.12,0,0,1,2.15-1.46,12.21,12.21,0,0,1-4.53-4.46,12.73,12.73,0,0,1-1.61-6.49,13.28,13.28,0,0,1,1-5.34,11.85,11.85,0,0,1,2.95-4.11,13.17,13.17,0,0,1,4.6-2.65A18,18,0,0,1,1750.76,416.57Zm15.08,44.12a4.52,4.52,0,0,0-1-3.09,6.59,6.59,0,0,0-2.67-1.82,16.07,16.07,0,0,0-3.87-.92c-1.46-.18-3-.3-4.58-.39l-4.8-.24a37.08,37.08,0,0,1-4.5-.5,19.34,19.34,0,0,0-2.88,1.41,10.64,10.64,0,0,0-2.27,1.8,7.7,7.7,0,0,0-1.47,2.21,6.48,6.48,0,0,0-.53,2.64,6.39,6.39,0,0,0,.92,3.34,8,8,0,0,0,2.7,2.65,15.14,15.14,0,0,0,4.36,1.78,24.24,24.24,0,0,0,5.93.65,23.08,23.08,0,0,0,5.79-.69,16.12,16.12,0,0,0,4.66-2,10.07,10.07,0,0,0,3.11-3A7,7,0,0,0,1765.84,460.69ZM1750.76,440a13.33,13.33,0,0,0,4.66-.75,9.67,9.67,0,0,0,3.43-2.1,8.77,8.77,0,0,0,2.11-3.23,11.78,11.78,0,0,0,.71-4.17,11.35,11.35,0,0,0-.74-4.19,8.88,8.88,0,0,0-2.15-3.26,9.82,9.82,0,0,0-3.43-2.09,13.46,13.46,0,0,0-4.6-.74,13.66,13.66,0,0,0-4.62.74,9.82,9.82,0,0,0-3.45,2.09,8.88,8.88,0,0,0-2.15,3.26,11.53,11.53,0,0,0-.74,4.19,11.4,11.4,0,0,0,.74,4.17,8.85,8.85,0,0,0,2.15,3.23,10,10,0,0,0,3.45,2.1A13.23,13.23,0,0,0,1750.76,440Z"/><path class="cls-3" d="M1793.92,416.61a16.77,16.77,0,0,1,6.36,1.19,14.26,14.26,0,0,1,5.07,3.45,15.79,15.79,0,0,1,3.35,5.58,22.09,22.09,0,0,1,1.21,7.6,2.06,2.06,0,0,1-.27,1.23,1,1,0,0,1-.83.33h-29.36v.77a27.57,27.57,0,0,0,1.06,8.06,16.52,16.52,0,0,0,3,5.82,12.49,12.49,0,0,0,4.75,3.54,15.66,15.66,0,0,0,6.21,1.19,18.84,18.84,0,0,0,5.31-.67,19.88,19.88,0,0,0,3.78-1.52,21.33,21.33,0,0,0,2.43-1.51,2.74,2.74,0,0,1,1.31-.67.92.92,0,0,1,.82.41l1.06,1.3a11.1,11.1,0,0,1-2.6,2.29,18.42,18.42,0,0,1-3.59,1.82,26.35,26.35,0,0,1-4.25,1.21,23.31,23.31,0,0,1-4.56.45,19.33,19.33,0,0,1-7.6-1.46,16.21,16.21,0,0,1-5.9-4.23,19.38,19.38,0,0,1-3.8-6.81,29.06,29.06,0,0,1-1.34-9.22,25.05,25.05,0,0,1,1.24-8.07,18.48,18.48,0,0,1,3.6-6.38,16.31,16.31,0,0,1,5.76-4.19A18.91,18.91,0,0,1,1793.92,416.61Zm.06,2.9a15.22,15.22,0,0,0-5.63,1,12.34,12.34,0,0,0-4.3,2.82,14.19,14.19,0,0,0-2.94,4.42,19.73,19.73,0,0,0-1.49,5.76h26.78a18,18,0,0,0-.9-5.86,12.57,12.57,0,0,0-2.54-4.39,10.86,10.86,0,0,0-3.91-2.76A13,13,0,0,0,1794,419.51Z"/><path class="cls-3" d="M1820.37,457.95V417.26h2.13a1.1,1.1,0,0,1,1.22,1l.37,6.13a23,23,0,0,1,6.48-5.66,16.16,16.16,0,0,1,8.24-2.15,15.27,15.27,0,0,1,5.91,1.06,10.8,10.8,0,0,1,4.22,3.07,13.43,13.43,0,0,1,2.54,4.82,21.76,21.76,0,0,1,.86,6.38v26h-3.89v-26q0-5.72-2.62-9t-8-3.25a14.22,14.22,0,0,0-7.44,2.06,21.66,21.66,0,0,0-6.13,5.66v30.5Z"/><path class="cls-3" d="M1887,422.33a1,1,0,0,1-.91.58,2.18,2.18,0,0,1-1.16-.51,19.75,19.75,0,0,0-1.88-1.14,16,16,0,0,0-2.87-1.14,14.64,14.64,0,0,0-4.14-.51,12.1,12.1,0,0,0-4,.63,9.74,9.74,0,0,0-3.11,1.69,7.62,7.62,0,0,0-2,2.47,6.37,6.37,0,0,0-.72,3,5,5,0,0,0,1,3.18,8.4,8.4,0,0,0,2.57,2.16,20,20,0,0,0,3.62,1.55q2,.65,4.15,1.3t4.14,1.45a15.76,15.76,0,0,1,3.62,2,9.26,9.26,0,0,1,2.57,2.9,8.26,8.26,0,0,1,1,4.17,12.69,12.69,0,0,1-1,5,11.22,11.22,0,0,1-2.79,4,13.33,13.33,0,0,1-4.47,2.65,17.35,17.35,0,0,1-6.05,1,18.21,18.21,0,0,1-7.4-1.38,20.66,20.66,0,0,1-5.56-3.58l.94-1.39a1.61,1.61,0,0,1,.45-.49,1.25,1.25,0,0,1,.69-.16,2.26,2.26,0,0,1,1.31.65,14.49,14.49,0,0,0,2,1.41,16.3,16.3,0,0,0,3.11,1.41,13.77,13.77,0,0,0,4.6.66,13.42,13.42,0,0,0,4.54-.71,9.48,9.48,0,0,0,3.27-1.94,8.16,8.16,0,0,0,2-2.88,9.15,9.15,0,0,0,.67-3.5,5.62,5.62,0,0,0-1-3.4,8.39,8.39,0,0,0-2.57-2.29,18.33,18.33,0,0,0-3.62-1.59q-2-.67-4.17-1.31t-4.17-1.43a15,15,0,0,1-3.62-2,9.63,9.63,0,0,1-2.57-2.88,8.34,8.34,0,0,1-1-4.23,9.77,9.77,0,0,1,.94-4.17,10.6,10.6,0,0,1,2.68-3.51,13.1,13.1,0,0,1,4.23-2.41,16.38,16.38,0,0,1,5.61-.91,18.79,18.79,0,0,1,6.6,1.08,16.23,16.23,0,0,1,5.29,3.29Z"/></g></svg>