<svg id="Camada_1" data-name="Camada 1" xmlns="http://www.w3.org/2000/svg" xmlns:xlink="http://www.w3.org/1999/xlink" viewBox="0 0 1780 786"><defs><style>.cls-1{fill:none;}.cls-2{clip-path:url(#clip-path);}.cls-3{clip-path:url(#clip-path-2);}.cls-4{fill:#111;}.cls-5{fill:#e6e6e6;}.cls-6{fill:#6a6a6a;}</style><clipPath id="clip-path"><rect class="cls-1" x="-1953" width="1780" height="786"/></clipPath><clipPath id="clip-path-2"><rect class="cls-1" width="1780" height="786"/></clipPath></defs><title>CLA_logo</title><g class="cls-2"><rect class="cls-1" x="-1928" y="-6" width="2036" height="699"/></g><g class="cls-3"><rect class="cls-4" x="-26" y="-19.5" width="1832" height="825"/><path class="cls-5" d="M1032.4,278.52a.88.88,0,0,1,.65.27l1.53,1.65a25.21,25.21,0,0,1-3.68,3.24,22.9,22.9,0,0,1-4.36,2.46,26,26,0,0,1-5.18,1.57,32.47,32.47,0,0,1-6.2.56,26.31,26.31,0,0,1-10.35-2,23,23,0,0,1-8.07-5.6,25.9,25.9,0,0,1-5.24-8.77,33.25,33.25,0,0,1-1.88-11.44,31.57,31.57,0,0,1,1.94-11.29,25.62,25.62,0,0,1,5.45-8.77,24.4,24.4,0,0,1,8.42-5.68,28.15,28.15,0,0,1,10.81-2,30.88,30.88,0,0,1,5.41.44,24.53,24.53,0,0,1,4.59,1.27,21.23,21.23,0,0,1,4,2.06,30.72,30.72,0,0,1,3.68,2.84l-1.19,1.72a1.06,1.06,0,0,1-1,.46,1.63,1.63,0,0,1-.88-.4l-1.37-1c-.55-.4-1.22-.83-2-1.31a16.42,16.42,0,0,0-2.78-1.3,23,23,0,0,0-3.72-1,25.91,25.91,0,0,0-4.8-.41,23.57,23.57,0,0,0-9.1,1.72,20.18,20.18,0,0,0-7.14,4.87,22.09,22.09,0,0,0-4.67,7.67,28.93,28.93,0,0,0-1.67,10.12,29.91,29.91,0,0,0,1.65,10.28,22.2,22.2,0,0,0,4.57,7.67,19.85,19.85,0,0,0,6.89,4.8,22.12,22.12,0,0,0,8.62,1.67,31.42,31.42,0,0,0,5.21-.38,20.77,20.77,0,0,0,4.2-1.15,19.18,19.18,0,0,0,3.57-1.88,26.8,26.8,0,0,0,3.27-2.61,2.82,2.82,0,0,1,.36-.25A.8.8,0,0,1,1032.4,278.52Z"/><path class="cls-5" d="M1069.49,287.66a1.32,1.32,0,0,1-1.42-1.07l-.53-4.87c-1,1-2.1,1.94-3.13,2.77a18.49,18.49,0,0,1-3.24,2.07,16.18,16.18,0,0,1-3.65,1.29,19.76,19.76,0,0,1-4.3.44,12.65,12.65,0,0,1-3.8-.57,9.4,9.4,0,0,1-3.27-1.77,8.7,8.7,0,0,1-2.28-3.06,10.58,10.58,0,0,1-.87-4.47,7.93,7.93,0,0,1,1.38-4.49,11.37,11.37,0,0,1,4.32-3.61,28.58,28.58,0,0,1,7.57-2.46,67,67,0,0,1,11.12-1.07v-4q0-5.3-2.28-8.16t-6.77-2.86a12.69,12.69,0,0,0-4.71.77,16.94,16.94,0,0,0-3.28,1.68,21.3,21.3,0,0,0-2.18,1.69,2.36,2.36,0,0,1-1.42.77,1.23,1.23,0,0,1-1.15-.69l-.66-1.11a22.24,22.24,0,0,1,6.3-4.53,17.55,17.55,0,0,1,7.49-1.53,13.72,13.72,0,0,1,5.37,1,10,10,0,0,1,3.82,2.81,12.22,12.22,0,0,1,2.29,4.42,20.39,20.39,0,0,1,.77,5.77v24.88Zm-15.37-2a16.11,16.11,0,0,0,4.09-.48,15.13,15.13,0,0,0,3.46-1.34,16.77,16.77,0,0,0,3-2.06q1.39-1.19,2.72-2.57v-9.95a68.79,68.79,0,0,0-9.39.82,27.22,27.22,0,0,0-6.48,1.82,9.45,9.45,0,0,0-3.77,2.75,5.81,5.81,0,0,0-1.21,3.62,8,8,0,0,0,.63,3.32,6.71,6.71,0,0,0,1.67,2.3,6.6,6.6,0,0,0,2.42,1.32A9.72,9.72,0,0,0,1054.12,285.62Zm14.17-42.85h-2.5a1.34,1.34,0,0,1-1-.46l-6-6.26a1.71,1.71,0,0,1-.42-.42.83.83,0,0,1-.19.25l-.19.17-6,6.26a1.94,1.94,0,0,1-.47.32,1.22,1.22,0,0,1-.57.13h-2.57l8.37-9.44H1060Z"/><path class="cls-5" d="M1082.46,288.27v-38.2h2a1,1,0,0,1,1.15,1l.35,5.53a24,24,0,0,1,2.38-2.88,15.8,15.8,0,0,1,2.7-2.24,12.23,12.23,0,0,1,3.07-1.46,11.16,11.16,0,0,1,3.43-.52,9.15,9.15,0,0,1,6.68,2.44,12.75,12.75,0,0,1,3.38,6.77,13.2,13.2,0,0,1,1.93-4.11,12.24,12.24,0,0,1,2.86-2.86,11.88,11.88,0,0,1,3.51-1.69,13.9,13.9,0,0,1,3.89-.56,13.21,13.21,0,0,1,5.1.94,10.26,10.26,0,0,1,3.85,2.78,12.64,12.64,0,0,1,2.43,4.53,20.38,20.38,0,0,1,.84,6.14v24.42h-3.64V263.85q0-5.6-2.42-8.54a8.43,8.43,0,0,0-6.91-2.93,10.27,10.27,0,0,0-3.82.72,9.21,9.21,0,0,0-3.22,2.17,10.5,10.5,0,0,0-2.22,3.59,13.9,13.9,0,0,0-.82,5v24.42h-3.65V263.85q0-5.56-2.22-8.52a7.63,7.63,0,0,0-6.49-2.95,9.8,9.8,0,0,0-5.76,1.86,17.71,17.71,0,0,0-4.72,5.17v28.87Z"/><path class="cls-5" d="M1167.94,287.66a1.32,1.32,0,0,1-1.42-1.07l-.53-4.87c-1,1-2.1,1.94-3.13,2.77a18.49,18.49,0,0,1-3.24,2.07,16.18,16.18,0,0,1-3.65,1.29,19.76,19.76,0,0,1-4.3.44,12.65,12.65,0,0,1-3.8-.57,9.4,9.4,0,0,1-3.27-1.77,8.7,8.7,0,0,1-2.28-3.06,10.58,10.58,0,0,1-.87-4.47,7.93,7.93,0,0,1,1.38-4.49,11.37,11.37,0,0,1,4.32-3.61,28.58,28.58,0,0,1,7.57-2.46,67,67,0,0,1,11.12-1.07v-4q0-5.3-2.28-8.16t-6.77-2.86a12.69,12.69,0,0,0-4.71.77,16.94,16.94,0,0,0-3.28,1.68,21.3,21.3,0,0,0-2.18,1.69,2.36,2.36,0,0,1-1.42.77A1.23,1.23,0,0,1,1144,256l-.66-1.11a22.24,22.24,0,0,1,6.3-4.53,17.55,17.55,0,0,1,7.49-1.53,13.72,13.72,0,0,1,5.37,1,10,10,0,0,1,3.82,2.81,12.22,12.22,0,0,1,2.29,4.42,20.39,20.39,0,0,1,.77,5.77v24.88Zm-15.37-2a16.11,16.11,0,0,0,4.09-.48,15.13,15.13,0,0,0,3.46-1.34,16.77,16.77,0,0,0,3-2.06q1.39-1.19,2.72-2.57v-9.95a68.79,68.79,0,0,0-9.39.82,27.22,27.22,0,0,0-6.48,1.82,9.45,9.45,0,0,0-3.77,2.75,5.81,5.81,0,0,0-1.21,3.62,8,8,0,0,0,.63,3.32,6.71,6.71,0,0,0,1.67,2.3,6.6,6.6,0,0,0,2.42,1.32A9.72,9.72,0,0,0,1152.57,285.62Z"/><path class="cls-5" d="M1180.91,288.27v-38.2h1.92a1.38,1.38,0,0,1,.94.27,1.36,1.36,0,0,1,.32.92l.31,8.07a18.16,18.16,0,0,1,4.92-7.28,11.22,11.22,0,0,1,7.56-2.62,13.22,13.22,0,0,1,3.19.36,12.74,12.74,0,0,1,2.77,1.06l-.5,2.53a.69.69,0,0,1-.77.62,2.14,2.14,0,0,1-.66-.15c-.28-.11-.63-.22-1-.35a12.88,12.88,0,0,0-1.56-.34,12.31,12.31,0,0,0-2.12-.16,9.81,9.81,0,0,0-7.12,2.69,19.14,19.14,0,0,0-4.52,7.76v24.84Z"/><path class="cls-5" d="M1233.87,287.66a1.32,1.32,0,0,1-1.42-1.07l-.53-4.87c-1,1-2.1,1.94-3.13,2.77a18.49,18.49,0,0,1-3.24,2.07,16.18,16.18,0,0,1-3.65,1.29,19.76,19.76,0,0,1-4.3.44,12.65,12.65,0,0,1-3.8-.57,9.4,9.4,0,0,1-3.27-1.77,8.7,8.7,0,0,1-2.28-3.06,10.58,10.58,0,0,1-.87-4.47,7.93,7.93,0,0,1,1.38-4.49,11.37,11.37,0,0,1,4.32-3.61,28.58,28.58,0,0,1,7.57-2.46,67,67,0,0,1,11.12-1.07v-4q0-5.3-2.28-8.16t-6.77-2.86a12.69,12.69,0,0,0-4.71.77,16.94,16.94,0,0,0-3.28,1.68,21.3,21.3,0,0,0-2.18,1.69,2.36,2.36,0,0,1-1.42.77,1.23,1.23,0,0,1-1.15-.69l-.66-1.11a22.24,22.24,0,0,1,6.3-4.53,17.55,17.55,0,0,1,7.49-1.53,13.72,13.72,0,0,1,5.37,1,10,10,0,0,1,3.82,2.81,12.22,12.22,0,0,1,2.29,4.42,20.39,20.39,0,0,1,.77,5.77v24.88Zm-15.37-2a16.11,16.11,0,0,0,4.09-.48,15.13,15.13,0,0,0,3.46-1.34,16.77,16.77,0,0,0,3-2.06q1.39-1.19,2.72-2.57v-9.95a68.79,68.79,0,0,0-9.39.82,27.22,27.22,0,0,0-6.48,1.82,9.45,9.45,0,0,0-3.77,2.75,5.81,5.81,0,0,0-1.21,3.62,8,8,0,0,0,.63,3.32,6.71,6.71,0,0,0,1.67,2.3,6.6,6.6,0,0,0,2.42,1.32A9.72,9.72,0,0,0,1218.51,285.62Z"/><path class="cls-5" d="M1276.95,284.93h25.76v3.34H1273V233.94h3.92Z"/><path class="cls-5" d="M1316.8,236.89a2.94,2.94,0,0,1-.29,1.29,3.81,3.81,0,0,1-.75,1.06,3.44,3.44,0,0,1-1.07.72,3.32,3.32,0,0,1-2.61,0,3.54,3.54,0,0,1-1.07-.72,3.6,3.6,0,0,1-.73-1.06,3.17,3.17,0,0,1-.27-1.29,3.38,3.38,0,0,1,.27-1.32,3.48,3.48,0,0,1,.73-1.1,3.4,3.4,0,0,1,1.07-.72,3.23,3.23,0,0,1,2.61,0,3.31,3.31,0,0,1,1.07.72,3.67,3.67,0,0,1,.75,1.1A3.13,3.13,0,0,1,1316.8,236.89Zm-1.62,13.17v38.2h-3.64v-38.2Z"/><path class="cls-5" d="M1329.09,287.77V231.9h3.64l0,24.35a20.1,20.1,0,0,1,5.87-5.34,14.64,14.64,0,0,1,7.52-2q7,0,11,4.86t3.93,14.62a26.79,26.79,0,0,1-1.1,7.81,18.32,18.32,0,0,1-3.22,6.3,15.32,15.32,0,0,1-5.23,4.21,15.92,15.92,0,0,1-7.12,1.53,13.37,13.37,0,0,1-11.85-6.14l-.22,4.68a.94.94,0,0,1-1,1Zm16-35.9a12.53,12.53,0,0,0-6.88,2,19.4,19.4,0,0,0-5.5,5.45v20.16a13,13,0,0,0,4.85,4.62,14.84,14.84,0,0,0,12,.1,11.62,11.62,0,0,0,4.25-3.47,15.8,15.8,0,0,0,2.58-5.37,25.92,25.92,0,0,0,.86-6.89q0-8.52-3.15-12.54T1345.12,251.88Z"/><path class="cls-5" d="M1385,249a15.75,15.75,0,0,1,6,1.12,13.39,13.39,0,0,1,4.76,3.24,14.83,14.83,0,0,1,3.15,5.24,20.75,20.75,0,0,1,1.13,7.14,1.93,1.93,0,0,1-.25,1.16,1,1,0,0,1-.78.31h-27.57v.72a25.89,25.89,0,0,0,1,7.57,15.51,15.51,0,0,0,2.84,5.47,11.73,11.73,0,0,0,4.46,3.32,14.71,14.71,0,0,0,5.83,1.12,17.69,17.69,0,0,0,5-.63,18.67,18.67,0,0,0,3.55-1.42,20,20,0,0,0,2.28-1.42,2.58,2.58,0,0,1,1.23-.63.87.87,0,0,1,.77.38l1,1.22A10.43,10.43,0,0,1,1397,285a17.3,17.3,0,0,1-3.37,1.71,24.75,24.75,0,0,1-4,1.13,21.89,21.89,0,0,1-4.28.42,18.15,18.15,0,0,1-7.14-1.37,15.22,15.22,0,0,1-5.54-4,18.2,18.2,0,0,1-3.57-6.39,27.29,27.29,0,0,1-1.26-8.66,23.53,23.53,0,0,1,1.17-7.58,17.36,17.36,0,0,1,3.38-6,15.31,15.31,0,0,1,5.41-3.93A17.76,17.76,0,0,1,1385,249Zm.06,2.72a14.29,14.29,0,0,0-5.29.92,11.59,11.59,0,0,0-4,2.65,13.33,13.33,0,0,0-2.76,4.15,18.53,18.53,0,0,0-1.4,5.41h25.15a16.91,16.91,0,0,0-.84-5.51,11.8,11.8,0,0,0-2.38-4.12,10.2,10.2,0,0,0-3.67-2.59A12.2,12.2,0,0,0,1385.09,251.68Z"/><path class="cls-5" d="M1409.87,288.27v-38.2h1.92a1.38,1.38,0,0,1,.94.27,1.36,1.36,0,0,1,.32.92l.31,8.07a18.16,18.16,0,0,1,4.92-7.28,11.22,11.22,0,0,1,7.56-2.62,13.22,13.22,0,0,1,3.19.36,12.74,12.74,0,0,1,2.77,1.06l-.5,2.53a.69.69,0,0,1-.77.62,2.14,2.14,0,0,1-.66-.15c-.28-.11-.63-.22-1-.35a12.88,12.88,0,0,0-1.56-.34,12.31,12.31,0,0,0-2.12-.16,9.81,9.81,0,0,0-7.12,2.69,19.14,19.14,0,0,0-4.52,7.76v24.84Z"/><path class="cls-5" d="M1450.77,288.27a8.14,8.14,0,0,1-6-2.15q-2.15-2.15-2.15-6.65V253.37h-5.49a1,1,0,0,1-.69-.23.79.79,0,0,1-.27-.65v-1.42l6.52-.47.91-13.67a1.07,1.07,0,0,1,.29-.62.85.85,0,0,1,.66-.27h1.72v14.59h12v2.72h-12v25.91a8.14,8.14,0,0,0,.4,2.71,5,5,0,0,0,1.12,1.87,4.36,4.36,0,0,0,1.67,1.07,6.23,6.23,0,0,0,2.07.34,6.43,6.43,0,0,0,2.38-.4,10.39,10.39,0,0,0,1.72-.88,11.38,11.38,0,0,0,1.19-.88,1.32,1.32,0,0,1,.72-.4.83.83,0,0,1,.62.38l1,1.61a10.62,10.62,0,0,1-3.71,2.59A11.47,11.47,0,0,1,1450.77,288.27Z"/><path class="cls-5" d="M1492.12,287.66a1.32,1.32,0,0,1-1.42-1.07l-.53-4.87c-1,1-2.1,1.94-3.13,2.77a18.49,18.49,0,0,1-3.24,2.07,16.18,16.18,0,0,1-3.65,1.29,19.76,19.76,0,0,1-4.3.44,12.65,12.65,0,0,1-3.8-.57,9.4,9.4,0,0,1-3.27-1.77,8.7,8.7,0,0,1-2.28-3.06,10.58,10.58,0,0,1-.87-4.47,7.93,7.93,0,0,1,1.38-4.49,11.37,11.37,0,0,1,4.32-3.61,28.58,28.58,0,0,1,7.57-2.46,67,67,0,0,1,11.12-1.07v-4q0-5.3-2.28-8.16t-6.77-2.86a12.69,12.69,0,0,0-4.71.77,16.94,16.94,0,0,0-3.28,1.68,21.3,21.3,0,0,0-2.18,1.69,2.36,2.36,0,0,1-1.42.77,1.23,1.23,0,0,1-1.15-.69l-.66-1.11a22.24,22.24,0,0,1,6.3-4.53,17.55,17.55,0,0,1,7.49-1.53,13.72,13.72,0,0,1,5.37,1,10,10,0,0,1,3.82,2.81,12.22,12.22,0,0,1,2.29,4.42,20.39,20.39,0,0,1,.77,5.77v24.88Zm-15.37-2a16.11,16.11,0,0,0,4.09-.48,15.13,15.13,0,0,0,3.46-1.34,16.77,16.77,0,0,0,3-2.06q1.39-1.19,2.72-2.57v-9.95a68.79,68.79,0,0,0-9.39.82,27.22,27.22,0,0,0-6.48,1.82,9.45,9.45,0,0,0-3.77,2.75,5.81,5.81,0,0,0-1.21,3.62,8,8,0,0,0,.63,3.32,6.71,6.71,0,0,0,1.67,2.3,6.6,6.6,0,0,0,2.42,1.32A9.72,9.72,0,0,0,1476.75,285.62Zm12.82-52.91-8.29,9.72a1.67,1.67,0,0,1-.63.52,2,2,0,0,1-.78.13h-2.19l6-9.14a2.17,2.17,0,0,1,2.27-1.22Z"/><path class="cls-5" d="M1505.09,288.27v-38.2H1507a1.38,1.38,0,0,1,.94.27,1.36,1.36,0,0,1,.32.92l.31,8.07a18.16,18.16,0,0,1,4.92-7.28,11.22,11.22,0,0,1,7.56-2.62,13.22,13.22,0,0,1,3.19.36,12.74,12.74,0,0,1,2.77,1.06l-.5,2.53a.69.69,0,0,1-.77.62,2.14,2.14,0,0,1-.66-.15c-.28-.11-.63-.22-1-.35a12.88,12.88,0,0,0-1.56-.34,12.31,12.31,0,0,0-2.12-.16,9.81,9.81,0,0,0-7.12,2.69,19.14,19.14,0,0,0-4.52,7.76v24.84Z"/><path class="cls-5" d="M1541.92,236.89a2.94,2.94,0,0,1-.29,1.29,3.81,3.81,0,0,1-.75,1.06,3.44,3.44,0,0,1-1.07.72,3.32,3.32,0,0,1-2.61,0,3.54,3.54,0,0,1-1.07-.72,3.6,3.6,0,0,1-.73-1.06,3.17,3.17,0,0,1-.27-1.29,3.38,3.38,0,0,1,.27-1.32,3.48,3.48,0,0,1,.73-1.1,3.4,3.4,0,0,1,1.07-.72,3.23,3.23,0,0,1,2.61,0,3.31,3.31,0,0,1,1.07.72,3.67,3.67,0,0,1,.75,1.1A3.13,3.13,0,0,1,1541.92,236.89Zm-1.62,13.17v38.2h-3.64v-38.2Z"/><path class="cls-5" d="M1578.21,287.66a1.32,1.32,0,0,1-1.42-1.07l-.53-4.87c-1,1-2.1,1.94-3.13,2.77a18.49,18.49,0,0,1-3.24,2.07,16.18,16.18,0,0,1-3.65,1.29,19.76,19.76,0,0,1-4.3.44,12.65,12.65,0,0,1-3.8-.57,9.4,9.4,0,0,1-3.27-1.77,8.7,8.7,0,0,1-2.28-3.06,10.58,10.58,0,0,1-.87-4.47,7.93,7.93,0,0,1,1.38-4.49,11.37,11.37,0,0,1,4.32-3.61,28.58,28.58,0,0,1,7.57-2.46,67,67,0,0,1,11.12-1.07v-4q0-5.3-2.28-8.16t-6.77-2.86a12.69,12.69,0,0,0-4.71.77,16.94,16.94,0,0,0-3.28,1.68,21.3,21.3,0,0,0-2.18,1.69,2.36,2.36,0,0,1-1.42.77,1.23,1.23,0,0,1-1.15-.69l-.66-1.11a22.24,22.24,0,0,1,6.3-4.53,17.55,17.55,0,0,1,7.49-1.53,13.72,13.72,0,0,1,5.37,1,10,10,0,0,1,3.82,2.81,12.22,12.22,0,0,1,2.29,4.42,20.39,20.39,0,0,1,.77,5.77v24.88Zm-15.37-2a16.11,16.11,0,0,0,4.09-.48,15.13,15.13,0,0,0,3.46-1.34,16.77,16.77,0,0,0,3-2.06q1.39-1.19,2.72-2.57v-9.95a68.79,68.79,0,0,0-9.39.82,27.22,27.22,0,0,0-6.48,1.82,9.45,9.45,0,0,0-3.77,2.75,5.81,5.81,0,0,0-1.21,3.62,8,8,0,0,0,.63,3.32,6.71,6.71,0,0,0,1.67,2.3,6.6,6.6,0,0,0,2.42,1.32A9.72,9.72,0,0,0,1562.85,285.62Z"/><path class="cls-5" d="M1069.92,398a1,1,0,0,1-1.1-1l-.38-6a20.36,20.36,0,0,1-5.94,5.49,14.57,14.57,0,0,1-7.63,2q-7,0-11-4.87t-3.94-14.63a27.14,27.14,0,0,1,1.09-7.82,18.52,18.52,0,0,1,3.23-6.29,15.32,15.32,0,0,1,5.23-4.21,15.82,15.82,0,0,1,7.13-1.53,14.65,14.65,0,0,1,6.72,1.44,14.12,14.12,0,0,1,4.92,4.2V342.09h3.64V398Zm-14-2.46a12.55,12.55,0,0,0,6.88-2,19.62,19.62,0,0,0,5.5-5.45V367.93a13.55,13.55,0,0,0-16.88-4.72,11.48,11.48,0,0,0-4.25,3.47,15.73,15.73,0,0,0-2.58,5.37,25.87,25.87,0,0,0-.87,6.89q0,8.52,3.16,12.54T1055.9,395.5Z"/><path class="cls-5" d="M1099.15,359.13a15.75,15.75,0,0,1,6,1.12,13.39,13.39,0,0,1,4.76,3.24,14.83,14.83,0,0,1,3.15,5.24,20.75,20.75,0,0,1,1.13,7.14,1.93,1.93,0,0,1-.25,1.16,1,1,0,0,1-.78.31h-27.57v.72a25.89,25.89,0,0,0,1,7.57,15.51,15.51,0,0,0,2.84,5.47,11.73,11.73,0,0,0,4.46,3.32,14.71,14.71,0,0,0,5.83,1.12,17.69,17.69,0,0,0,5-.63,18.67,18.67,0,0,0,3.55-1.42,20,20,0,0,0,2.28-1.42,2.58,2.58,0,0,1,1.23-.63.87.87,0,0,1,.77.38l1,1.22a10.43,10.43,0,0,1-2.44,2.15,17.3,17.3,0,0,1-3.37,1.71,24.75,24.75,0,0,1-4,1.13,21.89,21.89,0,0,1-4.28.42,18.15,18.15,0,0,1-7.14-1.37,15.22,15.22,0,0,1-5.54-4,18.2,18.2,0,0,1-3.57-6.39,27.29,27.29,0,0,1-1.26-8.66,23.53,23.53,0,0,1,1.17-7.58,17.36,17.36,0,0,1,3.38-6,15.31,15.31,0,0,1,5.41-3.93A17.76,17.76,0,0,1,1099.15,359.13Zm.06,2.72a14.29,14.29,0,0,0-5.29.92,11.59,11.59,0,0,0-4,2.65,13.33,13.33,0,0,0-2.76,4.15,18.53,18.53,0,0,0-1.4,5.41h25.15a16.91,16.91,0,0,0-.84-5.51,11.8,11.8,0,0,0-2.38-4.12,10.2,10.2,0,0,0-3.67-2.59A12.2,12.2,0,0,0,1099.21,361.86Z"/><path class="cls-5" d="M1199.39,397.84h-3a1.34,1.34,0,0,1-.88-.29,2,2,0,0,1-.53-.74L1188.52,381h-26.68l-6.37,15.78a1.68,1.68,0,0,1-.54.72,1.4,1.4,0,0,1-.92.31h-3l22.23-54.33h3.92ZM1163,378.1h24.35l-11.1-27.45c-.17-.43-.36-.93-.53-1.48s-.36-1.13-.54-1.74c-.17.61-.36,1.19-.53,1.74s-.36,1.06-.54,1.52Z"/><path class="cls-5" d="M1231.3,364.74c-.13.12-.25.23-.37.32a.76.76,0,0,1-.48.13,2,2,0,0,1-1-.52,14.91,14.91,0,0,0-1.79-1.13,15.34,15.34,0,0,0-2.78-1.13,13.87,13.87,0,0,0-4-.52,14,14,0,0,0-5.86,1.17,11.72,11.72,0,0,0-4.3,3.37,15.54,15.54,0,0,0-2.67,5.3,24.43,24.43,0,0,0-.92,7,24.76,24.76,0,0,0,.94,7.14,15.17,15.17,0,0,0,2.67,5.24,11.28,11.28,0,0,0,4.18,3.25,13.06,13.06,0,0,0,5.45,1.11,14.26,14.26,0,0,0,4.63-.65,14.92,14.92,0,0,0,3.07-1.42,13.77,13.77,0,0,0,1.92-1.42,2,2,0,0,1,1.12-.65.89.89,0,0,1,.77.38l1,1.22a11,11,0,0,1-2.22,2.15,15.24,15.24,0,0,1-3,1.73,19.24,19.24,0,0,1-3.67,1.13,20.74,20.74,0,0,1-4.12.4,16.39,16.39,0,0,1-6.67-1.32,14.51,14.51,0,0,1-5.18-3.84,18,18,0,0,1-3.37-6.16,28.7,28.7,0,0,1-.06-16.28,17.9,17.9,0,0,1,3.36-6.22,15,15,0,0,1,5.42-4,17.77,17.77,0,0,1,7.35-1.44,17.36,17.36,0,0,1,6.62,1.19,16.16,16.16,0,0,1,5,3.22Z"/><path class="cls-5" d="M1255.64,359a18.21,18.21,0,0,1,7.35,1.41,15,15,0,0,1,5.47,4,17.66,17.66,0,0,1,3.4,6.21,28.79,28.79,0,0,1,0,16.22,17.66,17.66,0,0,1-3.4,6.17,14.8,14.8,0,0,1-5.47,4,20.24,20.24,0,0,1-14.71,0,15,15,0,0,1-5.48-4,17.44,17.44,0,0,1-3.42-6.17,28.79,28.79,0,0,1,0-16.22,17.45,17.45,0,0,1,3.42-6.21,15.18,15.18,0,0,1,5.48-4A18.28,18.28,0,0,1,1255.64,359Zm0,36.44a14.14,14.14,0,0,0,6-1.17,11.32,11.32,0,0,0,4.27-3.36,14.79,14.79,0,0,0,2.55-5.28,28.6,28.6,0,0,0,0-13.84,14.81,14.81,0,0,0-2.55-5.32,11.34,11.34,0,0,0-4.27-3.4,15.55,15.55,0,0,0-11.94,0,11.38,11.38,0,0,0-4.26,3.4,15.13,15.13,0,0,0-2.57,5.32,28.06,28.06,0,0,0,0,13.84,15.1,15.1,0,0,0,2.57,5.28,11.36,11.36,0,0,0,4.26,3.36A14.18,14.18,0,0,0,1255.64,395.46Z"/><path class="cls-5" d="M1282.63,397.84v-38.2h1.92a1.38,1.38,0,0,1,.94.27,1.36,1.36,0,0,1,.32.92l.31,8.07a18.16,18.16,0,0,1,4.92-7.28,11.22,11.22,0,0,1,7.56-2.62,13.22,13.22,0,0,1,3.19.36,12.74,12.74,0,0,1,2.77,1.06l-.5,2.53a.69.69,0,0,1-.77.62,2.14,2.14,0,0,1-.66-.15c-.28-.11-.63-.22-1-.35a12.88,12.88,0,0,0-1.56-.34,12.31,12.31,0,0,0-2.12-.16,9.81,9.81,0,0,0-7.12,2.69,19.14,19.14,0,0,0-4.52,7.76v24.84Z"/><path class="cls-5" d="M1340.22,397.84a1,1,0,0,1-1.1-1l-.38-6a20.36,20.36,0,0,1-5.94,5.49,14.57,14.57,0,0,1-7.63,2q-7,0-11-4.87t-3.94-14.63a27.14,27.14,0,0,1,1.09-7.82,18.52,18.52,0,0,1,3.23-6.29,15.32,15.32,0,0,1,5.23-4.21,15.82,15.82,0,0,1,7.13-1.53,14.65,14.65,0,0,1,6.72,1.44,14.12,14.12,0,0,1,4.92,4.2V342h3.64v55.87Zm-14-2.46a12.55,12.55,0,0,0,6.88-2,19.62,19.62,0,0,0,5.5-5.45V367.82a13.55,13.55,0,0,0-16.88-4.72,11.48,11.48,0,0,0-4.25,3.47,15.73,15.73,0,0,0-2.58,5.37,25.87,25.87,0,0,0-.87,6.89q0,8.52,3.16,12.54T1326.2,395.38Z"/><path class="cls-5" d="M1369.61,359a18.21,18.21,0,0,1,7.35,1.41,15,15,0,0,1,5.47,4,17.66,17.66,0,0,1,3.4,6.21,28.79,28.79,0,0,1,0,16.22,17.66,17.66,0,0,1-3.4,6.17,14.8,14.8,0,0,1-5.47,4,20.24,20.24,0,0,1-14.71,0,15,15,0,0,1-5.48-4,17.44,17.44,0,0,1-3.42-6.17,28.79,28.79,0,0,1,0-16.22,17.45,17.45,0,0,1,3.42-6.21,15.18,15.18,0,0,1,5.48-4A18.28,18.28,0,0,1,1369.61,359Zm0,36.44a14.14,14.14,0,0,0,6-1.17,11.32,11.32,0,0,0,4.27-3.36,14.79,14.79,0,0,0,2.55-5.28,28.6,28.6,0,0,0,0-13.84,14.81,14.81,0,0,0-2.55-5.32,11.34,11.34,0,0,0-4.27-3.4,15.55,15.55,0,0,0-11.94,0,11.38,11.38,0,0,0-4.26,3.4,15.13,15.13,0,0,0-2.57,5.32,28.06,28.06,0,0,0,0,13.84,15.1,15.1,0,0,0,2.57,5.28,11.36,11.36,0,0,0,4.26,3.36A14.18,14.18,0,0,0,1369.61,395.46Z"/><path class="cls-5" d="M1417.64,364.39a.9.9,0,0,1-.85.54,2,2,0,0,1-1.09-.48,18.55,18.55,0,0,0-1.77-1.07,15,15,0,0,0-2.69-1.07,13.75,13.75,0,0,0-3.89-.47,11.37,11.37,0,0,0-3.78.59,9.15,9.15,0,0,0-2.92,1.59,7.15,7.15,0,0,0-1.88,2.32,6,6,0,0,0-.67,2.77,4.7,4.7,0,0,0,.92,3,7.89,7.89,0,0,0,2.42,2,18.79,18.79,0,0,0,3.4,1.46q1.9.61,3.9,1.22t3.89,1.36A14.8,14.8,0,0,1,1416,380a8.7,8.7,0,0,1,2.42,2.72,7.76,7.76,0,0,1,.92,3.92,11.92,11.92,0,0,1-.9,4.65,10.53,10.53,0,0,1-2.62,3.72,12.51,12.51,0,0,1-4.2,2.49,16.29,16.29,0,0,1-5.68.92,17.1,17.1,0,0,1-6.95-1.29,19.4,19.4,0,0,1-5.22-3.36l.88-1.31a1.51,1.51,0,0,1,.42-.46,1.17,1.17,0,0,1,.65-.15,2.12,2.12,0,0,1,1.23.61,13.61,13.61,0,0,0,1.9,1.32,15.31,15.31,0,0,0,2.92,1.32,12.93,12.93,0,0,0,4.32.62,12.6,12.6,0,0,0,4.27-.67,8.9,8.9,0,0,0,3.07-1.82,7.67,7.67,0,0,0,1.87-2.71,8.59,8.59,0,0,0,.63-3.28,5.28,5.28,0,0,0-.92-3.19,7.88,7.88,0,0,0-2.42-2.15,17.21,17.21,0,0,0-3.4-1.49q-1.9-.62-3.92-1.23t-3.92-1.34A14.13,14.13,0,0,1,1398,376a9,9,0,0,1-2.42-2.71,7.84,7.84,0,0,1-.92-4,9.17,9.17,0,0,1,.88-3.92,10,10,0,0,1,2.52-3.3,12.31,12.31,0,0,1,4-2.27,15.38,15.38,0,0,1,5.27-.85,17.65,17.65,0,0,1,6.2,1,15.24,15.24,0,0,1,5,3.09Z"/><path class="cls-5" d="M1105.86,469.32a15.75,15.75,0,0,1,6,1.12,13.39,13.39,0,0,1,4.76,3.24,14.83,14.83,0,0,1,3.15,5.24,20.75,20.75,0,0,1,1.13,7.14,1.93,1.93,0,0,1-.25,1.16,1,1,0,0,1-.78.31h-27.57v.72a25.89,25.89,0,0,0,1,7.57,15.51,15.51,0,0,0,2.84,5.47,11.73,11.73,0,0,0,4.46,3.32,14.71,14.71,0,0,0,5.83,1.12,17.69,17.69,0,0,0,5-.63,18.67,18.67,0,0,0,3.55-1.42,20,20,0,0,0,2.28-1.42,2.58,2.58,0,0,1,1.23-.63.87.87,0,0,1,.77.38l1,1.22a10.43,10.43,0,0,1-2.44,2.15,17.3,17.3,0,0,1-3.37,1.71,24.75,24.75,0,0,1-4,1.13,21.89,21.89,0,0,1-4.28.42,18.15,18.15,0,0,1-7.14-1.37,15.22,15.22,0,0,1-5.54-4,18.2,18.2,0,0,1-3.57-6.39,27.29,27.29,0,0,1-1.26-8.66,23.53,23.53,0,0,1,1.17-7.58,17.36,17.36,0,0,1,3.38-6,15.31,15.31,0,0,1,5.41-3.93A17.76,17.76,0,0,1,1105.86,469.32Zm.06,2.72a14.29,14.29,0,0,0-5.29.92,11.59,11.59,0,0,0-4,2.65,13.33,13.33,0,0,0-2.76,4.15,18.53,18.53,0,0,0-1.4,5.41h25.15a16.91,16.91,0,0,0-.84-5.51,11.8,11.8,0,0,0-2.38-4.12,10.2,10.2,0,0,0-3.67-2.59A12.2,12.2,0,0,0,1105.92,472Z"/><path class="cls-5" d="M1200.77,507.85h-3a1.34,1.34,0,0,1-.88-.29,2,2,0,0,1-.53-.74L1189.91,491h-26.68l-6.37,15.78a1.68,1.68,0,0,1-.54.72,1.4,1.4,0,0,1-.92.31h-3l22.23-54.33h3.92Zm-36.36-19.74h24.35l-11.1-27.45c-.17-.43-.36-.93-.53-1.48s-.36-1.13-.54-1.74c-.17.61-.36,1.19-.53,1.74s-.36,1.06-.54,1.52Z"/><path class="cls-5" d="M1207.53,507.85v-38.2h1.92a1.38,1.38,0,0,1,.94.27,1.36,1.36,0,0,1,.32.92l.31,8.07a18.16,18.16,0,0,1,4.92-7.28,11.22,11.22,0,0,1,7.56-2.62,13.22,13.22,0,0,1,3.19.36,12.74,12.74,0,0,1,2.77,1.06l-.5,2.53a.69.69,0,0,1-.77.62,2.14,2.14,0,0,1-.66-.15c-.28-.11-.63-.22-1-.35a12.88,12.88,0,0,0-1.56-.34,12.31,12.31,0,0,0-2.12-.16,9.81,9.81,0,0,0-7.12,2.69,19.14,19.14,0,0,0-4.52,7.76v24.84Z"/><path class="cls-5" d="M1238.41,507.85V452h3.64l0,24.35A20.1,20.1,0,0,1,1248,471a14.64,14.64,0,0,1,7.52-2q7,0,11,4.86t3.93,14.62a26.79,26.79,0,0,1-1.1,7.81,18.32,18.32,0,0,1-3.22,6.3,15.32,15.32,0,0,1-5.23,4.21,15.92,15.92,0,0,1-7.12,1.53,13.37,13.37,0,0,1-11.85-6.14l-.22,4.68a.94.94,0,0,1-1,1Zm16-35.9a12.53,12.53,0,0,0-6.88,2,19.4,19.4,0,0,0-5.5,5.45v20.16a13,13,0,0,0,4.85,4.62,14.84,14.84,0,0,0,12,.1,11.62,11.62,0,0,0,4.25-3.47,15.8,15.8,0,0,0,2.58-5.37,25.92,25.92,0,0,0,.86-6.89q0-8.52-3.15-12.54T1254.43,472Z"/><path class="cls-5" d="M1286.29,456.47a2.94,2.94,0,0,1-.29,1.29,3.81,3.81,0,0,1-.75,1.06,3.44,3.44,0,0,1-1.07.72,3.32,3.32,0,0,1-2.61,0,3.54,3.54,0,0,1-1.07-.72,3.6,3.6,0,0,1-.73-1.06,3.17,3.17,0,0,1-.27-1.29,3.38,3.38,0,0,1,.27-1.32,3.48,3.48,0,0,1,.73-1.1,3.4,3.4,0,0,1,1.07-.72,3.23,3.23,0,0,1,2.61,0,3.31,3.31,0,0,1,1.07.72,3.67,3.67,0,0,1,.75,1.1A3.13,3.13,0,0,1,1286.29,456.47Zm-1.62,13.17v38.2H1281v-38.2Z"/><path class="cls-5" d="M1308.6,508.47a8.14,8.14,0,0,1-6-2.15q-2.15-2.15-2.15-6.65V473.56h-5.49a1,1,0,0,1-.69-.23.79.79,0,0,1-.27-.65v-1.42l6.52-.47.91-13.67a1.07,1.07,0,0,1,.29-.62.85.85,0,0,1,.66-.27h1.72v14.59h12v2.72h-12v25.91a8.14,8.14,0,0,0,.4,2.71,5,5,0,0,0,1.12,1.87,4.36,4.36,0,0,0,1.67,1.07,6.23,6.23,0,0,0,2.07.34,6.43,6.43,0,0,0,2.38-.4,10.39,10.39,0,0,0,1.72-.88,11.38,11.38,0,0,0,1.19-.88,1.32,1.32,0,0,1,.72-.4.83.83,0,0,1,.62.38l1,1.61a10.62,10.62,0,0,1-3.71,2.59A11.47,11.47,0,0,1,1308.6,508.47Z"/><path class="cls-5" d="M1325.56,507.85v-38.2h1.92a1.38,1.38,0,0,1,.94.27,1.36,1.36,0,0,1,.32.92l.31,8.07a18.16,18.16,0,0,1,4.92-7.28,11.22,11.22,0,0,1,7.56-2.62,13.22,13.22,0,0,1,3.19.36,12.74,12.74,0,0,1,2.77,1.06l-.5,2.53a.69.69,0,0,1-.77.62,2.14,2.14,0,0,1-.66-.15c-.28-.11-.63-.22-1-.35a12.88,12.88,0,0,0-1.56-.34,12.31,12.31,0,0,0-2.12-.16,9.81,9.81,0,0,0-7.12,2.69,19.14,19.14,0,0,0-4.52,7.76v24.84Z"/><path class="cls-5" d="M1378.52,507.85a1.32,1.32,0,0,1-1.42-1.07l-.53-4.87c-1,1-2.1,1.94-3.13,2.77a18.49,18.49,0,0,1-3.24,2.07,16.18,16.18,0,0,1-3.65,1.29,19.76,19.76,0,0,1-4.3.44,12.65,12.65,0,0,1-3.8-.57,9.4,9.4,0,0,1-3.27-1.77,8.7,8.7,0,0,1-2.28-3.06,10.58,10.58,0,0,1-.87-4.47,7.93,7.93,0,0,1,1.38-4.49,11.37,11.37,0,0,1,4.32-3.61,28.58,28.58,0,0,1,7.57-2.46,67,67,0,0,1,11.12-1.07v-4q0-5.3-2.28-8.16t-6.77-2.86a12.69,12.69,0,0,0-4.71.77,16.94,16.94,0,0,0-3.28,1.68,21.3,21.3,0,0,0-2.18,1.69,2.36,2.36,0,0,1-1.42.77,1.23,1.23,0,0,1-1.15-.69l-.66-1.11a22.24,22.24,0,0,1,6.3-4.53,17.55,17.55,0,0,1,7.49-1.53,13.72,13.72,0,0,1,5.37,1,10,10,0,0,1,3.82,2.81,12.22,12.22,0,0,1,2.29,4.42A20.39,20.39,0,0,1,1380,483v24.88Zm-15.37-2a16.11,16.11,0,0,0,4.09-.48,15.13,15.13,0,0,0,3.46-1.34,16.77,16.77,0,0,0,3-2.06q1.39-1.19,2.72-2.57v-9.95a68.79,68.79,0,0,0-9.39.82,27.22,27.22,0,0,0-6.48,1.82,9.45,9.45,0,0,0-3.77,2.75,5.81,5.81,0,0,0-1.21,3.62,8,8,0,0,0,.63,3.32,6.71,6.71,0,0,0,1.67,2.3,6.6,6.6,0,0,0,2.42,1.32A9.72,9.72,0,0,0,1363.16,505.82Z"/><path class="cls-5" d="M1404.09,469a16.65,16.65,0,0,1,4.62.61,14.19,14.19,0,0,1,3.82,1.73h9.79v1.27c0,.64-.36,1-1.07,1l-5.8.42a11.15,11.15,0,0,1,1.65,3.28,12.91,12.91,0,0,1,.57,3.9,12.19,12.19,0,0,1-1,5,11.17,11.17,0,0,1-2.78,3.84,12.82,12.82,0,0,1-4.28,2.47,16.35,16.35,0,0,1-5.52.88,17.08,17.08,0,0,1-6-1,7.93,7.93,0,0,0-2.53,2.19,4.19,4.19,0,0,0-.92,2.46,3,3,0,0,0,1.16,2.53,7.45,7.45,0,0,0,3,1.28,26.4,26.4,0,0,0,4.34.52l4.95.25q2.51.14,4.95.48a15.89,15.89,0,0,1,4.34,1.21,7.74,7.74,0,0,1,3.06,2.42,6.81,6.81,0,0,1,1.15,4.13,9.46,9.46,0,0,1-1.19,4.57,12.23,12.23,0,0,1-3.43,3.88,18.16,18.16,0,0,1-5.44,2.7,23.24,23.24,0,0,1-7.14,1,26.63,26.63,0,0,1-7.06-.83,16.79,16.79,0,0,1-5.09-2.22,9.81,9.81,0,0,1-3.09-3.24,7.87,7.87,0,0,1-1-3.92,7.47,7.47,0,0,1,2-5.22,12.9,12.9,0,0,1,5.49-3.37,7.29,7.29,0,0,1-3-1.88,4.83,4.83,0,0,1-1.13-3.42,5.06,5.06,0,0,1,.31-1.69,6.79,6.79,0,0,1,.92-1.75,10,10,0,0,1,1.48-1.63,10.44,10.44,0,0,1,2-1.37,11.46,11.46,0,0,1-4.25-4.19,12,12,0,0,1-1.52-6.1,12.47,12.47,0,0,1,1-5,11.13,11.13,0,0,1,2.77-3.86,12.37,12.37,0,0,1,4.32-2.49A16.88,16.88,0,0,1,1404.09,469Zm14.17,41.43a4.25,4.25,0,0,0-.94-2.9,6.19,6.19,0,0,0-2.51-1.71,15.09,15.09,0,0,0-3.63-.87c-1.37-.17-2.8-.28-4.3-.37l-4.51-.22a34.82,34.82,0,0,1-4.22-.47,18.16,18.16,0,0,0-2.71,1.32,10,10,0,0,0-2.13,1.69,7.23,7.23,0,0,0-1.38,2.07,6.08,6.08,0,0,0-.5,2.47,6,6,0,0,0,.87,3.13,7.55,7.55,0,0,0,2.53,2.49,14.22,14.22,0,0,0,4.09,1.67,22.76,22.76,0,0,0,5.57.61,21.67,21.67,0,0,0,5.43-.65,15.14,15.14,0,0,0,4.37-1.84,9.45,9.45,0,0,0,2.92-2.84A6.6,6.6,0,0,0,1418.26,510.42ZM1404.09,491a12.51,12.51,0,0,0,4.37-.71,9.08,9.08,0,0,0,3.22-2,8.24,8.24,0,0,0,2-3,11.07,11.07,0,0,0,.67-3.92,10.65,10.65,0,0,0-.69-3.93,8.34,8.34,0,0,0-2-3.06,9.22,9.22,0,0,0-3.22-2,12.64,12.64,0,0,0-4.32-.69,12.83,12.83,0,0,0-4.34.69,9.22,9.22,0,0,0-3.24,2,8.34,8.34,0,0,0-2,3.06,10.83,10.83,0,0,0-.69,3.93,10.71,10.71,0,0,0,.69,3.92,8.31,8.31,0,0,0,2,3,9.38,9.38,0,0,0,3.24,2A12.42,12.42,0,0,0,1404.09,491Z"/><path class="cls-5" d="M1444.63,469a15.75,15.75,0,0,1,6,1.12,13.39,13.39,0,0,1,4.76,3.24,14.83,14.83,0,0,1,3.15,5.24,20.75,20.75,0,0,1,1.13,7.14,1.93,1.93,0,0,1-.25,1.16,1,1,0,0,1-.78.31H1431V488a25.89,25.89,0,0,0,1,7.57,15.51,15.51,0,0,0,2.84,5.47,11.73,11.73,0,0,0,4.46,3.32,14.71,14.71,0,0,0,5.83,1.12,17.69,17.69,0,0,0,5-.63,18.67,18.67,0,0,0,3.55-1.42A20,20,0,0,0,1456,502a2.58,2.58,0,0,1,1.23-.63.87.87,0,0,1,.77.38l1,1.22a10.43,10.43,0,0,1-2.44,2.15,17.3,17.3,0,0,1-3.37,1.71,24.75,24.75,0,0,1-4,1.13,21.89,21.89,0,0,1-4.28.42,18.15,18.15,0,0,1-7.14-1.37,15.22,15.22,0,0,1-5.54-4,18.2,18.2,0,0,1-3.57-6.39,27.29,27.29,0,0,1-1.26-8.66,23.53,23.53,0,0,1,1.17-7.58,17.36,17.36,0,0,1,3.38-6,15.31,15.31,0,0,1,5.41-3.93A17.76,17.76,0,0,1,1444.63,469Zm.06,2.72a14.29,14.29,0,0,0-5.29.92,11.59,11.59,0,0,0-4,2.65,13.33,13.33,0,0,0-2.76,4.15,18.53,18.53,0,0,0-1.4,5.41h25.15a16.91,16.91,0,0,0-.84-5.51,11.8,11.8,0,0,0-2.38-4.12,10.2,10.2,0,0,0-3.67-2.59A12.2,12.2,0,0,0,1444.69,471.75Z"/><path class="cls-5" d="M1469.47,507.85v-38.2h2a1,1,0,0,1,1.15,1l.35,5.76a21.55,21.55,0,0,1,6.08-5.32,15.17,15.17,0,0,1,7.74-2,14.34,14.34,0,0,1,5.55,1,10.14,10.14,0,0,1,4,2.88,12.61,12.61,0,0,1,2.38,4.52,20.44,20.44,0,0,1,.81,6v24.42h-3.65V483.43q0-5.37-2.46-8.42t-7.52-3a13.36,13.36,0,0,0-7,1.93,20.34,20.34,0,0,0-5.76,5.32v28.65Z"/><path class="cls-5" d="M1532.07,474.4a.9.9,0,0,1-.85.54,2,2,0,0,1-1.09-.48,18.55,18.55,0,0,0-1.77-1.07,15,15,0,0,0-2.69-1.07,13.75,13.75,0,0,0-3.89-.47,11.37,11.37,0,0,0-3.78.59,9.15,9.15,0,0,0-2.92,1.59,7.15,7.15,0,0,0-1.88,2.32,6,6,0,0,0-.67,2.77,4.7,4.7,0,0,0,.92,3,7.89,7.89,0,0,0,2.42,2,18.79,18.79,0,0,0,3.4,1.46q1.9.61,3.9,1.22t3.89,1.36a14.8,14.8,0,0,1,3.4,1.87,8.7,8.7,0,0,1,2.42,2.72,7.76,7.76,0,0,1,.92,3.92,11.92,11.92,0,0,1-.9,4.65,10.53,10.53,0,0,1-2.62,3.72,12.51,12.51,0,0,1-4.2,2.49,16.29,16.29,0,0,1-5.68.92,17.1,17.1,0,0,1-6.95-1.29,19.4,19.4,0,0,1-5.22-3.36l.88-1.31a1.51,1.51,0,0,1,.42-.46,1.17,1.17,0,0,1,.65-.15,2.12,2.12,0,0,1,1.23.61,13.61,13.61,0,0,0,1.9,1.32,15.31,15.31,0,0,0,2.92,1.32,12.93,12.93,0,0,0,4.32.62,12.6,12.6,0,0,0,4.27-.67,8.9,8.9,0,0,0,3.07-1.82,7.67,7.67,0,0,0,1.87-2.71,8.59,8.59,0,0,0,.63-3.28,5.28,5.28,0,0,0-.92-3.19A7.88,7.88,0,0,0,1527,492a17.21,17.21,0,0,0-3.4-1.49q-1.9-.62-3.92-1.23t-3.92-1.34a14.13,14.13,0,0,1-3.4-1.84,9,9,0,0,1-2.42-2.71,7.84,7.84,0,0,1-.92-4,9.17,9.17,0,0,1,.88-3.92,10,10,0,0,1,2.52-3.3,12.31,12.31,0,0,1,4-2.27,15.38,15.38,0,0,1,5.27-.85,17.65,17.65,0,0,1,6.2,1,15.24,15.24,0,0,1,5,3.09Z"/><polygon class="cls-6" points="874.68 212.25 749.35 212.15 768.95 258.24 855.09 258.24 747.24 504.34 792.38 504.34 874.68 315.6 956.99 504.34 1002.13 504.34 874.68 212.25"/><path class="cls-5" d="M516.65,212.25V525.59h73.54a128.48,128.48,0,0,0,33.69,30.72,131,131,0,0,0,41.94,16.77H467.64V212.25Z"/><path class="cls-5" d="M446.31,511.09c-19.87,11.16-42.23,16.84-67.17,16.84q-38.6,0-68.15-17.34a116.54,116.54,0,0,1-45.43-48.12q-15.88-30.79-15.88-68.89,0-37.12,17.34-68.15a133.2,133.2,0,0,1,46.42-49.09,117.56,117.56,0,0,1,63.26-18.08q35,0,69.62,20V226c-5-1.92-10.07-3.73-15.39-5.34a192.36,192.36,0,0,0-55.7-7.81q-50.32,0-90.13,23.7T222.8,302q-22.48,41.78-22.47,94,0,48.86,22.22,89.41t63.51,64.49q41.28,23.94,95.51,23.93,30.79,0,56.92-9.52c2.72-1,5.24-2,7.81-3Z"/><path class="cls-6" d="M747.88,525.74h257.2s-42.87,47.34-128.6,47.34S747.88,525.74,747.88,525.74Z"/><polygon class="cls-5" points="877.08 504.34 749.64 212.25 622.2 504.34 667.33 504.34 749.64 315.6 831.94 504.34 877.08 504.34"/><path class="cls-5" d="M623.83,525.74H881s-42.87,47.34-128.6,47.34S623.83,525.74,623.83,525.74Z"/></g></svg>