<?xml version="1.0" encoding="utf-8"?>
<!-- Generator: Adobe Illustrator 21.1.0, SVG Export Plug-In . SVG Version: 6.00 Build 0)  -->
<svg version="1.1" id="Camada_1" xmlns="http://www.w3.org/2000/svg" xmlns:xlink="http://www.w3.org/1999/xlink" x="0px" y="0px"
	 viewBox="0 0 1127 939" style="enable-background:new 0 0 1127 939;" xml:space="preserve">
<style type="text/css">
	.st0{fill:none;stroke:#000000;stroke-miterlimit:10;}
</style>
<title>CLA_logo</title>
<path d="M265.5,610.1c1.7,0,3.3,0.1,5,0.4c1.5,0.3,2.9,0.6,4.3,1.2c1.3,0.5,2.6,1.1,3.8,1.9c1.2,0.8,2.4,1.7,3.4,2.7l-1.1,1.6
	c-0.2,0.3-0.5,0.5-0.9,0.4c-0.3,0-0.6-0.2-0.8-0.4l-1.3-0.9c-0.5-0.4-1.1-0.8-1.9-1.2c-0.8-0.5-1.7-0.9-2.6-1.2
	c-1.1-0.4-2.3-0.7-3.5-0.9c-1.5-0.3-3-0.4-4.5-0.4c-2.9,0-5.8,0.5-8.5,1.6c-2.5,1-4.8,2.6-6.7,4.5c-1.9,2.1-3.4,4.5-4.4,7.2
	c-1.1,3-1.6,6.2-1.5,9.4c-0.1,3.3,0.5,6.5,1.5,9.6c0.9,2.7,2.4,5.1,4.3,7.2c1.8,1.9,4,3.5,6.4,4.5c2.5,1,5.3,1.6,8,1.6
	c1.6,0,3.3-0.1,4.9-0.4c1.3-0.2,2.7-0.6,3.9-1.1c1.2-0.5,2.3-1.1,3.3-1.8c1.1-0.7,2.1-1.5,3-2.4c0.1-0.1,0.2-0.2,0.3-0.2
	c0.1-0.1,0.2-0.1,0.4-0.1c0.2,0,0.5,0.1,0.6,0.3l1.4,1.5c-1,1.1-2.2,2.1-3.4,3c-1.2,0.9-2.6,1.7-4,2.3c-1.6,0.7-3.2,1.1-4.8,1.5
	c-1.9,0.4-3.8,0.5-5.8,0.5c-3.3,0-6.6-0.6-9.7-1.8c-2.9-1.2-5.4-3-7.5-5.2c-2.2-2.4-3.8-5.2-4.9-8.2c-1.2-3.4-1.8-7.1-1.8-10.7
	c0-3.6,0.6-7.2,1.8-10.5c1.1-3,2.9-5.8,5.1-8.2c2.2-2.3,4.9-4.1,7.9-5.3C258.6,610.7,262,610,265.5,610.1 M265.5,609.1
	c-3.6,0-7.1,0.7-10.5,2c-3.1,1.3-5.9,3.1-8.2,5.5c-2.3,2.5-4.1,5.4-5.3,8.5c-1.3,3.5-1.9,7.1-1.9,10.8c0,3.7,0.6,7.5,1.8,11
	c1.1,3.2,2.9,6.1,5.1,8.5c2.2,2.4,4.9,4.2,7.9,5.5c3.2,1.3,6.6,2,10,1.9c2,0,4-0.2,6-0.5c1.7-0.3,3.4-0.8,5-1.5
	c1.5-0.6,2.9-1.4,4.3-2.4c1.3-0.9,2.5-2,3.6-3.2l0.6-0.7l-0.6-0.7l-1.4-1.5c-0.3-0.4-0.8-0.6-1.3-0.6c-0.3,0-0.6,0.1-0.9,0.2
	c-0.2,0.1-0.3,0.2-0.5,0.3l0,0l0,0c-0.9,0.9-1.9,1.6-2.9,2.3c-1,0.7-2,1.2-3.1,1.7c-1.2,0.5-2.4,0.8-3.7,1c-1.6,0.2-3.1,0.4-4.7,0.3
	c-2.6,0-5.2-0.5-7.7-1.5c-2.3-1-4.4-2.4-6.1-4.2c-1.8-2-3.2-4.3-4.1-6.8c-1-2.9-1.5-6.1-1.5-9.2c0-3.1,0.5-6.2,1.5-9.1
	c0.9-2.5,2.3-4.9,4.1-6.8c1.8-1.9,3.9-3.3,6.3-4.3c2.6-1,5.3-1.6,8.1-1.5c1.4,0,2.9,0.1,4.3,0.4c1.1,0.2,2.2,0.5,3.3,0.9
	c0.8,0.3,1.7,0.7,2.4,1.1c0.7,0.5,1.3,0.8,1.8,1.2l1.3,0.9c0.4,0.3,0.9,0.5,1.4,0.6c0.7,0,1.3-0.3,1.7-0.9l1.1-1.6l0.5-0.7l-0.7-0.6
	c-1.1-1-2.3-1.9-3.6-2.7c-1.2-0.8-2.6-1.5-3.9-2c-1.4-0.6-2.9-1-4.5-1.2C268.9,609.2,267.2,609.1,265.5,609.1L265.5,609.1z"/>
<path d="M306.3,610.7l7.8,8.8h-2.3c-0.4,0-0.7-0.1-1-0.4l-5.6-5.8c-0.2-0.1-0.3-0.2-0.4-0.4c0,0.1-0.1,0.2-0.2,0.2l-0.2,0.2
	l-5.6,5.8c-0.1,0.1-0.3,0.2-0.4,0.3c-0.2,0.1-0.4,0.1-0.5,0.1h-2.4l7.8-8.8L306.3,610.7 M305,625.1c1.7,0,3.4,0.3,5,0.9
	c1.4,0.6,2.6,1.5,3.6,2.6c1,1.2,1.7,2.6,2.1,4.1c0.5,1.8,0.7,3.6,0.7,5.4v23.2h-1.4c-0.6,0.1-1.2-0.4-1.3-1l-0.5-4.5
	c-1,1-2,1.8-2.9,2.6c-0.9,0.7-1.9,1.4-3,1.9c-1.1,0.5-2.2,0.9-3.4,1.2c-1.3,0.3-2.7,0.4-4,0.4c-1.2,0-2.4-0.2-3.5-0.5
	c-1.1-0.3-2.1-0.9-3-1.7c-0.9-0.8-1.6-1.8-2.1-2.8c-0.6-1.3-0.8-2.7-0.8-4.2c0-1.5,0.4-3,1.3-4.2c1-1.4,2.4-2.6,4-3.4
	c2.2-1.1,4.6-1.9,7.1-2.3c3.4-0.6,6.9-1,10.4-1v-3.7c0-3.3-0.7-5.8-2.1-7.6c-1.6-1.8-3.9-2.8-6.3-2.7c-1.5,0-3,0.2-4.4,0.7
	c-1.1,0.4-2.1,0.9-3.1,1.6c-0.7,0.5-1.4,1-2,1.6c-0.3,0.4-0.8,0.6-1.3,0.7c-0.5,0-0.9-0.2-1.1-0.7l-0.6-1c1.7-1.7,3.7-3.2,5.9-4.2
	c2.2-1,4.6-1.5,7-1.4 M300.9,659.5c1.3,0,2.6-0.1,3.8-0.5c1.1-0.3,2.2-0.7,3.2-1.3c1-0.5,1.9-1.2,2.8-1.9c0.9-0.7,1.7-1.5,2.5-2.4
	v-9.3c-2.9,0.1-5.9,0.3-8.8,0.8c-2.1,0.3-4.1,0.9-6,1.7c-1.4,0.5-2.6,1.4-3.5,2.6c-0.7,1-1.1,2.2-1.1,3.4c0,1.1,0.2,2.1,0.6,3.1
	c0.4,0.8,0.9,1.6,1.6,2.2c0.7,0.6,1.4,1,2.3,1.2C299,659.4,299.9,659.5,300.9,659.5 M306.8,609.7h-4l-0.3,0.3l-7.8,8.8l-1.5,1.7h4.6
	c0.3,0,0.7-0.1,1-0.2c0.2-0.1,0.5-0.3,0.7-0.5l0,0l0,0l5.3-5.5l5.3,5.5c0.4,0.5,1,0.7,1.7,0.7h4.5l-1.5-1.7L307,610L306.8,609.7
	L306.8,609.7z M305.1,624.1c-2.6,0-5.1,0.5-7.4,1.5c-2.3,1.1-4.4,2.6-6.2,4.4l-0.5,0.5l0.4,0.7l0.6,1c0.4,0.7,1.1,1.2,1.9,1.1
	c0.8-0.1,1.5-0.4,2-1c0.6-0.5,1.3-1,1.9-1.5c0.9-0.6,1.9-1.1,2.9-1.5c1.3-0.5,2.6-0.7,4-0.7c2.1-0.2,4.2,0.7,5.5,2.3
	c1.3,1.6,1.9,3.9,1.9,7v2.8c-3.2,0.1-6.4,0.4-9.6,1c-2.5,0.5-5,1.3-7.3,2.4c-1.8,0.8-3.3,2.1-4.4,3.7c-1,1.4-1.5,3.1-1.5,4.8
	c0,1.6,0.3,3.2,0.9,4.6c0.6,1.2,1.4,2.3,2.4,3.2c1,0.8,2.2,1.5,3.4,1.8c1.3,0.4,2.6,0.6,3.9,0.7c1.4,0,2.8-0.1,4.2-0.4
	c1.3-0.3,2.5-0.7,3.6-1.3c1.1-0.6,2.2-1.2,3.2-2c0.5-0.4,1-0.8,1.5-1.3l0.3,2.6v0.1v0.1c0.2,1.1,1.2,1.8,2.3,1.8h2.4v-24.3
	c0-1.9-0.2-3.8-0.8-5.7c-0.5-1.6-1.3-3.2-2.3-4.5c-1.1-1.3-2.4-2.3-3.9-2.9C308.8,624.4,307,624.1,305.1,624.1L305.1,624.1z
	 M300.9,658.5c-0.8,0-1.6-0.1-2.4-0.3c-0.7-0.2-1.3-0.5-1.9-1c-0.6-0.5-1-1.1-1.3-1.8c-0.4-0.9-0.5-1.8-0.5-2.7c0-1,0.3-2,0.9-2.8
	c0.8-1,1.9-1.8,3.1-2.3c1.9-0.8,3.8-1.3,5.8-1.6c2.5-0.4,5.1-0.6,7.6-0.7v7.8c-0.7,0.7-1.5,1.4-2.2,2c-0.8,0.7-1.7,1.3-2.6,1.8
	c-0.9,0.5-2,0.9-3,1.2C303.3,658.4,302.1,658.5,300.9,658.5L300.9,658.5z"/>
<path d="M362.1,625.7c1.6,0,3.2,0.3,4.8,0.9c1.4,0.6,2.6,1.5,3.6,2.6c1,1.2,1.8,2.7,2.3,4.2c0.6,1.9,0.8,3.8,0.8,5.7V662h-3.4v-22.8
	c0-3.5-0.8-6.2-2.3-8c-1.6-1.9-4-2.9-6.5-2.7c-1.2,0-2.4,0.2-3.6,0.7c-1.1,0.4-2.2,1.1-3,2c-0.9,1-1.6,2.1-2.1,3.3
	c-0.5,1.5-0.8,3.1-0.8,4.7V662h-3.4v-22.8c0-3.5-0.7-6.1-2.1-8c-1.4-1.9-3.7-2.9-6.1-2.8c-1.9,0-3.8,0.6-5.4,1.7
	c-1.8,1.3-3.3,2.9-4.4,4.8v27h-3.4v-35.7h1.9c0.5,0,1,0.4,1.1,0.9l0.3,5.2c0.7-1,1.4-1.9,2.2-2.7c0.8-0.8,1.6-1.5,2.5-2.1
	c0.9-0.6,1.9-1,2.9-1.4c1-0.3,2.1-0.5,3.2-0.5c2.3-0.1,4.6,0.7,6.2,2.3c1.7,1.7,2.8,3.9,3.2,6.3c0.4-1.4,1-2.7,1.8-3.8
	c0.7-1,1.6-1.9,2.7-2.7c1-0.7,2.1-1.2,3.3-1.6C359.7,625.9,360.9,625.7,362.1,625.7 M362.1,624.7c-1.3,0-2.6,0.2-3.9,0.6
	c-1.3,0.4-2.5,1-3.6,1.7c-1.1,0.8-2.1,1.8-2.9,2.9c-0.3,0.4-0.6,0.9-0.9,1.4c-0.6-1.5-1.5-2.9-2.6-4c-1.9-1.8-4.4-2.7-6.9-2.6
	c-1.2,0-2.4,0.2-3.5,0.5c-1.1,0.3-2.1,0.8-3.1,1.5c-1,0.6-1.9,1.4-2.7,2.2c-0.2,0.2-0.5,0.5-0.7,0.7l-0.2-2.6V627
	c-0.1-1-1-1.8-2.1-1.7h-2.9V663h5.4v-27.7c1-1.7,2.4-3.1,4-4.3c1.4-1,3.1-1.6,4.8-1.5c2-0.1,4,0.7,5.3,2.4c1.2,1.7,1.9,4.1,1.9,7.3
	V663h5.4v-23.8c0-1.5,0.2-2.9,0.7-4.3c0.4-1.1,1-2.1,1.9-3c0.7-0.8,1.7-1.4,2.7-1.8c1-0.4,2.1-0.6,3.2-0.6c2.2-0.1,4.3,0.7,5.7,2.4
	c1.4,1.6,2,4.1,2,7.3V663h5.4v-23.8c0-2-0.3-4.1-0.8-6c-0.5-1.7-1.3-3.2-2.5-4.6c-1.1-1.3-2.5-2.2-4-2.9
	C365.6,625.1,363.8,624.7,362.1,624.7L362.1,624.7z"/>
<path d="M397,625.1c1.7,0,3.4,0.3,5,0.9c1.4,0.6,2.6,1.5,3.6,2.6c1,1.2,1.7,2.6,2.1,4.1c0.5,1.8,0.7,3.6,0.7,5.4v23.2h-1.4
	c-0.6,0.1-1.2-0.4-1.3-1l-0.5-4.5c-1,1-2,1.8-2.9,2.6c-0.9,0.7-1.9,1.4-3,1.9c-1.1,0.5-2.2,0.9-3.4,1.2c-1.3,0.3-2.7,0.4-4,0.4
	c-1.2,0-2.4-0.2-3.5-0.5c-1.1-0.3-2.1-0.9-3-1.7c-0.9-0.8-1.6-1.8-2.1-2.8c-0.6-1.3-0.8-2.7-0.8-4.2c0-1.5,0.4-3,1.3-4.2
	c1-1.4,2.4-2.6,4-3.4c2.2-1.1,4.6-1.9,7.1-2.3c3.4-0.6,6.9-1,10.4-1v-3.7c0-3.3-0.7-5.8-2.1-7.6c-1.6-1.8-3.9-2.8-6.3-2.7
	c-1.5,0-3,0.2-4.4,0.7c-1.1,0.4-2.1,0.9-3.1,1.6c-0.7,0.5-1.4,1-2,1.6c-0.3,0.4-0.8,0.6-1.3,0.7c-0.5,0-0.9-0.2-1.1-0.7l-0.6-1
	c1.7-1.7,3.7-3.2,5.9-4.2c2.2-1,4.6-1.5,7-1.4 M392.8,659.5c1.3,0,2.6-0.1,3.8-0.5c1.1-0.3,2.2-0.7,3.2-1.3c1-0.5,1.9-1.2,2.8-1.9
	c0.9-0.7,1.7-1.5,2.5-2.4v-9.3c-2.9,0.1-5.9,0.3-8.8,0.8c-2.1,0.3-4.1,0.9-6,1.7c-1.4,0.5-2.6,1.4-3.5,2.6c-0.7,1-1.1,2.2-1.1,3.4
	c0,1.1,0.2,2.1,0.6,3.1c0.4,0.8,0.9,1.6,1.6,2.2c0.7,0.6,1.4,1,2.3,1.2C391,659.4,391.9,659.5,392.8,659.5 M397,624.1
	c-2.6,0-5.1,0.5-7.4,1.5c-2.3,1.1-4.4,2.6-6.2,4.4l-0.5,0.5l0.4,0.7l0.6,1c0.4,0.7,1.1,1.2,1.9,1.1c0.8-0.1,1.5-0.4,2-1
	c0.6-0.5,1.3-1,1.9-1.5c0.9-0.6,1.9-1.1,2.9-1.5c1.3-0.5,2.6-0.7,4-0.7c2.1-0.2,4.2,0.7,5.5,2.3c1.3,1.6,1.9,3.9,1.9,7v2.8
	c-3.2,0.1-6.4,0.4-9.6,1c-2.5,0.5-5,1.3-7.3,2.4c-1.8,0.8-3.3,2.1-4.4,3.7c-1,1.4-1.5,3.1-1.5,4.8c0,1.6,0.3,3.2,0.9,4.6
	c0.6,1.2,1.4,2.3,2.4,3.2c1,0.8,2.2,1.5,3.4,1.8c1.2,0.4,2.5,0.6,3.8,0.6c1.4,0,2.8-0.1,4.2-0.4c1.3-0.3,2.5-0.7,3.6-1.3
	c1.1-0.6,2.2-1.2,3.2-2c0.5-0.4,1-0.8,1.5-1.3l0.3,2.6v0.1v0.1c0.2,1.1,1.2,1.8,2.3,1.8h2.4v-24.2c0-1.9-0.2-3.8-0.8-5.7
	c-0.5-1.6-1.3-3.2-2.3-4.5c-1.1-1.3-2.4-2.3-3.9-2.9C400.6,624.4,398.8,624.1,397,624.1L397,624.1z M392.7,658.5
	c-0.8,0-1.6-0.1-2.4-0.3c-0.7-0.2-1.3-0.5-1.9-1c-0.6-0.5-1-1.1-1.3-1.8c-0.4-0.9-0.5-1.8-0.5-2.7c0-1,0.3-2,0.9-2.8
	c0.8-1,1.9-1.8,3.1-2.3c1.9-0.8,3.8-1.3,5.8-1.6c2.5-0.4,5.1-0.6,7.6-0.7v7.8c-0.7,0.7-1.5,1.4-2.2,2c-0.8,0.7-1.7,1.3-2.6,1.8
	c-0.9,0.5-2,0.9-3,1.2C395.1,658.3,393.9,658.5,392.7,658.5L392.7,658.5z"/>
<path d="M434.1,625.7c1,0,2,0.1,3,0.3c0.9,0.2,1.8,0.6,2.6,1l-0.5,2.4c0,0.4-0.3,0.6-0.7,0.6c0,0,0,0,0,0c-0.2,0-0.4-0.1-0.6-0.1
	c-0.3-0.1-0.6-0.2-1-0.3c-0.5-0.1-1-0.2-1.5-0.3c-0.7-0.1-1.3-0.2-2-0.2c-2.5-0.1-4.9,0.8-6.6,2.5c-2,2-3.4,4.5-4.2,7.2V662h-3.4
	v-35.7h1.9c0.3,0,0.6,0.1,0.9,0.3c0.2,0.2,0.3,0.5,0.3,0.9l0.3,7.5c1-2.6,2.5-4.9,4.6-6.8C429,626.5,431.5,625.6,434.1,625.7
	 M434.1,624.7c-2.8-0.1-5.5,0.9-7.7,2.7c-1.2,1-2.3,2.3-3.1,3.6l-0.1-3.6c0-1.1-0.8-2-1.9-2.1c-0.1,0-0.2,0-0.2,0h-2.8V663h5.4v-24
	c0.8-2.5,2.1-4.8,3.9-6.7c1.6-1.5,3.7-2.3,6-2.2c0.6,0,1.2,0,1.8,0.1c0.5,0.1,0.9,0.2,1.4,0.3h0.2l0.8,0.3c0.3,0.1,0.7,0.2,1,0.2
	c0.8,0,1.6-0.6,1.7-1.4l0.5-2.3l0.1-0.7l-0.7-0.3c-0.9-0.5-1.8-0.8-2.8-1.1C436.3,624.8,435.2,624.7,434.1,624.7L434.1,624.7z"/>
<path d="M458.5,625.1c1.7,0,3.4,0.3,5,0.9c1.4,0.6,2.6,1.5,3.6,2.6c1,1.2,1.7,2.6,2.1,4.1c0.5,1.8,0.7,3.6,0.7,5.4v23.2h-1.4
	c-0.6,0.1-1.2-0.4-1.3-1l-0.5-4.5c-1,1-2,1.8-2.9,2.6c-0.9,0.7-1.9,1.4-3,1.9c-1.1,0.5-2.2,0.9-3.4,1.2c-1.3,0.3-2.7,0.4-4,0.4
	c-1.2,0-2.4-0.2-3.5-0.5c-1.1-0.3-2.1-0.9-3-1.7c-0.9-0.8-1.6-1.8-2.1-2.8c-0.6-1.3-0.8-2.7-0.8-4.2c0-1.5,0.4-3,1.3-4.2
	c1-1.4,2.4-2.6,4-3.4c2.2-1.1,4.6-1.9,7.1-2.3c3.4-0.6,6.9-1,10.4-1v-3.7c0-3.3-0.7-5.8-2.1-7.6c-1.6-1.8-3.9-2.8-6.3-2.7
	c-1.5,0-3,0.2-4.4,0.7c-1.1,0.4-2.1,0.9-3.1,1.6c-0.7,0.5-1.4,1-2,1.6c-0.3,0.4-0.8,0.6-1.3,0.7c-0.5,0-0.9-0.2-1.1-0.7l-0.6-1
	c1.7-1.7,3.7-3.2,5.9-4.2c2.2-1,4.6-1.5,7-1.4 M454.4,659.5c1.3,0,2.6-0.1,3.8-0.5c1.1-0.3,2.2-0.7,3.2-1.3c1-0.5,1.9-1.2,2.8-1.9
	c0.9-0.7,1.7-1.5,2.5-2.4v-9.3c-2.9,0.1-5.9,0.3-8.8,0.8c-2.1,0.3-4.1,0.9-6,1.7c-1.4,0.5-2.6,1.4-3.5,2.6c-0.7,1-1.1,2.2-1.1,3.4
	c0,1.1,0.2,2.1,0.6,3.1c0.4,0.8,0.9,1.6,1.6,2.2c0.7,0.6,1.4,1,2.3,1.2C452.6,659.4,453.5,659.5,454.4,659.5 M458.7,624.2
	c-2.6,0-5.1,0.5-7.4,1.5c-2.3,1.1-4.4,2.6-6.2,4.4l-0.5,0.5l0.4,0.7l0.6,1c0.4,0.7,1.1,1.2,1.9,1.1c0.8-0.1,1.5-0.4,2-1
	c0.6-0.5,1.3-1,1.9-1.5c0.9-0.6,1.9-1.1,2.9-1.5c1.3-0.5,2.6-0.7,4-0.7c2.1-0.2,4.2,0.7,5.5,2.3c1.3,1.6,1.9,3.9,1.9,7v2.8
	c-3.2,0.1-6.4,0.4-9.6,1c-2.5,0.5-5,1.3-7.3,2.4c-1.8,0.8-3.3,2.1-4.4,3.7c-1,1.4-1.5,3.1-1.5,4.8c0,1.6,0.3,3.2,0.9,4.6
	c0.6,1.2,1.4,2.3,2.4,3.2c1,0.8,2.2,1.5,3.4,1.8c1.2,0.4,2.5,0.6,3.8,0.6c1.4,0,2.8-0.1,4.2-0.4c1.3-0.3,2.5-0.7,3.6-1.3
	c1.1-0.6,2.2-1.2,3.2-2c0.5-0.4,1-0.8,1.5-1.3l0.3,2.6v0.1v0.1c0.2,1.1,1.2,1.8,2.3,1.8h2.3v-24.3c0-1.9-0.2-3.8-0.8-5.7
	c-0.5-1.6-1.3-3.2-2.3-4.5c-1.1-1.3-2.4-2.3-3.9-2.9C462.3,624.4,460.4,624.1,458.7,624.2L458.7,624.2z M454.4,658.5
	c-0.8,0-1.6-0.1-2.4-0.3c-0.7-0.2-1.3-0.5-1.9-1c-0.6-0.5-1-1.1-1.3-1.8c-0.4-0.9-0.5-1.8-0.5-2.7c0-1,0.3-2,0.9-2.8
	c0.8-1,1.9-1.8,3.1-2.3c1.9-0.8,3.8-1.3,5.8-1.6c2.5-0.4,5.1-0.6,7.6-0.7v7.8c-0.7,0.7-1.5,1.4-2.2,2c-0.8,0.7-1.7,1.3-2.6,1.8
	c-0.9,0.5-2,0.9-3,1.2C456.8,658.4,455.6,658.5,454.4,658.5L454.4,658.5z"/>
<path d="M508.8,611.3v47.6h24v3.2h-27.7v-50.8H508.8 M509.8,610.3h-5.7V663h29.7v-5.1h-24L509.8,610.3L509.8,610.3z"/>
<path d="M542.8,610.8c0.4,0,0.8,0.1,1.2,0.3c0.4,0.2,0.7,0.4,1,0.7c0.3,0.3,0.5,0.6,0.7,1c0.2,0.4,0.3,0.8,0.2,1.3
	c0,0.4-0.1,0.8-0.3,1.2c-0.2,0.4-0.4,0.7-0.7,1c-0.3,0.3-0.6,0.5-1,0.7c-0.8,0.3-1.7,0.3-2.4,0c-0.4-0.2-0.7-0.4-1-0.7
	c-0.3-0.3-0.5-0.6-0.7-1c-0.2-0.4-0.3-0.8-0.3-1.2c0-0.4,0.1-0.8,0.3-1.2c0.2-0.4,0.4-0.7,0.7-1c0.3-0.3,0.6-0.5,1-0.7
	C542,610.9,542.4,610.8,542.8,610.8 M544.5,626.3V662h-3.4v-35.7L544.5,626.3 M542.8,609.8c-0.6,0-1.1,0.1-1.6,0.3
	c-0.5,0.2-0.9,0.5-1.3,0.9c-0.4,0.4-0.7,0.8-0.9,1.3c-0.2,0.5-0.3,1.1-0.3,1.6c0,0.6,0.1,1.1,0.3,1.6c0.2,0.5,0.5,0.9,0.9,1.3
	c0.4,0.4,0.8,0.7,1.3,0.9c1,0.4,2.2,0.4,3.2,0c0.5-0.2,0.9-0.5,1.3-0.9c0.4-0.4,0.7-0.8,0.9-1.3c0.2-0.5,0.4-1.1,0.4-1.6
	c0-0.6-0.1-1.1-0.4-1.7c-0.2-0.5-0.5-0.9-0.9-1.3c-0.4-0.4-0.8-0.7-1.3-0.9C543.9,609.9,543.4,609.8,542.8,609.8L542.8,609.8z
	 M545.5,625.3h-5.4V663h5.4V625.3z"/>
<path d="M560.9,609.3v22.7c1.5-2,3.3-3.7,5.5-5c2.1-1.2,4.5-1.9,7-1.8c4.4,0,7.8,1.5,10.2,4.5s3.7,7.6,3.7,13.6c0,2.5-0.3,4.9-1,7.3
	c-0.6,2.1-1.6,4.1-3,5.9c-1.3,1.7-3,3-4.9,3.9c-2.1,1-4.4,1.5-6.7,1.4c-4.4,0.2-8.7-2-11.1-5.7l-0.2,4.4c0,0.5-0.4,0.9-0.9,0.9
	c0,0-0.1,0-0.1,0h-2v-52.1H560.9 M571.1,659.3c1.9,0,3.8-0.3,5.5-1.1c1.6-0.7,2.9-1.9,4-3.2c1.1-1.5,1.9-3.2,2.4-5
	c0.6-2.1,0.8-4.3,0.8-6.4c0-5.3-1-9.2-2.9-11.7c-2-2.5-4.8-3.7-8.5-3.7c-2.3,0-4.5,0.6-6.4,1.8c-2,1.3-3.8,3.1-5.1,5.1v18.8
	c1.1,1.8,2.7,3.3,4.5,4.3C567.2,658.9,569.2,659.3,571.1,659.3 M561.9,608.4h-5.4v54.2h3c1,0,1.9-0.8,2-1.8v-0.1l0.1-1.8
	c1,1,2.1,1.8,3.3,2.5c2.1,1.1,4.5,1.6,6.9,1.6c2.4,0,4.9-0.5,7.1-1.5c2-1,3.8-2.4,5.2-4.2c1.5-1.8,2.5-4,3.2-6.2
	c0.7-2.5,1.1-5,1.1-7.6c0-6.3-1.3-11.1-3.9-14.3s-6.3-4.9-11-4.9c-2.6,0-5.2,0.7-7.5,2c-1.5,0.9-2.8,1.9-4,3.2v-20L561.9,608.4
	L561.9,608.4z M561.9,635.2c1.2-1.8,2.8-3.4,4.7-4.6c1.8-1.1,3.8-1.7,5.9-1.7c3.4,0,5.9,1.1,7.7,3.4s2.7,6,2.7,11.1
	c0,2.1-0.2,4.2-0.8,6.2c-0.4,1.7-1.2,3.3-2.2,4.7c-1,1.3-2.2,2.3-3.6,3c-3.3,1.4-7.1,1.4-10.3-0.1c-1.6-0.9-3-2.2-4-3.7L561.9,635.2
	L561.9,635.2z"/>
<path d="M609.7,625.3c1.9,0,3.8,0.3,5.6,1c1.7,0.7,3.2,1.7,4.4,3c1.3,1.4,2.3,3.1,2.9,4.9c0.7,2.1,1.1,4.4,1.1,6.7
	c0,0.4,0,0.8-0.2,1.1c-0.2,0.2-0.5,0.3-0.7,0.3H597v0.7c0,2.4,0.3,4.8,1,7.1c0.5,1.9,1.4,3.6,2.7,5.1c1.1,1.4,2.5,2.4,4.2,3.1
	c1.7,0.7,3.6,1,5.4,1c1.6,0,3.1-0.2,4.7-0.6c1.1-0.3,2.3-0.8,3.3-1.3c0.7-0.4,1.5-0.8,2.1-1.3c0.3-0.3,0.7-0.5,1.2-0.6
	c0.3,0,0.6,0.1,0.7,0.4l0.9,1.1c-0.7,0.8-1.4,1.5-2.3,2c-1,0.6-2,1.2-3.2,1.6c-1.2,0.5-2.5,0.8-3.7,1.1c-1.3,0.3-2.7,0.4-4,0.4
	c-2.3,0-4.6-0.4-6.7-1.3c-2-0.8-3.7-2.1-5.2-3.7c-1.5-1.8-2.6-3.8-3.3-6c-0.8-2.6-1.2-5.3-1.2-8.1c0-2.4,0.3-4.8,1.1-7.1
	c0.7-2.1,1.7-4,3.2-5.6c1.4-1.6,3.1-2.8,5-3.7C605,625.6,607.4,625.1,609.7,625.3 M597.1,640h23.5c0-1.7-0.2-3.5-0.8-5.1
	c-0.5-1.4-1.2-2.7-2.2-3.8c-0.9-1.1-2.1-1.9-3.4-2.4c-1.4-0.6-2.9-0.9-4.4-0.8c-1.7,0-3.4,0.3-4.9,0.9c-1.4,0.5-2.7,1.4-3.8,2.5
	c-1.1,1.1-2,2.4-2.6,3.9C597.8,636.5,597.3,638.2,597.1,640 M609.7,624.1c-2.5,0-4.9,0.4-7.2,1.4c-2.1,0.9-3.9,2.2-5.4,3.9
	c-1.5,1.7-2.6,3.8-3.3,5.9c-0.8,2.4-1.2,4.9-1.1,7.4c0,2.8,0.4,5.7,1.2,8.4c0.7,2.3,1.9,4.5,3.5,6.3c1.5,1.7,3.4,3.1,5.5,4
	c2.2,1,4.7,1.5,7.1,1.5c1.4,0,2.8-0.1,4.2-0.4c1.3-0.3,2.6-0.6,3.9-1.1c1.2-0.4,2.3-1,3.3-1.7c0.9-0.6,1.8-1.3,2.5-2.2l0.5-0.6
	l-0.5-0.6l-0.9-1.1c-0.3-0.5-0.9-0.8-1.5-0.8c-0.7,0.1-1.3,0.3-1.8,0.8c-0.6,0.5-1.3,0.9-2,1.3c-1,0.5-2,0.9-3.1,1.3
	c-1.4,0.4-2.9,0.6-4.4,0.5c-1.7,0-3.5-0.3-5-1c-1.5-0.6-2.8-1.6-3.8-2.8c-1.1-1.4-2-3-2.5-4.8c-0.6-2.1-0.9-4.3-0.9-6.5h24.7
	c0.6,0,1.1-0.2,1.5-0.7c0.4-0.5,0.5-1.1,0.5-1.7c0-2.4-0.3-4.7-1.1-7c-0.7-1.9-1.7-3.7-3.2-5.2c-1.3-1.4-3-2.5-4.8-3.3
	c-1.9-0.8-3.9-1.1-6-1.1L609.7,624.1z M598.3,638.9c0.2-1.3,0.6-2.5,1.1-3.6c0.6-1.3,1.4-2.5,2.4-3.6c1-1,2.1-1.7,3.4-2.3
	c1.5-0.5,3-0.8,4.6-0.8c1.4,0,2.8,0.2,4,0.8c1.2,0.5,2.2,1.2,3.1,2.2c0.9,1,1.6,2.2,2,3.5c0.4,1.2,0.6,2.5,0.7,3.8L598.3,638.9z"/>
<path d="M647.8,625.7c1,0,2,0.1,3,0.3c0.9,0.2,1.8,0.6,2.6,1l-0.5,2.4c0,0.4-0.3,0.6-0.7,0.6c0,0,0,0,0,0c-0.2,0-0.4-0.1-0.6-0.1
	c-0.3-0.1-0.6-0.2-1-0.3c-0.5-0.1-1-0.2-1.5-0.3c-0.7-0.1-1.3-0.2-2-0.2c-2.5-0.1-4.9,0.8-6.6,2.5c-2,2-3.4,4.5-4.2,7.2V662h-3.4
	v-35.7h1.8c0.3,0,0.6,0.1,0.9,0.3c0.2,0.2,0.3,0.5,0.3,0.9l0.3,7.5c1-2.6,2.5-4.9,4.6-6.8C642.7,626.5,645.2,625.6,647.8,625.7
	 M647.8,624.7c-2.8-0.1-5.6,0.9-7.7,2.7c-1.2,1-2.2,2.3-3.1,3.6l-0.1-3.6c0-1.1-0.8-2-1.9-2.1c-0.1,0-0.2,0-0.3,0h-2.8V663h5.4v-24
	c0.8-2.5,2.1-4.8,3.9-6.7c1.6-1.5,3.7-2.3,6-2.2c0.6,0,1.2,0,1.8,0.1c0.5,0.1,0.9,0.2,1.3,0.3h0.2l0.8,0.3c0.3,0.1,0.7,0.2,1,0.2
	c0.8,0,1.6-0.6,1.7-1.4l0.5-2.3l0.1-0.7l-0.7-0.3c-0.9-0.5-1.8-0.8-2.8-1.1C650,624.8,648.9,624.7,647.8,624.7L647.8,624.7z"/>
<path d="M666.8,613.2v13.6h11.2v2.5h-11.2v24.2c0,0.9,0.1,1.7,0.4,2.5c0.2,0.6,0.5,1.2,1,1.7c0.4,0.4,1,0.8,1.6,1
	c0.6,0.2,1.3,0.3,1.9,0.3c0.8,0,1.5-0.1,2.2-0.4c0.6-0.2,1.1-0.5,1.6-0.8c0.4-0.2,0.8-0.5,1.1-0.8c0.2-0.2,0.4-0.3,0.7-0.4
	c0.2,0,0.5,0.2,0.6,0.4l0.9,1.5c-1,1-2.1,1.9-3.5,2.4c-1.4,0.6-2.9,0.9-4.4,0.9c-2.1,0.1-4.1-0.6-5.6-2c-1.3-1.3-2-3.4-2-6.2v-24.4
	h-5.1c-0.2,0-0.5-0.1-0.7-0.2c-0.2-0.2-0.3-0.4-0.3-0.6v-1.3l6.1-0.4l0.8-12.8c0-0.2,0.1-0.4,0.3-0.6c0.2-0.2,0.4-0.3,0.6-0.3
	L666.8,613.2 M667.8,612.2h-2.6c-0.5,0-1,0.2-1.4,0.6c-0.3,0.3-0.5,0.7-0.5,1.1l-0.8,11.9l-5.2,0.4l-0.9,0.1v2.3
	c0,0.5,0.2,1,0.6,1.4c0.4,0.3,0.8,0.5,1.3,0.4h4.1v23.4c0,3.1,0.8,5.4,2.3,6.9c1.7,1.6,4,2.4,6.3,2.3c1.6,0,3.3-0.3,4.8-1
	c1.4-0.6,2.7-1.5,3.8-2.7l0.5-0.6l-0.4-0.6l-0.9-1.5v0l0,0c-0.3-0.4-0.8-0.7-1.3-0.7c-0.5,0-1,0.3-1.3,0.6c-0.3,0.3-0.7,0.5-1,0.7
	c-0.5,0.3-0.9,0.5-1.4,0.7c-0.6,0.2-1.2,0.3-1.8,0.3c-0.5,0-1.1-0.1-1.6-0.3c-0.4-0.2-0.8-0.4-1.2-0.8c-0.4-0.4-0.7-0.9-0.8-1.4
	c-0.2-0.7-0.3-1.5-0.3-2.2v-23.2h11.2v-4.5h-11.3L667.8,612.2L667.8,612.2z"/>
<path d="M707.3,610.1l-7.7,9.1c-0.2,0.2-0.4,0.4-0.6,0.5c-0.2,0.1-0.5,0.1-0.7,0.1h-2l5.6-8.5c0.4-0.8,1.2-1.3,2.1-1.1L707.3,610.1
	 M699.6,625.1c1.7,0,3.4,0.3,5,0.9c1.4,0.6,2.6,1.5,3.6,2.6c1,1.2,1.7,2.6,2.1,4.1c0.5,1.8,0.7,3.6,0.7,5.4v23.2h-1.4
	c-0.6,0.1-1.2-0.4-1.3-1l-0.5-4.5c-1,1-2,1.8-2.9,2.6c-0.9,0.7-1.9,1.4-3,1.9c-1.1,0.5-2.2,0.9-3.4,1.2c-1.3,0.3-2.7,0.4-4,0.4
	c-1.2,0-2.4-0.2-3.5-0.5c-1.1-0.3-2.1-0.9-3-1.7c-0.9-0.8-1.6-1.8-2.1-2.8c-0.6-1.3-0.8-2.7-0.8-4.2c0-1.5,0.4-3,1.3-4.2
	c1-1.4,2.4-2.6,4-3.4c2.2-1.1,4.6-1.9,7.1-2.3c3.4-0.6,6.9-1,10.4-1v-3.7c0-3.3-0.7-5.8-2.1-7.6c-1.6-1.8-3.9-2.8-6.3-2.7
	c-1.5,0-3,0.2-4.4,0.7c-1.1,0.4-2.1,0.9-3.1,1.6c-0.7,0.5-1.4,1-2,1.6c-0.3,0.4-0.8,0.6-1.3,0.7c-0.5,0-0.9-0.2-1.1-0.7l-0.6-1
	c1.7-1.7,3.7-3.2,5.9-4.2c2.2-1,4.6-1.5,7-1.4 M695.5,659.5c1.3,0,2.6-0.1,3.8-0.5c1.1-0.3,2.2-0.7,3.2-1.3c1-0.5,1.9-1.2,2.8-1.9
	c0.9-0.7,1.7-1.5,2.5-2.4v-9.3c-2.9,0.1-5.9,0.3-8.8,0.8c-2.1,0.3-4.1,0.9-6,1.7c-1.4,0.5-2.6,1.4-3.5,2.6c-0.7,1-1.1,2.2-1.1,3.4
	c0,1.1,0.2,2.1,0.6,3.1c0.4,0.8,0.9,1.6,1.6,2.2c0.7,0.6,1.4,1,2.3,1.2C693.7,659.4,694.6,659.5,695.5,659.5 M709.6,609.1h-5.5
	c-0.6,0-1.2,0.1-1.8,0.4c-0.5,0.3-0.9,0.7-1.2,1.2l-5.6,8.5l-1,1.5h3.9c0.4,0,0.8-0.1,1.1-0.2c0.4-0.2,0.7-0.4,1-0.8l7.7-9
	L709.6,609.1L709.6,609.1z M699.7,624.1c-2.6,0-5.1,0.5-7.4,1.5c-2.3,1.1-4.4,2.6-6.2,4.4l-0.5,0.5l0.4,0.7l0.6,1
	c0.4,0.7,1.1,1.2,1.9,1.1c0.8-0.1,1.5-0.4,2-1c0.6-0.5,1.3-1,1.9-1.5c0.9-0.6,1.9-1.1,2.9-1.5c1.3-0.5,2.6-0.7,4-0.7
	c2.1-0.2,4.2,0.7,5.5,2.3c1.3,1.6,1.9,3.9,1.9,7v2.8c-3.2,0.1-6.4,0.4-9.6,1c-2.5,0.5-5,1.3-7.3,2.4c-1.8,0.8-3.3,2.1-4.4,3.7
	c-1,1.4-1.5,3.1-1.5,4.8c0,1.6,0.3,3.2,0.9,4.6c0.6,1.2,1.4,2.3,2.4,3.2c1,0.8,2.2,1.5,3.4,1.8c1.2,0.4,2.5,0.6,3.8,0.6
	c1.4,0,2.8-0.1,4.2-0.4c1.3-0.3,2.5-0.7,3.6-1.3c1.1-0.6,2.2-1.2,3.2-2c0.5-0.4,1-0.8,1.5-1.3l0.3,2.6v0.1v0.1
	c0.2,1.1,1.2,1.8,2.3,1.8h2.3v-24.2c0-1.9-0.2-3.8-0.8-5.7c-0.5-1.6-1.3-3.2-2.3-4.5c-1.1-1.3-2.4-2.3-3.9-2.9c-1.7-0.7-3.6-1-5.4-1
	L699.7,624.1z M695.5,658.5c-0.8,0-1.6-0.1-2.4-0.3c-0.7-0.2-1.3-0.5-1.9-1c-0.6-0.5-1-1.1-1.3-1.8c-0.4-0.9-0.5-1.8-0.5-2.7
	c0-1,0.3-2,0.9-2.8c0.8-1,1.9-1.8,3.1-2.3c1.9-0.8,3.8-1.3,5.8-1.6c2.5-0.4,5.1-0.6,7.6-0.7v7.8c-0.7,0.7-1.5,1.4-2.2,2
	c-0.8,0.7-1.7,1.3-2.6,1.8c-0.9,0.5-2,0.9-3,1.2C697.9,658.3,696.7,658.5,695.5,658.5L695.5,658.5z"/>
<path d="M736.7,625.7c1,0,2,0.1,3,0.3c0.9,0.2,1.8,0.6,2.6,1l-0.5,2.4c0,0.4-0.3,0.6-0.7,0.6c0,0,0,0,0,0c-0.2,0-0.4-0.1-0.6-0.1
	c-0.3-0.1-0.6-0.2-1-0.3c-0.5-0.1-1-0.2-1.5-0.3c-0.7-0.1-1.3-0.2-2-0.2c-2.5-0.1-4.9,0.8-6.6,2.5c-2,2-3.4,4.5-4.2,7.2V662h-3.4
	v-35.7h1.8c0.3,0,0.6,0.1,0.9,0.3c0.2,0.2,0.3,0.5,0.3,0.9l0.3,7.5c1-2.6,2.5-4.9,4.6-6.8C731.6,626.5,734.1,625.6,736.7,625.7
	 M736.7,624.7c-2.8-0.1-5.6,0.9-7.7,2.7c-1.2,1-2.2,2.3-3.1,3.6l-0.1-3.6c0-1.1-0.8-2-1.9-2.1c-0.1,0-0.2,0-0.3,0h-2.8V663h5.4v-24
	c0.8-2.5,2.1-4.8,3.9-6.7c1.6-1.5,3.7-2.4,6-2.3c0.6,0,1.2,0,1.8,0.1c0.5,0.1,0.9,0.2,1.3,0.3h0.2l0.8,0.3c0.3,0.1,0.7,0.2,1,0.2
	c0.8,0,1.6-0.6,1.7-1.4l0.5-2.3l0.1-0.7l-0.7-0.3c-0.9-0.5-1.8-0.8-2.8-1.1C738.8,624.7,737.7,624.6,736.7,624.7L736.7,624.7z"/>
<path d="M753,610.8c0.4,0,0.8,0.1,1.2,0.3c0.4,0.2,0.7,0.4,1,0.7c0.3,0.3,0.5,0.6,0.7,1c0.2,0.4,0.3,0.8,0.3,1.2
	c0,0.4-0.1,0.8-0.3,1.2c-0.2,0.4-0.4,0.7-0.7,1c-0.3,0.3-0.6,0.5-1,0.7c-0.8,0.3-1.7,0.3-2.4,0c-0.4-0.2-0.7-0.4-1-0.7
	c-0.3-0.3-0.5-0.6-0.7-1c-0.2-0.4-0.3-0.8-0.3-1.2c0-0.4,0.1-0.8,0.3-1.2c0.2-0.4,0.4-0.7,0.7-1c0.3-0.3,0.6-0.5,1-0.7
	C752.2,610.9,752.6,610.8,753,610.8 M754.7,626.3V662h-3.4v-35.7H754.7 M753,609.8c-0.6,0-1.1,0.1-1.6,0.3c-0.5,0.2-0.9,0.5-1.3,0.9
	c-0.4,0.4-0.7,0.8-0.9,1.3c-0.2,0.5-0.3,1.1-0.3,1.6c0,0.6,0.1,1.1,0.3,1.6c0.2,0.5,0.5,0.9,0.9,1.3c0.4,0.4,0.8,0.7,1.3,0.9
	c1,0.4,2.2,0.4,3.2,0c0.5-0.2,0.9-0.5,1.3-0.9c0.4-0.4,0.7-0.8,0.9-1.3c0.2-0.5,0.4-1.1,0.4-1.6c0-0.6-0.1-1.1-0.4-1.7
	c-0.2-0.5-0.5-0.9-0.9-1.3c-0.4-0.4-0.8-0.7-1.3-0.9C754.1,609.9,753.5,609.8,753,609.8L753,609.8z M755.7,625.3h-5.4V663h5.4V625.3
	z"/>
<path d="M780,625.1c1.7,0,3.4,0.3,5,0.9c1.4,0.6,2.6,1.5,3.6,2.6c1,1.2,1.7,2.6,2.1,4.1c0.5,1.8,0.7,3.6,0.7,5.4v23.2H790
	c-0.6,0.1-1.2-0.4-1.3-1l-0.5-4.5c-1,1-2,1.8-2.9,2.6c-0.9,0.7-1.9,1.4-3,1.9c-1.1,0.5-2.2,0.9-3.4,1.2c-1.3,0.3-2.7,0.4-4,0.4
	c-1.2,0-2.4-0.2-3.5-0.5c-1.1-0.3-2.1-0.9-3-1.7c-0.9-0.8-1.6-1.8-2.1-2.8c-0.6-1.3-0.8-2.7-0.8-4.2c0-1.5,0.4-3,1.3-4.2
	c1-1.4,2.4-2.6,4-3.4c2.2-1.1,4.6-1.9,7.1-2.3c3.4-0.6,6.9-1,10.4-1v-3.7c0-3.3-0.7-5.8-2.1-7.6c-1.6-1.8-3.9-2.8-6.3-2.7
	c-1.5,0-3,0.2-4.4,0.7c-1.1,0.4-2.1,0.9-3.1,1.6c-0.7,0.5-1.4,1-2,1.6c-0.3,0.4-0.8,0.6-1.3,0.7c-0.5,0-0.9-0.2-1.1-0.7l-0.6-1
	c1.7-1.7,3.7-3.2,5.9-4.2C775.2,625.6,777.6,625.1,780,625.1 M775.8,659.5c1.3,0,2.6-0.1,3.8-0.5c1.1-0.3,2.2-0.7,3.2-1.3
	c1-0.5,1.9-1.2,2.8-1.9c0.9-0.7,1.7-1.5,2.5-2.4v-9.3c-2.9,0.1-5.9,0.3-8.8,0.8c-2.1,0.3-4.1,0.9-6,1.7c-1.4,0.5-2.6,1.4-3.5,2.6
	c-0.7,1-1.1,2.2-1.1,3.4c0,1.1,0.2,2.1,0.6,3.1c0.4,0.8,0.9,1.6,1.6,2.2c0.7,0.6,1.4,1,2.3,1.2C774,659.4,774.9,659.5,775.8,659.5
	 M780,624.2c-2.6,0-5.1,0.5-7.4,1.5c-2.3,1.1-4.4,2.6-6.2,4.4l-0.5,0.5l0.4,0.7l0.6,1c0.4,0.7,1.1,1.2,1.9,1.1c0.8-0.1,1.5-0.4,2-1
	c0.6-0.5,1.3-1,1.9-1.5c0.9-0.6,1.9-1.1,2.9-1.5c1.3-0.5,2.6-0.7,4-0.7c2.1-0.2,4.2,0.7,5.5,2.3c1.3,1.6,1.9,3.9,1.9,7v2.8
	c-3.2,0.1-6.4,0.4-9.6,1c-2.5,0.5-5,1.3-7.3,2.4c-1.8,0.8-3.3,2.1-4.4,3.7c-1,1.4-1.5,3.1-1.5,4.8c0,1.6,0.3,3.2,0.9,4.6
	c0.6,1.2,1.4,2.3,2.4,3.2c1,0.8,2.2,1.5,3.4,1.8c1.2,0.4,2.5,0.6,3.8,0.6c1.4,0,2.8-0.1,4.2-0.4c1.3-0.3,2.5-0.7,3.6-1.3
	c1.1-0.6,2.2-1.2,3.2-2c0.5-0.4,1-0.8,1.5-1.3l0.3,2.6v0.1v0.1c0.2,1.1,1.2,1.8,2.3,1.8h2.4v-24.3c0-1.9-0.2-3.8-0.8-5.7
	c-0.5-1.6-1.3-3.2-2.4-4.5c-1.1-1.3-2.4-2.3-3.9-2.9C783.7,624.4,781.8,624.1,780,624.2L780,624.2z M775.8,658.5
	c-0.8,0-1.6-0.1-2.4-0.3c-0.7-0.2-1.3-0.5-1.9-1c-0.6-0.5-1-1.1-1.3-1.8c-0.4-0.9-0.5-1.8-0.5-2.7c0-1,0.3-2,0.9-2.8
	c0.8-1,1.9-1.8,3.1-2.3c1.9-0.8,3.8-1.3,5.8-1.6c2.5-0.4,5.1-0.6,7.6-0.7v7.8c-0.7,0.7-1.5,1.4-2.2,2c-0.8,0.7-1.7,1.3-2.6,1.8
	c-0.9,0.5-2,0.9-3,1.2C778.2,658.4,777,658.5,775.8,658.5L775.8,658.5z"/>
<path d="M855.2,609.3v52.2h-1.9c-0.5,0-1-0.4-1-0.9l-0.4-5.6c-1.5,2.1-3.4,3.8-5.5,5.1c-2.2,1.3-4.6,1.9-7.1,1.9
	c-4.4,0-7.8-1.5-10.2-4.5s-3.7-7.6-3.7-13.7c0-2.5,0.3-4.9,1-7.3c0.6-2.1,1.6-4.1,3-5.9c1.3-1.7,3-3,4.9-3.9c2.1-1,4.4-1.5,6.7-1.4
	c2.2-0.1,4.3,0.4,6.3,1.3c1.8,0.9,3.4,2.3,4.6,3.9v-21.2H855.2 M840.2,659.2c2.3,0,4.5-0.6,6.4-1.8c2-1.3,3.8-3.1,5.1-5.1v-18.8
	c-3.5-5.1-10.1-7-15.8-4.4c-1.6,0.7-2.9,1.9-4,3.2c-1.1,1.5-1.9,3.2-2.4,5c-0.6,2.1-0.8,4.3-0.8,6.4c0,5.3,1,9.2,3,11.7
	C833.7,657.9,836.5,659.2,840.2,659.2 M856.2,608.3h-5.4v19.5c-0.9-0.9-2-1.6-3.2-2.2c-2.1-1-4.4-1.5-6.7-1.5
	c-2.5,0-4.9,0.5-7.1,1.5c-2,1-3.8,2.4-5.2,4.2c-1.5,1.8-2.5,4-3.2,6.2c-0.7,2.5-1.1,5-1.1,7.6c0,6.3,1.3,11.1,3.9,14.3
	s6.3,4.9,11,4.9c2.7,0,5.3-0.6,7.6-2c1.5-0.9,3-2.1,4.2-3.4l0.2,3.1v0.1c0.1,1,1,1.8,2,1.8h2.9L856.2,608.3L856.2,608.3z
	 M840.2,658.2c-3.4,0-5.9-1.1-7.7-3.4s-2.7-6-2.7-11.1c0-2.1,0.2-4.2,0.8-6.2c0.4-1.7,1.2-3.3,2.2-4.7c0.9-1.3,2.2-2.3,3.6-3
	c3.3-1.4,7-1.4,10.3,0.1c1.6,0.9,3,2.2,4,3.7V652c-1.3,1.8-2.8,3.4-4.7,4.6C844.3,657.7,842.2,658.3,840.2,658.2L840.2,658.2z"/>
<path d="M880.6,625.3c1.9,0,3.8,0.3,5.6,1c1.7,0.7,3.2,1.7,4.4,3c1.3,1.4,2.3,3.1,2.9,4.9c0.7,2.1,1.1,4.4,1.1,6.7
	c0,0.4,0,0.8-0.2,1.1c-0.2,0.2-0.5,0.3-0.7,0.3H868v0.7c0,2.4,0.3,4.8,0.9,7.1c0.5,1.9,1.4,3.6,2.7,5.1c1.1,1.4,2.5,2.4,4.2,3.1
	c1.7,0.7,3.6,1,5.4,1c1.6,0,3.1-0.2,4.7-0.6c1.1-0.3,2.3-0.8,3.3-1.3c0.7-0.4,1.5-0.8,2.1-1.3c0.3-0.3,0.7-0.5,1.2-0.6
	c0.3,0,0.6,0.1,0.7,0.4l0.9,1.1c-0.7,0.8-1.4,1.5-2.3,2c-1,0.6-2,1.2-3.2,1.6c-1.2,0.5-2.5,0.8-3.7,1.1c-1.3,0.3-2.7,0.4-4,0.4
	c-2.3,0-4.6-0.4-6.7-1.3c-2-0.8-3.7-2.1-5.2-3.7c-1.5-1.8-2.6-3.8-3.3-6c-0.8-2.6-1.2-5.3-1.2-8.1c0-2.4,0.3-4.8,1.1-7.1
	c0.7-2.1,1.7-4,3.2-5.6c1.4-1.6,3.1-2.8,5-3.7c2.1-0.9,4.5-1.4,6.8-1.3 M868.1,639.9h23.5c0-1.7-0.2-3.5-0.8-5.1
	c-0.5-1.4-1.2-2.7-2.2-3.8c-0.9-1.1-2.1-1.9-3.4-2.4c-1.4-0.6-2.9-0.9-4.4-0.8c-1.7,0-3.4,0.3-4.9,0.9c-1.4,0.5-2.7,1.4-3.8,2.5
	c-1.1,1.1-2,2.4-2.6,3.9C868.7,636.4,868.3,638.1,868.1,639.9 M880.6,624c-2.5,0-4.9,0.4-7.2,1.4c-2.1,0.9-3.9,2.2-5.4,3.9
	c-1.5,1.7-2.6,3.8-3.3,5.9c-0.8,2.4-1.2,4.9-1.1,7.4c0,2.8,0.4,5.7,1.2,8.4c0.7,2.3,1.9,4.5,3.5,6.3c1.5,1.7,3.4,3.1,5.5,4
	c2.2,1,4.6,1.5,7.1,1.6c1.4,0,2.8-0.1,4.2-0.4c1.3-0.3,2.6-0.6,3.9-1.1c1.2-0.4,2.3-1,3.3-1.7c0.9-0.6,1.8-1.3,2.5-2.2l0.5-0.6
	l-0.5-0.6l-0.9-1.1c-0.3-0.5-0.9-0.8-1.5-0.8c-0.7,0.1-1.3,0.3-1.8,0.8c-0.6,0.5-1.3,0.9-2,1.3c-1,0.5-2,0.9-3.1,1.3
	c-1.4,0.4-2.9,0.6-4.4,0.5c-1.7,0-3.5-0.3-5-1c-1.5-0.6-2.8-1.6-3.8-2.8c-1.1-1.4-2-3-2.5-4.8c-0.6-2.1-0.9-4.3-0.9-6.5h24.7
	c0.6,0,1.1-0.2,1.5-0.7c0.4-0.5,0.5-1.1,0.5-1.7c0-2.4-0.3-4.7-1.1-7c-0.7-1.9-1.7-3.7-3.2-5.2c-1.3-1.4-3-2.5-4.8-3.3
	c-1.9-0.8-3.9-1.1-6-1.1L880.6,624z M869.2,638.8c0.2-1.3,0.6-2.5,1.1-3.6c0.6-1.3,1.4-2.5,2.4-3.6c1-1,2.1-1.7,3.4-2.3
	c1.5-0.5,3-0.8,4.6-0.8c1.4,0,2.8,0.2,4,0.8c1.2,0.5,2.2,1.2,3.1,2.2c0.9,1,1.6,2.2,2,3.5c0.4,1.2,0.6,2.5,0.7,3.8L869.2,638.8z"/>
<path d="M243,707.4l20.8,50.7h-2.8c-0.3,0-0.6-0.1-0.8-0.3c-0.2-0.2-0.4-0.4-0.5-0.7l-6-14.7h-24.9l-5.9,14.7
	c-0.1,0.3-0.3,0.5-0.5,0.7c-0.2,0.2-0.5,0.3-0.9,0.3h-2.8l20.8-50.7L243,707.4 M229.8,739.7h22.7L242.2,714
	c-0.2-0.4-0.3-0.9-0.5-1.4s-0.3-1.1-0.5-1.6c-0.2,0.6-0.3,1.1-0.5,1.6s-0.3,1-0.5,1.4L229.8,739.7 M243.7,706.3h-5l-0.3,0.6
	l-20.8,50.7l-0.6,1.4h4.3c0.5,0,1.1-0.2,1.5-0.5c0.4-0.3,0.6-0.7,0.8-1.1l5.7-14.1h23.6l5.7,14.1c0.2,0.4,0.4,0.8,0.8,1.1
	c0.4,0.3,0.9,0.5,1.5,0.5h4.3l-0.6-1.4L243.9,707L243.7,706.3L243.7,706.3z M231.3,738.6l9.8-24.2l0.1-0.2l0.1,0.2l9.8,24.2
	L231.3,738.6z"/>
<path d="M283.5,721.8c2.1,0,4.2,0.3,6.2,1.1c1.7,0.7,3.3,1.7,4.7,3l-0.9,1.2c-0.1,0.1-0.2,0.2-0.3,0.3c-0.1,0.1-0.3,0.1-0.5,0.1
	c-0.4-0.1-0.7-0.2-1-0.5c-0.5-0.4-1.1-0.7-1.7-1.1c-0.8-0.4-1.7-0.8-2.6-1.1c-1.2-0.3-2.5-0.5-3.8-0.5c-1.9,0-3.7,0.3-5.5,1.1
	c-1.6,0.7-2.9,1.8-4,3.1c-1.1,1.5-2,3.2-2.5,5c-0.6,2.1-0.9,4.3-0.9,6.5c0,2.3,0.3,4.5,0.9,6.7c0.5,1.8,1.4,3.4,2.5,4.9
	c1,1.3,2.4,2.3,3.9,3c1.6,0.7,3.3,1,5.1,1c1.5,0,2.9-0.2,4.3-0.6c1-0.3,2-0.8,2.9-1.3c0.6-0.4,1.2-0.8,1.8-1.3
	c0.3-0.3,0.6-0.5,1-0.6c0.3,0,0.6,0.1,0.7,0.4l0.9,1.1c-0.6,0.8-1.3,1.4-2.1,2c-0.9,0.6-1.8,1.2-2.8,1.6c-1.1,0.5-2.2,0.8-3.4,1.1
	c-1.3,0.3-2.6,0.4-3.9,0.4c-2.1,0-4.3-0.4-6.2-1.2c-1.9-0.8-3.5-2-4.8-3.6c-1.4-1.7-2.5-3.6-3.1-5.8c-1.5-5-1.5-10.2,0-15.2
	c0.6-2.1,1.7-4.1,3.1-5.8c1.4-1.6,3.1-2.9,5.1-3.8c2.2-0.9,4.5-1.4,6.9-1.3 M283.5,720.7c-2.5,0-5,0.4-7.3,1.4
	c-2.1,0.9-3.9,2.3-5.4,4c-1.5,1.8-2.6,3.9-3.3,6.2c-1.5,5.2-1.5,10.7,0.1,15.8c0.7,2.2,1.8,4.3,3.3,6.1c1.4,1.7,3.2,3,5.2,3.8
	c2.1,0.9,4.3,1.3,6.6,1.3c1.3,0,2.7-0.1,4-0.4c1.2-0.3,2.5-0.6,3.6-1.1c1.1-0.5,2.1-1,3-1.7c0.9-0.6,1.6-1.4,2.3-2.2l0.5-0.6
	l-0.5-0.6l-0.9-1.1c-0.4-0.5-0.9-0.8-1.5-0.8c-0.7,0.1-1.3,0.4-1.7,0.9c-0.5,0.4-1.1,0.9-1.6,1.2c-0.8,0.5-1.7,0.9-2.7,1.2
	c-1.3,0.4-2.6,0.6-4,0.5c-1.6,0-3.2-0.3-4.7-1c-1.4-0.6-2.6-1.6-3.5-2.8c-1.1-1.4-1.9-2.9-2.3-4.6c-0.6-2.1-0.9-4.2-0.8-6.4
	c0-2.1,0.2-4.2,0.8-6.2c0.5-1.7,1.3-3.2,2.3-4.6c1-1.2,2.2-2.2,3.6-2.9c1.6-0.7,3.3-1,5-1c1.2,0,2.4,0.1,3.5,0.4
	c0.8,0.3,1.6,0.6,2.4,1c0.5,0.3,1.1,0.6,1.5,1c0.4,0.4,1,0.6,1.6,0.7c0.4,0,0.8-0.1,1.1-0.3c0.1-0.1,0.3-0.2,0.4-0.4l0.1-0.1l0-0.1
	l0.9-1.2l0.5-0.7l-0.6-0.6c-1.5-1.4-3.1-2.5-5-3.2c-2.1-0.8-4.3-1.2-6.6-1.2L283.5,720.7z"/>
<path d="M316.3,721.8c2.4,0,4.7,0.4,6.9,1.3c2,0.8,3.7,2.1,5.1,3.7c1.4,1.7,2.5,3.7,3.2,5.8c1.5,4.9,1.5,10.2,0,15.1
	c-0.7,2.1-1.7,4.1-3.2,5.8c-1.4,1.6-3.1,2.9-5.1,3.7c-4.4,1.7-9.3,1.7-13.7,0c-2-0.8-3.7-2.1-5.1-3.7c-1.4-1.7-2.5-3.6-3.2-5.8
	c-1.5-4.9-1.5-10.2,0-15.1c0.7-2.1,1.7-4.1,3.2-5.8c1.4-1.6,3.2-2.9,5.1-3.7C311.6,722.3,313.9,721.8,316.3,721.8 M316.3,755.8
	c1.9,0,3.8-0.3,5.6-1.1c1.6-0.7,2.9-1.8,4-3.1c1.1-1.5,1.9-3.1,2.4-4.9c1.1-4.2,1.1-8.7,0-12.9c-0.4-1.8-1.3-3.5-2.4-5
	c-1.1-1.4-2.4-2.5-4-3.2c-3.6-1.5-7.6-1.5-11.1,0c-1.6,0.7-2.9,1.8-4,3.2c-1.1,1.5-1.9,3.2-2.4,5c-1.1,4.2-1.1,8.7,0,12.9
	c0.5,1.8,1.3,3.5,2.4,4.9c1.1,1.4,2.4,2.4,4,3.1C312.4,755.5,314.3,755.9,316.3,755.8 M316.3,720.8c-2.5,0-5,0.4-7.3,1.4
	c-2.1,0.9-4,2.3-5.5,4c-1.5,1.8-2.7,3.9-3.4,6.1c-1.5,5.1-1.5,10.6,0,15.8c0.7,2.3,1.9,4.3,3.4,6.1c1.5,1.7,3.4,3.1,5.5,4
	c4.7,1.8,9.9,1.8,14.5,0c2.1-0.9,4-2.3,5.5-4c1.5-1.8,2.7-3.9,3.4-6.1c1.5-5.1,1.5-10.6,0-15.8c-0.7-2.3-1.8-4.3-3.4-6.1
	c-1.5-1.7-3.4-3.1-5.5-4C321.2,721.3,318.8,720.8,316.3,720.8L316.3,720.8z M316.3,754.8c-1.8,0-3.5-0.3-5.2-1
	c-1.4-0.6-2.6-1.6-3.6-2.8c-1-1.4-1.8-2.9-2.2-4.6c-1-4.1-1-8.3,0-12.4c0.4-1.7,1.2-3.2,2.2-4.6c1-1.2,2.2-2.2,3.6-2.9
	c3.3-1.4,7-1.4,10.3,0c1.4,0.6,2.7,1.6,3.6,2.9c1,1.4,1.8,2.9,2.2,4.6c1,4.1,1,8.3,0,12.4c-0.4,1.7-1.2,3.2-2.2,4.6
	c-1,1.2-2.2,2.2-3.6,2.8C319.8,754.5,318,754.9,316.3,754.8L316.3,754.8z"/>
<path d="M356.4,721.8c1,0,2,0.1,3,0.3c0.9,0.2,1.8,0.6,2.6,1l-0.5,2.4c0,0.4-0.3,0.6-0.7,0.6c0,0,0,0,0,0c-0.2,0-0.4-0.1-0.6-0.1
	c-0.3-0.1-0.6-0.2-1-0.3c-0.5-0.1-1-0.2-1.5-0.3c-0.7-0.1-1.3-0.2-2-0.2c-2.5-0.1-4.9,0.8-6.6,2.5c-2,2-3.4,4.5-4.2,7.2v23.2h-3.4
	v-35.6h1.8c0.3,0,0.6,0.1,0.9,0.3c0.2,0.2,0.3,0.5,0.3,0.9l0.3,7.5c1-2.6,2.5-4.9,4.6-6.8C351.2,722.6,353.8,721.7,356.4,721.8
	 M356.3,720.8c-2.8-0.1-5.5,0.9-7.7,2.7c-1.2,1-2.2,2.3-3.1,3.6l-0.1-3.6c0-1.1-0.8-2-1.9-2.1c-0.1,0-0.2,0-0.3,0h-2.8v37.7h5.4v-24
	c0.8-2.5,2.1-4.8,3.9-6.7c1.6-1.5,3.7-2.3,6-2.2c0.6,0,1.2,0,1.8,0.1c0.5,0.1,0.9,0.2,1.4,0.3h0.1l0.8,0.3c0.3,0.1,0.7,0.2,1,0.2
	c0.8,0,1.6-0.6,1.7-1.4l0.5-2.3l0.1-0.7l-0.7-0.3c-0.9-0.5-1.8-0.8-2.8-1.1C358.5,720.9,357.4,720.8,356.3,720.8L356.3,720.8z"/>
<path d="M397.1,705.9v52.2h-1.9c-0.5,0-1-0.4-1-0.9l-0.4-5.6c-1.5,2.1-3.4,3.8-5.5,5.1c-2.2,1.3-4.6,1.9-7.1,1.9
	c-4.4,0-7.8-1.5-10.2-4.5s-3.7-7.6-3.7-13.7c0-2.5,0.3-4.9,1-7.3c0.6-2.1,1.6-4.1,3-5.9c1.3-1.7,3-3,4.9-3.9c2.1-1,4.4-1.5,6.7-1.4
	c2.2-0.1,4.3,0.4,6.3,1.3c1.8,0.9,3.4,2.3,4.6,3.9v-21.2H397.1 M382.1,755.8c2.3,0,4.5-0.6,6.4-1.8c2-1.3,3.8-3.1,5.1-5.1v-18.8
	c-3.5-5.1-10.1-7-15.8-4.4c-1.6,0.7-2.9,1.9-4,3.2c-1.1,1.5-1.9,3.2-2.4,5c-0.6,2.1-0.8,4.3-0.8,6.4c0,5.3,1,9.2,3,11.7
	S378.4,755.8,382.1,755.8 M398,704.9h-5.4v19.5c-0.9-0.9-2-1.6-3.1-2.2c-2.1-1-4.4-1.5-6.7-1.5c-2.5,0-4.9,0.5-7.1,1.5
	c-2,1-3.8,2.4-5.2,4.2c-1.5,1.8-2.5,4-3.2,6.2c-0.7,2.5-1.1,5-1.1,7.6c0,6.3,1.3,11.1,3.9,14.3s6.4,4.9,11,4.9c2.7,0,5.3-0.6,7.6-2
	c1.6-0.9,3-2.1,4.3-3.5l0.2,3.1v0.1c0.1,1,1,1.8,2,1.8h2.9L398,704.9L398,704.9z M382,754.8c-3.4,0-5.9-1.1-7.6-3.4s-2.7-6-2.7-11.1
	c0-2.1,0.2-4.2,0.8-6.2c0.4-1.7,1.2-3.3,2.2-4.7c0.9-1.3,2.2-2.3,3.6-3c3.3-1.4,7-1.4,10.3,0.1c1.6,0.9,3,2.2,4,3.7v18.2
	c-1.3,1.8-2.8,3.4-4.7,4.6C386.1,754.2,384.1,754.8,382,754.8L382,754.8z"/>
<path d="M422.6,721.8c2.4,0,4.7,0.4,6.9,1.3c2,0.8,3.7,2.1,5.1,3.7c1.4,1.7,2.5,3.7,3.2,5.8c1.5,4.9,1.5,10.2,0,15.1
	c-0.7,2.1-1.7,4.1-3.2,5.8c-1.4,1.6-3.1,2.9-5.1,3.7c-4.4,1.7-9.3,1.7-13.7,0c-2-0.8-3.7-2.1-5.1-3.7c-1.4-1.7-2.5-3.6-3.2-5.8
	c-1.5-4.9-1.5-10.2,0-15.1c0.7-2.1,1.7-4.1,3.2-5.8c1.4-1.6,3.2-2.9,5.1-3.7C417.9,722.3,420.3,721.8,422.6,721.8 M422.6,755.8
	c1.9,0,3.8-0.3,5.6-1.1c1.6-0.7,2.9-1.8,4-3.1c1.1-1.5,1.9-3.1,2.4-4.9c1.1-4.2,1.1-8.7,0-12.9c-0.4-1.8-1.3-3.5-2.4-5
	c-1.1-1.4-2.4-2.5-4-3.2c-3.6-1.5-7.6-1.5-11.1,0c-1.6,0.7-2.9,1.8-4,3.2c-1.1,1.5-1.9,3.2-2.4,5c-1.1,4.2-1.1,8.7,0,12.9
	c0.5,1.8,1.3,3.5,2.4,4.9c1.1,1.4,2.4,2.4,4,3.1C418.8,755.5,420.7,755.9,422.6,755.8 M422.6,720.8c-2.5,0-5,0.4-7.3,1.4
	c-2.1,0.9-4,2.3-5.5,4c-1.5,1.8-2.7,3.9-3.4,6.1c-1.5,5.1-1.5,10.6,0,15.8c0.7,2.3,1.9,4.3,3.4,6.1c1.5,1.7,3.4,3.1,5.5,4
	c4.7,1.8,9.9,1.8,14.5,0c2.1-0.9,4-2.3,5.5-4c1.5-1.8,2.7-3.9,3.4-6.1c1.5-5.1,1.5-10.6,0-15.8c-0.7-2.3-1.8-4.3-3.4-6.1
	c-1.5-1.7-3.4-3.1-5.5-4C427.6,721.3,425.1,720.8,422.6,720.8L422.6,720.8z M422.6,754.8c-1.8,0-3.5-0.3-5.2-1
	c-1.4-0.6-2.6-1.6-3.6-2.8c-1-1.4-1.8-2.9-2.2-4.6c-1-4.1-1-8.3,0-12.4c0.4-1.7,1.2-3.2,2.2-4.6c1-1.2,2.2-2.2,3.6-2.9
	c3.3-1.4,7-1.4,10.3,0c1.4,0.6,2.7,1.6,3.6,2.9c1,1.4,1.8,2.9,2.2,4.6c1,4.1,1,8.3,0,12.4c-0.4,1.7-1.2,3.2-2.2,4.6
	c-1,1.2-2.2,2.2-3.6,2.8C426.2,754.6,424.4,754.9,422.6,754.8L422.6,754.8z"/>
<path d="M457.8,721.8c2,0,3.9,0.3,5.8,1c1.7,0.7,3.3,1.6,4.6,2.9l-0.8,1.2c-0.1,0.3-0.4,0.5-0.8,0.5c-0.4,0-0.7-0.2-1-0.5
	c-0.5-0.4-1.1-0.7-1.6-1c-0.8-0.4-1.6-0.7-2.5-1c-1.2-0.3-2.4-0.5-3.6-0.4c-1.2,0-2.4,0.2-3.5,0.5c-1,0.3-1.9,0.8-2.7,1.5
	c-0.7,0.6-1.3,1.3-1.8,2.2c-0.4,0.8-0.6,1.7-0.6,2.6c0,1,0.3,2,0.9,2.8c0.6,0.8,1.4,1.4,2.3,1.9c1,0.6,2.1,1,3.2,1.4l3.6,1.1
	c1.2,0.4,2.4,0.8,3.6,1.3c1.1,0.4,2.2,1,3.2,1.7c0.9,0.7,1.7,1.5,2.3,2.5c0.6,1.1,0.9,2.4,0.9,3.7c0,1.5-0.3,3-0.8,4.3
	c-0.5,1.3-1.4,2.5-2.4,3.5c-1.1,1-2.5,1.8-3.9,2.3c-1.7,0.6-3.5,0.9-5.3,0.9c-2.2,0.1-4.4-0.4-6.5-1.2c-1.8-0.8-3.4-1.8-4.9-3.1
	l0.8-1.2c0.1-0.2,0.2-0.3,0.4-0.4c0.2-0.1,0.4-0.2,0.6-0.1c0.4,0.1,0.8,0.3,1.1,0.6c0.6,0.5,1.1,0.9,1.8,1.2
	c0.9,0.5,1.8,0.9,2.7,1.2c1.3,0.4,2.6,0.6,4,0.6c1.4,0,2.7-0.2,4-0.6c1.1-0.4,2-0.9,2.9-1.7c0.8-0.7,1.4-1.6,1.7-2.5
	c0.4-1,0.6-2,0.6-3.1c0-1.1-0.3-2.1-0.9-3c-0.6-0.8-1.4-1.5-2.3-2c-1-0.6-2.1-1-3.2-1.4c-1.2-0.4-2.4-0.8-3.7-1.2s-2.5-0.8-3.7-1.3
	c-1.1-0.4-2.2-1-3.2-1.7c-0.9-0.7-1.7-1.5-2.3-2.5c-0.6-1.1-0.9-2.4-0.9-3.7c0-1.3,0.3-2.5,0.8-3.7c0.6-1.2,1.4-2.2,2.4-3.1
	c1.1-0.9,2.4-1.7,3.7-2.1C454.5,722.1,456.1,721.8,457.8,721.8 M457.8,720.9c-1.8,0-3.6,0.3-5.3,0.8c-1.5,0.5-2.8,1.3-4,2.3
	c-1.1,0.9-2,2.1-2.6,3.4c-0.6,1.3-0.9,2.7-0.9,4.1c0,1.5,0.3,2.9,1,4.2c0.6,1.1,1.5,2.1,2.5,2.8c1.1,0.8,2.2,1.4,3.4,1.8
	c1.2,0.5,2.5,0.9,3.7,1.3c1.4,0.4,2.6,0.8,3.6,1.1c1,0.3,2.1,0.8,3,1.3c0.8,0.4,1.4,1,2,1.7c0.5,0.7,0.7,1.5,0.7,2.4
	c0,0.9-0.2,1.8-0.5,2.7c-0.3,0.8-0.8,1.6-1.5,2.2c-0.7,0.7-1.6,1.2-2.5,1.5c-1.2,0.4-2.4,0.6-3.6,0.6c-1.3,0-2.5-0.1-3.7-0.5
	c-0.9-0.3-1.7-0.7-2.5-1.2c-0.6-0.3-1.1-0.7-1.6-1.1c-0.5-0.5-1.1-0.8-1.8-0.8c-0.4,0-0.8,0.1-1.2,0.3c-0.3,0.2-0.5,0.4-0.7,0.7
	l-0.8,1.2l-0.5,0.7l0.6,0.6c1.5,1.4,3.3,2.5,5.1,3.3c2.2,0.9,4.5,1.3,6.9,1.3c1.9,0,3.8-0.3,5.6-0.9c1.6-0.6,3-1.4,4.3-2.5
	c1.2-1.1,2.1-2.4,2.7-3.8c0.6-1.5,0.9-3.1,0.9-4.7c0-1.4-0.3-2.9-1-4.2c-0.6-1.1-1.5-2.1-2.5-2.8c-1-0.8-2.2-1.4-3.4-1.9
	c-1.2-0.5-2.4-0.9-3.7-1.3l-3.6-1.1c-1-0.3-2-0.8-3-1.3c-0.8-0.4-1.5-1-2-1.6c-0.5-0.6-0.7-1.4-0.6-2.2c0-0.7,0.2-1.5,0.5-2.1
	c0.4-0.7,0.9-1.3,1.5-1.8c0.7-0.6,1.5-1,2.4-1.3c1-0.3,2.1-0.5,3.2-0.5c1.1,0,2.3,0.1,3.4,0.4c0.8,0.2,1.6,0.5,2.3,0.9
	c0.5,0.3,1,0.6,1.5,0.9c0.4,0.4,1,0.6,1.6,0.6c0.7,0,1.3-0.4,1.7-1l0.7-1.2l0.5-0.7l-0.6-0.6c-1.5-1.3-3.1-2.4-5-3.1
	C461.9,721.2,459.8,720.8,457.8,720.9L457.8,720.9z"/>
<path d="M511.8,722.1c1.9,0,3.8,0.3,5.6,1c1.7,0.7,3.2,1.7,4.4,3c1.3,1.4,2.3,3.1,2.9,4.9c0.7,2.1,1.1,4.4,1.1,6.7
	c0,0.4,0,0.8-0.2,1.1c-0.2,0.2-0.5,0.3-0.7,0.3h-25.8v0.7c0,2.4,0.3,4.8,0.9,7.1c0.5,1.9,1.4,3.6,2.6,5.1c1.1,1.4,2.5,2.4,4.2,3.1
	c1.7,0.7,3.6,1,5.4,1c1.6,0,3.1-0.2,4.7-0.6c1.1-0.3,2.3-0.8,3.3-1.3c0.7-0.4,1.5-0.8,2.1-1.3c0.3-0.3,0.7-0.5,1.2-0.6
	c0.3,0,0.6,0.1,0.7,0.4l0.9,1.1c-0.7,0.8-1.4,1.5-2.3,2c-1,0.6-2,1.2-3.2,1.6c-1.2,0.5-2.5,0.8-3.7,1.1c-1.3,0.3-2.7,0.4-4,0.4
	c-2.3,0-4.6-0.4-6.7-1.3c-2-0.8-3.7-2.1-5.2-3.7c-1.5-1.8-2.6-3.8-3.3-6c-0.8-2.6-1.2-5.3-1.2-8.1c0-2.4,0.3-4.8,1.1-7.1
	c0.7-2.1,1.7-4,3.2-5.6c1.4-1.6,3.1-2.8,5-3.7c2.1-0.9,4.5-1.4,6.8-1.3 M499.2,736.8h23.5c0-1.7-0.2-3.5-0.8-5.1
	c-0.5-1.4-1.2-2.7-2.2-3.8c-0.9-1.1-2.1-1.9-3.4-2.4c-1.4-0.6-2.9-0.9-4.4-0.8c-1.7,0-3.4,0.3-4.9,0.9c-1.4,0.5-2.7,1.4-3.8,2.5
	c-1.1,1.1-2,2.4-2.6,3.9C499.8,733.3,499.4,735,499.2,736.8 M511.7,720.9c-2.5,0-4.9,0.4-7.2,1.4c-2.1,0.9-3.9,2.2-5.4,3.9
	c-1.5,1.7-2.6,3.8-3.4,5.9c-0.8,2.4-1.2,4.9-1.1,7.4c0,2.8,0.4,5.7,1.2,8.4c0.7,2.3,1.9,4.5,3.5,6.3c1.5,1.7,3.4,3.1,5.5,4
	c2.2,0.9,4.6,1.4,7,1.3c1.4,0,2.8-0.1,4.2-0.4c1.3-0.3,2.6-0.6,3.9-1.1c1.2-0.4,2.3-1,3.3-1.7c0.9-0.6,1.8-1.3,2.5-2.2l0.5-0.6
	l-0.5-0.6l-0.9-1.1c-0.3-0.5-0.9-0.8-1.5-0.8c-0.7,0.1-1.3,0.3-1.8,0.8c-0.6,0.5-1.3,0.9-2,1.3c-1,0.5-2,0.9-3.1,1.3
	c-1.4,0.4-2.9,0.6-4.4,0.5c-1.7,0-3.5-0.3-5-1c-1.5-0.6-2.8-1.6-3.8-2.8c-1.1-1.4-2-3-2.5-4.8c-0.6-2.1-0.9-4.3-0.9-6.5h24.7
	c0.6,0,1.1-0.2,1.5-0.7c0.4-0.5,0.5-1.1,0.5-1.7c0-2.4-0.3-4.7-1.1-7c-0.7-1.9-1.7-3.7-3.2-5.2c-1.3-1.4-3-2.5-4.8-3.3
	C515.8,721.3,513.7,720.9,511.7,720.9L511.7,720.9z M500.3,735.7c0.2-1.3,0.6-2.5,1.1-3.6c0.6-1.3,1.4-2.5,2.4-3.6
	c1-1,2.1-1.7,3.4-2.3c1.5-0.5,3-0.8,4.6-0.8c1.4,0,2.8,0.2,4.1,0.8c1.2,0.5,2.3,1.3,3.2,2.4c0.9,1,1.6,2.2,2,3.5
	c0.4,1.2,0.6,2.5,0.7,3.8L500.3,735.7z"/>
<path d="M576.8,707.4l20.8,50.7h-2.8c-0.3,0-0.6-0.1-0.8-0.3c-0.2-0.2-0.4-0.4-0.5-0.7l-6-14.7h-24.9l-6,14.7
	c-0.1,0.3-0.3,0.5-0.5,0.7c-0.2,0.2-0.5,0.3-0.9,0.3h-2.8l20.8-50.7L576.8,707.4 M563.6,739.7h22.7L576,714
	c-0.2-0.4-0.3-0.9-0.5-1.4s-0.3-1.1-0.5-1.6c-0.2,0.6-0.3,1.1-0.5,1.6s-0.3,1-0.5,1.4L563.6,739.7 M577.5,706.3h-5l-0.3,0.6
	l-20.8,50.7l-0.6,1.4h4.3c0.5,0,1.1-0.2,1.5-0.5c0.4-0.3,0.6-0.7,0.8-1.1l5.7-14.1h23.6l5.7,14.1c0.2,0.4,0.4,0.8,0.8,1.1
	c0.4,0.3,0.9,0.5,1.5,0.5h4.3l-0.6-1.4L577.7,707L577.5,706.3L577.5,706.3z M565.1,738.6l9.8-24.2l0.1-0.2l0.1,0.2l9.8,24.2
	L565.1,738.6z"/>
<path d="M618.8,721.8c1,0,2,0.1,3,0.3c0.9,0.2,1.8,0.6,2.6,1l-0.5,2.4c0,0.4-0.3,0.6-0.7,0.6c0,0,0,0,0,0c-0.2,0-0.4-0.1-0.6-0.1
	c-0.3-0.1-0.6-0.2-1-0.3c-0.5-0.1-1-0.2-1.5-0.3c-0.7-0.1-1.3-0.2-2-0.2c-2.5-0.1-4.9,0.8-6.6,2.5c-2,2-3.4,4.5-4.2,7.2v23.2h-3.4
	v-35.6h1.8c0.3,0,0.6,0.1,0.9,0.3c0.2,0.2,0.3,0.5,0.3,0.9l0.3,7.5c1-2.6,2.5-4.9,4.6-6.8C613.7,722.6,616.2,721.7,618.8,721.8
	 M618.8,720.8c-2.8-0.1-5.6,0.9-7.7,2.7c-1.2,1-2.2,2.3-3.1,3.6l-0.1-3.6c0-1.1-0.8-2-1.9-2.1c-0.1,0-0.2,0-0.3,0h-2.8v37.7h5.4v-24
	c0.8-2.5,2.1-4.8,3.9-6.7c1.6-1.5,3.7-2.3,6-2.2c0.6,0,1.2,0,1.8,0.1c0.5,0.1,0.9,0.2,1.3,0.3h0.2l0.8,0.3c0.3,0.1,0.7,0.2,1,0.2
	c0.8,0,1.6-0.6,1.7-1.4l0.5-2.3l0.1-0.7l-0.7-0.3c-0.9-0.5-1.8-0.8-2.8-1.1C620.9,720.9,619.9,720.8,618.8,720.8L618.8,720.8z"/>
<path d="M636.1,705.9v22.7c1.5-2,3.3-3.7,5.5-5c2.1-1.2,4.5-1.9,7-1.8c4.4,0,7.8,1.5,10.2,4.5c2.5,3,3.7,7.6,3.7,13.6
	c0,2.5-0.3,4.9-1,7.3c-0.6,2.1-1.6,4.1-3,5.9c-1.3,1.7-3,3-4.9,3.9c-2.1,1-4.4,1.5-6.7,1.4c-4.4,0.2-8.7-2-11.1-5.7l-0.2,4.4
	c0,0.5-0.4,0.9-0.9,0.9c0,0-0.1,0-0.1,0h-2v-52.1H636.1 M646.3,755.9c1.9,0,3.8-0.3,5.5-1.1c1.6-0.7,2.9-1.9,4-3.2
	c1.1-1.5,1.9-3.2,2.4-5c0.5-2.1,0.8-4.3,0.7-6.5c0-5.3-1-9.2-2.9-11.7c-2-2.5-4.8-3.7-8.4-3.7c-2.3,0-4.5,0.6-6.4,1.8
	c-2,1.3-3.8,3.1-5.1,5.1v18.8c1.1,1.8,2.7,3.3,4.5,4.3C642.4,755.5,644.3,755.9,646.3,755.9 M637.1,704.9h-5.4v54.2h3
	c1,0,1.9-0.8,2-1.8v-0.1l0.1-1.8c1,1,2.1,1.8,3.3,2.5c2.1,1.1,4.5,1.6,6.9,1.6c2.4,0,4.9-0.5,7.1-1.5c2-1,3.8-2.4,5.2-4.2
	c1.5-1.8,2.5-4,3.2-6.2c0.7-2.5,1.1-5,1.1-7.6c0-6.3-1.3-11.1-3.9-14.3s-6.3-4.9-11-4.9c-2.6,0-5.2,0.7-7.5,2
	c-1.5,0.9-2.8,1.9-4,3.2v-20L637.1,704.9L637.1,704.9z M637.1,731.8c1.2-1.8,2.8-3.4,4.7-4.6c1.8-1.1,3.8-1.7,5.9-1.7
	c3.4,0,5.9,1.1,7.7,3.4S658,735,658,740c0,2.1-0.2,4.2-0.8,6.2c-0.4,1.7-1.2,3.3-2.2,4.7c-1,1.3-2.2,2.3-3.6,3
	c-3.3,1.4-7.1,1.4-10.3-0.1c-1.6-0.9-3-2.2-4-3.7L637.1,731.8L637.1,731.8z"/>
<path d="M674.2,706.9c0.4,0,0.8,0.1,1.2,0.3c0.4,0.2,0.7,0.4,1,0.7c0.3,0.3,0.5,0.6,0.7,1c0.2,0.4,0.3,0.8,0.3,1.2
	c0,0.4-0.1,0.8-0.3,1.2c-0.2,0.4-0.4,0.7-0.7,1c-0.3,0.3-0.6,0.5-1,0.7c-0.8,0.3-1.7,0.3-2.4,0c-0.4-0.2-0.7-0.4-1-0.7
	c-0.3-0.3-0.5-0.6-0.7-1c-0.2-0.4-0.3-0.8-0.3-1.2c0-0.4,0.1-0.8,0.3-1.2c0.2-0.4,0.4-0.7,0.7-1c0.3-0.3,0.6-0.5,1-0.7
	C673.4,707,673.8,706.9,674.2,706.9 M675.9,722.4v35.7h-3.4v-35.6L675.9,722.4 M674.2,706c-0.6,0-1.1,0.1-1.6,0.3
	c-0.5,0.2-0.9,0.5-1.3,0.9c-0.4,0.4-0.7,0.8-0.9,1.3c-0.2,0.5-0.3,1.1-0.3,1.6c0,0.6,0.1,1.1,0.3,1.6c0.2,0.5,0.5,0.9,0.9,1.3
	c0.4,0.4,0.8,0.7,1.3,0.9c1,0.4,2.2,0.4,3.2,0c0.5-0.2,0.9-0.5,1.3-0.9c0.4-0.4,0.7-0.8,0.9-1.3c0.2-0.5,0.4-1.1,0.4-1.6
	c0-0.6-0.1-1.1-0.4-1.7c-0.2-0.5-0.5-0.9-0.9-1.3c-0.4-0.4-0.8-0.7-1.3-0.9C675.3,706.1,674.7,705.9,674.2,706L674.2,706z
	 M676.9,721.4h-5.4v37.7h5.4V721.4z"/>
<path d="M694,709.9v13.6h11.2v2.5H694v24.2c0,0.9,0.1,1.7,0.4,2.5c0.2,0.6,0.5,1.2,1,1.7c0.4,0.4,1,0.8,1.6,1
	c0.6,0.2,1.3,0.3,1.9,0.3c0.8,0,1.5-0.1,2.2-0.4c0.6-0.2,1.1-0.5,1.6-0.8c0.4-0.2,0.8-0.5,1.1-0.8c0.2-0.2,0.4-0.3,0.7-0.4
	c0.2,0,0.5,0.2,0.6,0.4l0.9,1.5c-1,1-2.1,1.9-3.5,2.4c-1.4,0.6-2.9,0.9-4.4,0.9c-2.1,0.1-4.1-0.6-5.6-2c-1.3-1.3-2-3.4-2-6.2v-24.4
	h-5.1c-0.2,0-0.5-0.1-0.7-0.2c-0.2-0.2-0.3-0.4-0.3-0.6v-1.3l6.1-0.4l0.8-12.8c0-0.2,0.1-0.4,0.3-0.6c0.2-0.2,0.4-0.3,0.6-0.3
	L694,709.9 M695,708.9h-2.6c-0.5,0-1,0.2-1.4,0.6c-0.3,0.3-0.5,0.7-0.5,1.1l-0.8,11.9l-5.2,0.4l-0.9,0.1v2.3c0,0.5,0.2,1,0.6,1.4
	c0.4,0.3,0.8,0.5,1.3,0.4h4.1v23.4c0,3.1,0.8,5.4,2.3,6.9c1.7,1.6,4,2.4,6.3,2.3c1.6,0,3.3-0.3,4.8-1c1.4-0.6,2.7-1.5,3.8-2.7
	l0.5-0.6l-0.4-0.6l-0.9-1.5v0l0,0c-0.3-0.4-0.8-0.7-1.3-0.7c-0.5,0-1,0.3-1.3,0.6c-0.3,0.3-0.7,0.5-1,0.7c-0.5,0.3-0.9,0.5-1.4,0.7
	c-0.6,0.2-1.2,0.3-1.8,0.3c-0.5,0-1.1-0.1-1.6-0.3c-0.4-0.2-0.8-0.4-1.2-0.8c-0.4-0.4-0.7-0.9-0.8-1.4c-0.2-0.7-0.3-1.5-0.3-2.2
	v-23.2h11.1v-4.5H695V708.9L695,708.9z"/>
<path d="M729,721.8c1,0,2,0.1,3,0.3c0.9,0.2,1.8,0.6,2.6,1l-0.5,2.4c0,0.4-0.3,0.6-0.7,0.6c0,0,0,0,0,0c-0.2,0-0.4-0.1-0.6-0.1
	c-0.3-0.1-0.6-0.2-1-0.3c-0.5-0.1-1-0.2-1.5-0.3c-0.7-0.1-1.3-0.2-2-0.2c-2.5-0.1-4.9,0.8-6.6,2.5c-2,2-3.4,4.5-4.2,7.2v23.2H714
	v-35.6h1.8c0.3,0,0.6,0.1,0.9,0.3c0.2,0.2,0.3,0.5,0.3,0.9l0.3,7.5c1-2.6,2.5-4.9,4.6-6.8C723.8,722.6,726.3,721.7,729,721.8
	 M728.9,720.8c-2.8-0.1-5.6,0.9-7.7,2.7c-1.2,1-2.2,2.3-3.1,3.6l-0.1-3.6c0-1.1-0.8-2-1.9-2.1c-0.1,0-0.2,0-0.3,0H713v37.7h5.4v-24
	c0.8-2.5,2.1-4.8,3.9-6.7c1.6-1.5,3.7-2.3,6-2.2c0.6,0,1.2,0,1.8,0.1c0.5,0.1,0.9,0.2,1.3,0.3h0.2l0.8,0.3c0.3,0.1,0.7,0.2,1,0.2
	c0.8,0,1.6-0.6,1.7-1.4l0.5-2.3l0.1-0.7l-0.7-0.3c-0.9-0.5-1.8-0.8-2.8-1.1C731.1,720.9,730,720.8,728.9,720.8L728.9,720.8z"/>
<path d="M753.4,721.8c1.7,0,3.4,0.3,5,0.9c1.4,0.6,2.6,1.5,3.6,2.6c1,1.2,1.7,2.6,2.1,4.1c0.5,1.8,0.7,3.6,0.7,5.4v23.2h-1.4
	c-0.6,0.1-1.2-0.4-1.3-1l-0.5-4.5c-1,1-2,1.8-2.9,2.6c-0.9,0.7-1.9,1.4-3,1.9c-1.1,0.5-2.2,0.9-3.4,1.2c-1.3,0.3-2.7,0.4-4,0.4
	c-1.2,0-2.4-0.2-3.5-0.5c-1.1-0.3-2.1-0.9-3-1.7c-0.9-0.8-1.6-1.8-2.1-2.8c-0.6-1.3-0.8-2.7-0.8-4.2c0-1.5,0.4-3,1.3-4.2
	c1-1.4,2.4-2.6,4-3.4c2.2-1.1,4.6-1.9,7.1-2.3c3.4-0.6,6.9-1,10.4-1v-3.7c0-3.3-0.7-5.8-2.1-7.6c-1.6-1.8-3.9-2.8-6.3-2.7
	c-1.5,0-3,0.2-4.4,0.7c-1.1,0.4-2.1,0.9-3.1,1.6c-0.7,0.5-1.4,1-2,1.6c-0.3,0.4-0.8,0.6-1.3,0.7c-0.5,0-0.9-0.2-1.1-0.7l-0.6-1
	c1.7-1.7,3.7-3.2,5.9-4.2c2.2-1,4.6-1.5,7-1.4 M749.2,756.2c1.3,0,2.6-0.1,3.8-0.5c1.1-0.3,2.2-0.7,3.2-1.3c1-0.5,1.9-1.2,2.8-1.9
	c0.9-0.7,1.7-1.5,2.5-2.4v-9.3c-2.9,0.1-5.9,0.3-8.8,0.8c-2.1,0.3-4.1,0.9-6,1.7c-1.4,0.5-2.6,1.4-3.5,2.6c-0.8,0.9-1.2,2.1-1.3,3.3
	c0,1.1,0.2,2.1,0.6,3.1c0.4,0.8,0.9,1.6,1.6,2.2c0.7,0.6,1.4,1,2.3,1.2c0.9,0.3,1.8,0.4,2.7,0.4 M753.4,720.8
	c-2.6,0-5.1,0.5-7.4,1.5c-2.3,1.1-4.4,2.6-6.2,4.4l-0.5,0.5l0.4,0.7l0.6,1c0.4,0.7,1.1,1.2,1.9,1.1c0.8-0.1,1.5-0.4,2-1
	c0.6-0.5,1.3-1,1.9-1.5c0.9-0.6,1.9-1.1,2.9-1.5c1.3-0.5,2.6-0.7,4-0.7c2.1-0.2,4.2,0.7,5.5,2.3c1.3,1.6,1.9,3.9,1.9,7v2.8
	c-3.2,0.1-6.4,0.4-9.6,1c-2.5,0.5-5,1.3-7.3,2.4c-1.8,0.8-3.3,2.1-4.4,3.7c-1,1.4-1.5,3.1-1.5,4.8c0,1.6,0.3,3.2,0.9,4.6
	c0.6,1.2,1.4,2.3,2.4,3.2c1,0.8,2.2,1.5,3.4,1.8c1.2,0.4,2.5,0.6,3.8,0.6c1.4,0,2.8-0.1,4.2-0.4c1.3-0.3,2.5-0.7,3.6-1.3
	c1.1-0.6,2.2-1.2,3.2-2c0.5-0.4,1-0.8,1.5-1.3l0.3,2.6v0.1v0.1c0.2,1.1,1.2,1.8,2.3,1.8h2.4v-24.3c0-1.9-0.2-3.8-0.8-5.7
	c-0.5-1.6-1.3-3.2-2.3-4.5c-1.1-1.3-2.4-2.3-3.9-2.9C757.1,721.1,755.2,720.8,753.4,720.8L753.4,720.8z M749.1,755.2
	c-0.8,0-1.6-0.1-2.4-0.3c-0.7-0.2-1.3-0.5-1.9-1c-0.6-0.5-1-1.1-1.3-1.8c-0.4-0.9-0.5-1.8-0.5-2.7c0-1,0.3-2,0.9-2.8
	c0.8-1,1.9-1.8,3.1-2.3c1.9-0.8,3.8-1.3,5.8-1.6c2.5-0.4,5.1-0.6,7.6-0.7v7.8c-0.7,0.7-1.5,1.4-2.2,2c-0.8,0.7-1.7,1.3-2.6,1.8
	c-0.9,0.5-2,0.9-3,1.2C751.5,755,750.3,755.2,749.1,755.2L749.1,755.2z"/>
<path d="M787.3,721.8c1.5,0,2.9,0.2,4.3,0.6c1.3,0.4,2.5,0.9,3.6,1.6h9.1v1.2c0,0.6-0.3,0.9-1,1l-5.4,0.4c0.7,0.9,1.2,2,1.5,3.1
	c0.4,1.2,0.5,2.4,0.5,3.6c0,1.6-0.3,3.2-0.9,4.7c-0.6,1.4-1.5,2.6-2.6,3.6c-1.2,1-2.5,1.8-4,2.3c-1.7,0.6-3.4,0.8-5.2,0.8
	c-1.9,0-3.8-0.3-5.6-0.9c-0.9,0.5-1.7,1.2-2.4,2c-0.5,0.7-0.8,1.5-0.9,2.3c-0.1,0.9,0.4,1.8,1.1,2.4c0.8,0.6,1.8,1,2.8,1.2
	c1.3,0.3,2.7,0.4,4,0.5l4.6,0.2c1.6,0.1,3.1,0.2,4.6,0.5c1.4,0.2,2.8,0.6,4,1.1c1.1,0.5,2.1,1.3,2.8,2.3c0.8,1.1,1.1,2.5,1.1,3.9
	c0,1.5-0.4,3-1.1,4.3c-0.8,1.4-1.9,2.7-3.2,3.6c-1.5,1.1-3.3,2-5.1,2.5c-2.2,0.7-4.4,1-6.7,1c-2.2,0-4.4-0.2-6.6-0.8
	c-1.7-0.4-3.3-1.1-4.8-2.1c-1.2-0.8-2.2-1.8-2.9-3c-0.6-1.1-1-2.4-1-3.7c0-1.8,0.6-3.6,1.9-4.9c1.4-1.5,3.2-2.6,5.1-3.2
	c-1.1-0.3-2.1-0.9-2.8-1.8c-0.8-0.9-1.1-2-1.1-3.2c0-0.5,0.1-1.1,0.3-1.6c0.2-0.6,0.5-1.1,0.9-1.6c0.4-0.6,0.9-1.1,1.4-1.5
	c0.6-0.5,1.2-0.9,1.9-1.3c-1.7-0.9-3-2.3-4-3.9c-1-1.7-1.5-3.7-1.4-5.7c0-1.6,0.3-3.2,0.9-4.7c0.6-1.4,1.5-2.6,2.6-3.6
	c1.2-1,2.5-1.8,4-2.3c1.7-0.6,3.5-0.8,5.2-0.8 M787.2,742.4c1.4,0,2.8-0.2,4.1-0.7c1.1-0.4,2.1-1,3-1.8c0.8-0.8,1.5-1.8,1.8-2.8
	c0.4-1.2,0.6-2.4,0.6-3.7c0-1.3-0.2-2.5-0.7-3.7c-0.4-1.1-1.1-2.1-1.9-2.8c-0.9-0.8-1.9-1.4-3-1.8c-1.3-0.4-2.6-0.7-4-0.7
	c-1.4,0-2.7,0.2-4,0.7c-1.1,0.4-2.1,1-3,1.8c-0.8,0.8-1.5,1.8-1.9,2.8c-0.4,1.2-0.7,2.4-0.7,3.7c0,1.2,0.2,2.5,0.7,3.7
	c0.4,1.1,1.1,2,1.9,2.8c0.9,0.8,1.9,1.4,3,1.8C784.5,742.2,785.9,742.4,787.2,742.4 M787.6,768.9c1.7,0,3.4-0.2,5.1-0.6
	c1.4-0.4,2.8-0.9,4.1-1.7c1.1-0.7,2-1.6,2.7-2.7c0.7-1,1-2.2,1-3.4c0-1-0.3-1.9-0.9-2.7c-0.6-0.7-1.4-1.3-2.3-1.6
	c-1.1-0.4-2.2-0.7-3.4-0.8c-1.3-0.2-2.6-0.3-4-0.3l-4.2-0.2c-1.3-0.1-2.6-0.2-3.9-0.4c-0.9,0.3-1.7,0.8-2.5,1.2
	c-0.7,0.4-1.4,1-2,1.6c-0.5,0.6-1,1.2-1.3,1.9c-0.3,0.7-0.5,1.5-0.5,2.3c0,1,0.3,2,0.8,2.9c0.6,1,1.4,1.8,2.4,2.3
	c1.2,0.7,2.5,1.2,3.8,1.6C784.2,768.7,785.9,768.9,787.6,768.9 M787.3,720.9c-1.9,0-3.8,0.3-5.6,0.9c-1.6,0.5-3.1,1.4-4.4,2.5
	c-1.2,1.1-2.2,2.4-2.8,3.9c-0.7,1.6-1,3.3-1,5.1c0,2.2,0.5,4.3,1.5,6.2c0.8,1.3,1.8,2.5,3,3.4c-0.2,0.2-0.5,0.4-0.7,0.6
	c-0.6,0.5-1.1,1.1-1.5,1.7c-0.4,0.6-0.8,1.2-1,1.9c-0.2,0.6-0.3,1.3-0.3,1.9c-0.1,1.4,0.4,2.8,1.3,3.9c0.3,0.4,0.7,0.7,1.2,1
	c-1.3,0.6-2.5,1.5-3.5,2.5c-1.4,1.5-2.2,3.5-2.1,5.5c0,1.5,0.4,2.9,1.1,4.1c0.8,1.4,1.9,2.5,3.2,3.4c1.5,1,3.3,1.8,5,2.2
	c2.2,0.6,4.5,0.8,6.8,0.8c2.4,0,4.7-0.3,7-1c1.9-0.6,3.7-1.5,5.4-2.7c1.4-1.1,2.6-2.4,3.5-4c0.8-1.5,1.2-3.1,1.2-4.7
	c0.1-1.6-0.4-3.1-1.3-4.5c-0.8-1.1-2-2-3.3-2.6c-1.4-0.6-2.8-1-4.3-1.2c-1.5-0.2-3.1-0.4-4.7-0.5l-4.6-0.2c-1.3,0-2.6-0.2-3.9-0.5
	c-0.9-0.1-1.7-0.5-2.5-1c-0.5-0.4-0.7-1-0.7-1.6c0-0.6,0.3-1.2,0.7-1.7c0.5-0.6,1-1.1,1.7-1.5c1.8,0.6,3.6,0.8,5.5,0.8
	c1.9,0,3.7-0.3,5.5-0.9c1.6-0.5,3.1-1.4,4.3-2.5c1.2-1.1,2.2-2.4,2.8-3.9c0.7-1.6,1-3.3,1-5.1c0-1.3-0.2-2.7-0.6-3.9
	c-0.2-0.7-0.5-1.3-0.8-1.9l3.8-0.3c1,0,1.9-0.8,1.9-1.8c0-0.1,0-0.1,0-0.2V723h-9.8c-1.1-0.7-2.3-1.2-3.6-1.6
	C790.4,721,788.8,720.8,787.3,720.9L787.3,720.9z M787.3,741.4c-1.3,0-2.5-0.2-3.7-0.6c-1-0.4-1.9-0.9-2.7-1.6
	c-0.7-0.7-1.3-1.5-1.6-2.5c-0.4-1.1-0.6-2.2-0.6-3.3c0-1.1,0.2-2.3,0.6-3.3c0.4-0.9,0.9-1.8,1.6-2.5c0.8-0.7,1.7-1.3,2.7-1.6
	c1.2-0.4,2.4-0.6,3.7-0.6c1.3,0,2.5,0.2,3.7,0.6c1,0.3,1.9,0.9,2.7,1.6c0.7,0.7,1.3,1.5,1.6,2.5c0.4,1.1,0.6,2.2,0.6,3.3
	c0,1.1-0.2,2.2-0.6,3.3c-0.3,0.9-0.9,1.8-1.6,2.5c-0.8,0.7-1.7,1.3-2.7,1.6C789.8,741.2,788.6,741.4,787.3,741.4L787.3,741.4z
	 M787.6,767.9c-1.7,0-3.3-0.2-5-0.5c-1.2-0.3-2.4-0.8-3.5-1.4c-0.8-0.5-1.5-1.2-2-2c-0.4-0.7-0.7-1.6-0.7-2.4c0-0.7,0.1-1.3,0.4-1.9
	c0.3-0.6,0.6-1.2,1.1-1.7c0.5-0.5,1.1-1,1.8-1.4c0.7-0.4,1.4-0.8,2.1-1.1c1.3,0.2,2.5,0.3,3.8,0.4l4.2,0.2c1.5,0.1,2.8,0.2,3.9,0.3
	c1.1,0.1,2.1,0.4,3.2,0.8c0.7,0.3,1.4,0.7,1.9,1.3c0.5,0.6,0.7,1.3,0.6,2.1c0,1-0.3,2-0.8,2.8c-0.6,0.9-1.5,1.8-2.4,2.3
	c-1.2,0.7-2.5,1.3-3.8,1.6C790.9,767.7,789.3,767.9,787.6,767.9L787.6,767.9z"/>
<path d="M825.2,721.8c1.9,0,3.8,0.3,5.6,1c1.7,0.7,3.2,1.7,4.4,3c1.3,1.4,2.3,3.1,2.9,4.9c0.7,2.1,1.1,4.4,1.1,6.7
	c0,0.4,0,0.8-0.2,1.1c-0.2,0.2-0.5,0.3-0.7,0.3h-25.8v0.7c0,2.4,0.3,4.8,0.9,7.1c0.5,1.9,1.4,3.6,2.7,5.1c1.1,1.4,2.5,2.4,4.2,3.1
	c1.7,0.7,3.6,1,5.4,1c1.6,0,3.1-0.2,4.7-0.6c1.1-0.3,2.3-0.8,3.3-1.3c0.7-0.4,1.5-0.8,2.1-1.3c0.3-0.3,0.7-0.5,1.2-0.6
	c0.3,0,0.6,0.1,0.7,0.4l0.9,1.1c-0.7,0.8-1.4,1.5-2.3,2c-1,0.6-2,1.2-3.2,1.6c-1.2,0.5-2.5,0.8-3.7,1.1c-1.3,0.3-2.7,0.4-4,0.4
	c-2.3,0-4.6-0.4-6.7-1.3c-2-0.8-3.7-2.1-5.2-3.7c-1.5-1.8-2.6-3.8-3.3-6c-0.8-2.6-1.2-5.3-1.2-8.1c0-2.4,0.3-4.8,1.1-7.1
	c0.7-2.1,1.7-4,3.2-5.6c1.4-1.6,3.1-2.8,5-3.7c2.1-0.9,4.5-1.4,6.8-1.3 M812.6,736.5H836c0-1.7-0.2-3.5-0.8-5.1
	c-0.5-1.4-1.2-2.7-2.2-3.8c-0.9-1.1-2.1-1.9-3.4-2.4c-1.4-0.6-2.9-0.9-4.4-0.8c-1.7,0-3.4,0.3-4.9,0.9c-1.4,0.5-2.7,1.4-3.8,2.5
	c-1.1,1.2-1.9,2.5-2.5,4c-0.7,1.6-1.1,3.3-1.3,5 M825.2,720.8c-2.5,0-4.9,0.4-7.2,1.4c-2.1,0.9-3.9,2.2-5.4,3.9
	c-1.5,1.7-2.6,3.8-3.3,5.9c-0.8,2.4-1.2,4.9-1.1,7.4c0,2.8,0.4,5.7,1.2,8.4c0.7,2.3,1.9,4.5,3.5,6.3c1.5,1.7,3.4,3.1,5.5,4
	c2.2,0.9,4.6,1.4,7,1.3c1.4,0,2.8-0.1,4.2-0.4c1.3-0.3,2.6-0.6,3.9-1.1c1.2-0.4,2.3-1,3.3-1.7c0.9-0.6,1.8-1.3,2.5-2.2l0.5-0.6
	l-0.5-0.6l-0.9-1.1c-0.3-0.5-0.9-0.8-1.5-0.8c-0.7,0.1-1.3,0.3-1.8,0.8c-0.6,0.5-1.3,0.9-2,1.3c-1,0.5-2,0.9-3.1,1.3
	c-1.4,0.4-2.9,0.6-4.4,0.5c-1.7,0-3.5-0.3-5-1c-1.5-0.6-2.8-1.6-3.8-2.8c-1.1-1.4-2-3-2.5-4.8c-0.6-2.1-0.9-4.3-0.9-6.5h24.7
	c0.6,0,1.1-0.2,1.5-0.7c0.4-0.5,0.5-1.1,0.5-1.7c0-2.4-0.3-4.7-1.1-7c-0.7-1.9-1.7-3.7-3.2-5.2c-1.3-1.4-3-2.5-4.8-3.3
	C829.3,721.2,827.3,720.8,825.2,720.8L825.2,720.8z M813.8,735.6c0.2-1.3,0.6-2.5,1.1-3.6c0.6-1.3,1.4-2.5,2.4-3.6
	c1-1,2.1-1.7,3.4-2.3c1.5-0.5,3-0.8,4.6-0.8c1.4,0,2.8,0.2,4,0.8c1.2,0.5,2.2,1.2,3.1,2.2c0.9,1,1.6,2.2,2,3.5
	c0.4,1.2,0.6,2.5,0.7,3.8L813.8,735.6z"/>
<path d="M864.5,721.8c1.8,0,3.5,0.3,5.2,0.9c1.4,0.6,2.7,1.5,3.7,2.7c1,1.2,1.8,2.7,2.2,4.2c0.5,1.8,0.8,3.7,0.8,5.6v22.8H873v-22.8
	c0-3.3-0.8-6-2.3-7.9c-1.5-1.9-3.9-2.9-7-2.8c-2.3,0-4.6,0.6-6.5,1.8c-2.1,1.3-3.9,3-5.4,5v26.7h-3.4v-35.7h1.9c0.5,0,1,0.4,1.1,0.9
	l0.3,5.4c1.6-2,3.5-3.7,5.7-5C859.5,722.4,862,721.8,864.5,721.8 M864.6,720.8c-2.7,0-5.4,0.7-7.7,2c-1.6,0.9-3,2.1-4.3,3.4l-0.2-3
	v-0.1c-0.1-1-1-1.8-2.1-1.7h-2.9V759h5.4v-27.4c1.3-1.8,3-3.3,4.9-4.4c1.8-1.1,3.9-1.7,6-1.7c2.9,0,4.9,0.8,6.2,2.5s2.1,4.1,2.1,7.2
	V759h5.4v-23.8c0-2-0.2-4-0.8-5.9c-0.5-1.7-1.3-3.2-2.4-4.6c-1.1-1.3-2.5-2.3-4.1-3C868.4,721.1,866.5,720.7,864.6,720.8
	L864.6,720.8z"/>
<path d="M897.1,721.8c2,0,3.9,0.3,5.8,1c1.7,0.7,3.3,1.6,4.6,2.9l-0.8,1.2c-0.1,0.3-0.4,0.5-0.8,0.5c-0.4,0-0.7-0.2-1-0.5
	c-0.5-0.4-1.1-0.7-1.7-1c-0.8-0.4-1.6-0.7-2.5-1c-1.2-0.3-2.4-0.5-3.6-0.4c-1.2,0-2.4,0.2-3.5,0.5c-1,0.3-1.9,0.8-2.7,1.5
	c-0.7,0.6-1.3,1.3-1.8,2.2c-0.4,0.8-0.6,1.7-0.6,2.6c0,1,0.3,2,0.9,2.8c0.6,0.8,1.4,1.4,2.3,1.9c1,0.6,2.1,1,3.2,1.4l3.6,1.1
	c1.2,0.4,2.4,0.8,3.6,1.3c1.1,0.4,2.2,1,3.2,1.7c0.9,0.7,1.7,1.5,2.3,2.5c0.6,1.1,0.9,2.4,0.9,3.7c0,1.5-0.3,3-0.8,4.3
	c-0.5,1.3-1.4,2.5-2.4,3.5c-1.1,1-2.5,1.8-3.9,2.3c-1.7,0.6-3.5,0.9-5.3,0.9c-2.2,0.1-4.4-0.4-6.5-1.2c-1.8-0.8-3.4-1.8-4.9-3.1
	l0.8-1.2c0.1-0.2,0.2-0.3,0.4-0.4c0.2-0.1,0.4-0.2,0.6-0.1c0.4,0.1,0.8,0.3,1.2,0.6c0.6,0.5,1.1,0.9,1.8,1.2
	c0.9,0.5,1.8,0.9,2.7,1.2c1.3,0.4,2.6,0.6,4,0.6c1.4,0,2.7-0.2,4-0.6c1.1-0.4,2-0.9,2.9-1.7c0.8-0.7,1.4-1.6,1.7-2.5
	c0.4-1,0.6-2,0.6-3.1c0-1.1-0.3-2.1-0.9-3c-0.6-0.8-1.4-1.5-2.3-2c-1-0.6-2.1-1-3.2-1.4c-1.2-0.4-2.4-0.8-3.7-1.2s-2.5-0.8-3.7-1.3
	c-1.1-0.4-2.2-1-3.2-1.7c-0.9-0.7-1.7-1.5-2.3-2.5c-0.6-1.1-0.9-2.4-0.9-3.7c0-1.3,0.3-2.5,0.8-3.7c0.6-1.2,1.4-2.2,2.3-3.1
	c1.1-0.9,2.4-1.7,3.7-2.1C893.8,722.1,895.4,721.8,897.1,721.8 M897.1,720.9c-1.8,0-3.6,0.3-5.3,0.8c-1.5,0.5-2.8,1.3-4,2.3
	c-1.1,0.9-2,2.1-2.6,3.4c-0.6,1.3-0.9,2.7-0.9,4.1c0,1.5,0.3,2.9,1,4.2c0.6,1.1,1.5,2.1,2.5,2.8c1.1,0.8,2.2,1.4,3.4,1.8
	c1.2,0.5,2.5,0.9,3.7,1.3c1.4,0.4,2.6,0.8,3.6,1.1c1,0.3,2.1,0.8,3,1.3c0.8,0.4,1.4,1,2,1.7c0.5,0.7,0.7,1.5,0.7,2.4
	c0,0.9-0.2,1.8-0.5,2.7c-0.3,0.8-0.8,1.6-1.5,2.2c-0.7,0.7-1.6,1.2-2.5,1.5c-1.2,0.4-2.4,0.6-3.6,0.6c-1.3,0-2.5-0.1-3.7-0.5
	c-0.9-0.3-1.7-0.7-2.5-1.2c-0.6-0.3-1.1-0.7-1.6-1.1c-0.5-0.5-1.1-0.8-1.8-0.8c-0.4,0-0.8,0.1-1.2,0.3c-0.3,0.2-0.5,0.4-0.7,0.7
	l-0.8,1.2l-0.5,0.7l0.7,0.6c1.5,1.4,3.3,2.5,5.1,3.3c2.2,0.9,4.5,1.3,6.9,1.3c1.9,0,3.8-0.3,5.7-0.9c1.6-0.6,3-1.4,4.3-2.5
	c1.2-1.1,2.1-2.4,2.7-3.8c0.6-1.5,0.9-3.1,0.9-4.7c0-1.4-0.3-2.9-1-4.2c-0.6-1.1-1.5-2.1-2.5-2.8c-1-0.8-2.2-1.4-3.4-1.9
	c-1.2-0.5-2.4-0.9-3.7-1.3l-3.6-1.1c-1-0.3-2-0.8-3-1.3c-0.8-0.4-1.5-1-2-1.6c-0.5-0.6-0.7-1.4-0.7-2.2c0-0.7,0.2-1.5,0.5-2.1
	c0.4-0.7,0.9-1.3,1.5-1.8c0.7-0.6,1.6-1,2.4-1.3c1-0.3,2.1-0.5,3.2-0.5c1.1,0,2.3,0.1,3.3,0.4c0.8,0.2,1.6,0.5,2.3,0.9
	c0.5,0.3,1,0.6,1.5,0.9c0.4,0.4,1,0.6,1.6,0.6c0.7,0,1.3-0.4,1.7-1l0.7-1.2l0.5-0.7l-0.6-0.6c-1.5-1.3-3.1-2.4-5-3.1
	C901.3,721.2,899.2,720.9,897.1,720.9L897.1,720.9z"/>
<polyline class="st0" points="727,333 688.8,419.1 727.7,419.1 746,377 "/>
<polyline class="st0" points="711,206.8 781.8,206.9 746.4,287.7 "/>
<polyline class="st0" points="766,332 798.7,256.4 869.7,419.1 908.6,419.1 799.2,167 693.7,167 "/>
<path class="st0" d="M448.5,167.2v311.2h170.9c-12.8-2.7-25-7.6-36.2-14.4c-11.2-7-21-16-29-26.5h-63.4V167.2H448.5z"/>
<path class="st0" d="M218,325.7c0,28.1,6.4,53.8,19.2,77.1s31,41.9,54.8,55.6c23.7,13.8,51.2,20.6,82.4,20.6
	c16.7,0.2,33.3-2.6,49.1-8.2c2.4-0.9,4.5-1.7,6.7-2.6V425c-17.1,9.6-36.4,14.5-57.9,14.5c-22.2,0-41.8-5-58.8-15
	c-16.8-9.8-30.4-24.2-39.2-41.5c-9.1-17.7-13.7-37.5-13.7-59.4c-0.2-20.6,5-40.8,15-58.8c9.5-17.3,23.3-31.9,40-42.3
	c16.3-10.3,35.3-15.7,54.6-15.6c20.1,0,40.1,5.7,60,17.2v-45c-4.3-1.6-8.7-3.2-13.3-4.6c-15.6-4.6-31.8-6.9-48-6.7
	c-28.9,0-54.8,6.8-77.7,20.4c-22.8,13.5-41.4,33-53.7,56.4C224.5,268.6,218,295.7,218,325.7z"/>
<path class="st0" d="M805,437.6h105c0,0-37,40.8-110.9,40.8c-17.6,0.1-35.1-2.4-51.9-7.4"/>
<polygon class="st0" points="693.7,167.2 583.8,419.1 622.7,419.1 693.7,256.4 764.7,419.1 803.6,419.1 711,206.8 "/>
<path class="st0" d="M747.6,470.6c-17.3,5.3-35.4,7.9-53.5,7.8c-73.9,0-110.9-40.8-110.9-40.8H805
	C805,437.6,785.9,458.7,747.6,470.6"/>
<line class="st0" x1="218" y1="553.5" x2="907.5" y2="553.5"/>
</svg>
