<?xml version="1.0" encoding="utf-8"?>
<!-- Generator: Adobe Illustrator 21.1.0, SVG Export Plug-In . SVG Version: 6.00 Build 0)  -->
<svg version="1.1" id="Camada_1" xmlns="http://www.w3.org/2000/svg" xmlns:xlink="http://www.w3.org/1999/xlink" x="0px" y="0px"
	 viewBox="0 0 2100 699" style="enable-background:new 0 0 2100 699;" xml:space="preserve">
<style type="text/css">
	.st0{fill:none;stroke:#000000;stroke-miterlimit:10;}
</style>
<title>CLA_logo</title>
<polyline class="st0" points="817.6,361.7 774,460 818.4,460 839.3,411.9 "/>
<polyline class="st0" points="799.3,217.6 880.1,217.7 839.7,310 "/>
<polyline class="st0" points="862.1,360.5 899.4,274.2 980.5,460 1024.9,460 900,172.2 779.6,172.2 "/>
<path class="st0" d="M499.7,172.5v355.2h195.1c-14.6-3.1-28.6-8.7-41.3-16.5c-12.8-8-24-18.3-33.2-30.2h-72.4V172.5H499.7z"/>
<path class="st0" d="M236.5,353.4c0,32.1,7.3,61.4,21.9,88s35.4,47.8,62.5,63.5c27.1,15.7,58.4,23.6,94,23.6c20.2,0,38.9-3.1,56-9.4
	c2.7-1,5.2-2,7.7-3v-49.4c-19.6,11-41.6,16.6-66.1,16.6c-25.3,0-47.7-5.7-67.1-17.1c-19.2-11.1-34.7-27.6-44.7-47.4
	c-10.4-20.2-15.6-42.8-15.6-67.8c0-24.4,5.7-46.7,17.1-67.1c10.8-19.8,26.6-36.4,45.7-48.3c18.6-11.7,40.3-17.9,62.3-17.8
	c23,0,45.8,6.5,68.5,19.6V186c-4.9-1.9-9.9-3.7-15.1-5.3c-17.8-5.3-36.3-7.9-54.8-7.7c-33,0-62.6,7.8-88.7,23.3s-46.6,37-61.3,64.5
	C243.9,288.2,236.5,319.1,236.5,353.4z"/>
<path class="st0" d="M906.7,481.1h119.8c0,0-42.2,46.6-126.6,46.6c-20.1,0.1-40-2.7-59.3-8.4"/>
<polygon class="st0" points="779.6,172.5 654.1,460 698.5,460 779.6,274.2 860.6,460 905,460 799.3,217.6 "/>
<path class="st0" d="M841.1,518.8c-19.8,6-40.4,9.1-61.1,8.9c-84.4,0-126.6-46.6-126.6-46.6h253.2
	C906.7,481.1,884.8,505.2,841.1,518.8"/>
<path d="M1092,283.4c1.9,0,3.9,0.1,5.8,0.5c1.7,0.3,3.3,0.7,4.9,1.4c1.5,0.6,2.9,1.3,4.3,2.2c1.4,0.9,2.7,1.9,3.9,3l-1.3,1.8
	c-0.2,0.3-0.6,0.5-1,0.5c-0.3,0-0.7-0.2-0.9-0.4l-1.5-1.1c-0.6-0.4-1.3-0.9-2.1-1.4c-1-0.6-2-1-3-1.4c-1.3-0.5-2.6-0.8-4-1.1
	c-1.7-0.3-3.4-0.4-5.1-0.4c-3.3,0-6.6,0.6-9.7,1.8c-2.9,1.2-5.5,2.9-7.6,5.2c-2.2,2.4-3.9,5.1-5,8.2c-1.2,3.5-1.8,7.1-1.7,10.8
	c-0.1,3.7,0.5,7.4,1.8,11c1.1,3,2.7,5.8,4.9,8.2c2.1,2.2,4.6,3.9,7.3,5.1c2.9,1.2,6,1.8,9.2,1.8c1.9,0,3.7-0.1,5.6-0.4
	c1.5-0.2,3-0.7,4.5-1.2c1.3-0.5,2.6-1.2,3.8-2c1.2-0.8,2.4-1.8,3.5-2.8c0.1-0.1,0.2-0.2,0.4-0.3c0.1-0.1,0.3-0.1,0.4-0.1
	c0.3,0,0.5,0.1,0.7,0.3l1.6,1.8c-1.2,1.3-2.5,2.4-3.9,3.5c-1.4,1-3,1.9-4.6,2.6c-1.8,0.8-3.6,1.3-5.5,1.7c-2.2,0.4-4.4,0.6-6.6,0.6
	c-3.8,0-7.5-0.7-11-2.1c-3.3-1.4-6.2-3.4-8.6-6c-2.5-2.7-4.4-5.9-5.6-9.3c-1.4-3.9-2.1-8-2-12.2c0-4.1,0.7-8.2,2.1-12
	c1.3-3.5,3.3-6.7,5.8-9.3c2.5-2.6,5.6-4.7,9-6c3.7-1.5,7.6-2.2,11.5-2.1 M1092.1,282.4c-4.1,0-8.1,0.7-11.9,2.2
	c-3.5,1.4-6.7,3.6-9.3,6.3c-2.6,2.8-4.7,6.1-6,9.7c-1.5,4-2.2,8.2-2.2,12.4c0,4.3,0.7,8.5,2.1,12.5c1.3,3.6,3.2,6.9,5.8,9.7
	c2.5,2.7,5.5,4.8,8.9,6.2c3.6,1.5,7.5,2.2,11.4,2.2c2.3,0,4.6-0.2,6.8-0.6c2-0.4,3.9-1,5.7-1.7c1.7-0.7,3.3-1.6,4.8-2.7
	c1.5-1.1,2.8-2.3,4.1-3.6l0.6-0.7l-0.6-0.7l-1.6-1.8c-0.4-0.4-0.9-0.6-1.4-0.6c-0.3,0-0.6,0.1-0.9,0.2c-0.2,0.1-0.3,0.2-0.5,0.4l0,0
	l0,0c-1,1-2.2,1.9-3.4,2.7c-1.1,0.8-2.3,1.4-3.6,1.9c-1.4,0.5-2.8,0.9-4.3,1.2c-1.8,0.3-3.6,0.4-5.4,0.4c-3,0-6-0.6-8.8-1.7
	c-2.7-1.1-5-2.8-7-4.9c-2.1-2.3-3.6-4.9-4.7-7.8c-1.2-3.4-1.8-7-1.7-10.6c0-3.6,0.5-7.1,1.7-10.4c1-2.9,2.7-5.6,4.8-7.8
	c2-2.2,4.5-3.9,7.3-5c2.9-1.2,6.1-1.8,9.3-1.7c1.6,0,3.3,0.1,4.9,0.4c1.3,0.2,2.6,0.6,3.8,1c1,0.3,1.9,0.8,2.8,1.3
	c0.8,0.5,1.5,1,2,1.3l0.1,0.1l1.4,1c0.4,0.4,1,0.6,1.5,0.6c0.7,0,1.4-0.3,1.9-0.9l1.3-1.8l0.5-0.7l-0.7-0.6c-1.3-1.1-2.6-2.2-4-3.1
	c-1.4-0.9-2.9-1.7-4.5-2.3c-1.6-0.6-3.3-1.1-5.1-1.4c-2-0.3-3.9-0.5-5.9-0.5L1092.1,282.4z"/>
<path d="M1138.6,284.1l8.9,10h-2.7c-0.4,0-0.8-0.2-1.1-0.5l-6.4-6.7c-0.2-0.1-0.3-0.3-0.4-0.5c0,0.1-0.1,0.2-0.2,0.3l-0.2,0.2
	l-6.4,6.7c-0.1,0.1-0.3,0.3-0.5,0.4c-0.2,0.1-0.4,0.1-0.6,0.1h-2.7l8.9-10L1138.6,284.1 M1137.3,300.6c2-0.1,3.9,0.3,5.7,1
	c1.6,0.7,3,1.7,4.1,3c1.1,1.4,2,3,2.4,4.7c0.6,2,0.8,4.1,0.8,6.1v26.5h-1.6c-0.7,0.1-1.4-0.4-1.5-1.1l-0.6-5.2
	c-1.1,1.1-2.2,2.1-3.3,3c-1.1,0.9-2.2,1.6-3.4,2.2c-1.2,0.6-2.5,1.1-3.9,1.4c-1.5,0.3-3,0.5-4.6,0.5c-1.4,0-2.7-0.2-4-0.6
	c-1.3-0.4-2.5-1-3.5-1.9c-1-0.9-1.9-2-2.4-3.3c-0.6-1.5-1-3.1-0.9-4.8c0-1.7,0.5-3.4,1.5-4.8c1.2-1.6,2.8-3,4.6-3.8
	c2.6-1.2,5.3-2.1,8.1-2.6c3.9-0.7,7.9-1.1,11.8-1.1v-4.3c0-3.8-0.8-6.7-2.4-8.7c-1.6-2-4-3-7.2-3c-1.7,0-3.4,0.2-5,0.8
	c-1.2,0.5-2.4,1.1-3.5,1.8c-0.8,0.5-1.6,1.2-2.3,1.8c-0.4,0.4-0.9,0.7-1.5,0.8c-0.5,0-1-0.3-1.2-0.7l-0.7-1.2c1.9-2,4.2-3.6,6.7-4.8
	C1131.9,301.1,1134.6,300.5,1137.3,300.6 M1132.5,339.8c1.5,0,2.9-0.2,4.4-0.5c1.3-0.3,2.5-0.8,3.7-1.4c1.1-0.6,2.2-1.3,3.2-2.2
	c1-0.8,2-1.8,2.9-2.7v-10.7c-3.3,0.1-6.7,0.4-10,0.9c-2.4,0.4-4.7,1-6.9,1.9c-1.6,0.6-2.9,1.6-4,2.9c-0.9,1.1-1.3,2.5-1.3,3.9
	c0,1.2,0.2,2.4,0.7,3.5c0.4,0.9,1,1.8,1.8,2.5c0.8,0.6,1.6,1.1,2.6,1.4C1130.4,339.6,1131.4,339.8,1132.5,339.8 M1139.2,283.1h-4.4
	l-0.3,0.3l-8.9,10l-1.5,1.7h5c0.4,0,0.7-0.1,1.1-0.3c0.3-0.1,0.5-0.3,0.7-0.5l0,0l0,0l6.1-6.4l6.1,6.4c0.5,0.5,1.1,0.8,1.8,0.8h4.9
	l-1.5-1.7l-8.9-10L1139.2,283.1L1139.2,283.1z M1137.4,299.5c-2.9,0-5.8,0.5-8.4,1.7c-2.6,1.2-5,2.9-7,5l-0.6,0.5l0.4,0.7l0.7,1.2
	c0.4,0.8,1.2,1.3,2.1,1.2c0.8-0.1,1.6-0.5,2.2-1.1c0.7-0.6,1.4-1.2,2.2-1.7c1-0.7,2.1-1.2,3.3-1.7c1.5-0.5,3.1-0.8,4.7-0.8
	c2.9,0,5,0.9,6.4,2.7s2.2,4.5,2.2,8.1v3.3c-3.7,0.1-7.4,0.5-11,1.1c-2.9,0.5-5.7,1.4-8.3,2.7c-2,0.9-3.7,2.4-5,4.2
	c-1.1,1.6-1.6,3.4-1.6,5.3c0,1.8,0.3,3.5,1,5.2c0.6,1.4,1.5,2.6,2.7,3.6c1.1,0.9,2.4,1.6,3.8,2.1c1.4,0.4,2.9,0.7,4.3,0.7
	c1.6,0,3.2-0.2,4.8-0.5c1.4-0.3,2.8-0.8,4.1-1.5c1.3-0.6,2.5-1.4,3.6-2.3c0.7-0.5,1.3-1.1,1.9-1.6l0.3,3.2v0.1v0.1
	c0.2,1.2,1.3,2,2.5,1.9h2.6v-27.5c0-2.2-0.3-4.3-0.9-6.4c-0.5-1.8-1.4-3.6-2.6-5.1c-1.2-1.4-2.7-2.6-4.4-3.3
	C1141.5,299.9,1139.4,299.5,1137.4,299.5L1137.4,299.5z M1132.5,338.8c-0.9,0-1.9-0.1-2.8-0.4c-0.8-0.2-1.6-0.7-2.2-1.2
	c-0.7-0.6-1.2-1.3-1.5-2.1c-0.4-1-0.6-2.1-0.6-3.1c0-1.2,0.4-2.3,1.1-3.3c0.9-1.2,2.2-2.1,3.5-2.6c2.1-0.9,4.4-1.5,6.7-1.9
	c2.9-0.5,5.9-0.7,8.8-0.8v9.1c-0.8,0.9-1.7,1.7-2.6,2.4c-0.9,0.8-1.9,1.5-3,2.1c-1.1,0.6-2.2,1-3.4,1.3c-1.3,0.3-2.7,0.5-4.1,0.5
	L1132.5,338.8z"/>
<path d="M1202.3,301.2c1.9,0,3.7,0.3,5.4,1c1.6,0.7,3,1.7,4.1,3c1.2,1.4,2.1,3.1,2.6,4.8c0.6,2.1,0.9,4.3,0.9,6.5v26h-3.9v-26
	c0-4-0.9-7-2.6-9.1c-1.8-2.1-4.6-3.3-7.4-3.1c-1.4,0-2.8,0.3-4.1,0.8c-1.3,0.5-2.5,1.3-3.4,2.3c-1,1.1-1.8,2.4-2.4,3.8
	c-0.6,1.7-0.9,3.5-0.9,5.3v26h-3.9v-26c0-3.9-0.8-7-2.4-9.1c-1.6-2.1-4.2-3.3-6.9-3.1c-2.2,0-4.3,0.7-6.1,2c-2,1.5-3.7,3.4-5,5.5
	v30.7h-3.9v-40.7h2.1c0.6-0.1,1.1,0.4,1.2,1c0,0,0,0,0,0l0.4,5.9c0.8-1.1,1.6-2.1,2.5-3.1c0.9-0.9,1.8-1.7,2.9-2.4
	c1-0.7,2.1-1.2,3.3-1.5c1.2-0.4,2.4-0.6,3.7-0.6c2.6-0.1,5.2,0.8,7.1,2.6c1.9,2,3.2,4.5,3.6,7.2c0.4-1.6,1.1-3,2.1-4.4
	c0.8-1.2,1.8-2.2,3-3c1.1-0.8,2.4-1.4,3.7-1.8C1199.5,301.5,1200.9,301.3,1202.3,301.2 M1202.3,300.3c-1.5,0-3,0.2-4.4,0.6
	c-1.4,0.4-2.8,1.1-4,1.9c-1.3,0.9-2.4,2-3.3,3.3c-0.4,0.6-0.8,1.2-1.1,1.8c-0.6-1.8-1.7-3.4-3-4.8c-2.1-2-4.9-3-7.8-2.9
	c-1.4,0-2.7,0.2-4,0.6c-1.2,0.4-2.4,1-3.5,1.7c-1.1,0.7-2.1,1.6-3,2.5c-0.3,0.3-0.7,0.7-1,1.1l-0.2-3.3v-0.1
	c-0.1-1.1-1.1-1.9-2.2-1.9h-3.1v42.7h5.9v-31.5c1.2-1.9,2.8-3.6,4.6-5c1.6-1.2,3.6-1.8,5.6-1.8c2.4-0.2,4.7,0.9,6.1,2.7
	c1.4,1.9,2.2,4.8,2.2,8.5v27h5.9v-27c0-1.7,0.2-3.4,0.8-5c0.5-1.3,1.2-2.5,2.2-3.5c0.9-0.9,1.9-1.6,3.1-2.1c1.2-0.5,2.4-0.7,3.7-0.7
	c2.5-0.2,4.9,0.9,6.6,2.8c1.6,1.9,2.3,4.7,2.3,8.5v27h5.9v-27c0-2.3-0.3-4.6-0.9-6.8c-0.6-1.9-1.5-3.7-2.8-5.2
	c-1.2-1.4-2.7-2.5-4.5-3.2c-1.8-0.7-3.8-1.1-5.8-1.1L1202.3,300.3z"/>
<path d="M1242.1,300.5c2-0.1,3.9,0.3,5.7,1c1.6,0.7,3,1.7,4.1,3c1.1,1.4,2,3,2.4,4.7c0.6,2,0.8,4.1,0.8,6.1v26.5h-1.6
	c-0.7,0.1-1.4-0.4-1.5-1.1l-0.6-5.2c-1.1,1.1-2.2,2.1-3.3,3c-1.1,0.9-2.2,1.6-3.4,2.2c-1.2,0.6-2.5,1.1-3.9,1.4
	c-1.5,0.3-3,0.5-4.6,0.5c-1.4,0-2.7-0.2-4-0.6c-1.3-0.4-2.5-1-3.5-1.9c-1-0.9-1.9-2-2.4-3.3c-0.6-1.5-1-3.1-0.9-4.8
	c0-1.7,0.5-3.4,1.5-4.8c1.2-1.6,2.8-3,4.6-3.8c2.6-1.2,5.3-2.1,8.1-2.6c3.9-0.7,7.9-1.1,11.8-1.1v-4.3c0-3.8-0.8-6.7-2.4-8.7
	c-1.6-2-4-3-7.2-3c-1.7,0-3.4,0.2-5,0.8c-1.2,0.5-2.4,1.1-3.5,1.8c-0.8,0.5-1.6,1.2-2.3,1.8c-0.4,0.4-0.9,0.7-1.5,0.8
	c-0.5,0-1-0.3-1.2-0.7l-0.7-1.2c1.9-2,4.2-3.6,6.7-4.8C1236.7,301.1,1239.4,300.5,1242.1,300.5 M1237.3,339.8c1.5,0,2.9-0.2,4.4-0.5
	c1.3-0.3,2.5-0.8,3.7-1.4c1.1-0.6,2.2-1.3,3.2-2.2c1-0.8,2-1.8,2.9-2.7v-10.6c-3.3,0.1-6.7,0.4-10,0.9c-2.4,0.4-4.7,1-6.9,1.9
	c-1.6,0.6-2.9,1.6-4,2.9c-0.9,1.1-1.3,2.5-1.3,3.9c0,1.2,0.2,2.4,0.7,3.5c0.4,0.9,1,1.8,1.8,2.5c0.8,0.6,1.6,1.1,2.6,1.4
	C1235.2,339.6,1236.3,339.8,1237.3,339.8 M1242.2,299.5c-2.9,0-5.8,0.5-8.4,1.7c-2.6,1.2-5,2.9-7,5l-0.6,0.5l0.4,0.7l0.7,1.2
	c0.4,0.8,1.2,1.3,2.1,1.2c0.8-0.1,1.6-0.5,2.2-1.1c0.7-0.6,1.4-1.2,2.2-1.7c1-0.7,2.1-1.2,3.3-1.7c1.5-0.5,3.1-0.8,4.7-0.8
	c2.9,0,5,0.9,6.4,2.7s2.2,4.5,2.2,8.1v3.3c-3.7,0.1-7.4,0.5-11,1.1c-2.9,0.5-5.7,1.4-8.3,2.7c-2,0.9-3.7,2.4-5,4.2
	c-1.1,1.6-1.6,3.4-1.6,5.3c0,1.8,0.3,3.5,1,5.2c0.6,1.4,1.5,2.6,2.7,3.6c1.1,0.9,2.4,1.6,3.8,2.1c1.4,0.4,2.9,0.7,4.3,0.7
	c1.6,0,3.2-0.2,4.8-0.5c1.4-0.3,2.8-0.8,4.1-1.5c1.3-0.6,2.5-1.4,3.6-2.3c0.7-0.5,1.3-1.1,1.9-1.6l0.3,3.2v0.1v0.1
	c0.2,1.2,1.3,2,2.5,1.9h2.6v-27.5c0-2.2-0.3-4.3-0.9-6.4c-0.5-1.8-1.4-3.6-2.6-5.1c-1.2-1.4-2.7-2.6-4.4-3.3
	C1246.3,299.9,1244.2,299.5,1242.2,299.5L1242.2,299.5z M1237.3,338.8c-0.9,0-1.9-0.1-2.8-0.4c-0.8-0.2-1.6-0.7-2.2-1.2
	c-0.7-0.6-1.2-1.3-1.5-2.1c-0.4-1-0.6-2.1-0.6-3.1c0-1.2,0.4-2.3,1.1-3.3c1-1.2,2.2-2.1,3.6-2.6c2.1-0.9,4.4-1.5,6.7-1.9
	c2.9-0.5,5.9-0.7,8.8-0.8v9.1c-0.8,0.9-1.7,1.7-2.6,2.4c-0.9,0.8-1.9,1.5-3,2.1c-1.1,0.6-2.2,1-3.4,1.3
	C1240.1,338.6,1238.7,338.8,1237.3,338.8L1237.3,338.8z"/>
<path d="M1284.4,301.2c1.1,0,2.3,0.1,3.4,0.4c1,0.3,2,0.6,2.9,1.1l-0.5,2.7c0,0.4-0.4,0.7-0.8,0.7c0,0,0,0,0,0
	c-0.2,0-0.5-0.1-0.7-0.2c-0.3-0.1-0.7-0.2-1.1-0.4c-0.5-0.2-1.1-0.3-1.7-0.4c-0.7-0.1-1.5-0.2-2.3-0.2c-2.8-0.1-5.5,0.9-7.6,2.9
	c-2.2,2.3-3.9,5.2-4.8,8.3v26.5h-3.9v-40.7h2c0.4,0,0.7,0.1,1,0.3c0.2,0.3,0.4,0.6,0.3,1l0.3,8.6c1.1-3,2.9-5.6,5.2-7.8
	c2.2-1.9,5.1-2.9,8-2.8 M1284.3,300.2c-3.2-0.1-6.3,1-8.7,3c-1.5,1.3-2.7,2.8-3.7,4.5l-0.2-4.6c0.1-1.2-0.8-2.2-2-2.2
	c-0.1,0-0.3,0-0.4,0h-3v42.7h5.9v-27.3c0.9-2.9,2.4-5.5,4.5-7.7c1.8-1.8,4.3-2.7,6.9-2.6c0.7,0,1.4,0,2.1,0.1c0.5,0.1,1,0.2,1.6,0.3
	l0.2,0.1c0.3,0.1,0.6,0.2,0.9,0.3c0.3,0.1,0.7,0.2,1.1,0.2c0.9,0,1.7-0.6,1.8-1.5l0.5-2.7l0.1-0.7l-0.7-0.4c-1-0.5-2.1-0.9-3.2-1.2
	C1286.8,300.3,1285.6,300.2,1284.3,300.2L1284.3,300.2z"/>
<path d="M1312.3,300.5c2-0.1,3.9,0.3,5.7,1c1.6,0.7,3,1.7,4.1,3c1.1,1.4,2,3,2.4,4.7c0.6,2,0.8,4.1,0.8,6.1v26.5h-1.6
	c-0.7,0.1-1.4-0.4-1.5-1.1l-0.6-5.2c-1.1,1.1-2.2,2.1-3.3,3c-1.1,0.9-2.2,1.6-3.4,2.2c-1.2,0.6-2.5,1.1-3.9,1.4
	c-1.5,0.3-3,0.5-4.6,0.5c-1.4,0-2.7-0.2-4-0.6c-1.3-0.4-2.5-1-3.5-1.9c-1-0.9-1.9-2-2.4-3.3c-0.6-1.5-1-3.1-0.9-4.8
	c0-1.7,0.5-3.4,1.5-4.8c1.2-1.6,2.8-3,4.6-3.8c2.6-1.2,5.3-2.1,8.1-2.6c3.9-0.7,7.9-1.1,11.8-1.1v-4.3c0-3.8-0.8-6.7-2.4-8.7
	s-4-3-7.2-3c-1.7,0-3.4,0.2-5,0.8c-1.2,0.5-2.4,1.1-3.5,1.8c-0.8,0.5-1.6,1.2-2.3,1.8c-0.4,0.4-0.9,0.7-1.5,0.8
	c-0.5,0-1-0.3-1.2-0.7l-0.7-1.2c1.9-2,4.2-3.6,6.7-4.8C1306.9,301.1,1309.6,300.5,1312.3,300.5 M1307.5,339.8c1.5,0,2.9-0.2,4.4-0.5
	c1.3-0.3,2.5-0.8,3.7-1.4c1.1-0.6,2.2-1.3,3.2-2.2c1-0.8,2-1.8,2.9-2.7v-10.6c-3.3,0.1-6.7,0.4-10,0.9c-2.4,0.4-4.7,1-6.9,1.9
	c-1.6,0.6-2.9,1.6-4,2.9c-0.9,1.1-1.3,2.5-1.3,3.9c0,1.2,0.2,2.4,0.7,3.5c0.4,0.9,1,1.8,1.8,2.5c0.8,0.6,1.6,1.1,2.6,1.4
	C1305.5,339.6,1306.5,339.8,1307.5,339.8 M1312.4,299.5c-2.9,0-5.8,0.5-8.4,1.7c-2.6,1.2-5,2.9-7,5l-0.6,0.5l0.4,0.7l0.7,1.2
	c0.4,0.8,1.2,1.3,2.1,1.2c0.8-0.1,1.6-0.5,2.2-1.1c0.7-0.6,1.4-1.2,2.2-1.7c1-0.7,2.1-1.2,3.3-1.7c1.5-0.5,3.1-0.8,4.7-0.8
	c2.9,0,5,0.9,6.4,2.7s2.2,4.5,2.2,8.1v3.3c-3.7,0.1-7.4,0.5-11,1.1c-2.9,0.5-5.7,1.4-8.3,2.7c-2,0.9-3.7,2.4-5,4.2
	c-1.1,1.6-1.6,3.4-1.6,5.3c0,1.8,0.3,3.5,1,5.2c0.6,1.4,1.5,2.6,2.7,3.6c1.1,0.9,2.4,1.6,3.8,2.1c1.4,0.4,2.9,0.7,4.3,0.7
	c1.6,0,3.2-0.2,4.8-0.5c1.4-0.3,2.8-0.8,4.1-1.5c1.3-0.6,2.5-1.4,3.6-2.3c0.7-0.5,1.3-1.1,1.9-1.6l0.3,3.2v0.1v0.1
	c0.2,1.2,1.3,2,2.5,1.9h2.6v-27.5c0-2.2-0.3-4.3-0.9-6.4c-0.5-1.8-1.4-3.6-2.6-5.1c-1.2-1.4-2.7-2.6-4.4-3.3
	C1316.5,299.9,1314.4,299.5,1312.4,299.5L1312.4,299.5z M1307.5,338.8c-0.9,0-1.9-0.1-2.8-0.4c-0.8-0.2-1.6-0.7-2.2-1.2
	c-0.7-0.6-1.2-1.3-1.5-2.1c-0.4-1-0.6-2.1-0.6-3.1c0-1.2,0.4-2.3,1.1-3.3c0.9-1.1,2.1-2.1,3.5-2.6c2.1-0.9,4.4-1.5,6.7-1.9
	c2.9-0.5,5.9-0.7,8.8-0.8v9.1c-0.8,0.9-1.7,1.7-2.6,2.4c-0.9,0.8-1.9,1.5-3,2.1c-1.1,0.6-2.2,1-3.4,1.3c-1.3,0.3-2.7,0.5-4.1,0.5
	L1307.5,338.8z"/>
<path d="M1369.7,284.7V339h27.4v3.6h-31.6v-57.8H1369.7 M1370.7,283.7h-6.2v59.9h33.6V338h-27.4L1370.7,283.7L1370.7,283.7z"/>
<path d="M1408.5,284.2c0.5,0,0.9,0.1,1.4,0.3c0.4,0.2,0.8,0.4,1.1,0.8c0.3,0.3,0.6,0.7,0.8,1.2c0.2,0.4,0.3,0.9,0.3,1.4
	c0,0.5-0.1,0.9-0.3,1.4c-0.2,0.4-0.5,0.8-0.8,1.1c-0.3,0.3-0.7,0.6-1.1,0.8c-0.9,0.4-1.9,0.4-2.8,0c-0.4-0.2-0.8-0.4-1.2-0.8
	c-0.3-0.3-0.6-0.7-0.8-1.1c-0.2-0.4-0.3-0.9-0.3-1.4c0-0.5,0.1-1,0.3-1.4c0.2-0.4,0.4-0.8,0.8-1.2c0.3-0.3,0.7-0.6,1.2-0.8
	C1407.5,284.3,1408,284.2,1408.5,284.2 M1410.4,301.9v40.7h-3.9v-40.7L1410.4,301.9 M1408.4,283.2c-0.6,0-1.2,0.1-1.8,0.4
	c-0.5,0.2-1,0.6-1.4,1c-0.4,0.4-0.8,0.9-1,1.5c-0.2,0.6-0.4,1.2-0.4,1.8c0,0.6,0.1,1.2,0.4,1.8c0.2,0.5,0.6,1,1,1.4
	c0.4,0.4,0.9,0.8,1.5,1c1.1,0.5,2.4,0.5,3.6,0c0.5-0.2,1-0.6,1.4-1c0.4-0.4,0.7-0.9,1-1.4c0.3-0.6,0.4-1.2,0.4-1.8
	c0-0.6-0.1-1.2-0.4-1.8c-0.2-0.5-0.6-1-1-1.5c-0.4-0.4-0.9-0.8-1.5-1C1409.7,283.4,1409.1,283.2,1408.4,283.2L1408.4,283.2z
	 M1411.4,300.9h-5.9v42.7h5.9V300.9z"/>
<path d="M1429.1,282.5v25.9c1.7-2.3,3.8-4.2,6.3-5.7c2.4-1.4,5.2-2.1,8-2.1c5,0,8.9,1.7,11.7,5.2s4.2,8.6,4.2,15.6
	c0,2.8-0.4,5.6-1.2,8.3c-0.7,2.4-1.9,4.7-3.4,6.7c-1.5,1.9-3.4,3.4-5.6,4.5c-2.4,1.1-5,1.7-7.6,1.6c-5.1,0.2-9.9-2.3-12.6-6.5
	l-0.2,5c0,0.6-0.4,1-1,1c0,0-0.1,0-0.1,0h-2.3v-59.5H1429.1 M1440.7,339.5c2.2,0,4.3-0.4,6.3-1.3c1.8-0.9,3.3-2.1,4.5-3.7
	c1.3-1.7,2.2-3.7,2.8-5.7c0.6-2.4,0.9-4.9,0.9-7.3c0-6.1-1.1-10.5-3.3-13.4s-5.4-4.3-9.6-4.3c-2.6,0-5.1,0.7-7.3,2.1
	c-2.3,1.5-4.3,3.5-5.9,5.8v21.5c1.3,2.1,3,3.8,5.2,4.9C1436.2,339.1,1438.4,339.6,1440.7,339.5 M1430,281.5h-5.9V343h3.3
	c1.1,0,2-0.8,2.1-1.9V341l0.1-2.3c1.1,1.2,2.5,2.3,3.9,3.1c2.4,1.2,5.1,1.8,7.8,1.8c2.8,0,5.5-0.6,8-1.7c2.3-1.1,4.3-2.8,5.9-4.8
	c1.6-2.1,2.9-4.5,3.6-7c0.8-2.8,1.2-5.7,1.2-8.6c0-7.1-1.5-12.6-4.4-16.2s-7.2-5.5-12.4-5.5c-3,0-5.9,0.7-8.5,2.2
	c-1.8,1-3.4,2.3-4.8,3.8v-23.2L1430,281.5L1430,281.5z M1430,312c1.4-2.1,3.3-3.9,5.4-5.3c2-1.3,4.4-2,6.8-1.9
	c3.9,0,6.8,1.3,8.8,3.9s3.1,6.9,3.1,12.7c0,2.4-0.3,4.8-0.9,7.1c-0.5,1.9-1.4,3.8-2.6,5.4c-1.1,1.4-2.5,2.6-4.2,3.4
	c-3.8,1.6-8.1,1.6-11.9-0.1c-1.9-1-3.5-2.5-4.6-4.3V312L1430,312z"/>
<path d="M1484.8,300.7c2.2,0,4.3,0.4,6.4,1.2c1.9,0.8,3.7,1.9,5.1,3.5c1.5,1.6,2.6,3.5,3.3,5.6c0.8,2.4,1.3,5,1.2,7.6
	c0,0.4-0.1,0.9-0.3,1.2c-0.2,0.2-0.5,0.4-0.8,0.3h-29.4v0.8c0,2.7,0.3,5.4,1.1,8.1c0.6,2.1,1.6,4.1,3,5.8c1.3,1.5,2.9,2.8,4.8,3.5
	c2,0.8,4.1,1.2,6.2,1.2c1.8,0,3.6-0.2,5.3-0.7c1.3-0.4,2.6-0.9,3.8-1.5c0.8-0.4,1.7-1,2.4-1.5c0.4-0.3,0.8-0.6,1.3-0.7
	c0.3,0,0.6,0.1,0.8,0.4l1.1,1.3c-0.7,0.9-1.6,1.7-2.6,2.3c-1.1,0.7-2.3,1.3-3.6,1.8c-1.4,0.5-2.8,0.9-4.3,1.2
	c-1.5,0.3-3,0.5-4.6,0.5c-2.6,0-5.2-0.5-7.6-1.5c-2.3-0.9-4.3-2.4-5.9-4.2c-1.7-2-3-4.3-3.8-6.8c-0.9-3-1.4-6.1-1.3-9.2
	c0-2.7,0.4-5.5,1.2-8.1c0.8-2.3,2-4.5,3.6-6.4c1.6-1.8,3.6-3.2,5.8-4.2C1479.4,301.2,1482.1,300.7,1484.8,300.7 M1470.4,317.6h26.8
	c0-2-0.3-4-0.9-5.9c-0.5-1.6-1.4-3.1-2.5-4.4c-1.1-1.2-2.4-2.1-3.9-2.8c-1.6-0.7-3.3-1-5.1-1c-1.9,0-3.8,0.3-5.6,1
	c-1.6,0.6-3.1,1.6-4.3,2.8c-1.2,1.3-2.2,2.8-2.9,4.4C1471.1,313.6,1470.6,315.6,1470.4,317.6 M1484.7,299.7c-2.8,0-5.6,0.5-8.2,1.6
	c-2.3,1-4.4,2.5-6.1,4.4c-1.7,2-3,4.2-3.8,6.7c-0.9,2.7-1.3,5.5-1.3,8.4c-0.1,3.2,0.4,6.5,1.4,9.5c0.8,2.6,2.2,5.1,4,7.1
	c1.7,1.9,3.9,3.5,6.2,4.5c2.5,1,5.3,1.6,8,1.5c1.6,0,3.2-0.2,4.8-0.5c1.5-0.3,3-0.7,4.4-1.3c1.3-0.5,2.6-1.1,3.8-1.9
	c1.1-0.7,2-1.5,2.8-2.5l0.5-0.6l-0.5-0.6l-1-1.3c-0.4-0.5-1-0.8-1.6-0.8c-0.7,0.1-1.4,0.4-1.9,0.9c-0.7,0.5-1.5,1-2.3,1.4
	c-1.1,0.6-2.3,1.1-3.6,1.4c-1.6,0.4-3.3,0.7-5,0.6c-2,0-4-0.3-5.8-1.1c-1.7-0.7-3.2-1.8-4.4-3.3c-1.3-1.6-2.3-3.5-2.8-5.5
	c-0.7-2.5-1-5-1-7.5h28.4c0.6,0,1.2-0.2,1.6-0.7c0.4-0.5,0.6-1.2,0.5-1.9c0-2.7-0.4-5.4-1.3-8c-0.8-2.2-2-4.2-3.6-5.9
	c-1.5-1.6-3.4-2.9-5.4-3.7C1489.4,300.1,1487.1,299.6,1484.7,299.7L1484.7,299.7z M1471.6,316.6c0.2-1.5,0.7-3,1.3-4.4
	c0.6-1.5,1.6-2.9,2.7-4.1c1.1-1.1,2.5-2,4-2.6c1.7-0.6,3.5-0.9,5.3-0.9c1.6,0,3.2,0.3,4.7,0.9c1.3,0.6,2.5,1.4,3.5,2.5
	c1,1.2,1.8,2.6,2.3,4c0.5,1.5,0.8,3,0.8,4.5L1471.6,316.6z"/>
<path d="M1528.2,301.2c1.1,0,2.3,0.1,3.4,0.4c1,0.3,2,0.6,2.9,1.1l-0.5,2.7c0,0.4-0.4,0.7-0.8,0.7c0,0,0,0,0,0
	c-0.2,0-0.5-0.1-0.7-0.2c-0.3-0.1-0.7-0.2-1.1-0.4c-0.5-0.2-1.1-0.3-1.7-0.4c-0.7-0.1-1.5-0.2-2.3-0.2c-2.8-0.1-5.5,0.9-7.6,2.9
	c-2.2,2.3-3.9,5.2-4.8,8.3v26.5h-3.9v-40.7h2c0.4,0,0.7,0.1,1,0.3c0.2,0.3,0.4,0.6,0.3,1l0.3,8.6c1.1-3,2.9-5.6,5.2-7.8
	c2.2-1.9,5.1-2.9,8-2.8 M1528.1,300.2c-3.2-0.1-6.3,1-8.7,3c-1.5,1.3-2.7,2.8-3.7,4.5l-0.2-4.6c0.1-1.2-0.8-2.2-2-2.2
	c-0.1,0-0.3,0-0.4,0h-3v42.7h5.9v-27.3c0.9-2.9,2.4-5.5,4.5-7.7c1.8-1.8,4.3-2.7,6.9-2.6c0.7,0,1.4,0,2.1,0.1c0.5,0.1,1,0.2,1.6,0.3
	l0.2,0c0.3,0.1,0.6,0.2,0.9,0.3c0.3,0.1,0.7,0.2,1.1,0.2c0.9,0,1.7-0.6,1.8-1.5l0.5-2.7l0.2-0.7l-0.7-0.4c-1-0.5-2.1-0.9-3.2-1.2
	C1530.6,300.3,1529.4,300.2,1528.1,300.2L1528.1,300.2z"/>
<path d="M1549.9,287v15.5h12.8v2.9h-12.8V333c0,1,0.1,2,0.4,2.9c0.2,0.7,0.7,1.4,1.2,2c0.5,0.5,1.1,0.9,1.8,1.1
	c0.7,0.2,1.5,0.4,2.2,0.4c0.9,0,1.7-0.1,2.5-0.4c0.6-0.3,1.3-0.6,1.8-0.9c0.4-0.3,0.9-0.6,1.3-0.9c0.2-0.2,0.5-0.4,0.8-0.4
	c0.3,0,0.5,0.2,0.7,0.4l1.1,1.7c-1.1,1.2-2.5,2.1-3.9,2.8c-1.6,0.7-3.3,1-5,1c-2.4,0.1-4.7-0.7-6.4-2.3c-1.5-1.5-2.3-3.8-2.3-7
	v-27.8h-5.8c-0.3,0-0.5-0.1-0.7-0.3c-0.2-0.2-0.3-0.4-0.3-0.7V303l6.9-0.5l1-14.5c0-0.2,0.1-0.5,0.3-0.7c0.2-0.2,0.4-0.3,0.7-0.3
	L1549.9,287 M1550.9,286h-2.8c-0.5,0-1.1,0.2-1.4,0.6c-0.3,0.3-0.5,0.8-0.6,1.2l-0.9,13.7l-6.1,0.4l-0.9,0.1v2.4
	c0,0.6,0.2,1.1,0.7,1.5c0.4,0.3,0.9,0.5,1.4,0.5h4.8v26.8c0,3.5,0.9,6.1,2.6,7.8c1.9,1.8,4.5,2.7,7.1,2.6c1.8,0,3.7-0.4,5.4-1.1
	c1.6-0.7,3.1-1.7,4.3-3l0.5-0.6l-0.4-0.6l-1.1-1.7v0l0,0c-0.3-0.5-0.9-0.8-1.4-0.8c-0.5,0-1,0.3-1.4,0.7c-0.4,0.3-0.8,0.6-1.2,0.9
	c-0.5,0.3-1.1,0.6-1.7,0.9c-0.7,0.3-1.4,0.4-2.2,0.4c-0.6,0-1.3-0.1-1.9-0.3c-0.5-0.2-1-0.5-1.4-0.9c-0.4-0.5-0.8-1-1-1.6
	c-0.3-0.8-0.4-1.7-0.4-2.5v-26.7h12.8v-4.9h-12.8L1550.9,286L1550.9,286z"/>
<path d="M1596.1,283.4l-8.8,10.4c-0.2,0.2-0.4,0.4-0.7,0.5c-0.3,0.1-0.5,0.1-0.8,0.1h-2.3l6.4-9.7c0.4-0.9,1.4-1.4,2.4-1.3
	L1596.1,283.4 M1587.3,300.6c2-0.1,3.9,0.3,5.7,1c1.6,0.7,3,1.7,4.1,3c1.1,1.4,2,3,2.4,4.7c0.6,2,0.8,4.1,0.8,6.1v26.5h-1.6
	c-0.7,0.1-1.4-0.4-1.5-1.1l-0.6-5.2c-1.1,1.1-2.2,2.1-3.3,3c-1.1,0.9-2.2,1.6-3.4,2.2c-1.2,0.6-2.5,1.1-3.9,1.4
	c-1.5,0.3-3,0.5-4.6,0.5c-1.4,0-2.7-0.2-4-0.6c-1.3-0.4-2.5-1-3.5-1.9c-1-0.9-1.9-2-2.4-3.3c-0.6-1.5-1-3.1-0.9-4.8
	c0-1.7,0.5-3.4,1.5-4.8c1.2-1.6,2.8-3,4.6-3.8c2.6-1.2,5.3-2.1,8.1-2.6c3.9-0.7,7.9-1.1,11.8-1.1v-4.3c0-3.8-0.8-6.7-2.4-8.7
	s-4-3-7.2-3c-1.7,0-3.4,0.2-5,0.8c-1.2,0.5-2.4,1.1-3.5,1.8c-0.8,0.5-1.6,1.2-2.3,1.8c-0.4,0.4-0.9,0.7-1.5,0.8
	c-0.5,0-1-0.3-1.2-0.7l-0.7-1.2c1.9-2,4.2-3.6,6.7-4.8C1581.9,301.1,1584.6,300.5,1587.3,300.6 M1582.5,339.8c1.5,0,2.9-0.2,4.4-0.5
	c1.3-0.3,2.5-0.8,3.7-1.4c1.1-0.6,2.2-1.3,3.2-2.2c1-0.8,2-1.8,2.9-2.7v-10.6c-3.3,0.1-6.7,0.4-10,0.9c-2.4,0.4-4.7,1-6.9,1.9
	c-1.6,0.6-2.9,1.6-4,2.9c-0.9,1.1-1.3,2.5-1.3,3.9c0,1.2,0.2,2.4,0.7,3.5c0.4,0.9,1,1.8,1.8,2.5c0.8,0.6,1.6,1.1,2.6,1.4
	C1580.5,339.6,1581.5,339.8,1582.5,339.8 M1598.4,282.4h-6c-0.7,0-1.4,0.1-2,0.4c-0.5,0.3-1,0.8-1.3,1.4l-6.4,9.7l-1,1.5h4.2
	c0.4,0,0.8-0.1,1.2-0.2c0.4-0.2,0.8-0.5,1.1-0.8l8.8-10.3L1598.4,282.4L1598.4,282.4z M1587.4,299.5c-2.9,0-5.8,0.5-8.4,1.7
	c-2.6,1.2-5,2.9-7,5l-0.6,0.5l0.4,0.7l0.7,1.2c0.4,0.8,1.2,1.3,2.1,1.2c0.8-0.1,1.6-0.5,2.2-1.1c0.7-0.6,1.4-1.2,2.2-1.7
	c1-0.7,2.1-1.2,3.3-1.7c1.5-0.5,3.1-0.8,4.7-0.8c2.9,0,5,0.9,6.4,2.7s2.2,4.5,2.2,8.1v3.3c-3.7,0.1-7.4,0.5-11,1.1
	c-2.9,0.5-5.7,1.4-8.3,2.7c-2,0.9-3.7,2.4-5,4.2c-1.1,1.6-1.6,3.4-1.6,5.3c0,1.8,0.3,3.5,1,5.2c0.6,1.4,1.5,2.6,2.7,3.6
	c1.1,0.9,2.4,1.6,3.8,2.1c1.4,0.4,2.9,0.7,4.3,0.7c1.6,0,3.2-0.2,4.8-0.5c1.4-0.3,2.8-0.8,4.1-1.5c1.3-0.6,2.5-1.4,3.6-2.3
	c0.7-0.5,1.3-1.1,1.9-1.6l0.3,3.2v0.1v0.1c0.2,1.2,1.3,2,2.5,1.9h2.6v-27.5c0-2.2-0.3-4.3-0.9-6.4c-0.5-1.8-1.4-3.6-2.6-5.1
	c-1.2-1.4-2.7-2.6-4.4-3.3C1591.5,299.9,1589.4,299.5,1587.4,299.5L1587.4,299.5z M1582.5,338.8c-0.9,0-1.9-0.1-2.8-0.4
	c-0.8-0.2-1.6-0.7-2.2-1.2c-0.7-0.6-1.2-1.3-1.5-2.1c-0.4-1-0.6-2.1-0.6-3.1c0-1.2,0.4-2.3,1.1-3.3c0.9-1.2,2.2-2.1,3.5-2.6
	c2.1-0.9,4.4-1.5,6.7-1.9c2.9-0.5,5.9-0.7,8.8-0.8v9.1c-0.8,0.9-1.7,1.7-2.6,2.4c-0.9,0.8-1.9,1.5-3,2.1c-1.1,0.6-2.2,1-3.4,1.3
	c-1.3,0.3-2.7,0.5-4.1,0.5L1582.5,338.8z"/>
<path d="M1629.6,301.2c1.1,0,2.3,0.1,3.4,0.4c1,0.3,2,0.6,2.9,1.1l-0.5,2.7c0,0.4-0.4,0.7-0.8,0.7c0,0,0,0,0,0
	c-0.2,0-0.5-0.1-0.7-0.2c-0.3-0.1-0.7-0.2-1.1-0.4c-0.5-0.2-1.1-0.3-1.7-0.4c-0.7-0.1-1.5-0.2-2.3-0.2c-2.8-0.1-5.5,0.9-7.6,2.9
	c-2.2,2.3-3.9,5.2-4.8,8.3v26.5h-3.9v-40.7h2c0.4,0,0.7,0.1,1,0.3c0.2,0.3,0.4,0.6,0.3,1l0.3,8.6c1.1-3,2.9-5.6,5.2-7.8
	c2.2-1.9,5.1-2.9,8-2.8 M1629.5,300.2c-3.2-0.1-6.3,1-8.7,3c-1.5,1.3-2.7,2.8-3.7,4.5l-0.2-4.6c0.1-1.2-0.8-2.2-2-2.2
	c-0.1,0-0.3,0-0.4,0h-3v42.7h5.9v-27.3c0.9-2.9,2.4-5.5,4.5-7.7c1.8-1.8,4.3-2.7,6.9-2.6c0.7,0,1.4,0,2.1,0.1c0.5,0.1,1,0.2,1.6,0.3
	l0.2,0c0.3,0.1,0.6,0.2,0.9,0.3c0.3,0.1,0.7,0.2,1.1,0.2c0.9,0,1.7-0.6,1.8-1.5l0.5-2.7l0.2-0.7l-0.7-0.4c-1-0.5-2.1-0.9-3.2-1.2
	C1632,300.3,1630.8,300.2,1629.5,300.2L1629.5,300.2z"/>
<path d="M1648.2,284.2c0.5,0,0.9,0.1,1.4,0.3c0.4,0.2,0.8,0.4,1.1,0.8c0.3,0.3,0.6,0.7,0.8,1.2c0.2,0.4,0.3,0.9,0.3,1.4
	c0,0.5-0.1,0.9-0.3,1.4c-0.2,0.4-0.5,0.8-0.8,1.1c-0.3,0.3-0.7,0.6-1.1,0.8c-0.9,0.4-1.9,0.4-2.8,0c-0.4-0.2-0.8-0.4-1.1-0.8
	c-0.3-0.3-0.6-0.7-0.8-1.1c-0.2-0.4-0.3-0.9-0.3-1.4c0-0.5,0.1-1,0.3-1.4c0.2-0.4,0.4-0.8,0.8-1.2c0.3-0.3,0.7-0.6,1.1-0.8
	C1647.2,284.3,1647.7,284.2,1648.2,284.2 M1650.1,301.9v40.7h-3.9v-40.7L1650.1,301.9 M1648.2,283.2c-0.6,0-1.2,0.1-1.8,0.4
	c-0.5,0.2-1,0.6-1.4,1c-0.4,0.4-0.8,0.9-1,1.5c-0.2,0.6-0.4,1.2-0.4,1.8c0,0.6,0.1,1.2,0.4,1.8c0.2,0.5,0.6,1,1,1.4
	c0.4,0.4,0.9,0.8,1.5,1c1.1,0.5,2.4,0.5,3.6,0c0.5-0.2,1-0.6,1.4-1c0.4-0.4,0.7-0.9,1-1.4c0.3-0.6,0.4-1.2,0.4-1.8
	c0-0.6-0.1-1.2-0.4-1.8c-0.2-0.5-0.6-1-1-1.5c-0.4-0.4-0.9-0.8-1.5-1C1649.4,283.4,1648.8,283.2,1648.2,283.2L1648.2,283.2z
	 M1651.1,300.9h-5.9v42.7h5.9V300.9z"/>
<path d="M1679,300.5c2-0.1,3.9,0.3,5.7,1c1.6,0.7,3,1.7,4.1,3c1.1,1.4,2,3,2.4,4.7c0.6,2,0.8,4.1,0.8,6.1v26.5h-1.6
	c-0.7,0.1-1.4-0.4-1.5-1.1l-0.6-5.2c-1.1,1.1-2.2,2.1-3.3,3c-1.1,0.9-2.2,1.6-3.4,2.2c-1.2,0.6-2.5,1.1-3.9,1.4
	c-1.5,0.3-3,0.5-4.6,0.5c-1.4,0-2.7-0.2-4-0.6c-1.3-0.4-2.5-1-3.5-1.9c-1-0.9-1.9-2-2.4-3.3c-0.6-1.5-1-3.1-0.9-4.8
	c0-1.7,0.5-3.4,1.5-4.8c1.2-1.6,2.8-3,4.6-3.8c2.6-1.2,5.3-2.1,8.1-2.6c3.9-0.7,7.9-1.1,11.8-1.1v-4.3c0-3.8-0.8-6.7-2.4-8.7
	s-4-3-7.2-3c-1.7,0-3.4,0.2-5,0.8c-1.2,0.5-2.4,1.1-3.5,1.8c-0.8,0.5-1.6,1.2-2.3,1.8c-0.4,0.4-0.9,0.7-1.5,0.8
	c-0.5,0-1-0.3-1.2-0.7l-0.7-1.2c1.9-2,4.2-3.6,6.7-4.8C1673.6,301.1,1676.3,300.5,1679,300.5 M1674.2,339.8c1.5,0,2.9-0.2,4.4-0.5
	c1.3-0.3,2.5-0.8,3.7-1.4c1.1-0.6,2.2-1.3,3.2-2.2c1-0.8,2-1.8,2.9-2.7v-10.6c-3.3,0.1-6.7,0.4-10,0.9c-2.4,0.4-4.7,1-6.9,1.9
	c-1.6,0.6-2.9,1.6-4,2.9c-0.9,1.1-1.3,2.5-1.3,3.9c0,1.2,0.2,2.4,0.7,3.5c0.4,0.9,1,1.8,1.8,2.5c0.8,0.6,1.6,1.1,2.6,1.4
	C1672.2,339.6,1673.2,339.8,1674.2,339.8 M1679.1,299.5c-2.9,0-5.8,0.5-8.4,1.7c-2.6,1.2-5,2.9-7,5l-0.6,0.5l0.4,0.7l0.7,1.2
	c0.4,0.8,1.2,1.3,2.1,1.2c0.8-0.1,1.6-0.5,2.2-1.1c0.7-0.6,1.4-1.2,2.2-1.7c1-0.7,2.1-1.2,3.3-1.7c1.5-0.5,3.1-0.8,4.7-0.8
	c2.9,0,5,0.9,6.4,2.7s2.2,4.5,2.2,8.1v3.3c-3.7,0.1-7.4,0.5-11,1.1c-2.9,0.5-5.7,1.4-8.3,2.7c-2,0.9-3.7,2.4-5,4.2
	c-1.1,1.6-1.6,3.4-1.6,5.3c0,1.8,0.3,3.5,1,5.2c0.6,1.4,1.5,2.6,2.7,3.6c1.1,0.9,2.4,1.6,3.8,2.1c1.4,0.4,2.9,0.7,4.3,0.7
	c1.6,0,3.2-0.2,4.8-0.5c1.4-0.3,2.8-0.8,4.1-1.5c1.3-0.6,2.5-1.4,3.6-2.3c0.7-0.5,1.3-1.1,1.9-1.6l0.3,3.2v0.1v0.1
	c0.2,1.2,1.3,2,2.5,1.9h2.5v-27.5c0-2.2-0.3-4.3-0.9-6.4c-0.5-1.8-1.4-3.6-2.6-5.1c-1.2-1.4-2.7-2.6-4.4-3.3c-1.9-0.8-4-1.2-6.1-1.1
	L1679.1,299.5z M1674.2,338.8c-0.9,0-1.9-0.1-2.8-0.4c-0.8-0.2-1.6-0.7-2.2-1.2c-0.7-0.6-1.2-1.3-1.5-2.1c-0.4-1-0.6-2.1-0.6-3.1
	c0-1.2,0.4-2.3,1.1-3.3c1-1.2,2.2-2.1,3.6-2.6c2.1-0.9,4.4-1.5,6.7-1.9c2.9-0.5,5.9-0.7,8.8-0.8v9.1c-0.8,0.9-1.7,1.7-2.6,2.4
	c-0.9,0.8-1.9,1.5-3,2.1c-1.1,0.6-2.2,1-3.4,1.3C1677,338.6,1675.6,338.8,1674.2,338.8L1674.2,338.8z"/>
<path d="M1764.8,282.5V342h-2.1c-0.6,0-1.1-0.4-1.2-1c0,0,0,0,0-0.1l-0.4-6.4c-1.7,2.4-3.8,4.3-6.3,5.9c-2.5,1.5-5.3,2.2-8.1,2.2
	c-5,0-8.9-1.7-11.7-5.2c-2.8-3.5-4.2-8.7-4.2-15.6c0-2.8,0.4-5.6,1.2-8.3c0.7-2.4,1.9-4.7,3.4-6.7c1.5-1.9,3.4-3.4,5.6-4.5
	c2.4-1.1,5-1.7,7.6-1.6c2.5-0.1,4.9,0.5,7.2,1.5c2.1,1.1,3.9,2.6,5.2,4.5v-24.1H1764.8 M1747.8,339.4c2.6,0,5.1-0.7,7.3-2.1
	c2.3-1.5,4.3-3.5,5.9-5.8v-21.5c-4-5.8-11.6-8-18-5c-1.8,0.8-3.3,2.1-4.5,3.7c-1.3,1.7-2.2,3.7-2.8,5.7c-0.6,2.4-0.9,4.9-0.9,7.3
	c0,6.1,1.1,10.5,3.4,13.4S1743.6,339.5,1747.8,339.4 M1765.8,281.6h-5.8V304c-1.1-1.1-2.4-2-3.8-2.7c-2.4-1.1-5-1.7-7.6-1.6
	c-2.8,0-5.5,0.5-8,1.7c-2.3,1.1-4.3,2.8-5.9,4.8c-1.6,2.1-2.9,4.5-3.6,7c-0.8,2.8-1.2,5.7-1.2,8.6c0,7.1,1.5,12.6,4.4,16.2
	s7.2,5.6,12.5,5.6c3,0,6-0.8,8.6-2.3c1.9-1.1,3.5-2.5,5-4.1l0.3,3.9v0.1c0.1,1.1,1,2,2.2,1.9h3.1v-61.4L1765.8,281.6z M1747.8,338.5
	c-3.9,0-6.8-1.3-8.8-3.9s-3.2-7-3.2-12.7c0-2.4,0.3-4.8,0.9-7.1c0.5-1.9,1.4-3.8,2.6-5.4c1.1-1.5,2.5-2.6,4.2-3.4
	c3.8-1.7,8.1-1.6,11.9,0.1c1.9,1,3.5,2.5,4.7,4.3v20.8c-1.4,2.1-3.3,3.9-5.4,5.3C1752.5,337.8,1750.2,338.5,1747.8,338.5
	L1747.8,338.5z"/>
<path d="M1793.8,300.7c2.2,0,4.3,0.4,6.4,1.2c1.9,0.8,3.7,1.9,5.1,3.5c1.5,1.6,2.6,3.5,3.3,5.6c0.8,2.4,1.3,5,1.2,7.6
	c0,0.4-0.1,0.9-0.3,1.2c-0.2,0.2-0.5,0.4-0.8,0.3h-29.4v0.8c0,2.7,0.3,5.4,1.1,8.1c0.6,2.1,1.6,4.1,3,5.8c1.3,1.5,2.9,2.8,4.8,3.5
	c2,0.8,4.1,1.2,6.2,1.2c1.8,0,3.6-0.2,5.3-0.7c1.3-0.4,2.6-0.9,3.8-1.5c0.8-0.4,1.7-1,2.4-1.5c0.4-0.3,0.8-0.6,1.3-0.7
	c0.3,0,0.6,0.1,0.8,0.4l1.1,1.3c-0.7,0.9-1.6,1.7-2.6,2.3c-1.1,0.7-2.3,1.3-3.6,1.8c-1.4,0.5-2.8,0.9-4.3,1.2
	c-1.5,0.3-3,0.5-4.6,0.5c-2.6,0-5.2-0.5-7.6-1.5c-2.3-0.9-4.3-2.4-5.9-4.2c-1.7-2-3-4.3-3.8-6.8c-0.9-3-1.4-6.1-1.3-9.2
	c0-2.7,0.4-5.5,1.2-8.1c0.8-2.3,2-4.5,3.6-6.4c1.6-1.8,3.6-3.2,5.8-4.2C1788.5,301.2,1791.1,300.7,1793.8,300.7 M1779.5,317.6h26.8
	c0-2-0.3-4-0.9-5.9c-0.5-1.6-1.4-3.1-2.5-4.4c-1.1-1.2-2.4-2.1-3.9-2.8c-1.6-0.7-3.3-1-5.1-1c-1.9,0-3.8,0.3-5.6,1
	c-1.6,0.6-3.1,1.6-4.3,2.8c-1.2,1.3-2.2,2.8-2.9,4.4C1780.2,313.6,1779.7,315.6,1779.5,317.6 M1793.8,299.7c-2.8,0-5.6,0.5-8.2,1.6
	c-2.3,1-4.4,2.5-6.1,4.4c-1.7,2-3,4.2-3.8,6.7c-0.9,2.7-1.3,5.5-1.3,8.4c-0.1,3.2,0.4,6.5,1.4,9.5c0.8,2.6,2.2,5.1,4,7.1
	c1.7,1.9,3.9,3.5,6.3,4.5c2.5,1,5.3,1.6,8,1.5c1.6,0,3.2-0.2,4.8-0.5c1.5-0.3,3-0.7,4.4-1.3c1.3-0.5,2.6-1.1,3.8-1.9
	c1.1-0.7,2-1.5,2.8-2.5l0.5-0.6l-0.5-0.6l-1-1.3c-0.4-0.5-1-0.8-1.6-0.8c-0.7,0.1-1.4,0.4-1.9,0.9c-0.7,0.5-1.5,1-2.3,1.4
	c-1.1,0.6-2.3,1.1-3.6,1.4c-1.6,0.4-3.3,0.7-5,0.6c-2,0-4-0.3-5.8-1.1c-1.7-0.7-3.2-1.8-4.4-3.3c-1.3-1.6-2.3-3.5-2.8-5.5
	c-0.7-2.5-1-5-1-7.5h28.4c0.6,0,1.2-0.2,1.6-0.7c0.4-0.5,0.6-1.2,0.5-1.9c0-2.7-0.4-5.4-1.3-8c-0.8-2.2-2-4.2-3.6-5.9
	c-1.5-1.6-3.4-2.9-5.4-3.7C1798.5,300.1,1796.2,299.7,1793.8,299.7L1793.8,299.7z M1780.7,316.6c0.2-1.5,0.7-3,1.3-4.4
	c0.6-1.5,1.6-2.9,2.7-4.1c1.1-1.1,2.5-2,4-2.6c1.7-0.6,3.5-0.9,5.3-0.9c1.6,0,3.2,0.3,4.7,0.9c1.4,0.6,2.6,1.4,3.6,2.5
	c1,1.2,1.8,2.6,2.3,4c0.5,1.5,0.8,3,0.8,4.5L1780.7,316.6z"/>
<path d="M1152.3,400.1l23.7,57.9h-3.2c-0.3,0-0.7-0.1-0.9-0.3c-0.2-0.2-0.4-0.5-0.6-0.8l-6.8-16.8h-28.4l-6.8,16.8
	c-0.1,0.3-0.3,0.6-0.6,0.8c-0.3,0.2-0.6,0.3-1,0.3h-3.2l23.7-57.9L1152.3,400.1 M1137.2,436.9h25.9l-11.8-29.2
	c-0.2-0.5-0.4-1-0.6-1.6s-0.4-1.2-0.6-1.9c-0.2,0.6-0.4,1.3-0.6,1.9s-0.4,1.1-0.6,1.6L1137.2,436.9 M1152.9,399h-5.5l-0.3,0.6
	l-23.7,57.9l-0.6,1.4h4.7c0.6,0,1.1-0.2,1.6-0.5c0.4-0.3,0.7-0.7,0.9-1.2l6.5-16.2h27.1l6.6,16.2c0.2,0.5,0.5,0.9,0.8,1.2
	c0.4,0.4,1,0.6,1.6,0.5h4.7l-0.6-1.4l-23.7-57.9L1152.9,399L1152.9,399z M1138.7,435.9l11.3-27.8l0.2-0.6l0.2,0.5l11.3,27.9H1138.7z
	"/>
<path d="M1198.5,416.6c2.4,0,4.8,0.4,7.1,1.3c2,0.8,3.8,2,5.4,3.4l-1,1.4c-0.1,0.1-0.3,0.3-0.4,0.4c-0.1,0.1-0.3,0.2-0.5,0.1
	c-0.4-0.1-0.8-0.3-1.1-0.5c-0.6-0.4-1.2-0.9-1.9-1.2c-1-0.5-2-0.9-3-1.2c-1.4-0.4-2.9-0.6-4.3-0.5c-2.1,0-4.3,0.4-6.2,1.2
	c-1.8,0.8-3.4,2-4.6,3.6c-1.3,1.7-2.3,3.6-2.8,5.6c-0.7,2.4-1,4.9-1,7.4c0,2.6,0.3,5.1,1,7.6c0.6,2,1.5,3.9,2.8,5.6
	c1.2,1.5,2.7,2.7,4.4,3.5c1.8,0.8,3.8,1.2,5.8,1.2c1.7,0,3.3-0.2,4.9-0.7c1.1-0.4,2.2-0.9,3.3-1.5c0.7-0.4,1.4-1,2-1.5
	c0.3-0.4,0.7-0.6,1.2-0.7c0.3,0,0.6,0.1,0.8,0.4l1.1,1.3c-0.7,0.9-1.5,1.6-2.4,2.3c-1,0.7-2.1,1.4-3.2,1.9c-1.3,0.5-2.6,0.9-3.9,1.2
	c-1.4,0.3-2.9,0.4-4.4,0.4c-2.4,0-4.9-0.4-7.1-1.4c-2.1-0.9-3.9-2.3-5.4-4.1c-1.6-1.9-2.8-4.2-3.6-6.6c-1.7-5.7-1.7-11.7-0.1-17.3
	c0.7-2.4,2-4.7,3.6-6.6c1.6-1.9,3.5-3.3,5.8-4.3C1193.2,417.1,1195.8,416.6,1198.5,416.6 M1198.5,415.6c-2.8,0-5.6,0.5-8.2,1.6
	c-2.4,1-4.5,2.6-6.1,4.6c-1.7,2.1-3,4.4-3.8,7c-1.7,5.9-1.7,12.1,0.1,18c0.8,2.5,2.1,4.9,3.8,6.9c1.6,1.9,3.6,3.4,5.9,4.4
	c2.4,1,4.9,1.5,7.5,1.5c1.5,0,3.1-0.1,4.6-0.5c1.4-0.3,2.8-0.7,4.1-1.3c1.2-0.5,2.4-1.2,3.4-2c1-0.7,1.8-1.5,2.6-2.5l0.5-0.6
	l-0.5-0.6l-1-1.3c-0.4-0.5-1-0.8-1.6-0.8c-0.7,0.1-1.4,0.4-1.9,1c-0.6,0.5-1.2,1-1.9,1.4c-1,0.6-2,1.1-3.1,1.4
	c-1.5,0.5-3,0.7-4.6,0.6c-1.9,0-3.7-0.3-5.4-1.1c-1.6-0.7-3-1.8-4.1-3.2c-1.2-1.6-2.1-3.3-2.7-5.2c-0.7-2.4-1-4.8-1-7.3
	c0-2.4,0.3-4.8,0.9-7.1c0.5-1.9,1.4-3.7,2.7-5.3c1.1-1.4,2.6-2.5,4.2-3.3c1.8-0.8,3.8-1.2,5.8-1.1c1.4,0,2.7,0.1,4,0.5
	c1,0.3,1.9,0.7,2.8,1.1c0.6,0.3,1.2,0.7,1.8,1.1c0.5,0.4,1.1,0.7,1.7,0.8c0.4,0,0.8-0.1,1.1-0.4c0.1-0.1,0.3-0.3,0.5-0.4l0.1-0.1
	l0.1-0.1l1-1.4l0.5-0.7l-0.6-0.6c-1.7-1.6-3.6-2.8-5.7-3.6C1203.6,416.1,1201,415.7,1198.5,415.6L1198.5,415.6z"/>
<path d="M1235.8,416.6c2.7,0,5.4,0.5,7.8,1.5c2.2,0.9,4.2,2.4,5.8,4.2c1.6,1.9,2.9,4.2,3.6,6.6c1.7,5.6,1.7,11.6,0,17.3
	c-0.8,2.4-2,4.6-3.6,6.6c-1.6,1.8-3.6,3.3-5.8,4.2c-5,2-10.6,2-15.7,0c-2.2-0.9-4.2-2.4-5.8-4.2c-1.7-1.9-2.9-4.2-3.7-6.6
	c-1.7-5.6-1.7-11.6,0-17.3c0.8-2.4,2-4.7,3.7-6.6c1.6-1.8,3.6-3.3,5.8-4.2C1230.5,417.1,1233.1,416.6,1235.8,416.6 M1235.8,455.4
	c2.2,0.1,4.3-0.4,6.3-1.2c1.8-0.8,3.3-2,4.5-3.6c1.3-1.7,2.2-3.6,2.7-5.6c1.2-4.8,1.2-9.9,0-14.7c-0.5-2-1.4-4-2.7-5.7
	c-1.2-1.6-2.8-2.8-4.5-3.6c-4.1-1.7-8.6-1.7-12.7,0c-1.8,0.8-3.3,2.1-4.5,3.6c-1.3,1.7-2.2,3.6-2.7,5.7c-1.2,4.8-1.2,9.9,0,14.7
	c0.5,2,1.5,4,2.7,5.6c1.2,1.5,2.8,2.8,4.5,3.6C1231.5,455,1233.6,455.5,1235.8,455.4 M1235.8,415.6c-2.8,0-5.6,0.5-8.2,1.6
	c-2.4,1-4.5,2.5-6.2,4.5c-1.7,2-3.1,4.4-3.8,7c-1.7,5.8-1.7,12.1,0,17.9c0.8,2.5,2.1,4.9,3.8,6.9c1.7,1.9,3.8,3.5,6.2,4.5
	c5.3,2.1,11.2,2.1,16.4,0c2.4-1,4.5-2.5,6.2-4.5c1.7-2,3-4.4,3.8-6.9c1.7-5.8,1.7-12.1,0-17.9c-0.8-2.6-2.1-4.9-3.8-7
	c-1.7-1.9-3.8-3.5-6.2-4.5C1241.4,416.1,1238.6,415.6,1235.8,415.6L1235.8,415.6z M1235.8,454.4c-2,0.1-4.1-0.3-5.9-1.1
	c-1.6-0.7-3.1-1.9-4.2-3.3c-1.2-1.6-2.1-3.4-2.6-5.3c-1.2-4.7-1.2-9.5,0-14.2c0.5-1.9,1.4-3.7,2.6-5.3c1.1-1.4,2.5-2.6,4.2-3.3
	c3.8-1.6,8.1-1.6,11.9,0c1.6,0.8,3.1,1.9,4.2,3.3c1.2,1.6,2.1,3.4,2.5,5.3c1.2,4.7,1.2,9.5,0,14.2c-0.5,1.9-1.4,3.7-2.5,5.3
	c-1.1,1.4-2.5,2.5-4.2,3.3C1239.9,454.1,1237.9,454.5,1235.8,454.4L1235.8,454.4z"/>
<path d="M1281.6,416.6c1.1,0,2.3,0.1,3.4,0.4c1,0.3,2,0.6,2.9,1.1l-0.5,2.7c0,0.4-0.4,0.7-0.8,0.7c0,0,0,0,0,0
	c-0.2,0-0.5-0.1-0.7-0.2c-0.3-0.1-0.7-0.2-1.1-0.4c-0.5-0.2-1.1-0.3-1.7-0.4c-0.7-0.1-1.5-0.2-2.3-0.2c-2.8-0.1-5.5,0.9-7.6,2.9
	c-2.2,2.3-3.9,5.2-4.8,8.3V458h-3.9v-40.7h2c0.4,0,0.7,0.1,1,0.3c0.2,0.3,0.4,0.6,0.3,1l0.3,8.6c1.1-3,2.9-5.6,5.2-7.8
	C1275.7,417.5,1278.6,416.5,1281.6,416.6 M1281.5,415.6c-3.2-0.1-6.3,1-8.7,3c-1.5,1.3-2.7,2.8-3.7,4.5l-0.2-4.6
	c0.1-1.2-0.8-2.2-2-2.2c-0.1,0-0.3,0-0.4,0h-3v42.7h5.9v-27.3c0.9-2.9,2.5-5.5,4.6-7.7c1.8-1.8,4.3-2.7,6.9-2.6c0.7,0,1.4,0,2.1,0.1
	c0.5,0.1,1,0.2,1.6,0.3l0.2,0c0.3,0.1,0.6,0.2,0.9,0.3c0.3,0.1,0.7,0.2,1.1,0.2c0.9,0,1.7-0.6,1.8-1.5l0.5-2.7l0.2-0.7l-0.7-0.4
	c-1-0.5-2.1-0.9-3.2-1.2c-1.2-0.3-2.4-0.4-3.7-0.4L1281.5,415.6z"/>
<path d="M1328,398.5v59.5h-2.1c-0.6,0-1.1-0.4-1.2-1c0,0,0,0,0-0.1l-0.4-6.4c-1.7,2.4-3.8,4.3-6.3,5.9c-2.5,1.5-5.3,2.2-8.1,2.2
	c-5,0-8.9-1.7-11.7-5.2c-2.8-3.5-4.2-8.7-4.2-15.6c0-2.8,0.4-5.6,1.2-8.3c0.7-2.4,1.9-4.7,3.4-6.7c1.5-1.9,3.4-3.4,5.6-4.5
	c2.4-1.1,5-1.7,7.6-1.6c2.5-0.1,4.9,0.5,7.2,1.5c2.1,1.1,3.9,2.6,5.2,4.5v-24.1H1328 M1311,455.3c2.6,0,5.1-0.7,7.3-2.1
	c2.3-1.5,4.3-3.5,5.9-5.8V426c-4-5.8-11.6-8-18-5c-1.8,0.9-3.3,2.1-4.5,3.7c-1.3,1.7-2.2,3.7-2.8,5.7c-0.6,2.4-0.9,4.9-0.9,7.3
	c0,6.1,1.1,10.5,3.4,13.4S1306.8,455.4,1311,455.3 M1329,397.5h-5.9v22.5c-1.1-1.1-2.4-2-3.8-2.7c-2.4-1.1-5-1.7-7.6-1.6
	c-2.8,0-5.5,0.5-8,1.7c-2.3,1.1-4.3,2.8-5.9,4.8c-1.6,2.1-2.9,4.5-3.6,7c-0.8,2.8-1.2,5.7-1.2,8.6c0,7.1,1.5,12.6,4.4,16.2
	s7.2,5.6,12.5,5.6c3,0,6-0.8,8.6-2.3c1.9-1.1,3.5-2.5,5-4.1l0.3,3.9v0.1c0.1,1.1,1,2,2.2,1.9h3.1V397.5z M1311,454.3
	c-3.9,0-6.8-1.3-8.8-3.9s-3.2-7-3.2-12.7c0-2.4,0.3-4.8,0.9-7.1c0.5-1.9,1.4-3.8,2.6-5.4c1.1-1.5,2.5-2.6,4.2-3.4
	c3.8-1.7,8.1-1.6,11.9,0.1c1.9,1,3.5,2.5,4.7,4.3v20.8c-1.4,2.1-3.3,3.9-5.4,5.3C1315.8,453.7,1313.4,454.4,1311,454.3L1311,454.3z"
	/>
<path d="M1357.2,416.6c2.7,0,5.4,0.5,7.8,1.5c2.2,0.9,4.2,2.4,5.8,4.2c1.6,1.9,2.9,4.2,3.6,6.6c1.7,5.6,1.7,11.6,0,17.3
	c-0.8,2.4-2,4.6-3.6,6.6c-1.6,1.8-3.6,3.3-5.8,4.2c-5,2-10.6,2-15.7,0c-2.2-0.9-4.2-2.4-5.8-4.2c-1.7-1.9-2.9-4.2-3.7-6.6
	c-1.7-5.6-1.7-11.6,0-17.3c0.8-2.4,2-4.7,3.7-6.6c1.6-1.8,3.6-3.3,5.8-4.2C1351.8,417.1,1354.5,416.6,1357.2,416.6 M1357.2,455.4
	c2.2,0.1,4.3-0.4,6.3-1.2c1.8-0.8,3.3-2,4.5-3.6c1.3-1.7,2.2-3.6,2.7-5.6c1.2-4.8,1.2-9.9,0-14.7c-0.5-2-1.4-4-2.7-5.7
	c-1.2-1.6-2.8-2.8-4.5-3.6c-4.1-1.7-8.6-1.7-12.7,0c-1.8,0.8-3.3,2.1-4.5,3.6c-1.3,1.7-2.2,3.6-2.7,5.7c-1.2,4.8-1.2,9.9,0,14.7
	c0.5,2,1.5,4,2.7,5.6c1.2,1.5,2.8,2.8,4.5,3.6C1352.8,455,1355,455.5,1357.2,455.4 M1357.2,415.6c-2.8,0-5.6,0.5-8.2,1.6
	c-2.4,1-4.5,2.5-6.2,4.5c-1.7,2-3.1,4.4-3.8,7c-1.7,5.8-1.7,12.1,0,17.9c0.8,2.5,2.1,4.9,3.8,6.9c1.7,1.9,3.8,3.5,6.2,4.5
	c5.3,2.1,11.2,2.1,16.4,0c2.4-1,4.5-2.5,6.2-4.5c1.7-2,3-4.4,3.8-6.9c1.7-5.8,1.7-12.1,0-17.9c-0.8-2.6-2.1-4.9-3.8-7
	c-1.7-1.9-3.8-3.5-6.2-4.5C1362.8,416.1,1360,415.6,1357.2,415.6L1357.2,415.6z M1357.2,454.4c-2,0.1-4.1-0.3-5.9-1.1
	c-1.6-0.7-3.1-1.9-4.2-3.3c-1.2-1.6-2.1-3.4-2.6-5.3c-1.2-4.7-1.2-9.5,0-14.2c0.5-1.9,1.4-3.7,2.6-5.3c1.1-1.4,2.5-2.6,4.2-3.3
	c3.8-1.6,8.1-1.6,11.9,0c1.6,0.8,3.1,1.9,4.2,3.3c1.2,1.6,2.1,3.4,2.5,5.3c1.2,4.7,1.2,9.5,0,14.2c-0.5,1.9-1.4,3.7-2.5,5.3
	c-1.1,1.4-2.5,2.5-4.2,3.3C1361.2,454.1,1359.2,454.5,1357.2,454.4L1357.2,454.4z"/>
<path d="M1397.3,416.6c2.2,0,4.5,0.3,6.6,1.1c2,0.7,3.8,1.9,5.3,3.3l-0.8,1.4c-0.2,0.4-0.5,0.6-0.9,0.6c-0.4-0.1-0.8-0.2-1.2-0.5
	c-0.6-0.4-1.2-0.8-1.9-1.1c-0.9-0.5-1.9-0.9-2.9-1.1c-1.3-0.4-2.7-0.5-4.1-0.5c-1.4,0-2.7,0.2-4,0.6c-1.1,0.4-2.2,0.9-3.1,1.7
	c-0.8,0.7-1.5,1.5-2,2.5c-0.5,0.9-0.7,2-0.7,3c0,1.1,0.3,2.3,1,3.2c0.7,0.9,1.6,1.6,2.6,2.2c1.2,0.6,2.4,1.2,3.6,1.5
	c1.3,0.4,2.7,0.9,4.2,1.3s2.8,0.9,4.1,1.4c1.3,0.5,2.5,1.2,3.6,2c1.1,0.8,1.9,1.8,2.6,2.9c0.7,1.3,1,2.7,1,4.2c0,1.7-0.3,3.4-1,5
	c-0.6,1.5-1.6,2.9-2.8,4c-1.3,1.2-2.8,2.1-4.5,2.6c-1.9,0.7-4,1-6.1,1c-2.5,0.1-5.1-0.4-7.4-1.4c-2-0.9-3.9-2.1-5.6-3.6l0.9-1.4
	c0.1-0.2,0.3-0.4,0.4-0.5c0.2-0.1,0.4-0.2,0.7-0.2c0.5,0.1,1,0.3,1.3,0.6c0.6,0.5,1.3,1,2,1.4c1,0.6,2,1.1,3.1,1.4
	c1.5,0.5,3,0.7,4.6,0.7c1.5,0,3.1-0.2,4.5-0.7c1.2-0.4,2.3-1.1,3.3-1.9c0.9-0.8,1.5-1.8,2-2.9c0.5-1.1,0.7-2.3,0.7-3.5
	c0-1.2-0.3-2.4-1-3.4c-0.7-1-1.5-1.8-2.5-2.4c-1.1-0.7-2.4-1.2-3.6-1.6c-1.3-0.4-2.7-0.9-4.2-1.3c-1.4-0.4-2.8-0.9-4.2-1.4
	c-1.3-0.5-2.5-1.2-3.6-2c-1-0.8-1.9-1.8-2.6-2.9c-0.7-1.3-1-2.8-1-4.2c0-1.4,0.3-2.9,0.9-4.2c0.6-1.3,1.6-2.5,2.7-3.5
	c1.2-1.1,2.7-1.9,4.2-2.4C1393.5,416.8,1395.4,416.5,1397.3,416.6 M1397.3,415.6c-2,0-4,0.3-5.9,1c-1.7,0.6-3.2,1.5-4.6,2.6
	c-1.2,1.1-2.2,2.4-2.9,3.8c-0.7,1.4-1,3-1,4.6c0,1.6,0.3,3.3,1.1,4.7c0.7,1.2,1.7,2.3,2.8,3.2c1.2,0.9,2.5,1.6,3.9,2.1
	c1.4,0.5,2.8,1,4.2,1.5c1.6,0.5,2.9,0.9,4.2,1.3c1.2,0.4,2.3,0.9,3.4,1.5c0.9,0.5,1.7,1.2,2.3,2c0.6,0.8,0.8,1.8,0.8,2.8
	c0,1.1-0.2,2.1-0.6,3.1c-0.4,1-1,1.8-1.8,2.5c-0.9,0.8-1.8,1.4-2.9,1.7c-1.4,0.5-2.8,0.7-4.2,0.6c-1.4,0-2.9-0.2-4.3-0.6
	c-1-0.3-2-0.8-2.9-1.3c-0.7-0.4-1.3-0.8-1.9-1.3c-0.5-0.5-1.2-0.8-2-0.9c-0.4,0-0.9,0.1-1.3,0.3c-0.3,0.2-0.6,0.5-0.8,0.8l-0.9,1.4
	l-0.5,0.7l0.7,0.6c1.7,1.6,3.7,2.8,5.8,3.8c2.5,1,5.1,1.5,7.8,1.5c2.2,0,4.3-0.3,6.4-1c1.8-0.6,3.4-1.6,4.8-2.9
	c1.3-1.2,2.3-2.7,3-4.3c0.7-1.7,1-3.5,1-5.3c0-1.6-0.3-3.2-1.1-4.7c-0.7-1.3-1.7-2.4-2.8-3.2c-1.2-0.9-2.5-1.6-3.8-2.1
	c-1.3-0.5-2.7-1-4.2-1.5s-2.8-0.9-4.1-1.3c-1.2-0.4-2.3-0.9-3.4-1.5c-0.9-0.5-1.6-1.1-2.3-1.9c-0.5-0.7-0.8-1.6-0.8-2.6
	c0-0.9,0.2-1.7,0.6-2.5c0.4-0.8,1-1.6,1.8-2.1c0.8-0.7,1.8-1.2,2.8-1.5c1.2-0.4,2.4-0.6,3.7-0.6c1.3,0,2.6,0.1,3.9,0.5
	c0.9,0.3,1.8,0.6,2.7,1.1c0.6,0.3,1.2,0.7,1.8,1.1c0.5,0.4,1.1,0.7,1.7,0.7c0.7,0,1.4-0.4,1.8-1.1l0.8-1.3l0.4-0.7l-0.6-0.6
	c-1.6-1.5-3.5-2.7-5.6-3.5c-2.2-0.8-4.6-1.2-7-1.1L1397.3,415.6z"/>
<path d="M1458.9,416.9c2.2,0,4.3,0.4,6.4,1.2c1.9,0.8,3.7,1.9,5.1,3.5c1.5,1.6,2.6,3.5,3.3,5.6c0.8,2.4,1.3,5,1.2,7.6
	c0,0.4-0.1,0.9-0.3,1.2c-0.2,0.2-0.5,0.4-0.8,0.3h-29.4v0.8c0,2.7,0.3,5.4,1.1,8.1c0.6,2.1,1.6,4.1,3,5.8c1.3,1.5,2.9,2.8,4.8,3.5
	c2,0.8,4.1,1.2,6.2,1.2c1.8,0,3.6-0.2,5.3-0.7c1.3-0.4,2.6-0.9,3.8-1.5c0.9-0.4,1.7-0.9,2.5-1.5c0.4-0.3,0.8-0.6,1.3-0.7
	c0.3,0,0.6,0.1,0.8,0.4l1.1,1.3c-0.7,0.9-1.6,1.7-2.6,2.3c-1.1,0.7-2.3,1.3-3.6,1.8c-1.4,0.5-2.8,0.9-4.3,1.2
	c-1.5,0.3-3,0.5-4.6,0.5c-2.6,0-5.2-0.5-7.6-1.5c-2.3-0.9-4.3-2.4-5.9-4.2c-1.7-2-3-4.3-3.8-6.8c-0.9-3-1.4-6.1-1.3-9.2
	c0-2.7,0.4-5.5,1.2-8.1c0.8-2.3,2-4.5,3.6-6.4c1.6-1.8,3.6-3.2,5.8-4.2C1453.6,417.4,1456.2,416.9,1458.9,416.9 M1444.6,433.8h26.8
	c0-2-0.3-4-0.9-5.9c-0.5-1.6-1.4-3.1-2.5-4.4c-1.1-1.2-2.4-2.1-3.9-2.8c-1.6-0.7-3.3-1-5.1-1c-1.9,0-3.8,0.3-5.6,1
	c-1.6,0.6-3.1,1.6-4.3,2.8c-1.2,1.3-2.2,2.8-2.9,4.4C1445.3,429.9,1444.8,431.8,1444.6,433.8 M1458.9,415.9c-2.8,0-5.6,0.5-8.2,1.6
	c-2.3,1-4.4,2.5-6.1,4.4c-1.7,2-3,4.2-3.8,6.7c-0.9,2.7-1.3,5.5-1.3,8.4c-0.1,3.2,0.4,6.5,1.4,9.5c0.8,2.6,2.2,5.1,4,7.1
	c1.7,1.9,3.9,3.5,6.3,4.5c2.5,1,5.3,1.6,8,1.5c1.6,0,3.2-0.2,4.8-0.5c1.5-0.3,3-0.7,4.4-1.3c1.3-0.5,2.6-1.1,3.8-1.9
	c1.1-0.7,2-1.5,2.8-2.5l0.5-0.6l-0.5-0.6l-1-1.3c-0.4-0.5-1-0.8-1.6-0.8c-0.7,0.1-1.4,0.4-1.9,0.9c-0.7,0.5-1.5,1-2.3,1.4
	c-1.1,0.6-2.3,1.1-3.6,1.4c-1.6,0.4-3.3,0.7-5,0.6c-2,0-4-0.3-5.8-1.1c-1.7-0.7-3.2-1.8-4.4-3.3c-1.3-1.6-2.3-3.5-2.8-5.5
	c-0.7-2.5-1-5-1-7.5h28.4c0.6,0,1.2-0.2,1.6-0.7c0.4-0.5,0.6-1.2,0.5-1.9c0-2.7-0.4-5.4-1.3-8c-0.8-2.2-2-4.2-3.6-5.9
	c-1.5-1.6-3.4-2.9-5.4-3.7C1463.6,416.3,1461.3,415.9,1458.9,415.9L1458.9,415.9z M1445.7,432.8c0.2-1.5,0.7-3,1.3-4.4
	c0.6-1.5,1.6-2.9,2.7-4.1c1.1-1.1,2.5-2,4-2.6c1.7-0.6,3.5-0.9,5.3-0.9c1.6,0,3.2,0.3,4.7,0.9c1.4,0.6,2.6,1.4,3.6,2.5
	c1,1.2,1.8,2.6,2.3,4c0.5,1.5,0.8,3,0.8,4.5L1445.7,432.8z"/>
<path d="M1533.1,400.1l23.7,57.9h-3.2c-0.3,0-0.7-0.1-0.9-0.3c-0.3-0.2-0.4-0.5-0.6-0.8l-6.8-16.8h-28.4l-6.8,16.9
	c-0.1,0.3-0.3,0.6-0.6,0.8c-0.3,0.2-0.6,0.3-1,0.3h-3.2l23.7-57.9L1533.1,400.1 M1518.1,436.9h25.9l-11.8-29.2
	c-0.2-0.5-0.4-1-0.6-1.6s-0.4-1.2-0.6-1.9c-0.2,0.6-0.4,1.3-0.6,1.9s-0.4,1.1-0.6,1.6L1518.1,436.9 M1533.7,399.1h-5.5l-0.3,0.6
	l-23.7,57.9l-0.6,1.4h4.7c0.6,0,1.1-0.2,1.6-0.5c0.4-0.3,0.7-0.7,0.9-1.2l6.5-16.2h27.1l6.6,16.2c0.2,0.5,0.5,0.9,0.8,1.2
	c0.4,0.4,1,0.6,1.6,0.5h4.7l-0.6-1.4l-23.7-57.8L1533.7,399.1L1533.7,399.1z M1519.5,435.9l11.3-27.8l0.2-0.6l0.2,0.5l11.3,27.9
	H1519.5z"/>
<path d="M1581,416.6c1.1,0,2.3,0.1,3.4,0.4c1,0.3,2,0.6,2.9,1.1l-0.5,2.7c0,0.4-0.4,0.7-0.8,0.7c0,0,0,0,0,0c-0.2,0-0.5-0.1-0.7-0.2
	c-0.3-0.1-0.7-0.2-1.1-0.4c-0.5-0.2-1.1-0.3-1.7-0.4c-0.7-0.1-1.5-0.2-2.3-0.2c-2.8-0.1-5.5,0.9-7.6,2.9c-2.2,2.3-3.9,5.2-4.8,8.3
	V458h-3.9v-40.7h2c0.4,0,0.7,0.1,1,0.3c0.2,0.3,0.4,0.6,0.3,1l0.3,8.6c1.1-3,2.9-5.6,5.2-7.8c2.2-1.9,5.1-2.9,8-2.8 M1580.9,415.6
	c-3.2-0.1-6.3,1-8.7,3c-1.5,1.3-2.7,2.8-3.7,4.5l-0.2-4.6c0.1-1.2-0.8-2.2-2-2.2c-0.1,0-0.3,0-0.4,0h-3v42.7h5.9v-27.3
	c0.9-2.9,2.4-5.5,4.5-7.7c1.8-1.8,4.3-2.7,6.9-2.6c0.7,0,1.4,0,2.1,0.1c0.5,0.1,1,0.2,1.6,0.3l0.2,0c0.3,0.1,0.6,0.2,0.9,0.3
	c0.3,0.1,0.7,0.2,1.1,0.2c0.9,0,1.7-0.6,1.8-1.5l0.5-2.7l0.2-0.7l-0.7-0.4c-1-0.5-2.1-0.9-3.2-1.2
	C1583.4,415.7,1582.2,415.5,1580.9,415.6L1580.9,415.6z"/>
<path d="M1600.7,398.5v25.9c1.7-2.3,3.8-4.2,6.3-5.7c2.4-1.4,5.2-2.1,8-2.1c5,0,8.9,1.7,11.7,5.2s4.2,8.6,4.2,15.6
	c0,2.8-0.4,5.6-1.2,8.3c-0.7,2.4-1.9,4.7-3.4,6.7c-1.5,1.9-3.4,3.4-5.6,4.5c-2.4,1.1-5,1.7-7.6,1.6c-5.1,0.2-9.9-2.3-12.6-6.5
	l-0.2,5c0,0.6-0.4,1-1,1c0,0-0.1,0-0.1,0h-2.3v-59.5H1600.7 M1612.4,455.5c2.2,0,4.3-0.4,6.3-1.3c1.8-0.9,3.3-2.1,4.5-3.7
	c1.3-1.7,2.2-3.7,2.8-5.7c0.6-2.4,0.9-4.9,0.9-7.3c0-6.1-1.1-10.5-3.3-13.4s-5.4-4.3-9.6-4.3c-2.6,0-5.1,0.7-7.3,2.1
	c-2.3,1.5-4.3,3.5-5.9,5.8v21.5c1.3,2.1,3,3.8,5.2,4.9C1607.9,455,1610.1,455.5,1612.4,455.5 M1601.7,397.5h-5.9v61.5h3.3
	c1.1,0,2-0.8,2.1-1.9v0l0.1-2.3c1.1,1.2,2.5,2.3,3.9,3.1c2.4,1.2,5.1,1.8,7.8,1.8c2.8,0,5.5-0.6,8-1.7c2.3-1.1,4.3-2.8,5.9-4.8
	c1.6-2.1,2.9-4.5,3.6-7c0.8-2.8,1.2-5.7,1.2-8.6c0-7.1-1.5-12.6-4.4-16.2s-7.2-5.5-12.4-5.5c-3,0-5.9,0.7-8.5,2.2
	c-1.8,1-3.4,2.3-4.8,3.8v-23.2L1601.7,397.5L1601.7,397.5z M1601.7,427.9c1.4-2.1,3.3-3.9,5.4-5.3c2-1.3,4.4-2,6.8-1.9
	c3.9,0,6.8,1.3,8.8,3.9s3.1,6.9,3.1,12.7c0,2.4-0.3,4.8-0.9,7.1c-0.5,1.9-1.4,3.8-2.6,5.4c-1.1,1.4-2.5,2.6-4.2,3.4
	c-3.8,1.6-8.1,1.6-11.9-0.1c-1.9-1-3.5-2.5-4.6-4.3V427.9L1601.7,427.9z"/>
<path d="M1644.2,399.6c0.5,0,0.9,0.1,1.4,0.3c0.4,0.2,0.8,0.4,1.1,0.8c0.3,0.3,0.6,0.7,0.8,1.2c0.2,0.4,0.3,0.9,0.3,1.4
	c0,0.5-0.1,0.9-0.3,1.4c-0.2,0.4-0.5,0.8-0.8,1.1c-0.3,0.3-0.7,0.6-1.1,0.8c-0.9,0.4-1.9,0.4-2.8,0c-0.4-0.2-0.8-0.4-1.1-0.8
	c-0.3-0.3-0.6-0.7-0.8-1.1c-0.2-0.4-0.3-0.9-0.3-1.4c0-0.5,0.1-1,0.3-1.4c0.2-0.4,0.4-0.8,0.8-1.2c0.3-0.3,0.7-0.6,1.1-0.8
	C1643.2,399.7,1643.7,399.6,1644.2,399.6 M1646.1,417.3V458h-3.9v-40.7L1646.1,417.3 M1644.2,398.6c-0.6,0-1.2,0.1-1.8,0.4
	c-0.5,0.2-1,0.6-1.4,1c-0.4,0.4-0.8,0.9-1,1.5c-0.2,0.6-0.4,1.2-0.4,1.8c0,0.6,0.1,1.2,0.4,1.8c0.2,0.5,0.6,1,1,1.4
	c0.4,0.4,0.9,0.8,1.5,1c1.1,0.5,2.4,0.5,3.6,0c0.5-0.2,1-0.6,1.4-1c0.4-0.4,0.7-0.9,1-1.4c0.3-0.6,0.4-1.2,0.4-1.8
	c0-0.6-0.1-1.2-0.4-1.8c-0.2-0.5-0.6-1-1-1.5c-0.4-0.4-0.9-0.8-1.5-1C1645.4,398.7,1644.8,398.6,1644.2,398.6L1644.2,398.6z
	 M1647.1,416.3h-5.9v42.7h5.9V416.3z"/>
<path d="M1666.8,403v15.5h12.8v2.9h-12.8V449c0,1,0.1,2,0.4,2.9c0.2,0.7,0.7,1.4,1.2,2c0.5,0.5,1.1,0.9,1.8,1.1
	c0.7,0.2,1.5,0.4,2.2,0.4c0.9,0,1.7-0.1,2.5-0.4c0.6-0.3,1.3-0.6,1.8-0.9c0.4-0.3,0.9-0.6,1.3-0.9c0.2-0.2,0.5-0.4,0.8-0.4
	c0.3,0,0.5,0.2,0.7,0.4l1.1,1.7c-1.1,1.2-2.5,2.1-3.9,2.8c-1.6,0.7-3.3,1-5,1c-2.4,0.1-4.7-0.7-6.4-2.3c-1.5-1.5-2.3-3.9-2.3-7.1
	v-27.8h-5.8c-0.3,0-0.5-0.1-0.7-0.3c-0.2-0.2-0.3-0.4-0.3-0.7V419l6.9-0.5l1-14.5c0-0.2,0.1-0.5,0.3-0.7c0.2-0.2,0.4-0.3,0.7-0.3
	L1666.8,403 M1667.8,402h-2.8c-0.5,0-1.1,0.2-1.4,0.6c-0.3,0.3-0.5,0.8-0.6,1.2l-0.9,13.7l-6.1,0.4l-0.9,0.1v2.4
	c0,0.6,0.2,1.1,0.7,1.5c0.4,0.3,0.9,0.5,1.4,0.5h4.8v26.8c0,3.5,0.9,6.1,2.6,7.8c1.9,1.8,4.5,2.7,7.1,2.6c1.8,0,3.7-0.4,5.4-1.1
	c1.6-0.7,3.1-1.7,4.3-3l0.5-0.6l-0.4-0.6l-1.1-1.7v0l0,0c-0.3-0.5-0.9-0.8-1.4-0.8c-0.5,0-1,0.3-1.4,0.7c-0.4,0.3-0.8,0.6-1.2,0.9
	c-0.5,0.3-1.1,0.6-1.7,0.9c-0.7,0.3-1.4,0.4-2.2,0.4c-0.6,0-1.3-0.1-1.9-0.3c-0.5-0.2-1-0.5-1.4-0.9c-0.4-0.5-0.8-1-1-1.6
	c-0.3-0.8-0.4-1.7-0.4-2.5v-26.7h12.8v-4.9h-12.8L1667.8,402L1667.8,402z"/>
<path d="M1706.6,416.6c1.1,0,2.3,0.1,3.4,0.4c1,0.3,2,0.6,2.9,1.1l-0.5,2.7c0,0.4-0.4,0.7-0.8,0.7c0,0,0,0,0,0
	c-0.2,0-0.5-0.1-0.7-0.2c-0.3-0.1-0.7-0.2-1.1-0.4c-0.5-0.2-1.1-0.3-1.7-0.4c-0.7-0.1-1.5-0.2-2.3-0.2c-2.8-0.1-5.5,0.9-7.6,2.9
	c-2.2,2.3-3.9,5.2-4.8,8.3V458h-3.9v-40.7h2c0.4,0,0.7,0.1,1,0.3c0.2,0.3,0.4,0.6,0.3,1l0.3,8.6c1.1-3,2.9-5.6,5.2-7.8
	c2.2-1.9,5.1-2.9,8-2.8 M1706.5,415.6c-3.2-0.1-6.3,1-8.7,3c-1.5,1.3-2.7,2.8-3.7,4.5l-0.2-4.6c0.1-1.2-0.8-2.2-2-2.2
	c-0.1,0-0.3,0-0.4,0h-3v42.7h5.9v-27.3c0.9-2.9,2.5-5.5,4.5-7.7c1.8-1.8,4.3-2.7,6.9-2.6c0.7,0,1.4,0,2.1,0.1c0.5,0.1,1,0.2,1.6,0.3
	l0.2,0.1c0.3,0.1,0.6,0.2,0.9,0.3c0.3,0.1,0.7,0.2,1.1,0.2c0.9,0,1.7-0.6,1.8-1.5l0.5-2.7l0.1-0.7l-0.7-0.4c-1-0.5-2.1-0.9-3.2-1.2
	C1709.1,415.7,1707.8,415.6,1706.5,415.6L1706.5,415.6z"/>
<path d="M1734.5,416.6c2-0.1,3.9,0.3,5.7,1c1.6,0.7,3,1.7,4.1,3c1.1,1.4,2,3,2.4,4.7c0.6,2,0.8,4.1,0.8,6.1v26.5h-1.6
	c-0.7,0.1-1.4-0.4-1.5-1.1l-0.6-5.2c-1.1,1.1-2.2,2.1-3.3,3c-1.1,0.9-2.2,1.6-3.4,2.2c-1.2,0.6-2.5,1.1-3.9,1.4
	c-1.5,0.3-3,0.5-4.6,0.5c-1.4,0-2.7-0.2-4-0.6c-1.3-0.4-2.5-1-3.5-1.9c-1-0.9-1.9-2-2.4-3.3c-0.6-1.5-1-3.1-0.9-4.8
	c0-1.7,0.5-3.4,1.5-4.8c1.2-1.6,2.8-3,4.6-3.8c2.6-1.2,5.3-2.1,8.1-2.6c3.9-0.7,7.9-1.1,11.8-1.1v-4.3c0-3.8-0.8-6.7-2.4-8.7
	c-1.6-2-4-3-7.2-3c-1.7,0-3.4,0.2-5,0.8c-1.2,0.5-2.4,1.1-3.5,1.8c-0.8,0.5-1.6,1.2-2.3,1.8c-0.4,0.4-0.9,0.7-1.5,0.8
	c-0.5,0-1-0.3-1.2-0.7l-0.7-1.2c1.9-2,4.2-3.6,6.7-4.8C1729.1,417.1,1731.8,416.5,1734.5,416.6 M1729.7,455.8c1.5,0,2.9-0.2,4.4-0.5
	c1.3-0.3,2.5-0.8,3.7-1.4c1.1-0.6,2.2-1.3,3.2-2.2c1-0.8,2-1.8,2.9-2.7v-10.6c-3.3,0.1-6.7,0.4-10,0.9c-2.4,0.4-4.7,1-6.9,1.9
	c-1.6,0.6-2.9,1.6-4,2.9c-0.9,1.1-1.3,2.5-1.3,3.9c0,1.2,0.2,2.4,0.7,3.5c0.4,0.9,1,1.8,1.8,2.5c0.8,0.6,1.6,1.1,2.6,1.4
	C1727.7,455.6,1728.7,455.8,1729.7,455.8 M1734.6,415.6c-2.9,0-5.8,0.5-8.4,1.7c-2.6,1.2-5,2.9-7,5l-0.6,0.5l0.4,0.7l0.7,1.2
	c0.4,0.8,1.2,1.3,2.1,1.2c0.8-0.1,1.6-0.5,2.2-1.1c0.7-0.6,1.4-1.2,2.2-1.7c1-0.7,2.1-1.2,3.3-1.7c1.5-0.5,3.1-0.8,4.7-0.8
	c2.9,0,5,0.9,6.4,2.7s2.2,4.5,2.2,8.1v3.3c-3.7,0.1-7.4,0.5-11,1.1c-2.9,0.5-5.7,1.4-8.3,2.7c-2,0.9-3.7,2.4-5,4.2
	c-1.1,1.6-1.6,3.4-1.6,5.3c0,1.8,0.3,3.5,1,5.2c0.6,1.4,1.5,2.6,2.7,3.6c1.1,0.9,2.4,1.6,3.8,2.1c1.4,0.4,2.9,0.7,4.3,0.7
	c1.6,0,3.2-0.2,4.8-0.5c1.4-0.3,2.8-0.8,4.1-1.5c1.3-0.6,2.5-1.4,3.6-2.3c0.7-0.5,1.3-1.1,1.9-1.6l0.3,3.2v0.1v0.1
	c0.2,1.2,1.3,2,2.5,1.9h2.6v-27.5c0-2.2-0.3-4.3-0.9-6.4c-0.5-1.8-1.4-3.6-2.6-5.1c-1.2-1.4-2.7-2.6-4.4-3.3
	C1738.7,415.9,1736.6,415.5,1734.6,415.6L1734.6,415.6z M1729.7,454.8c-0.9,0-1.9-0.1-2.8-0.4c-0.8-0.2-1.6-0.7-2.2-1.2
	c-0.7-0.6-1.2-1.3-1.5-2.1c-0.4-1-0.6-2.1-0.6-3.1c0-1.2,0.4-2.3,1.1-3.3c1-1.2,2.2-2.1,3.6-2.6c2.1-0.9,4.4-1.5,6.7-1.9
	c2.9-0.5,5.9-0.7,8.8-0.8v9.1c-0.8,0.9-1.7,1.7-2.6,2.4c-0.9,0.8-1.9,1.5-3,2.1c-1.1,0.6-2.2,1-3.4,1.3
	C1732.5,454.6,1731.1,454.8,1729.7,454.8L1729.7,454.8z"/>
<path d="M1773.3,416.6c1.7,0,3.3,0.2,4.9,0.6c1.4,0.4,2.8,1,4.1,1.9h10.4v1.4c0,0.7-0.4,1-1.1,1.1l-6.2,0.5c0.8,1.1,1.4,2.2,1.8,3.5
	c0.4,1.3,0.6,2.7,0.6,4.1c0,1.8-0.3,3.6-1.1,5.3c-0.7,1.6-1.7,3-3,4.1c-1.3,1.2-2.9,2.1-4.6,2.6c-1.9,0.6-3.9,1-5.9,0.9
	c-2.2,0-4.3-0.3-6.4-1.1c-1.1,0.6-2,1.4-2.7,2.3c-0.6,0.7-1,1.7-1,2.6c-0.1,1,0.4,2.1,1.2,2.7c1,0.7,2.1,1.2,3.3,1.4
	c1.5,0.3,3.1,0.5,4.6,0.5l5.3,0.3c1.8,0.1,3.5,0.3,5.3,0.5c1.6,0.2,3.1,0.6,4.6,1.3c1.3,0.6,2.4,1.4,3.3,2.6
	c0.9,1.3,1.3,2.8,1.2,4.4c0,1.7-0.4,3.4-1.3,4.9c-0.9,1.6-2.2,3-3.7,4.1c-1.8,1.3-3.7,2.2-5.8,2.9c-2.5,0.8-5,1.1-7.6,1.1
	c-2.5,0-5.1-0.3-7.5-0.9c-1.9-0.5-3.8-1.3-5.4-2.4c-1.3-0.9-2.5-2.1-3.3-3.5c-0.7-1.3-1.1-2.7-1.1-4.2c0-2.1,0.7-4,2.1-5.6
	c1.6-1.7,3.6-2.9,5.8-3.6c-1.2-0.4-2.3-1.1-3.3-2c-0.9-1-1.3-2.3-1.2-3.6c0-0.6,0.1-1.2,0.3-1.8c0.2-0.7,0.6-1.3,1-1.9
	c0.5-0.6,1-1.2,1.6-1.7c0.7-0.6,1.4-1.1,2.2-1.5c-1.9-1.1-3.4-2.6-4.5-4.5c-1.1-2-1.7-4.2-1.6-6.5c0-1.8,0.3-3.6,1-5.3
	c0.7-1.6,1.7-3,2.9-4.1c1.3-1.2,2.9-2.1,4.6-2.6C1769.2,416.9,1771.2,416.6,1773.3,416.6 M1773.2,440c1.6,0,3.2-0.2,4.7-0.8
	c1.3-0.5,2.4-1.2,3.4-2.1c0.9-0.9,1.7-2,2.1-3.2c0.5-1.3,0.7-2.7,0.7-4.2c0-1.4-0.2-2.9-0.7-4.2c-0.5-1.2-1.2-2.3-2.2-3.3
	c-1-0.9-2.2-1.6-3.4-2.1c-1.5-0.5-3-0.8-4.6-0.7c-1.6,0-3.1,0.2-4.6,0.7c-1.3,0.5-2.5,1.2-3.4,2.1c-0.9,0.9-1.7,2-2.2,3.3
	c-0.5,1.3-0.8,2.8-0.7,4.2c0,1.4,0.2,2.8,0.7,4.2c0.5,1.2,1.2,2.3,2.2,3.2c1,0.9,2.2,1.6,3.4,2.1
	C1770.1,439.8,1771.6,440,1773.2,440 M1773.6,470.2c2,0,3.9-0.2,5.8-0.7c1.6-0.4,3.2-1.1,4.7-2c1.2-0.8,2.3-1.8,3.1-3
	c0.7-1.1,1.1-2.5,1.1-3.8c0.1-1.1-0.3-2.2-1-3.1c-0.7-0.8-1.6-1.4-2.7-1.8c-1.2-0.5-2.5-0.8-3.9-0.9c-1.5-0.2-3-0.3-4.6-0.4
	l-4.8-0.2c-1.5-0.1-3-0.2-4.5-0.5c-1,0.4-2,0.9-2.9,1.4c-0.8,0.5-1.6,1.1-2.3,1.8c-0.6,0.6-1.1,1.4-1.5,2.2
	c-0.4,0.8-0.5,1.7-0.5,2.6c0,1.2,0.3,2.3,0.9,3.3c0.7,1.1,1.6,2,2.7,2.6c1.4,0.8,2.8,1.4,4.4,1.8
	C1769.7,470,1771.7,470.3,1773.6,470.2 M1773.2,415.6c-2.1,0-4.3,0.3-6.3,1c-1.8,0.6-3.5,1.6-4.9,2.9c-1.4,1.2-2.5,2.8-3.2,4.5
	c-0.8,1.8-1.2,3.8-1.1,5.7c0,2.4,0.6,4.9,1.8,7c0.9,1.5,2.1,2.9,3.5,3.9c-0.3,0.2-0.6,0.5-0.9,0.7c-0.6,0.6-1.2,1.2-1.7,1.9
	c-0.5,0.6-0.8,1.4-1.1,2.1c-0.2,0.7-0.4,1.4-0.4,2.1c-0.1,1.6,0.4,3.1,1.5,4.3c0.4,0.5,1,0.9,1.5,1.3c-1.6,0.7-3,1.7-4.1,3
	c-1.6,1.7-2.4,3.9-2.4,6.2c0,1.6,0.4,3.2,1.2,4.7c0.9,1.5,2.1,2.8,3.6,3.8c1.8,1.1,3.7,2,5.7,2.5c2.5,0.7,5.2,1,7.8,0.9
	c2.7,0,5.3-0.4,7.9-1.1c2.2-0.7,4.2-1.7,6.1-3c1.6-1.2,3-2.7,3.9-4.5c0.9-1.6,1.4-3.5,1.4-5.3c0.1-1.8-0.4-3.5-1.4-5
	c-1-1.3-2.2-2.3-3.7-2.9c-1.6-0.7-3.2-1.2-4.9-1.4c-1.7-0.3-3.5-0.4-5.4-0.5l-5.3-0.3c-1.5-0.1-3-0.2-4.5-0.5c-1-0.2-2-0.6-2.8-1.2
	c-0.6-0.5-0.9-1.2-0.8-1.9c0-0.7,0.3-1.4,0.8-2c0.5-0.7,1.2-1.3,2-1.8c2,0.7,4.1,1,6.3,1c2.1,0,4.2-0.3,6.2-1
	c1.8-0.6,3.5-1.6,4.9-2.8c1.4-1.2,2.5-2.7,3.2-4.4c0.8-1.8,1.2-3.8,1.2-5.7c0-1.5-0.2-3-0.7-4.5c-0.3-0.8-0.6-1.6-1-2.3l4.5-0.3
	c1.1,0,2-0.8,2.1-1.9c0-0.1,0-0.1,0-0.2v-2.4h-11.1c-1.3-0.8-2.6-1.4-4.1-1.8C1776.7,415.9,1775,415.6,1773.2,415.6L1773.2,415.6z
	 M1773.2,439c-1.5,0-2.9-0.2-4.3-0.7c-1.2-0.4-2.2-1.1-3.1-1.9c-0.8-0.8-1.5-1.8-1.9-2.9c-0.5-1.2-0.7-2.5-0.7-3.8
	c0-1.3,0.2-2.6,0.7-3.8c0.4-1.1,1.1-2.1,1.9-2.9c0.9-0.8,1.9-1.5,3.1-1.9c1.4-0.5,2.8-0.7,4.3-0.7c1.4,0,2.9,0.2,4.3,0.7
	c1.1,0.4,2.2,1,3.1,1.9c0.8,0.8,1.5,1.8,1.9,2.9c0.5,1.2,0.7,2.5,0.7,3.8c0,1.3-0.2,2.6-0.7,3.8c-0.4,1.1-1,2.1-1.9,2.9
	c-0.9,0.8-1.9,1.5-3.1,1.9C1776.1,438.8,1774.7,439,1773.2,439L1773.2,439z M1773.6,469.2c-1.9,0-3.8-0.2-5.7-0.6
	c-1.4-0.3-2.8-0.9-4.1-1.7c-1-0.6-1.8-1.4-2.4-2.3c-0.5-0.9-0.8-1.8-0.8-2.8c0-0.8,0.1-1.5,0.4-2.2c0.3-0.7,0.7-1.4,1.3-1.9
	c0.6-0.6,1.3-1.2,2.1-1.6c0.8-0.5,1.6-0.9,2.5-1.2c1.4,0.2,2.9,0.4,4.3,0.5l4.7,0.2h0.1c1.7,0.1,3.2,0.2,4.5,0.4
	c1.2,0.1,2.5,0.4,3.6,0.9c0.9,0.3,1.7,0.8,2.3,1.5c0.5,0.7,0.8,1.6,0.8,2.4c0,1.2-0.4,2.3-1,3.3c-0.7,1.1-1.7,2-2.8,2.7
	c-1.4,0.8-2.8,1.5-4.4,1.8C1777.3,469,1775.5,469.3,1773.6,469.2L1773.6,469.2z"/>
<path d="M1816.4,416.6c2.2,0,4.3,0.4,6.4,1.2c1.9,0.8,3.7,1.9,5.1,3.5c1.5,1.6,2.6,3.5,3.3,5.6c0.8,2.4,1.3,5,1.2,7.6
	c0,0.4-0.1,0.9-0.3,1.2c-0.2,0.2-0.5,0.4-0.8,0.3H1802v0.8c0,2.7,0.3,5.4,1.1,8.1c0.6,2.1,1.6,4.1,3,5.8c1.3,1.5,2.9,2.8,4.8,3.5
	c2,0.8,4.1,1.2,6.2,1.2c1.8,0,3.6-0.2,5.3-0.7c1.3-0.4,2.6-0.9,3.8-1.5c0.8-0.4,1.7-1,2.4-1.5c0.4-0.3,0.8-0.6,1.3-0.7
	c0.3,0,0.6,0.1,0.8,0.4l1.1,1.3c-0.7,0.9-1.6,1.7-2.6,2.3c-1.1,0.7-2.3,1.3-3.6,1.8c-1.4,0.5-2.8,0.9-4.3,1.2
	c-1.5,0.3-3,0.5-4.6,0.5c-2.6,0-5.2-0.5-7.6-1.5c-2.3-0.9-4.3-2.4-5.9-4.2c-1.7-2-3-4.3-3.8-6.8c-0.9-3-1.4-6.1-1.3-9.2
	c0-2.7,0.4-5.5,1.2-8.1c0.8-2.3,2-4.5,3.6-6.4c1.6-1.8,3.6-3.2,5.8-4.2C1811.1,417.1,1813.8,416.6,1816.4,416.6 M1802.1,433.5h26.8
	c0-2-0.3-4-0.9-5.9c-0.5-1.6-1.4-3.1-2.5-4.4c-1.1-1.2-2.4-2.1-3.9-2.8c-1.6-0.7-3.3-1-5.1-1c-1.9,0-3.8,0.3-5.6,1
	c-1.6,0.6-3.1,1.6-4.3,2.8c-1.2,1.3-2.2,2.8-2.9,4.4C1802.8,429.5,1802.3,431.5,1802.1,433.5 M1816.4,415.6c-2.8,0-5.6,0.5-8.2,1.6
	c-2.3,1-4.4,2.5-6.1,4.4c-1.7,2-3,4.2-3.8,6.7c-0.9,2.7-1.3,5.5-1.3,8.4c-0.1,3.2,0.4,6.5,1.4,9.5c0.8,2.6,2.2,5.1,4,7.1
	c1.7,1.9,3.9,3.5,6.3,4.5c2.5,1,5.3,1.6,8,1.5c1.6,0,3.2-0.2,4.8-0.5c1.5-0.3,3-0.7,4.4-1.3c1.3-0.5,2.6-1.1,3.8-1.9
	c1.1-0.7,2-1.5,2.8-2.5l0.5-0.6l-0.5-0.6l-1-1.3c-0.4-0.5-1-0.8-1.6-0.8c-0.7,0.1-1.4,0.4-1.9,0.9c-0.7,0.5-1.5,1-2.3,1.4
	c-1.1,0.6-2.3,1.1-3.6,1.4c-1.6,0.4-3.3,0.7-5,0.6c-2,0-4-0.3-5.8-1.1c-1.7-0.7-3.2-1.8-4.4-3.3c-1.3-1.6-2.3-3.5-2.8-5.5
	c-0.7-2.5-1-5-1-7.5h28.4c0.6,0,1.2-0.2,1.6-0.7c0.4-0.5,0.6-1.2,0.5-1.9c0-2.7-0.4-5.4-1.3-8c-0.8-2.2-2-4.2-3.6-5.9
	c-1.5-1.6-3.4-2.9-5.4-3.7C1821.1,416,1818.8,415.6,1816.4,415.6L1816.4,415.6z M1803.3,432.5c0.2-1.5,0.7-3,1.3-4.4
	c0.6-1.5,1.6-2.9,2.7-4.1c1.1-1.1,2.5-2,4-2.6c1.7-0.6,3.5-0.9,5.3-0.9c1.6,0,3.2,0.3,4.7,0.9c1.4,0.6,2.6,1.4,3.6,2.5
	c1,1.2,1.8,2.6,2.3,4c0.5,1.5,0.8,3,0.8,4.5L1803.3,432.5z"/>
<path d="M1861.3,416.6c2,0,4,0.3,5.9,1.1c1.6,0.7,3.1,1.7,4.2,3.1c1.2,1.4,2,3.1,2.5,4.8c0.6,2.1,0.9,4.2,0.9,6.4v26h-3.8v-26
	c0-3.8-0.9-6.8-2.6-9c-1.7-2.2-4.4-3.3-8-3.3c-2.6,0-5.2,0.7-7.4,2.1c-2.4,1.5-4.5,3.4-6.1,5.7v30.5h-3.9v-40.6h2.1
	c0.6-0.1,1.1,0.4,1.2,1c0,0,0,0,0,0l0.4,6.1c1.8-2.3,4-4.2,6.5-5.7C1855.6,417.3,1858.4,416.5,1861.3,416.6 M1861.3,415.6
	c-3.1,0-6.1,0.8-8.7,2.3c-1.9,1.1-3.6,2.4-5.1,4l-0.2-3.7v-0.1c-0.1-1.1-1.1-1.9-2.2-1.9h-3.1v42.7h5.9v-31.1
	c1.5-2.1,3.5-3.8,5.7-5.1c2.1-1.3,4.5-1.9,6.9-1.9c3.3,0,5.7,0.9,7.2,2.9s2.4,4.8,2.4,8.3v27h5.9v-27c0-2.3-0.3-4.5-0.9-6.7
	c-0.5-1.9-1.5-3.7-2.7-5.2c-1.2-1.5-2.8-2.6-4.6-3.4C1865.6,415.9,1863.5,415.6,1861.3,415.6L1861.3,415.6z"/>
<path d="M1898.5,416.6c2.2,0,4.5,0.3,6.6,1.1c2,0.7,3.8,1.9,5.3,3.3l-0.8,1.4c-0.2,0.4-0.5,0.6-0.9,0.6c-0.4-0.1-0.8-0.2-1.2-0.5
	c-0.6-0.4-1.2-0.8-1.9-1.1c-0.9-0.5-1.9-0.9-2.9-1.1c-1.3-0.4-2.7-0.5-4.1-0.5c-1.4,0-2.7,0.2-4,0.6c-1.1,0.4-2.2,0.9-3.1,1.7
	c-0.8,0.7-1.5,1.5-2,2.5c-0.5,0.9-0.7,2-0.7,3c0,1.1,0.3,2.3,1,3.2c0.7,0.9,1.6,1.6,2.6,2.2c1.2,0.6,2.4,1.2,3.6,1.5
	c1.3,0.4,2.7,0.9,4.2,1.3s2.8,0.9,4.1,1.5c1.3,0.5,2.5,1.2,3.6,2c1.1,0.8,1.9,1.8,2.6,2.9c0.7,1.3,1,2.7,1,4.2c0,1.7-0.3,3.4-1,5
	c-0.6,1.5-1.6,2.9-2.8,4c-1.3,1.2-2.8,2.1-4.5,2.6c-1.9,0.7-4,1-6.1,1c-2.5,0.1-5.1-0.4-7.4-1.4c-2-0.9-3.9-2.1-5.6-3.6l0.9-1.4
	c0.1-0.2,0.3-0.4,0.4-0.5c0.2-0.1,0.4-0.2,0.7-0.2c0.5,0.1,1,0.3,1.3,0.6c0.6,0.5,1.3,1,2,1.4c1,0.6,2,1.1,3.1,1.4
	c1.5,0.5,3,0.7,4.6,0.7c1.5,0,3.1-0.2,4.5-0.7c1.2-0.4,2.3-1.1,3.3-1.9c0.9-0.8,1.5-1.8,2-2.9c0.5-1.1,0.7-2.3,0.7-3.5
	c0-1.2-0.3-2.4-1-3.4c-0.7-0.9-1.6-1.7-2.6-2.3c-1.1-0.7-2.4-1.2-3.6-1.6c-1.3-0.4-2.7-0.9-4.2-1.3s-2.8-0.9-4.2-1.4
	c-1.3-0.5-2.5-1.2-3.6-2c-1-0.8-1.9-1.8-2.6-2.9c-0.7-1.3-1-2.8-1-4.2c0-1.4,0.3-2.9,0.9-4.2c0.6-1.3,1.6-2.5,2.7-3.5
	c1.2-1.1,2.7-1.9,4.2-2.4c1.8-0.6,3.7-0.9,5.6-0.9 M1898.5,415.7c-2,0-4,0.3-5.9,1c-1.7,0.6-3.2,1.5-4.6,2.6
	c-1.2,1.1-2.2,2.4-2.9,3.8c-0.7,1.4-1,3-1,4.6c0,1.6,0.3,3.3,1.1,4.7c0.7,1.2,1.7,2.3,2.8,3.2c1.2,0.9,2.5,1.6,3.9,2.1
	c1.4,0.5,2.8,1,4.2,1.5c1.6,0.5,2.9,0.9,4.2,1.3c1.2,0.4,2.3,0.9,3.4,1.5c0.9,0.5,1.7,1.2,2.3,2c0.6,0.8,0.8,1.8,0.8,2.8
	c0,1.1-0.2,2.1-0.6,3.1c-0.4,1-1,1.8-1.8,2.5c-0.9,0.8-1.8,1.4-2.9,1.7c-1.4,0.5-2.8,0.7-4.2,0.6c-1.4,0-2.9-0.2-4.3-0.6
	c-1-0.3-2-0.8-2.9-1.3c-0.7-0.4-1.3-0.8-1.9-1.3c-0.5-0.5-1.2-0.8-2-0.9c-0.4,0-0.9,0.1-1.3,0.3c-0.3,0.2-0.6,0.5-0.8,0.8l-0.9,1.4
	l-0.5,0.7l0.7,0.6c1.7,1.6,3.7,2.8,5.8,3.8c2.5,1,5.1,1.5,7.8,1.5c2.2,0,4.3-0.3,6.4-1c1.8-0.6,3.4-1.6,4.8-2.9
	c1.3-1.2,2.3-2.7,3-4.3c0.7-1.7,1-3.5,1-5.3c0-1.6-0.3-3.2-1.1-4.7c-0.7-1.3-1.7-2.4-2.8-3.2c-1.2-0.9-2.5-1.6-3.8-2.1
	c-1.3-0.5-2.7-1-4.2-1.5s-2.8-0.9-4.1-1.3c-1.2-0.4-2.3-0.9-3.4-1.5c-0.9-0.5-1.6-1.1-2.3-1.9c-0.5-0.7-0.8-1.6-0.8-2.6
	c0-0.9,0.2-1.7,0.6-2.5c0.4-0.8,1-1.6,1.8-2.1c0.8-0.7,1.8-1.2,2.8-1.5c1.2-0.4,2.4-0.6,3.7-0.6c1.3,0,2.6,0.1,3.9,0.5
	c0.9,0.3,1.8,0.6,2.7,1.1c0.6,0.3,1.2,0.7,1.8,1.1c0.5,0.4,1.1,0.7,1.7,0.7c0.7,0,1.4-0.4,1.8-1.1l0.8-1.3l0.4-0.7l-0.6-0.6
	c-1.6-1.5-3.5-2.7-5.6-3.5c-2.2-0.8-4.6-1.2-7-1.1L1898.5,415.7z"/>
</svg>
