<?xml version="1.0" encoding="utf-8"?>
<!-- Generator: Adobe Illustrator 21.1.0, SVG Export Plug-In . SVG Version: 6.00 Build 0)  -->
<svg version="1.1" id="Camada_1" xmlns="http://www.w3.org/2000/svg" xmlns:xlink="http://www.w3.org/1999/xlink" x="0px" y="0px"
	 viewBox="0 0 1439 913.4" style="enable-background:new 0 0 1439 913.4;" xml:space="preserve">
<style type="text/css">
	.st0{fill:none;stroke:#000000;stroke-miterlimit:10;}
</style>
<title>CLA_logo</title>
<polyline class="st0" points="915.3,468.6 869.4,572.1 916.1,572.1 938.1,521.5 "/>
<polyline class="st0" points="896,317 981,317.2 938.5,414.2 "/>
<polyline class="st0" points="962.1,467.4 1001.3,376.6 1086.6,572.1 1133.3,572.1 1001.9,269.3 875.3,269.3 "/>
<path class="st0" d="M580.8,269.6v373.7H786c-15.4-3.2-30.1-9.1-43.4-17.4c-13.4-8.4-25.2-19.2-34.9-31.8h-76.2V269.6H580.8z"/>
<path class="st0" d="M304,459.9c0,33.7,7.7,64.6,23,92.6s37.3,50.3,65.8,66.8s61.5,24.8,98.9,24.8c21.3,0,40.9-3.3,59-9.9
	c2.8-1,5.4-2.1,8.1-3.2v-52c-20.6,11.6-43.7,17.4-69.6,17.4c-26.7,0-50.2-6-70.6-18c-20.2-11.7-36.5-29-47-49.8
	c-11-21.3-16.4-45-16.5-71.3c0-25.6,6-49.2,18-70.6s28-38.3,48-50.8c19.6-12.3,42.3-18.8,65.5-18.7c24.2,0,48.2,6.9,72.1,20.7v-54.1
	c-5.2-2-10.4-3.9-15.9-5.5c-18.7-5.5-38.2-8.2-57.7-8.1c-34.7,0-65.9,8.2-93.3,24.5c-27.5,16.4-49,39-64.5,67.8
	C311.8,391.4,304,423.8,304,459.9z"/>
<path class="st0" d="M1009,594.3h126c0,0-44.4,49-133.2,49c-21.1,0.1-42.1-2.9-62.4-8.8"/>
<polygon class="st0" points="875.3,269.6 743.3,572.1 790,572.1 875.3,376.6 960.5,572.1 1007.3,572.1 896,317 "/>
<path class="st0" d="M940,633.9c-20.8,6.3-42.5,9.5-64.2,9.4c-88.8,0-133.2-49-133.2-49H1009C1009,594.3,986,619.6,940,633.9"/>
</svg>
