<?xml version="1.0" encoding="utf-8"?>
<!-- Generator: Adobe Illustrator 21.1.0, SVG Export Plug-In . SVG Version: 6.00 Build 0)  -->
<svg version="1.1" id="Camada_1" xmlns="http://www.w3.org/2000/svg" xmlns:xlink="http://www.w3.org/1999/xlink" x="0px" y="0px"
	 viewBox="0 0 1780 786" style="enable-background:new 0 0 1780 786;" xml:space="preserve">
<style type="text/css">
	.st0{fill:none;stroke:#000000;stroke-miterlimit:10;}
</style>
<title>CLA_logo</title>
<polyline class="st0" points="791.6,404.9 747.3,504.8 792.5,504.8 813.7,455.9 "/>
<polyline class="st0" points="773,258.4 855.2,258.6 814.1,352.3 "/>
<polyline class="st0" points="836.9,403.7 874.8,316 957.2,504.8 1002.4,504.8 875.4,212.3 753,212.3 "/>
<path class="st0" d="M468.5,212.5v361.1h198.3c-14.9-3.1-29.1-8.8-42-16.8c-13-8.2-24.4-18.6-33.7-30.7h-73.6V212.5H468.5z"/>
<path class="st0" d="M201,396.4c0,32.6,7.4,62.4,22.2,89.5c14.8,27.1,36,48.6,63.6,64.5c27.5,16,59.4,24,95.6,24
	c20.5,0,39.5-3.2,57-9.5c2.7-1,5.2-2,7.8-3v-50.3c-19.9,11.2-42.3,16.9-67.2,16.9c-25.8,0-48.5-5.8-68.2-17.4
	c-19.5-11.3-35.3-28-45.5-48.1c-10.6-20.5-15.9-43.5-16-68.9c0-24.8,5.8-47.5,17.4-68.2c11-20.1,27-37,46.5-49.1
	c19-11.9,40.9-18.2,63.3-18.1c23.3,0,46.6,6.7,69.7,20v-52.3c-5-1.9-10.1-3.7-15.4-5.4c-18.1-5.3-36.9-8-55.8-7.8
	c-33.6,0-63.6,7.9-90.2,23.7s-47.3,37.6-62.3,65.5C208.5,330.2,201,361.6,201,396.4z"/>
<path class="st0" d="M882.2,526.3H1004c0,0-42.9,47.4-128.7,47.4c-20.4,0.1-40.7-2.8-60.3-8.5"/>
<polygon class="st0" points="753,212.5 625.5,504.8 670.7,504.8 753,316 835.4,504.8 880.5,504.8 773,258.4 "/>
<path class="st0" d="M815.6,564.5c44.4-13.8,66.6-38.3,66.6-38.3H624.8c0,0,42.9,47.4,128.7,47.4
	C774.5,573.7,795.4,570.7,815.6,564.5"/>
<g>
	<g>
		<g>
			<g>
				<g>
					<g>
						<path d="M1018.1,232.1c2,0,3.8,0.1,5.4,0.4c1.6,0.3,3.2,0.7,4.6,1.3c1.4,0.5,2.8,1.2,4,2.1c1.2,0.8,2.5,1.8,3.7,2.8l-1.2,1.7
							c-0.2,0.3-0.5,0.5-1,0.5c-0.2,0-0.5-0.1-0.9-0.4c-0.4-0.3-0.8-0.6-1.4-1s-1.2-0.8-2-1.3c-0.8-0.5-1.7-0.9-2.8-1.3
							c-1.1-0.4-2.3-0.7-3.7-1c-1.4-0.3-3-0.4-4.8-0.4c-3.3,0-6.3,0.6-9.1,1.7c-2.8,1.1-5.1,2.8-7.1,4.9c-2,2.1-3.6,4.7-4.7,7.7
							c-1.1,3-1.7,6.4-1.7,10.1c0,3.8,0.5,7.3,1.6,10.3c1.1,3,2.6,5.6,4.6,7.7c1.9,2.1,4.2,3.7,6.9,4.8c2.6,1.1,5.5,1.7,8.6,1.7
							c1.9,0,3.7-0.1,5.2-0.4c1.5-0.3,2.9-0.6,4.2-1.1c1.3-0.5,2.5-1.1,3.6-1.9c1.1-0.7,2.2-1.6,3.3-2.6c0.1-0.1,0.2-0.2,0.4-0.3
							s0.3-0.1,0.4-0.1c0.3,0,0.5,0.1,0.6,0.3l1.5,1.6c-1.1,1.2-2.3,2.3-3.7,3.2c-1.3,1-2.8,1.8-4.4,2.5s-3.3,1.2-5.2,1.6
							c-1.9,0.4-3.9,0.6-6.2,0.6c-3.8,0-7.2-0.7-10.3-2c-3.1-1.3-5.8-3.2-8.1-5.6c-2.2-2.4-4-5.3-5.2-8.8c-1.2-3.4-1.9-7.2-1.9-11.4
							c0-4.1,0.6-7.9,1.9-11.3c1.3-3.4,3.1-6.3,5.4-8.8c2.3-2.4,5.1-4.3,8.4-5.7C1010.6,232.8,1014.2,232.1,1018.1,232.1
							 M1018.1,231.1c-4.1,0-7.8,0.7-11.2,2.1c-3.4,1.4-6.3,3.4-8.8,5.9c-2.4,2.5-4.3,5.6-5.7,9.1c-1.3,3.5-2,7.4-2,11.6
							c0,4.3,0.7,8.2,1.9,11.8c1.3,3.5,3.1,6.6,5.4,9.1c2.3,2.5,5.2,4.5,8.4,5.8c3.2,1.4,6.8,2.1,10.7,2.1c2.3,0,4.4-0.2,6.4-0.6
							c1.9-0.4,3.8-0.9,5.4-1.6c1.6-0.7,3.1-1.6,4.5-2.6c1.4-1,2.7-2.1,3.8-3.4l0.6-0.7l-0.6-0.7l-1.5-1.6c-0.4-0.4-0.9-0.6-1.4-0.6
							c-0.3,0-0.6,0.1-0.9,0.2c-0.2,0.1-0.3,0.2-0.5,0.3l0,0l0,0c-1,0.9-2.1,1.8-3.1,2.5c-1,0.7-2.2,1.3-3.4,1.8
							c-1.2,0.5-2.5,0.8-4,1.1c-1.4,0.2-3.1,0.4-5,0.4c-2.9,0-5.7-0.5-8.2-1.6c-2.5-1.1-4.7-2.6-6.5-4.6c-1.9-2-3.3-4.5-4.4-7.3
							c-1.1-2.9-1.6-6.2-1.6-9.9c0-3.6,0.5-6.9,1.6-9.8c1.1-2.9,2.6-5.3,4.5-7.3c1.9-2,4.2-3.6,6.8-4.6c2.6-1.1,5.6-1.6,8.7-1.6
							c1.7,0,3.2,0.1,4.6,0.4c1.3,0.3,2.5,0.6,3.6,1c1,0.4,1.9,0.8,2.6,1.2c0.8,0.5,1.4,0.9,1.9,1.3c0.6,0.4,1,0.7,1.4,1
							c0.5,0.4,1,0.6,1.5,0.6c0.8,0,1.4-0.3,1.8-0.9l1.2-1.7l0.5-0.7l-0.7-0.6c-1.2-1.1-2.5-2.1-3.8-2.9c-1.3-0.9-2.7-1.6-4.2-2.2
							c-1.5-0.6-3.1-1-4.8-1.3C1022,231.2,1020.1,231.1,1018.1,231.1L1018.1,231.1z"/>
					</g>
					<g>
						<path d="M1061.9,232.7l8.3,9.4h-2.5c-0.4,0-0.7-0.2-1-0.5l-6-6.3c-0.2-0.1-0.3-0.2-0.4-0.4c-0.1,0.1-0.1,0.2-0.2,0.3
							c-0.1,0.1-0.1,0.1-0.2,0.2l-6,6.3c-0.1,0.1-0.3,0.2-0.5,0.3c-0.2,0.1-0.4,0.1-0.6,0.1h-2.6l8.4-9.4H1061.9 M1060.6,248.2
							c2,0,3.8,0.3,5.4,1c1.5,0.7,2.8,1.6,3.8,2.8c1,1.2,1.8,2.7,2.3,4.4c0.5,1.7,0.8,3.6,0.8,5.8V287h-1.5c-0.8,0-1.2-0.4-1.4-1.1
							l-0.5-4.9c-1,1-2.1,1.9-3.1,2.8c-1,0.8-2.1,1.5-3.2,2.1c-1.1,0.6-2.3,1-3.6,1.3c-1.3,0.3-2.7,0.4-4.3,0.4
							c-1.3,0-2.6-0.2-3.8-0.6c-1.2-0.4-2.3-1-3.3-1.8c-0.9-0.8-1.7-1.8-2.3-3.1c-0.6-1.2-0.9-2.7-0.9-4.5c0-1.6,0.5-3.1,1.4-4.5
							c0.9-1.4,2.4-2.6,4.3-3.6s4.5-1.8,7.6-2.5c3.1-0.6,6.8-1,11.1-1.1v-4c0-3.5-0.8-6.2-2.3-8.2c-1.5-1.9-3.8-2.9-6.8-2.9
							c-1.8,0-3.4,0.3-4.7,0.8c-1.3,0.5-2.4,1.1-3.3,1.7c-0.9,0.6-1.6,1.2-2.2,1.7c-0.6,0.5-1,0.8-1.4,0.8c-0.5,0-0.9-0.2-1.1-0.7
							l-0.7-1.1c2-2,4.1-3.5,6.3-4.5S1057.8,248.2,1060.6,248.2 M1056,285c1.5,0,2.8-0.2,4.1-0.5c1.2-0.3,2.4-0.8,3.5-1.3
							c1.1-0.6,2-1.3,3-2.1c0.9-0.8,1.8-1.6,2.7-2.6v-9.9c-3.6,0.1-6.8,0.4-9.4,0.8c-2.6,0.4-4.8,1.1-6.5,1.8
							c-1.7,0.8-3,1.7-3.8,2.7c-0.8,1.1-1.2,2.3-1.2,3.6c0,1.3,0.2,2.4,0.6,3.3c0.4,0.9,1,1.7,1.7,2.3c0.7,0.6,1.5,1,2.4,1.3
							C1054.1,284.8,1055,285,1056,285 M1062.3,231.7h-0.5h-3.3h-0.4l-0.3,0.3l-8.4,9.4l-1.5,1.7h2.2h2.6c0.4,0,0.7-0.1,1-0.2
							c0.2-0.1,0.5-0.3,0.7-0.5l0,0l0,0l5.7-5.9l5.7,5.9c0.5,0.5,1.1,0.8,1.8,0.8h2.5h2.2l-1.5-1.7l-8.3-9.4L1062.3,231.7
							L1062.3,231.7z M1060.6,247.2c-2.9,0-5.6,0.5-7.9,1.6c-2.3,1.1-4.5,2.7-6.6,4.7l-0.5,0.5l0.4,0.7l0.7,1.1
							c0.4,0.7,1.1,1.2,2,1.2c0.7,0,1.3-0.3,2.1-1c0.5-0.5,1.2-1,2.1-1.6c0.8-0.6,1.9-1.1,3.1-1.6c1.2-0.5,2.6-0.7,4.3-0.7
							c2.7,0,4.7,0.8,6,2.5c1.4,1.7,2.1,4.2,2.1,7.5v3c-4,0.1-7.4,0.5-10.3,1.1c-3.2,0.6-5.8,1.5-7.8,2.6c-2.1,1.1-3.7,2.4-4.7,3.9
							c-1,1.5-1.6,3.2-1.6,5c0,1.9,0.3,3.5,1,4.9c0.6,1.4,1.5,2.5,2.5,3.4c1.1,0.9,2.3,1.5,3.6,2c1.3,0.4,2.7,0.6,4.1,0.6
							c1.6,0,3.1-0.2,4.5-0.5c1.4-0.3,2.7-0.8,3.9-1.4c1.2-0.6,2.3-1.3,3.4-2.2c0.6-0.5,1.2-1,1.7-1.5l0.3,2.9l0,0.1l0,0.1
							c0.3,1.2,1.2,1.8,2.4,1.8h1.5h1v-1v-24.9c0-2.2-0.3-4.2-0.8-6.1c-0.6-1.9-1.4-3.5-2.5-4.8c-1.1-1.3-2.5-2.4-4.2-3.1
							C1064.7,247.5,1062.8,247.2,1060.6,247.2L1060.6,247.2z M1056,284c-0.9,0-1.8-0.1-2.6-0.4c-0.8-0.2-1.5-0.6-2.1-1.1
							c-0.6-0.5-1-1.2-1.4-2c-0.4-0.8-0.5-1.8-0.5-2.9c0-1.1,0.3-2.1,1-3c0.7-0.9,1.8-1.8,3.4-2.4c1.6-0.7,3.7-1.3,6.2-1.8
							c2.4-0.4,5.1-0.7,8.2-0.8v8.5c-0.8,0.8-1.6,1.5-2.4,2.2c-0.9,0.7-1.8,1.4-2.8,1.9c-1,0.5-2.1,1-3.2,1.3
							C1058.7,283.8,1057.4,284,1056,284L1056,284z"/>
					</g>
					<g>
						<path d="M1121.7,248.8c1.9,0,3.6,0.3,5.1,0.9c1.5,0.6,2.8,1.6,3.8,2.8c1.1,1.2,1.9,2.7,2.4,4.5c0.6,1.8,0.8,3.8,0.8,6.1v24.4
							h-3.6v-24.4c0-3.7-0.8-6.6-2.4-8.5c-1.6-2-3.9-2.9-6.9-2.9c-1.3,0-2.6,0.2-3.8,0.7s-2.3,1.2-3.2,2.2c-0.9,1-1.7,2.2-2.2,3.6
							c-0.6,1.4-0.8,3.1-0.8,5v24.4h-3.6v-24.4c0-3.7-0.7-6.5-2.2-8.5c-1.5-2-3.6-2.9-6.5-2.9c-2.1,0-4,0.6-5.8,1.9
							c-1.8,1.2-3.3,3-4.7,5.2v28.9h-3.6v-38.2h2c0.7,0,1,0.3,1.1,1l0.3,5.5c0.7-1,1.5-2,2.4-2.9c0.8-0.9,1.7-1.6,2.7-2.2
							c1-0.6,2-1.1,3.1-1.5c1.1-0.3,2.2-0.5,3.4-0.5c2.8,0,5,0.8,6.7,2.4c1.7,1.6,2.8,3.9,3.4,6.8c0.5-1.6,1.1-3,1.9-4.1
							s1.8-2.1,2.9-2.9c1.1-0.8,2.2-1.3,3.5-1.7C1119.1,249,1120.4,248.8,1121.7,248.8 M1121.7,247.8c-1.4,0-2.8,0.2-4.2,0.6
							c-1.4,0.4-2.7,1-3.8,1.8c-1.2,0.8-2.2,1.9-3.1,3.1c-0.4,0.5-0.7,1-1,1.6c-0.7-1.8-1.6-3.2-2.8-4.4c-1.8-1.8-4.3-2.7-7.4-2.7
							c-1.3,0-2.6,0.2-3.7,0.6c-1.2,0.4-2.3,0.9-3.3,1.6c-1,0.7-2,1.5-2.9,2.4c-0.3,0.3-0.6,0.6-0.8,0.9l-0.2-2.9l0,0l0,0
							c-0.2-1.1-1-1.8-2.1-1.8h-2h-1v1v38.2v1h1h3.6h1v-1v-28.6c1.3-2,2.7-3.5,4.3-4.6c1.6-1.1,3.3-1.7,5.2-1.7
							c2.5,0,4.4,0.8,5.7,2.6c1.3,1.8,2,4.5,2,7.9v24.4v1h1h3.6h1v-1v-24.4c0-1.8,0.3-3.3,0.8-4.6c0.5-1.3,1.2-2.4,2-3.3
							c0.8-0.9,1.8-1.5,2.9-1.9c1.1-0.4,2.3-0.7,3.5-0.7c2.7,0,4.7,0.8,6.1,2.6c1.5,1.8,2.2,4.4,2.2,7.9v24.4v1h1h3.6h1v-1v-24.4
							c0-2.4-0.3-4.6-0.9-6.4c-0.6-1.9-1.5-3.5-2.6-4.9c-1.2-1.3-2.6-2.4-4.2-3.1C1125.6,248.2,1123.7,247.8,1121.7,247.8
							L1121.7,247.8z"/>
					</g>
					<g>
						<path d="M1159,248.2c2,0,3.8,0.3,5.4,1c1.5,0.7,2.8,1.6,3.8,2.8c1,1.2,1.8,2.7,2.3,4.4c0.5,1.7,0.8,3.6,0.8,5.8V287h-1.5
							c-0.8,0-1.2-0.4-1.4-1.1l-0.5-4.9c-1,1-2.1,1.9-3.1,2.8c-1,0.8-2.1,1.5-3.2,2.1c-1.1,0.6-2.3,1-3.6,1.3
							c-1.3,0.3-2.7,0.4-4.3,0.4c-1.3,0-2.6-0.2-3.8-0.6c-1.2-0.4-2.3-1-3.3-1.8c-0.9-0.8-1.7-1.8-2.3-3.1c-0.6-1.2-0.9-2.7-0.9-4.5
							c0-1.6,0.5-3.1,1.4-4.5s2.4-2.6,4.3-3.6s4.5-1.8,7.6-2.5c3.1-0.6,6.8-1,11.1-1.1v-4c0-3.5-0.8-6.2-2.3-8.2
							c-1.5-1.9-3.8-2.9-6.8-2.9c-1.8,0-3.4,0.3-4.7,0.8c-1.3,0.5-2.4,1.1-3.3,1.7c-0.9,0.6-1.6,1.2-2.2,1.7c-0.6,0.5-1,0.8-1.4,0.8
							c-0.5,0-0.9-0.2-1.1-0.7l-0.7-1.1c2-2,4.1-3.5,6.3-4.5C1153.8,248.7,1156.3,248.2,1159,248.2 M1154.5,285
							c1.5,0,2.8-0.2,4.1-0.5c1.2-0.3,2.4-0.8,3.5-1.3c1.1-0.6,2-1.3,3-2.1c0.9-0.8,1.8-1.6,2.7-2.6v-9.9c-3.6,0.1-6.8,0.4-9.4,0.8
							c-2.6,0.4-4.8,1.1-6.5,1.8c-1.7,0.8-3,1.7-3.8,2.7c-0.8,1.1-1.2,2.3-1.2,3.6c0,1.3,0.2,2.4,0.6,3.3c0.4,0.9,1,1.7,1.7,2.3
							c0.7,0.6,1.5,1,2.4,1.3C1152.5,284.8,1153.5,285,1154.5,285 M1159,247.2c-2.9,0-5.6,0.5-7.9,1.6c-2.3,1.1-4.5,2.7-6.6,4.7
							l-0.5,0.5l0.4,0.7l0.7,1.1c0.4,0.7,1.1,1.2,2,1.2c0.7,0,1.3-0.3,2.1-1c0.5-0.5,1.2-1,2.1-1.6c0.8-0.6,1.9-1.1,3.1-1.6
							c1.2-0.5,2.6-0.7,4.3-0.7c2.7,0,4.7,0.8,6,2.5c1.4,1.7,2.1,4.2,2.1,7.5v3c-4,0.1-7.4,0.5-10.3,1.1c-3.2,0.6-5.8,1.5-7.8,2.6
							c-2.1,1.1-3.7,2.4-4.7,3.9c-1,1.5-1.6,3.2-1.6,5c0,1.9,0.3,3.5,1,4.9c0.6,1.4,1.5,2.5,2.5,3.4c1.1,0.9,2.3,1.5,3.6,2
							c1.3,0.4,2.7,0.6,4.1,0.6c1.6,0,3.1-0.2,4.5-0.5c1.4-0.3,2.7-0.8,3.9-1.4c1.2-0.6,2.3-1.3,3.4-2.2c0.6-0.5,1.2-1,1.7-1.5
							l0.3,2.9l0,0.1l0,0.1c0.3,1.2,1.2,1.8,2.4,1.8h1.5h1v-1v-24.9c0-2.2-0.3-4.2-0.8-6.1c-0.6-1.9-1.4-3.5-2.5-4.8
							c-1.1-1.3-2.5-2.4-4.2-3.1C1163.2,247.5,1161.2,247.2,1159,247.2L1159,247.2z M1154.5,284c-0.9,0-1.8-0.1-2.6-0.4
							c-0.8-0.2-1.5-0.6-2.1-1.1c-0.6-0.5-1-1.2-1.4-2c-0.4-0.8-0.5-1.8-0.5-2.9c0-1.1,0.3-2.1,1-3c0.7-0.9,1.8-1.8,3.4-2.4
							c1.6-0.7,3.7-1.3,6.2-1.8c2.4-0.4,5.1-0.7,8.2-0.8v8.5c-0.8,0.8-1.6,1.5-2.4,2.2c-0.9,0.7-1.8,1.4-2.8,1.9
							c-1,0.5-2.1,1-3.2,1.3C1157.2,283.8,1155.9,284,1154.5,284L1154.5,284z"/>
					</g>
					<g>
						<path d="M1198.8,248.8c1.2,0,2.2,0.1,3.2,0.4c1,0.3,1.9,0.6,2.8,1.1l-0.5,2.5c-0.1,0.4-0.3,0.6-0.8,0.6c-0.2,0-0.4,0-0.7-0.1
							c-0.3-0.1-0.6-0.2-1-0.3c-0.4-0.1-0.9-0.2-1.6-0.3c-0.6-0.1-1.3-0.2-2.1-0.2c-2.9,0-5.3,0.9-7.1,2.7c-1.9,1.8-3.4,4.4-4.5,7.8
							v24.8h-3.6v-38.2h1.9c0.4,0,0.8,0.1,0.9,0.3c0.2,0.2,0.3,0.5,0.3,0.9l0.3,8.1c1.2-3.1,2.9-5.5,4.9-7.3
							C1193.3,249.7,1195.8,248.8,1198.8,248.8 M1198.8,247.8c-3.2,0-6,1-8.2,2.9c-1.3,1.1-2.4,2.5-3.4,4.1l-0.2-4.1
							c0-0.7-0.3-1.2-0.6-1.6c-0.4-0.4-0.9-0.5-1.6-0.5h-1.9h-1v1v38.2v1h1h3.6h1v-1V263c1.1-3.1,2.5-5.6,4.2-7.2
							c1.7-1.6,3.8-2.4,6.4-2.4c0.8,0,1.4,0,1.9,0.1c0.6,0.1,1,0.2,1.4,0.3l0.2,0.1c0.3,0.1,0.6,0.2,0.8,0.3c0.4,0.2,0.7,0.2,1,0.2
							c0.9,0,1.6-0.6,1.8-1.4l0.5-2.5l0.1-0.7l-0.7-0.3c-0.9-0.5-1.9-0.9-3-1.1C1201.2,247.9,1200,247.8,1198.8,247.8L1198.8,247.8z
							"/>
					</g>
					<g>
						<path d="M1225,248.2c2,0,3.8,0.3,5.4,1c1.5,0.7,2.8,1.6,3.8,2.8c1,1.2,1.8,2.7,2.3,4.4c0.5,1.7,0.8,3.6,0.8,5.8V287h-1.5
							c-0.8,0-1.2-0.4-1.4-1.1l-0.5-4.9c-1,1-2.1,1.9-3.1,2.8c-1,0.8-2.1,1.5-3.2,2.1c-1.1,0.6-2.3,1-3.6,1.3
							c-1.3,0.3-2.7,0.4-4.3,0.4c-1.3,0-2.6-0.2-3.8-0.6c-1.2-0.4-2.3-1-3.3-1.8c-0.9-0.8-1.7-1.8-2.3-3.1c-0.6-1.2-0.9-2.7-0.9-4.5
							c0-1.6,0.5-3.1,1.4-4.5c0.9-1.4,2.4-2.6,4.3-3.6s4.5-1.8,7.6-2.5c3.1-0.6,6.8-1,11.1-1.1v-4c0-3.5-0.8-6.2-2.3-8.2
							c-1.5-1.9-3.8-2.9-6.8-2.9c-1.8,0-3.4,0.3-4.7,0.8c-1.3,0.5-2.4,1.1-3.3,1.7c-0.9,0.6-1.6,1.2-2.2,1.7c-0.6,0.5-1,0.8-1.4,0.8
							c-0.5,0-0.9-0.2-1.1-0.7l-0.7-1.1c2-2,4.1-3.5,6.3-4.5S1222.2,248.2,1225,248.2 M1220.4,285c1.5,0,2.8-0.2,4.1-0.5
							c1.2-0.3,2.4-0.8,3.5-1.3c1.1-0.6,2-1.3,3-2.1c0.9-0.8,1.8-1.6,2.7-2.6v-9.9c-3.6,0.1-6.8,0.4-9.4,0.8
							c-2.6,0.4-4.8,1.1-6.5,1.8c-1.7,0.8-3,1.7-3.8,2.7c-0.8,1.1-1.2,2.3-1.2,3.6c0,1.3,0.2,2.4,0.6,3.3c0.4,0.9,1,1.7,1.7,2.3
							c0.7,0.6,1.5,1,2.4,1.3C1218.4,284.8,1219.4,285,1220.4,285 M1225,247.2c-2.9,0-5.6,0.5-7.9,1.6c-2.3,1.1-4.5,2.7-6.6,4.7
							l-0.5,0.5l0.4,0.7l0.7,1.1c0.4,0.7,1.1,1.2,2,1.2c0.7,0,1.3-0.3,2.1-1c0.5-0.5,1.2-1,2.1-1.6c0.8-0.6,1.9-1.1,3.1-1.6
							c1.2-0.5,2.6-0.7,4.3-0.7c2.7,0,4.7,0.8,6,2.5c1.4,1.7,2.1,4.2,2.1,7.5v3c-4,0.1-7.4,0.5-10.3,1.1c-3.2,0.6-5.8,1.5-7.8,2.6
							c-2.1,1.1-3.7,2.4-4.7,3.9c-1,1.5-1.6,3.2-1.6,5c0,1.9,0.3,3.5,1,4.9c0.6,1.4,1.5,2.5,2.5,3.4c1.1,0.9,2.3,1.5,3.6,2
							c1.3,0.4,2.7,0.6,4.1,0.6c1.6,0,3.1-0.2,4.5-0.5c1.4-0.3,2.7-0.8,3.9-1.4c1.2-0.6,2.3-1.3,3.4-2.2c0.6-0.5,1.2-1,1.7-1.5
							l0.3,2.9l0,0.1l0,0.1c0.3,1.2,1.2,1.8,2.4,1.8h1.5h1v-1v-24.9c0-2.2-0.3-4.2-0.8-6.1c-0.6-1.9-1.4-3.5-2.5-4.8
							c-1.1-1.3-2.5-2.4-4.2-3.1C1229.1,247.5,1227.2,247.2,1225,247.2L1225,247.2z M1220.4,284c-0.9,0-1.8-0.1-2.6-0.4
							c-0.8-0.2-1.5-0.6-2.1-1.1c-0.6-0.5-1-1.2-1.4-2c-0.4-0.8-0.5-1.8-0.5-2.9c0-1.1,0.3-2.1,1-3c0.7-0.9,1.8-1.8,3.4-2.4
							c1.6-0.7,3.7-1.3,6.2-1.8c2.4-0.4,5.1-0.7,8.2-0.8v8.5c-0.8,0.8-1.6,1.5-2.4,2.2c-0.9,0.7-1.8,1.4-2.8,1.9
							c-1,0.5-2.1,1-3.2,1.3C1223.1,283.8,1221.8,284,1220.4,284L1220.4,284z"/>
					</g>
					<g>
						<path d="M1278.8,233.3v51h25.8v3.3h-29.7v-54.3H1278.8 M1279.8,232.3h-1h-3.9h-1v1v54.3v1h1h29.7h1v-1v-3.3v-1h-1h-24.8v-50
							V232.3L1279.8,232.3z"/>
					</g>
					<g>
						<path d="M1315.3,232.8c0.5,0,0.9,0.1,1.3,0.3c0.4,0.2,0.8,0.4,1.1,0.7c0.3,0.3,0.6,0.7,0.8,1.1c0.2,0.4,0.3,0.9,0.3,1.3
							c0,0.5-0.1,0.9-0.3,1.3s-0.4,0.7-0.8,1.1c-0.3,0.3-0.7,0.5-1.1,0.7c-0.4,0.2-0.8,0.3-1.3,0.3c-0.5,0-0.9-0.1-1.3-0.3
							c-0.4-0.2-0.8-0.4-1.1-0.7c-0.3-0.3-0.6-0.7-0.7-1.1c-0.2-0.4-0.3-0.8-0.3-1.3c0-0.5,0.1-0.9,0.3-1.3c0.2-0.4,0.4-0.8,0.7-1.1
							c0.3-0.3,0.7-0.5,1.1-0.7C1314.4,232.9,1314.8,232.8,1315.3,232.8 M1317.1,249.4v38.2h-3.6v-38.2H1317.1 M1315.3,231.8
							c-0.6,0-1.2,0.1-1.7,0.4c-0.5,0.2-1,0.5-1.4,0.9c-0.4,0.4-0.7,0.9-0.9,1.4c-0.2,0.6-0.3,1.1-0.3,1.7c0,0.6,0.1,1.2,0.4,1.7
							c0.2,0.5,0.6,1,0.9,1.4c0.4,0.4,0.9,0.7,1.4,0.9c0.5,0.2,1.1,0.3,1.7,0.3c0.6,0,1.2-0.1,1.7-0.4c0.5-0.2,1-0.5,1.4-0.9
							c0.4-0.4,0.7-0.8,0.9-1.3c0.3-0.5,0.4-1.1,0.4-1.7c0-0.6-0.1-1.2-0.4-1.7c-0.2-0.5-0.6-1-1-1.4c-0.4-0.4-0.8-0.7-1.4-0.9
							C1316.5,232,1315.9,231.8,1315.3,231.8L1315.3,231.8z M1318.1,248.4h-1h-3.6h-1v1v38.2v1h1h3.6h1v-1v-38.2V248.4L1318.1,248.4
							z"/>
					</g>
					<g>
						<path d="M1334.6,231.3l0,24.3c1.7-2.2,3.6-4,5.9-5.3c2.2-1.3,4.7-2,7.5-2c4.7,0,8.3,1.6,11,4.9c2.6,3.2,3.9,8.1,3.9,14.6
							c0,2.8-0.4,5.4-1.1,7.8c-0.7,2.4-1.8,4.5-3.2,6.3c-1.4,1.8-3.2,3.2-5.2,4.2c-2.1,1-4.4,1.5-7.1,1.5c-2.7,0-5-0.5-6.9-1.6
							c-1.9-1-3.6-2.6-5-4.6l-0.2,4.7c-0.1,0.6-0.4,1-1,1h-2.2v-55.9H1334.6 M1345.6,284.8c2.2,0,4.2-0.4,5.9-1.2s3.1-2,4.2-3.5
							c1.1-1.5,2-3.3,2.6-5.4c0.6-2.1,0.9-4.4,0.9-6.9c0-5.7-1-9.9-3.1-12.5c-2.1-2.7-5.1-4-9-4c-2.5,0-4.8,0.6-6.9,2
							c-2,1.3-3.9,3.1-5.5,5.4v20.2c1.5,2.2,3.1,3.7,4.8,4.6C1341.3,284.3,1343.3,284.8,1345.6,284.8 M1335.6,230.3h-1h-3.6h-1v1
							v55.9v1h1h2.2c1.1,0,1.9-0.7,2-1.8l0,0l0,0l0.1-2.1c1.1,1.1,2.3,2.1,3.6,2.8c2,1.1,4.5,1.7,7.4,1.7c2.8,0,5.4-0.6,7.6-1.6
							c2.2-1.1,4.1-2.6,5.6-4.5c1.5-1.9,2.6-4.1,3.4-6.6c0.8-2.5,1.1-5.2,1.1-8.1c0-6.7-1.4-11.8-4.2-15.2
							c-2.8-3.5-6.8-5.2-11.7-5.2c-2.9,0-5.6,0.7-8,2.1c-1.6,0.9-3,2.1-4.4,3.5l0-21.6L1335.6,230.3L1335.6,230.3z M1335.6,259
							c1.5-2.1,3.2-3.7,5-4.9c1.9-1.2,4-1.8,6.3-1.8c3.6,0,6.3,1.2,8.3,3.6c1.9,2.5,2.9,6.5,2.9,11.9c0,2.4-0.3,4.6-0.8,6.6
							c-0.5,2-1.4,3.6-2.4,5c-1,1.4-2.3,2.4-3.9,3.2c-1.5,0.7-3.4,1.1-5.5,1.1c-2.1,0-4.1-0.4-5.7-1.2c-1.5-0.8-3-2.1-4.3-4V259
							L1335.6,259z"/>
					</g>
					<g>
						<path d="M1386.9,248.3c2.2,0,4.1,0.4,6,1.1c1.8,0.7,3.4,1.8,4.8,3.2c1.3,1.4,2.4,3.2,3.1,5.2c0.8,2.1,1.1,4.5,1.1,7.1
							c0,0.6-0.1,0.9-0.2,1.2c-0.2,0.2-0.4,0.3-0.8,0.3h-27.6v0.7c0,2.9,0.3,5.4,1,7.6c0.7,2.2,1.6,4,2.8,5.5
							c1.2,1.5,2.7,2.6,4.5,3.3c1.7,0.7,3.7,1.1,5.8,1.1c1.9,0,3.6-0.2,5-0.6c1.4-0.4,2.6-0.9,3.5-1.4c1-0.5,1.7-1,2.3-1.4
							c0.6-0.4,1-0.6,1.2-0.6c0.3,0,0.6,0.1,0.8,0.4l1,1.2c-0.6,0.8-1.4,1.5-2.4,2.1c-1,0.7-2.1,1.2-3.4,1.7c-1.2,0.5-2.6,0.8-4,1.1
							c-1.4,0.3-2.8,0.4-4.3,0.4c-2.6,0-5-0.5-7.1-1.4c-2.1-0.9-4-2.2-5.5-4c-1.5-1.7-2.7-3.9-3.6-6.4c-0.8-2.5-1.3-5.4-1.3-8.7
							c0-2.7,0.4-5.3,1.2-7.6c0.8-2.3,1.9-4.3,3.4-6c1.5-1.7,3.3-3,5.4-3.9C1381.8,248.8,1384.2,248.3,1386.9,248.3 M1373.5,264.2
							h25.1c0-2-0.3-3.9-0.8-5.5c-0.6-1.6-1.4-3-2.4-4.1c-1-1.1-2.2-2-3.7-2.6c-1.4-0.6-3-0.9-4.8-0.9c-2,0-3.7,0.3-5.3,0.9
							c-1.6,0.6-2.9,1.5-4,2.6c-1.1,1.1-2.1,2.5-2.8,4.1C1374.2,260.4,1373.7,262.2,1373.5,264.2 M1386.9,247.3
							c-2.8,0-5.4,0.5-7.7,1.5c-2.3,1-4.2,2.4-5.8,4.2c-1.5,1.8-2.8,3.9-3.6,6.3c-0.8,2.4-1.2,5.1-1.2,7.9c0,3.4,0.4,6.4,1.3,9
							c0.9,2.6,2.1,4.9,3.8,6.7c1.6,1.8,3.6,3.3,5.9,4.2c2.3,1,4.8,1.4,7.5,1.4c1.5,0,3-0.1,4.5-0.4c1.5-0.3,2.9-0.7,4.2-1.2
							c1.3-0.5,2.5-1.1,3.6-1.8c1.1-0.7,2-1.5,2.7-2.4l0.5-0.6l-0.5-0.6l-1-1.2c-0.4-0.5-0.9-0.8-1.6-0.8c-0.5,0-1.1,0.2-1.8,0.8
							c-0.5,0.4-1.2,0.8-2.2,1.3c-0.9,0.5-2,0.9-3.4,1.3c-1.3,0.4-2.9,0.6-4.7,0.6c-2,0-3.8-0.3-5.4-1c-1.6-0.7-3-1.7-4.1-3
							c-1.1-1.4-2-3.1-2.7-5.1c-0.6-2-0.9-4.4-1-7h26.6c0.8,0,1.3-0.4,1.6-0.7c0.3-0.4,0.5-1,0.5-1.8c0-2.8-0.4-5.3-1.2-7.5
							c-0.8-2.2-1.9-4.1-3.4-5.6c-1.4-1.5-3.2-2.7-5.1-3.5C1391.3,247.7,1389.2,247.3,1386.9,247.3L1386.9,247.3z M1374.6,263.2
							c0.2-1.5,0.6-2.8,1.2-4c0.7-1.5,1.5-2.8,2.6-3.8c1-1,2.3-1.9,3.7-2.4c1.4-0.6,3.1-0.9,4.9-0.9c1.6,0,3.1,0.3,4.4,0.8
							c1.3,0.5,2.4,1.3,3.3,2.3c0.9,1,1.7,2.3,2.2,3.8c0.4,1.2,0.7,2.7,0.8,4.2H1374.6L1374.6,263.2z"/>
					</g>
					<g>
						<path d="M1427.7,248.8c1.2,0,2.2,0.1,3.2,0.4c1,0.3,1.9,0.6,2.8,1.1l-0.5,2.5c-0.1,0.4-0.3,0.6-0.8,0.6c-0.2,0-0.4,0-0.7-0.1
							c-0.3-0.1-0.6-0.2-1-0.3c-0.4-0.1-0.9-0.2-1.6-0.3c-0.6-0.1-1.3-0.2-2.1-0.2c-2.9,0-5.3,0.9-7.1,2.7c-1.9,1.8-3.4,4.4-4.5,7.8
							v24.8h-3.6v-38.2h1.9c0.4,0,0.8,0.1,0.9,0.3c0.2,0.2,0.3,0.5,0.3,0.9l0.3,8.1c1.2-3.1,2.9-5.5,4.9-7.3
							C1422.2,249.7,1424.8,248.8,1427.7,248.8 M1427.7,247.8c-3.2,0-6,1-8.2,2.9c-1.3,1.1-2.4,2.5-3.4,4.1l-0.2-4.1
							c0-0.7-0.3-1.2-0.6-1.6c-0.4-0.4-0.9-0.5-1.6-0.5h-1.9h-1v1v38.2v1h1h3.6h1v-1V263c1.1-3.1,2.5-5.6,4.2-7.2
							c1.7-1.6,3.8-2.4,6.4-2.4c0.8,0,1.4,0,1.9,0.1c0.6,0.1,1,0.2,1.4,0.3l0.2,0.1c0.3,0.1,0.6,0.2,0.8,0.3c0.4,0.2,0.7,0.2,1,0.2
							c0.9,0,1.6-0.6,1.8-1.4l0.5-2.5l0.1-0.7l-0.7-0.3c-0.9-0.5-1.9-0.9-3-1.1C1430.1,247.9,1429,247.8,1427.7,247.8L1427.7,247.8z
							"/>
					</g>
					<g>
						<path d="M1448.1,235.4V250h12v2.7h-12v25.9c0,1,0.1,2,0.4,2.7c0.3,0.8,0.6,1.4,1.1,1.9c0.5,0.5,1,0.8,1.7,1.1
							c0.6,0.2,1.3,0.3,2.1,0.3c0.9,0,1.7-0.1,2.4-0.4c0.7-0.3,1.2-0.6,1.7-0.9c0.5-0.3,0.9-0.6,1.2-0.9c0.3-0.3,0.5-0.4,0.7-0.4
							c0.2,0,0.4,0.1,0.6,0.4l1,1.6c-1,1.1-2.2,1.9-3.7,2.6c-1.5,0.7-3,1-4.7,1c-2.6,0-4.6-0.7-6-2.1c-1.4-1.4-2.1-3.6-2.1-6.6
							v-26.1h-5.5c-0.3,0-0.5-0.1-0.7-0.2c-0.2-0.1-0.3-0.4-0.3-0.6v-1.4l6.5-0.5l0.9-13.7c0-0.2,0.1-0.4,0.3-0.6
							c0.2-0.2,0.4-0.3,0.7-0.3H1448.1 M1449.1,234.4h-1h-1.7c-0.6,0-1.1,0.2-1.4,0.6c-0.3,0.3-0.5,0.7-0.5,1.2l-0.9,12.8l-5.7,0.4
							l-0.9,0.1v0.9v1.4c0,0.7,0.3,1.2,0.6,1.4c0.3,0.2,0.7,0.5,1.3,0.5h4.5v25.1c0,3.3,0.8,5.7,2.4,7.4c1.6,1.6,3.9,2.4,6.7,2.4
							c1.7,0,3.5-0.4,5.1-1.1c1.6-0.7,3-1.7,4-2.8l0.5-0.6l-0.4-0.6l-1-1.6l0-0.1l0,0c-0.4-0.5-0.9-0.8-1.4-0.8
							c-0.6,0-1.1,0.4-1.4,0.6c-0.3,0.2-0.7,0.5-1.1,0.8c-0.5,0.3-1,0.6-1.6,0.8c-0.5,0.2-1.2,0.3-2,0.3c-0.6,0-1.2-0.1-1.7-0.3
							c-0.5-0.2-0.9-0.5-1.3-0.8c-0.4-0.4-0.7-0.9-0.9-1.5c-0.2-0.6-0.3-1.4-0.3-2.4v-24.9h11h1v-1V250v-1h-1h-11v-13.6V234.4
							L1449.1,234.4z"/>
					</g>
					<g>
						<path d="M1491.5,232.1l-8.3,9.7c-0.2,0.3-0.4,0.4-0.6,0.5s-0.5,0.1-0.8,0.1h-2.2l6-9.1c0.3-0.5,0.6-0.8,0.9-1
							c0.3-0.2,0.8-0.3,1.4-0.3H1491.5 M1483.2,248.2c2,0,3.8,0.3,5.4,1c1.5,0.7,2.8,1.6,3.8,2.8c1,1.2,1.8,2.7,2.3,4.4
							c0.5,1.7,0.8,3.6,0.8,5.8V287h-1.5c-0.8,0-1.2-0.4-1.4-1.1l-0.5-4.9c-1,1-2.1,1.9-3.1,2.8c-1,0.8-2.1,1.5-3.2,2.1
							c-1.1,0.6-2.3,1-3.6,1.3c-1.3,0.3-2.7,0.4-4.3,0.4c-1.3,0-2.6-0.2-3.8-0.6c-1.2-0.4-2.3-1-3.3-1.8c-0.9-0.8-1.7-1.8-2.3-3.1
							c-0.6-1.2-0.9-2.7-0.9-4.5c0-1.6,0.5-3.1,1.4-4.5s2.4-2.6,4.3-3.6c2-1,4.5-1.8,7.6-2.5c3.1-0.6,6.8-1,11.1-1.1v-4
							c0-3.5-0.8-6.2-2.3-8.2c-1.5-1.9-3.8-2.9-6.8-2.9c-1.8,0-3.4,0.3-4.7,0.8c-1.3,0.5-2.4,1.1-3.3,1.7c-0.9,0.6-1.6,1.2-2.2,1.7
							c-0.6,0.5-1,0.8-1.4,0.8c-0.5,0-0.9-0.2-1.1-0.7l-0.7-1.1c2-2,4.1-3.5,6.3-4.5S1480.4,248.2,1483.2,248.2 M1478.7,285
							c1.5,0,2.8-0.2,4.1-0.5c1.2-0.3,2.4-0.8,3.5-1.3c1.1-0.6,2-1.3,3-2.1c0.9-0.8,1.8-1.6,2.7-2.6v-9.9c-3.6,0.1-6.8,0.4-9.4,0.8
							c-2.6,0.4-4.8,1.1-6.5,1.8c-1.7,0.8-3,1.7-3.8,2.7c-0.8,1.1-1.2,2.3-1.2,3.6c0,1.3,0.2,2.4,0.6,3.3c0.4,0.9,1,1.7,1.7,2.3
							c0.7,0.6,1.5,1,2.4,1.3C1476.7,284.8,1477.7,285,1478.7,285 M1493.6,231.1h-2.2h-3.6c-0.8,0-1.4,0.1-1.9,0.4
							c-0.5,0.3-0.9,0.7-1.2,1.3l-6,9.1l-1,1.6h1.9h2.2c0.4,0,0.8-0.1,1.2-0.2c0.4-0.2,0.7-0.4,1-0.8l8.3-9.7L1493.6,231.1
							L1493.6,231.1z M1483.2,247.2c-2.9,0-5.6,0.5-7.9,1.6c-2.3,1.1-4.5,2.7-6.6,4.7l-0.5,0.5l0.4,0.7l0.7,1.1
							c0.4,0.7,1.1,1.2,2,1.2c0.7,0,1.3-0.3,2.1-1c0.5-0.5,1.2-1,2.1-1.6c0.8-0.6,1.9-1.1,3.1-1.6c1.2-0.5,2.6-0.7,4.3-0.7
							c2.7,0,4.7,0.8,6,2.5c1.4,1.7,2.1,4.2,2.1,7.5v3c-4,0.1-7.4,0.5-10.3,1.1c-3.2,0.6-5.8,1.5-7.8,2.6c-2.1,1.1-3.7,2.4-4.7,3.9
							c-1,1.5-1.6,3.2-1.6,5c0,1.9,0.3,3.5,1,4.9c0.6,1.4,1.5,2.5,2.5,3.4c1.1,0.9,2.3,1.5,3.6,2c1.3,0.4,2.7,0.6,4.1,0.6
							c1.6,0,3.1-0.2,4.5-0.5c1.4-0.3,2.7-0.8,3.9-1.4c1.2-0.6,2.3-1.3,3.4-2.2c0.6-0.5,1.2-1,1.7-1.5l0.3,2.9l0,0.1l0,0.1
							c0.3,1.2,1.2,1.8,2.4,1.8h1.5h1v-1v-24.9c0-2.2-0.3-4.2-0.8-6.1c-0.6-1.9-1.4-3.5-2.5-4.8c-1.1-1.3-2.5-2.4-4.2-3.1
							C1487.3,247.5,1485.4,247.2,1483.2,247.2L1483.2,247.2z M1478.7,284c-0.9,0-1.8-0.1-2.6-0.4c-0.8-0.2-1.5-0.6-2.1-1.1
							c-0.6-0.5-1-1.2-1.4-2c-0.4-0.8-0.5-1.8-0.5-2.9c0-1.1,0.3-2.1,1-3c0.7-0.9,1.8-1.8,3.4-2.4c1.6-0.7,3.7-1.3,6.2-1.8
							c2.4-0.4,5.1-0.7,8.2-0.8v8.5c-0.8,0.8-1.6,1.5-2.4,2.2c-0.9,0.7-1.8,1.4-2.8,1.9c-1,0.5-2.1,1-3.2,1.3
							C1481.3,283.8,1480.1,284,1478.7,284L1478.7,284z"/>
					</g>
					<g>
						<path d="M1523,248.8c1.2,0,2.2,0.1,3.2,0.4c1,0.3,1.9,0.6,2.8,1.1l-0.5,2.5c-0.1,0.4-0.3,0.6-0.8,0.6c-0.2,0-0.4,0-0.7-0.1
							c-0.3-0.1-0.6-0.2-1-0.3c-0.4-0.1-0.9-0.2-1.6-0.3c-0.6-0.1-1.3-0.2-2.1-0.2c-2.9,0-5.3,0.9-7.1,2.7c-1.9,1.8-3.4,4.4-4.5,7.8
							v24.8h-3.6v-38.2h1.9c0.4,0,0.7,0.1,0.9,0.3c0.2,0.2,0.3,0.5,0.3,0.9l0.3,8.1c1.2-3.1,2.9-5.5,4.9-7.3
							C1517.5,249.7,1520,248.8,1523,248.8 M1523,247.8c-3.2,0-6,1-8.2,2.9c-1.3,1.1-2.4,2.5-3.4,4.1l-0.2-4.1
							c0-0.7-0.3-1.2-0.6-1.6c-0.4-0.4-0.9-0.5-1.6-0.5h-1.9h-1v1v38.2v1h1h3.6h1v-1V263c1.1-3.1,2.5-5.6,4.2-7.2
							c1.7-1.6,3.8-2.4,6.4-2.4c0.8,0,1.4,0,1.9,0.1c0.6,0.1,1,0.2,1.4,0.3l0.2,0.1c0.3,0.1,0.6,0.2,0.8,0.3c0.4,0.2,0.7,0.2,1,0.2
							c0.9,0,1.6-0.6,1.8-1.4l0.5-2.5l0.1-0.7l-0.7-0.3c-0.9-0.5-1.9-0.9-3-1.1C1525.3,247.9,1524.2,247.8,1523,247.8L1523,247.8z"
							/>
					</g>
					<g>
						<path d="M1540.4,232.8c0.5,0,0.9,0.1,1.3,0.3c0.4,0.2,0.8,0.4,1.1,0.7c0.3,0.3,0.6,0.7,0.8,1.1c0.2,0.4,0.3,0.9,0.3,1.3
							c0,0.5-0.1,0.9-0.3,1.3s-0.4,0.7-0.8,1.1c-0.3,0.3-0.7,0.5-1.1,0.7c-0.4,0.2-0.8,0.3-1.3,0.3c-0.5,0-0.9-0.1-1.3-0.3
							c-0.4-0.2-0.8-0.4-1.1-0.7c-0.3-0.3-0.6-0.7-0.7-1.1c-0.2-0.4-0.3-0.8-0.3-1.3c0-0.5,0.1-0.9,0.3-1.3c0.2-0.4,0.4-0.8,0.7-1.1
							c0.3-0.3,0.7-0.5,1.1-0.7C1539.5,232.9,1539.9,232.8,1540.4,232.8 M1542.2,249.4v38.2h-3.6v-38.2H1542.2 M1540.4,231.8
							c-0.6,0-1.2,0.1-1.7,0.4c-0.5,0.2-1,0.5-1.4,0.9c-0.4,0.4-0.7,0.9-0.9,1.4c-0.2,0.6-0.3,1.1-0.3,1.7c0,0.6,0.1,1.2,0.4,1.7
							c0.2,0.5,0.6,1,0.9,1.4c0.4,0.4,0.9,0.7,1.4,0.9c0.5,0.2,1.1,0.3,1.7,0.3c0.6,0,1.2-0.1,1.7-0.4c0.5-0.2,1-0.5,1.4-0.9
							c0.4-0.4,0.7-0.8,0.9-1.3c0.3-0.5,0.4-1.1,0.4-1.7c0-0.6-0.1-1.2-0.4-1.7c-0.2-0.5-0.6-1-1-1.4c-0.4-0.4-0.8-0.7-1.4-0.9
							C1541.6,232,1541,231.8,1540.4,231.8L1540.4,231.8z M1543.2,248.4h-1h-3.6h-1v1v38.2v1h1h3.6h1v-1v-38.2V248.4L1543.2,248.4z"
							/>
					</g>
					<g>
						<path d="M1569.3,248.2c2,0,3.8,0.3,5.4,1c1.5,0.7,2.8,1.6,3.8,2.8c1,1.2,1.8,2.7,2.3,4.4c0.5,1.7,0.8,3.6,0.8,5.8V287h-1.5
							c-0.8,0-1.2-0.4-1.4-1.1l-0.5-4.9c-1,1-2.1,1.9-3.1,2.8c-1,0.8-2.1,1.5-3.2,2.1c-1.1,0.6-2.3,1-3.6,1.3
							c-1.3,0.3-2.7,0.4-4.3,0.4c-1.3,0-2.6-0.2-3.8-0.6c-1.2-0.4-2.3-1-3.3-1.8c-0.9-0.8-1.7-1.8-2.3-3.1c-0.6-1.2-0.9-2.7-0.9-4.5
							c0-1.6,0.5-3.1,1.4-4.5c0.9-1.4,2.4-2.6,4.3-3.6s4.5-1.8,7.6-2.5c3.1-0.6,6.8-1,11.1-1.1v-4c0-3.5-0.8-6.2-2.3-8.2
							c-1.5-1.9-3.8-2.9-6.8-2.9c-1.8,0-3.4,0.3-4.7,0.8c-1.3,0.5-2.4,1.1-3.3,1.7c-0.9,0.6-1.6,1.2-2.2,1.7c-0.6,0.5-1,0.8-1.4,0.8
							c-0.5,0-0.9-0.2-1.1-0.7l-0.7-1.1c2-2,4.1-3.5,6.3-4.5C1564,248.7,1566.5,248.2,1569.3,248.2 M1564.7,285
							c1.5,0,2.8-0.2,4.1-0.5c1.2-0.3,2.4-0.8,3.5-1.3c1.1-0.6,2-1.3,3-2.1c0.9-0.8,1.8-1.6,2.7-2.6v-9.9c-3.6,0.1-6.8,0.4-9.4,0.8
							c-2.6,0.4-4.8,1.1-6.5,1.8c-1.7,0.8-3,1.7-3.8,2.7c-0.8,1.1-1.2,2.3-1.2,3.6c0,1.3,0.2,2.4,0.6,3.3c0.4,0.9,1,1.7,1.7,2.3
							c0.7,0.6,1.5,1,2.4,1.3C1562.8,284.8,1563.8,285,1564.7,285 M1569.3,247.2c-2.9,0-5.6,0.5-7.9,1.6c-2.3,1.1-4.5,2.7-6.6,4.7
							l-0.5,0.5l0.4,0.7l0.7,1.1c0.4,0.7,1.1,1.2,2,1.2c0.7,0,1.3-0.3,2.1-1c0.5-0.5,1.2-1,2.1-1.6c0.8-0.6,1.9-1.1,3.1-1.6
							c1.2-0.5,2.6-0.7,4.3-0.7c2.7,0,4.7,0.8,6,2.5c1.4,1.7,2.1,4.2,2.1,7.5v3c-4,0.1-7.4,0.5-10.3,1.1c-3.2,0.6-5.8,1.5-7.8,2.6
							c-2.1,1.1-3.7,2.4-4.7,3.9c-1,1.5-1.6,3.2-1.6,5c0,1.9,0.3,3.5,1,4.9c0.6,1.4,1.5,2.5,2.5,3.4c1.1,0.9,2.3,1.5,3.6,2
							c1.3,0.4,2.7,0.6,4.1,0.6c1.6,0,3.1-0.2,4.5-0.5c1.4-0.3,2.7-0.8,3.9-1.4c1.2-0.6,2.3-1.3,3.4-2.2c0.6-0.5,1.2-1,1.7-1.5
							l0.3,2.9l0,0.1l0,0.1c0.3,1.2,1.2,1.8,2.4,1.8h1.5h1v-1v-24.9c0-2.2-0.3-4.2-0.8-6.1c-0.6-1.9-1.4-3.5-2.5-4.8
							c-1.1-1.3-2.5-2.4-4.2-3.1C1573.4,247.5,1571.5,247.2,1569.3,247.2L1569.3,247.2z M1564.7,284c-0.9,0-1.8-0.1-2.6-0.4
							c-0.8-0.2-1.5-0.6-2.1-1.1c-0.6-0.5-1-1.2-1.4-2c-0.4-0.8-0.5-1.8-0.5-2.9c0-1.1,0.3-2.1,1-3c0.7-0.9,1.8-1.8,3.4-2.4
							c1.6-0.7,3.7-1.3,6.2-1.8c2.4-0.4,5.1-0.7,8.2-0.8v8.5c-0.8,0.8-1.6,1.5-2.4,2.2c-0.9,0.7-1.8,1.4-2.8,1.9
							c-1,0.5-2.1,1-3.2,1.3C1567.4,283.8,1566.2,284,1564.7,284L1564.7,284z"/>
					</g>
				</g>
				<g>
					<g>
						<g>
							<path d="M1073.8,341.5v55.9h-2c-0.6,0-1-0.3-1.1-1l-0.4-6c-1.7,2.3-3.7,4.1-5.9,5.5c-2.3,1.4-4.8,2-7.6,2
								c-4.7,0-8.3-1.6-11-4.9s-3.9-8.1-3.9-14.6c0-2.8,0.4-5.4,1.1-7.8c0.7-2.4,1.8-4.5,3.2-6.3c1.4-1.8,3.2-3.2,5.2-4.2
								c2.1-1,4.4-1.5,7.1-1.5c2.6,0,4.8,0.5,6.7,1.4c1.9,1,3.5,2.4,4.9,4.2v-22.7H1073.8 M1057.8,394.9c2.5,0,4.8-0.6,6.9-2
								c2-1.3,3.9-3.1,5.5-5.4v-20.2c-1.5-2.2-3.1-3.7-4.9-4.6c-1.8-0.9-3.8-1.3-6.1-1.3c-2.2,0-4.2,0.4-5.9,1.2
								c-1.7,0.8-3.1,2-4.2,3.5c-1.1,1.5-2,3.3-2.6,5.4c-0.6,2.1-0.9,4.4-0.9,6.9c0,5.7,1.1,9.9,3.2,12.5
								C1050.9,393.5,1053.9,394.9,1057.8,394.9 M1074.8,340.5h-1h-3.6h-1v1v20c-1.1-1-2.2-1.8-3.5-2.5c-2-1-4.4-1.5-7.2-1.5
								c-2.8,0-5.4,0.6-7.6,1.6c-2.2,1.1-4.1,2.6-5.6,4.5c-1.5,1.9-2.6,4.1-3.4,6.6c-0.8,2.5-1.1,5.2-1.1,8.1
								c0,6.7,1.4,11.8,4.2,15.3c2.8,3.5,6.8,5.2,11.8,5.2c3,0,5.7-0.7,8.1-2.2c1.7-1,3.2-2.3,4.6-3.8l0.2,3.5l0,0l0,0
								c0.2,1.2,1,1.9,2.1,1.9h2h1v-1v-55.9V340.5L1074.8,340.5z M1057.8,393.9c-3.6,0-6.3-1.2-8.3-3.6c-2-2.5-2.9-6.5-2.9-11.9
								c0-2.4,0.3-4.6,0.8-6.6c0.6-2,1.4-3.7,2.4-5c1-1.4,2.3-2.4,3.9-3.2c1.5-0.8,3.4-1.1,5.5-1.1c2.1,0,4,0.4,5.6,1.2
								c1.6,0.8,3,2.1,4.4,4v19.5c-1.5,2.1-3.2,3.7-5,4.9C1062.2,393.3,1060.2,393.9,1057.8,393.9L1057.8,393.9z"/>
						</g>
						<g>
							<path d="M1101,358.5c2.2,0,4.1,0.4,6,1.1c1.8,0.7,3.4,1.8,4.8,3.2c1.3,1.4,2.4,3.2,3.1,5.2c0.8,2.1,1.1,4.5,1.1,7.1
								c0,0.6-0.1,0.9-0.3,1.2c-0.2,0.2-0.4,0.3-0.8,0.3h-27.6v0.7c0,2.9,0.3,5.4,1,7.6c0.7,2.2,1.6,4,2.8,5.5
								c1.2,1.5,2.7,2.6,4.5,3.3c1.7,0.7,3.7,1.1,5.8,1.1c1.9,0,3.6-0.2,5-0.6c1.4-0.4,2.6-0.9,3.5-1.4c1-0.5,1.7-1,2.3-1.4
								c0.6-0.4,1-0.6,1.2-0.6c0.3,0,0.6,0.1,0.8,0.4l1,1.2c-0.6,0.8-1.4,1.5-2.4,2.1c-1,0.7-2.1,1.2-3.4,1.7
								c-1.2,0.5-2.6,0.8-4,1.1c-1.4,0.3-2.8,0.4-4.3,0.4c-2.6,0-5-0.5-7.1-1.4s-4-2.2-5.5-4c-1.5-1.7-2.7-3.9-3.6-6.4
								c-0.8-2.5-1.3-5.4-1.3-8.7c0-2.7,0.4-5.3,1.2-7.6c0.8-2.3,1.9-4.3,3.4-6c1.5-1.7,3.3-3,5.4-3.9
								C1095.9,359,1098.3,358.5,1101,358.5 M1087.6,374.4h25.1c0-2-0.3-3.9-0.8-5.5c-0.6-1.6-1.4-3-2.4-4.1c-1-1.1-2.2-2-3.7-2.6
								s-3-0.9-4.8-0.9c-2,0-3.7,0.3-5.3,0.9c-1.6,0.6-2.9,1.5-4,2.6c-1.1,1.1-2.1,2.5-2.8,4.1
								C1088.3,370.6,1087.8,372.4,1087.6,374.4 M1101,357.5c-2.8,0-5.4,0.5-7.7,1.5c-2.3,1-4.2,2.4-5.8,4.2
								c-1.5,1.8-2.8,3.9-3.6,6.3c-0.8,2.4-1.2,5.1-1.2,7.9c0,3.4,0.4,6.4,1.3,9c0.9,2.6,2.1,4.9,3.8,6.7c1.6,1.8,3.6,3.3,5.9,4.2
								c2.3,1,4.8,1.4,7.5,1.4c1.5,0,3-0.1,4.5-0.4c1.5-0.3,2.9-0.7,4.2-1.2c1.3-0.5,2.5-1.1,3.6-1.8c1.1-0.7,2-1.5,2.7-2.4l0.5-0.6
								l-0.5-0.6l-1-1.2c-0.4-0.5-0.9-0.8-1.6-0.8c-0.5,0-1.1,0.2-1.8,0.8c-0.5,0.4-1.2,0.8-2.2,1.3c-0.9,0.5-2,0.9-3.4,1.3
								c-1.3,0.4-2.9,0.6-4.7,0.6c-2,0-3.8-0.3-5.4-1c-1.6-0.7-3-1.7-4.1-3c-1.1-1.4-2-3.1-2.7-5.1c-0.6-2-0.9-4.4-1-7h26.6
								c0.8,0,1.3-0.4,1.6-0.7c0.3-0.4,0.5-1,0.5-1.8c0-2.8-0.4-5.3-1.2-7.5c-0.8-2.2-1.9-4.1-3.4-5.6c-1.4-1.5-3.2-2.7-5.1-3.5
								C1105.4,357.9,1103.3,357.5,1101,357.5L1101,357.5z M1088.8,373.4c0.2-1.5,0.6-2.8,1.2-4c0.7-1.5,1.5-2.8,2.6-3.8
								c1-1,2.3-1.9,3.7-2.4c1.4-0.6,3.1-0.9,4.9-0.9c1.6,0,3.1,0.3,4.4,0.8c1.3,0.5,2.4,1.3,3.3,2.3c0.9,1,1.7,2.3,2.2,3.8
								c0.4,1.2,0.7,2.7,0.8,4.2H1088.8L1088.8,373.4z"/>
						</g>
					</g>
					<g>
						<g>
							<path d="M1179.1,342.9l22.2,54.3h-3c-0.4,0-0.7-0.1-0.9-0.3c-0.2-0.2-0.4-0.4-0.5-0.7l-6.4-15.8h-26.7l-6.4,15.8
								c-0.1,0.3-0.3,0.5-0.5,0.7c-0.3,0.2-0.6,0.3-0.9,0.3h-3l22.2-54.3H1179.1 M1164.9,377.5h24.3l-11.1-27.4
								c-0.2-0.4-0.4-0.9-0.5-1.5c-0.2-0.5-0.4-1.1-0.5-1.7c-0.2,0.6-0.4,1.2-0.5,1.7c-0.2,0.5-0.4,1.1-0.5,1.5L1164.9,377.5
								 M1179.7,341.9h-0.7h-3.9h-0.7l-0.3,0.6l-22.2,54.3l-0.6,1.4h1.5h3c0.6,0,1.1-0.2,1.5-0.5c0.4-0.3,0.7-0.7,0.8-1.1l6.1-15.1
								h25.3l6.2,15.2c0.2,0.5,0.5,0.8,0.8,1.1c0.4,0.4,0.9,0.5,1.5,0.5h3h1.5l-0.6-1.4l-22.2-54.3L1179.7,341.9L1179.7,341.9z
								 M1166.4,376.5l10.5-26c0.1-0.1,0.1-0.3,0.2-0.4c0,0.1,0.1,0.2,0.1,0.4l10.5,26.1H1166.4L1166.4,376.5z"/>
						</g>
						<g>
							<path d="M1222.5,358.4c2.5,0,4.7,0.4,6.6,1.2c1.9,0.8,3.6,1.9,5,3.2l-1,1.3c-0.1,0.1-0.3,0.2-0.4,0.3
								c-0.1,0.1-0.3,0.1-0.5,0.1c-0.3,0-0.6-0.2-1-0.5c-0.4-0.3-1-0.7-1.8-1.1c-0.7-0.4-1.7-0.8-2.8-1.1c-1.1-0.3-2.5-0.5-4-0.5
								c-2.2,0-4.1,0.4-5.9,1.2c-1.7,0.8-3.1,1.9-4.3,3.4c-1.2,1.5-2,3.2-2.7,5.3c-0.6,2.1-0.9,4.4-0.9,7c0,2.7,0.3,5.1,0.9,7.1
								c0.6,2.1,1.5,3.8,2.7,5.2c1.1,1.4,2.5,2.5,4.2,3.2c1.6,0.7,3.5,1.1,5.4,1.1c1.8,0,3.4-0.2,4.6-0.6c1.2-0.4,2.3-0.9,3.1-1.4
								c0.8-0.5,1.4-1,1.9-1.4c0.5-0.4,0.8-0.6,1.1-0.6c0.3,0,0.6,0.1,0.8,0.4l1,1.2c-0.6,0.8-1.3,1.5-2.2,2.1
								c-0.9,0.7-1.9,1.2-3,1.7c-1.1,0.5-2.3,0.9-3.7,1.1c-1.3,0.3-2.7,0.4-4.1,0.4c-2.4,0-4.7-0.4-6.7-1.3c-2-0.9-3.7-2.2-5.2-3.8
								c-1.4-1.7-2.6-3.7-3.4-6.2c-0.8-2.4-1.2-5.2-1.2-8.3c0-2.9,0.4-5.6,1.1-8c0.8-2.4,1.9-4.5,3.4-6.2c1.5-1.7,3.3-3.1,5.4-4
								C1217.3,358.9,1219.7,358.4,1222.5,358.4 M1222.5,357.4c-2.9,0-5.5,0.5-7.8,1.5c-2.3,1-4.2,2.5-5.8,4.3
								c-1.5,1.8-2.7,4-3.5,6.6c-0.8,2.5-1.2,5.3-1.2,8.3c0,3.2,0.4,6.1,1.3,8.6c0.8,2.5,2,4.7,3.6,6.5c1.5,1.8,3.4,3.2,5.5,4.1
								c2.1,0.9,4.5,1.4,7.1,1.4c1.5,0,2.9-0.1,4.3-0.4c1.4-0.3,2.7-0.7,3.9-1.2c1.2-0.5,2.3-1.2,3.2-1.9c1-0.7,1.8-1.5,2.4-2.3
								l0.5-0.6l-0.5-0.6l-1-1.2c-0.4-0.5-0.9-0.8-1.6-0.8c-0.6,0-1.1,0.3-1.8,0.9c-0.4,0.4-1,0.8-1.8,1.3c-0.7,0.5-1.7,0.9-2.9,1.3
								c-1.1,0.4-2.6,0.6-4.3,0.6c-1.9,0-3.5-0.3-5-1c-1.5-0.7-2.8-1.7-3.8-3c-1.1-1.3-1.9-2.9-2.5-4.9c-0.6-2-0.9-4.3-0.9-6.8
								c0-2.5,0.3-4.7,0.9-6.7c0.6-1.9,1.4-3.6,2.5-5c1.1-1.3,2.4-2.4,3.9-3.1c1.6-0.7,3.4-1.1,5.4-1.1c1.5,0,2.7,0.2,3.8,0.5
								c1,0.3,1.9,0.7,2.6,1.1c0.7,0.4,1.2,0.7,1.7,1.1c0.6,0.5,1.2,0.7,1.7,0.7c0.4,0,0.8-0.1,1.1-0.3c0.1-0.1,0.3-0.2,0.4-0.4
								l0.1-0.1l0.1-0.1l1-1.3l0.5-0.7l-0.6-0.6c-1.5-1.4-3.3-2.6-5.4-3.4C1227.4,357.8,1225.1,357.4,1222.5,357.4L1222.5,357.4z"/>
						</g>
						<g>
							<path d="M1257.5,358.4c2.7,0,5.2,0.5,7.3,1.4c2.2,0.9,4,2.3,5.5,4c1.5,1.7,2.6,3.8,3.4,6.2c0.8,2.4,1.2,5.1,1.2,8.1
								c0,3-0.4,5.7-1.2,8.1c-0.8,2.4-1.9,4.5-3.4,6.2c-1.5,1.7-3.3,3-5.5,4c-2.2,0.9-4.6,1.4-7.3,1.4c-2.7,0-5.2-0.5-7.4-1.4
								c-2.2-0.9-4-2.2-5.5-4c-1.5-1.7-2.6-3.8-3.4-6.2c-0.8-2.4-1.2-5.1-1.2-8.1c0-3,0.4-5.7,1.2-8.1c0.8-2.4,1.9-4.5,3.4-6.2
								c1.5-1.7,3.3-3,5.5-4C1252.4,358.9,1254.8,358.4,1257.5,358.4 M1257.5,394.8c2.3,0,4.3-0.4,6-1.2c1.7-0.8,3.1-1.9,4.3-3.4
								c1.1-1.5,2-3.2,2.5-5.3c0.6-2.1,0.8-4.4,0.8-6.9c0-2.5-0.3-4.8-0.8-6.9c-0.6-2.1-1.4-3.8-2.5-5.3c-1.1-1.5-2.6-2.6-4.3-3.4
								c-1.7-0.8-3.7-1.2-6-1.2c-2.3,0-4.3,0.4-6,1.2c-1.7,0.8-3.1,1.9-4.3,3.4c-1.1,1.5-2,3.2-2.6,5.3s-0.9,4.4-0.9,6.9
								c0,2.6,0.3,4.9,0.9,6.9s1.4,3.8,2.6,5.3c1.1,1.5,2.6,2.6,4.3,3.4C1253.3,394.4,1255.3,394.8,1257.5,394.8 M1257.5,357.4
								c-2.9,0-5.5,0.5-7.8,1.5c-2.3,1-4.3,2.4-5.8,4.2c-1.6,1.8-2.8,4-3.6,6.6c-0.8,2.5-1.2,5.3-1.2,8.4c0,3.1,0.4,5.9,1.2,8.4
								c0.8,2.5,2,4.7,3.6,6.5c1.6,1.8,3.5,3.2,5.8,4.2c2.3,1,4.9,1.5,7.8,1.5c2.9,0,5.5-0.5,7.7-1.5c2.3-1,4.3-2.4,5.8-4.2
								c1.6-1.8,2.8-4,3.6-6.5c0.8-2.5,1.2-5.3,1.2-8.4c0-3.1-0.4-5.9-1.2-8.4c-0.8-2.5-2-4.7-3.6-6.6c-1.6-1.8-3.5-3.2-5.8-4.2
								C1263,357.9,1260.4,357.4,1257.5,357.4L1257.5,357.4z M1257.5,393.8c-2.2,0-4-0.4-5.6-1.1c-1.6-0.7-2.8-1.7-3.9-3.1
								c-1.1-1.4-1.9-3-2.4-4.9c-0.6-2-0.8-4.2-0.8-6.7c0-2.4,0.3-4.7,0.8-6.6c0.5-1.9,1.3-3.6,2.4-5c1-1.3,2.3-2.4,3.9-3.1
								c1.6-0.7,3.4-1.1,5.6-1.1c2.1,0,4,0.4,5.5,1.1c1.6,0.7,2.8,1.7,3.9,3.1c1.1,1.4,1.9,3,2.4,5c0.5,2,0.8,4.2,0.8,6.6
								c0,2.5-0.3,4.7-0.8,6.7c-0.5,1.9-1.3,3.6-2.4,4.9c-1,1.3-2.3,2.3-3.9,3.1C1261.5,393.5,1259.7,393.8,1257.5,393.8
								L1257.5,393.8z"/>
						</g>
						<g>
							<path d="M1300.5,358.4c1.2,0,2.2,0.1,3.2,0.4c1,0.3,1.9,0.6,2.8,1.1l-0.5,2.5c-0.1,0.4-0.3,0.6-0.8,0.6c-0.2,0-0.4,0-0.7-0.1
								c-0.3-0.1-0.6-0.2-1-0.3c-0.4-0.1-0.9-0.2-1.6-0.3c-0.6-0.1-1.3-0.2-2.1-0.2c-2.9,0-5.3,0.9-7.1,2.7
								c-1.9,1.8-3.4,4.4-4.5,7.8v24.8h-3.6V359h1.9c0.4,0,0.8,0.1,0.9,0.3c0.2,0.2,0.3,0.5,0.3,0.9l0.3,8.1
								c1.2-3.1,2.9-5.5,4.9-7.3C1295,359.2,1297.5,358.4,1300.5,358.4 M1300.5,357.4c-3.2,0-6,1-8.2,2.9c-1.3,1.1-2.4,2.5-3.4,4.1
								l-0.2-4.1c0-0.7-0.3-1.2-0.6-1.6c-0.4-0.4-0.9-0.5-1.6-0.5h-1.9h-1v1v38.2v1h1h3.6h1v-1v-24.7c1.1-3.1,2.5-5.6,4.2-7.2
								c1.7-1.6,3.8-2.4,6.4-2.4c0.8,0,1.4,0,1.9,0.1c0.6,0.1,1,0.2,1.4,0.3l0.2,0.1c0.3,0.1,0.6,0.2,0.8,0.3c0.4,0.2,0.7,0.2,1,0.2
								c0.9,0,1.6-0.6,1.8-1.4l0.5-2.5l0.1-0.7l-0.7-0.3c-0.9-0.5-1.9-0.9-3-1.1C1302.9,357.5,1301.8,357.4,1300.5,357.4
								L1300.5,357.4z"/>
						</g>
						<g>
							<path d="M1344.1,341.3v55.9h-2c-0.6,0-1-0.3-1.1-1l-0.4-6c-1.7,2.3-3.7,4.1-5.9,5.5c-2.3,1.4-4.8,2-7.6,2
								c-4.7,0-8.3-1.6-11-4.9c-2.6-3.2-3.9-8.1-3.9-14.6c0-2.8,0.4-5.4,1.1-7.8c0.7-2.4,1.8-4.5,3.2-6.3c1.4-1.8,3.2-3.2,5.2-4.2
								c2.1-1,4.4-1.5,7.1-1.5c2.6,0,4.8,0.5,6.7,1.4c1.9,1,3.5,2.4,4.9,4.2v-22.7H1344.1 M1328.1,394.7c2.5,0,4.8-0.6,6.9-2
								c2-1.3,3.9-3.1,5.5-5.4v-20.2c-1.5-2.2-3.1-3.7-4.9-4.6c-1.8-0.9-3.8-1.3-6.1-1.3c-2.2,0-4.2,0.4-5.9,1.2
								c-1.7,0.8-3.1,2-4.2,3.5c-1.1,1.5-2,3.3-2.6,5.4c-0.6,2.1-0.9,4.4-0.9,6.9c0,5.7,1.1,9.9,3.2,12.5
								C1321.2,393.4,1324.2,394.7,1328.1,394.7 M1345.1,340.3h-1h-3.6h-1v1v20c-1.1-1-2.2-1.8-3.5-2.5c-2-1-4.4-1.5-7.2-1.5
								c-2.8,0-5.4,0.6-7.6,1.6c-2.2,1.1-4.1,2.6-5.6,4.5c-1.5,1.9-2.6,4.1-3.4,6.6c-0.8,2.5-1.1,5.2-1.1,8.1
								c0,6.7,1.4,11.8,4.2,15.3c2.8,3.5,6.8,5.2,11.8,5.2c3,0,5.7-0.7,8.1-2.2c1.7-1,3.2-2.3,4.6-3.8l0.2,3.5l0,0l0,0
								c0.2,1.2,1,1.9,2.1,1.9h2h1v-1v-55.9V340.3L1345.1,340.3z M1328.1,393.7c-3.6,0-6.3-1.2-8.3-3.6c-2-2.5-2.9-6.5-2.9-11.9
								c0-2.4,0.3-4.6,0.8-6.6c0.6-2,1.4-3.7,2.4-5c1-1.4,2.3-2.4,3.9-3.2c1.5-0.8,3.4-1.1,5.5-1.1c2.1,0,4,0.4,5.6,1.2
								c1.6,0.8,3,2.1,4.4,4V387c-1.5,2.1-3.2,3.7-5,4.9C1332.5,393.2,1330.5,393.7,1328.1,393.7L1328.1,393.7z"/>
						</g>
						<g>
							<path d="M1371.5,358.4c2.7,0,5.2,0.5,7.3,1.4c2.2,0.9,4,2.3,5.5,4c1.5,1.7,2.6,3.8,3.4,6.2c0.8,2.4,1.2,5.1,1.2,8.1
								c0,3-0.4,5.7-1.2,8.1c-0.8,2.4-1.9,4.5-3.4,6.2c-1.5,1.7-3.3,3-5.5,4c-2.2,0.9-4.6,1.4-7.3,1.4c-2.7,0-5.2-0.5-7.4-1.4
								c-2.2-0.9-4-2.2-5.5-4c-1.5-1.7-2.6-3.8-3.4-6.2c-0.8-2.4-1.2-5.1-1.2-8.1c0-3,0.4-5.7,1.2-8.1c0.8-2.4,1.9-4.5,3.4-6.2
								c1.5-1.7,3.3-3,5.5-4C1366.3,358.9,1368.8,358.4,1371.5,358.4 M1371.5,394.8c2.3,0,4.3-0.4,6-1.2c1.7-0.8,3.1-1.9,4.3-3.4
								c1.1-1.5,2-3.2,2.5-5.3c0.6-2.1,0.8-4.4,0.8-6.9c0-2.5-0.3-4.8-0.8-6.9c-0.6-2.1-1.4-3.8-2.5-5.3c-1.1-1.5-2.6-2.6-4.3-3.4
								c-1.7-0.8-3.7-1.2-6-1.2c-2.3,0-4.3,0.4-6,1.2c-1.7,0.8-3.1,1.9-4.3,3.4c-1.1,1.5-2,3.2-2.6,5.3s-0.9,4.4-0.9,6.9
								c0,2.6,0.3,4.9,0.9,6.9s1.4,3.8,2.6,5.3c1.1,1.5,2.6,2.6,4.3,3.4C1367.2,394.4,1369.2,394.8,1371.5,394.8 M1371.5,357.4
								c-2.9,0-5.5,0.5-7.8,1.5c-2.3,1-4.3,2.4-5.8,4.2c-1.6,1.8-2.8,4-3.6,6.6c-0.8,2.5-1.2,5.3-1.2,8.4c0,3.1,0.4,5.9,1.2,8.4
								c0.8,2.5,2,4.7,3.6,6.5c1.6,1.8,3.5,3.2,5.8,4.2c2.3,1,4.9,1.5,7.8,1.5c2.9,0,5.5-0.5,7.7-1.5c2.3-1,4.3-2.4,5.8-4.2
								c1.6-1.8,2.8-4,3.6-6.5c0.8-2.5,1.2-5.3,1.2-8.4c0-3.1-0.4-5.9-1.2-8.4c-0.8-2.5-2-4.7-3.6-6.6c-1.6-1.8-3.5-3.2-5.8-4.2
								C1377,357.9,1374.4,357.4,1371.5,357.4L1371.5,357.4z M1371.5,393.8c-2.2,0-4-0.4-5.6-1.1c-1.6-0.7-2.8-1.7-3.9-3.1
								c-1.1-1.4-1.9-3-2.4-4.9c-0.6-2-0.8-4.2-0.8-6.7c0-2.4,0.3-4.7,0.8-6.6c0.5-1.9,1.3-3.6,2.4-5c1-1.3,2.3-2.4,3.9-3.1
								c1.6-0.7,3.4-1.1,5.6-1.1c2.1,0,4,0.4,5.5,1.1c1.6,0.7,2.8,1.7,3.9,3.1c1.1,1.4,1.9,3,2.4,5c0.5,2,0.8,4.2,0.8,6.6
								c0,2.5-0.3,4.7-0.8,6.7c-0.5,1.9-1.3,3.6-2.4,4.9c-1,1.3-2.3,2.3-3.9,3.1C1375.5,393.5,1373.6,393.8,1371.5,393.8
								L1371.5,393.8z"/>
						</g>
						<g>
							<path d="M1409.2,358.4c2.3,0,4.4,0.3,6.2,1c1.8,0.7,3.5,1.7,5,3.1l-0.8,1.3c-0.2,0.4-0.5,0.5-0.8,0.5c-0.3,0-0.6-0.2-1.1-0.5
								c-0.4-0.3-1-0.7-1.8-1.1c-0.7-0.4-1.6-0.7-2.7-1.1c-1.1-0.3-2.4-0.5-3.9-0.5c-1.4,0-2.6,0.2-3.8,0.6
								c-1.1,0.4-2.1,0.9-2.9,1.6c-0.8,0.7-1.4,1.4-1.9,2.3c-0.4,0.9-0.7,1.8-0.7,2.8c0,1.2,0.3,2.2,0.9,3c0.6,0.8,1.4,1.5,2.4,2
								s2.1,1,3.4,1.5c1.3,0.4,2.6,0.8,3.9,1.2c1.3,0.4,2.6,0.9,3.9,1.4c1.3,0.5,2.4,1.1,3.4,1.9c1,0.7,1.8,1.6,2.4,2.7
								c0.6,1.1,0.9,2.4,0.9,3.9c0,1.7-0.3,3.2-0.9,4.6s-1.5,2.7-2.6,3.7c-1.1,1-2.5,1.9-4.2,2.5c-1.7,0.6-3.6,0.9-5.7,0.9
								c-2.7,0-5-0.4-6.9-1.3c-1.9-0.9-3.7-2-5.2-3.4l0.9-1.3c0.1-0.2,0.3-0.3,0.4-0.5c0.2-0.1,0.4-0.1,0.7-0.1
								c0.3,0,0.7,0.2,1.2,0.6c0.5,0.4,1.1,0.9,1.9,1.3c0.8,0.5,1.7,0.9,2.9,1.3c1.2,0.4,2.6,0.6,4.3,0.6c1.6,0,3-0.2,4.3-0.7
								c1.2-0.4,2.2-1.1,3.1-1.8c0.8-0.8,1.4-1.7,1.9-2.7c0.4-1,0.6-2.1,0.6-3.3c0-1.3-0.3-2.3-0.9-3.2c-0.6-0.8-1.4-1.6-2.4-2.1
								c-1-0.6-2.1-1.1-3.4-1.5c-1.3-0.4-2.6-0.8-3.9-1.2c-1.3-0.4-2.6-0.9-3.9-1.3c-1.3-0.5-2.4-1.1-3.4-1.8
								c-1-0.7-1.8-1.6-2.4-2.7c-0.6-1.1-0.9-2.4-0.9-4c0-1.4,0.3-2.7,0.9-3.9c0.6-1.3,1.4-2.4,2.5-3.3c1.1-0.9,2.4-1.7,4-2.3
								C1405.5,358.7,1407.2,358.4,1409.2,358.4 M1409.2,357.4c-2.1,0-3.9,0.3-5.6,0.9c-1.7,0.6-3.1,1.4-4.3,2.5
								c-1.2,1-2.1,2.3-2.8,3.6c-0.6,1.4-1,2.9-1,4.3c0,1.8,0.4,3.3,1.1,4.5c0.7,1.2,1.6,2.2,2.7,3c1.1,0.8,2.3,1.5,3.6,2
								c1.3,0.5,2.6,1,4,1.4c1.5,0.5,2.8,0.9,3.9,1.2c1.2,0.4,2.3,0.9,3.2,1.4c0.9,0.5,1.6,1.1,2.1,1.9c0.5,0.7,0.7,1.5,0.7,2.6
								c0,1-0.2,2-0.6,2.9c-0.4,0.9-0.9,1.7-1.6,2.4c-0.7,0.7-1.6,1.2-2.7,1.6c-1.1,0.4-2.4,0.6-3.9,0.6c-1.6,0-2.9-0.2-4-0.6
								c-1.1-0.4-2-0.8-2.7-1.2c-0.7-0.4-1.3-0.9-1.8-1.2c-0.7-0.6-1.3-0.9-1.9-0.9c-0.5,0-0.9,0.1-1.2,0.3
								c-0.3,0.2-0.5,0.4-0.7,0.8l-0.9,1.3l-0.5,0.7l0.6,0.6c1.6,1.4,3.4,2.6,5.5,3.5c2.1,0.9,4.5,1.4,7.4,1.4c2.2,0,4.3-0.3,6-1
								c1.8-0.7,3.3-1.6,4.5-2.7c1.2-1.1,2.2-2.5,2.9-4.1c0.6-1.5,1-3.2,1-5c0-1.7-0.4-3.2-1.1-4.4c-0.7-1.2-1.6-2.2-2.7-3
								c-1.1-0.8-2.3-1.5-3.6-2c-1.2-0.5-2.6-1-4-1.4c-1.3-0.4-2.6-0.8-3.9-1.2c-1.2-0.4-2.3-0.8-3.2-1.4c-0.9-0.5-1.6-1.1-2.1-1.8
								c-0.5-0.6-0.7-1.4-0.7-2.4c0-0.8,0.2-1.6,0.6-2.3c0.4-0.8,0.9-1.4,1.6-2c0.7-0.6,1.6-1.1,2.6-1.4c1-0.4,2.2-0.5,3.5-0.5
								c1.4,0,2.6,0.1,3.6,0.4c1,0.3,1.8,0.6,2.5,1c0.7,0.4,1.2,0.7,1.7,1c0.6,0.5,1.2,0.7,1.7,0.7c0.7,0,1.4-0.4,1.7-1l0.8-1.2
								l0.4-0.7l-0.6-0.6c-1.6-1.5-3.4-2.6-5.3-3.3C1413.8,357.7,1411.6,357.4,1409.2,357.4L1409.2,357.4z"/>
						</g>
					</g>
				</g>
				<g>
					<g>
						<path d="M1107.8,468.7c2.2,0,4.1,0.4,6,1.1c1.8,0.7,3.4,1.8,4.8,3.2c1.3,1.4,2.4,3.2,3.1,5.2c0.8,2.1,1.1,4.5,1.1,7.1
							c0,0.6-0.1,0.9-0.2,1.2c-0.2,0.2-0.4,0.3-0.8,0.3h-27.6v0.7c0,2.9,0.3,5.4,1,7.6c0.7,2.2,1.6,4,2.8,5.5
							c1.2,1.5,2.7,2.6,4.5,3.3c1.7,0.7,3.7,1.1,5.8,1.1c1.9,0,3.6-0.2,5-0.6c1.4-0.4,2.6-0.9,3.5-1.4c1-0.5,1.7-1,2.3-1.4
							c0.6-0.4,1-0.6,1.2-0.6c0.3,0,0.6,0.1,0.8,0.4l1,1.2c-0.6,0.8-1.4,1.5-2.4,2.1c-1,0.7-2.1,1.2-3.4,1.7c-1.2,0.5-2.6,0.8-4,1.1
							c-1.4,0.3-2.8,0.4-4.3,0.4c-2.6,0-5-0.5-7.1-1.4c-2.1-0.9-4-2.2-5.5-4c-1.5-1.7-2.7-3.9-3.6-6.4c-0.8-2.5-1.3-5.4-1.3-8.7
							c0-2.7,0.4-5.3,1.2-7.6s1.9-4.3,3.4-6c1.5-1.7,3.3-3,5.4-3.9C1102.6,469.2,1105.1,468.7,1107.8,468.7 M1094.3,484.5h25.1
							c0-2-0.3-3.9-0.8-5.5c-0.6-1.6-1.4-3-2.4-4.1c-1-1.1-2.2-2-3.7-2.6s-3-0.9-4.8-0.9c-2,0-3.7,0.3-5.3,0.9
							c-1.6,0.6-2.9,1.5-4,2.6c-1.1,1.1-2.1,2.5-2.8,4.1C1095,480.7,1094.6,482.5,1094.3,484.5 M1107.8,467.7
							c-2.8,0-5.4,0.5-7.7,1.5c-2.3,1-4.2,2.4-5.8,4.2c-1.5,1.8-2.8,3.9-3.6,6.3c-0.8,2.4-1.2,5.1-1.2,7.9c0,3.4,0.4,6.4,1.3,9
							c0.9,2.6,2.1,4.9,3.8,6.7c1.6,1.8,3.6,3.3,5.9,4.2c2.3,1,4.8,1.4,7.5,1.4c1.5,0,3-0.1,4.5-0.4c1.5-0.3,2.9-0.7,4.2-1.2
							c1.3-0.5,2.5-1.1,3.6-1.8c1.1-0.7,2-1.5,2.7-2.4l0.5-0.6l-0.5-0.6l-1-1.2c-0.4-0.5-0.9-0.8-1.6-0.8c-0.5,0-1.1,0.2-1.8,0.8
							c-0.5,0.4-1.2,0.8-2.2,1.3c-0.9,0.5-2,0.9-3.4,1.3c-1.3,0.4-2.9,0.6-4.7,0.6c-2,0-3.8-0.3-5.4-1c-1.6-0.7-3-1.7-4.1-3
							c-1.1-1.4-2-3.1-2.7-5.1c-0.6-2-0.9-4.4-1-7h26.6c0.8,0,1.3-0.4,1.6-0.7c0.3-0.4,0.5-1,0.5-1.8c0-2.8-0.4-5.3-1.2-7.5
							c-0.8-2.2-1.9-4.1-3.4-5.6c-1.4-1.5-3.2-2.7-5.1-3.5C1112.2,468.1,1110,467.7,1107.8,467.7L1107.8,467.7z M1095.5,483.5
							c0.2-1.5,0.6-2.8,1.2-4c0.7-1.5,1.5-2.8,2.6-3.8c1-1,2.3-1.9,3.7-2.4c1.4-0.6,3.1-0.9,4.9-0.9c1.6,0,3.1,0.3,4.4,0.8
							c1.3,0.5,2.4,1.3,3.3,2.3c0.9,1,1.7,2.3,2.2,3.8c0.4,1.2,0.7,2.7,0.8,4.2H1095.5L1095.5,483.5z"/>
					</g>
					<g>
						<g>
							<path d="M1180.4,452.9l22.2,54.3h-3c-0.4,0-0.6-0.1-0.9-0.3c-0.2-0.2-0.4-0.4-0.5-0.7l-6.4-15.8h-26.7l-6.4,15.8
								c-0.1,0.3-0.3,0.5-0.5,0.7c-0.3,0.2-0.6,0.3-0.9,0.3h-3l22.2-54.3H1180.4 M1166.3,487.5h24.3l-11.1-27.4
								c-0.2-0.4-0.4-0.9-0.5-1.5c-0.2-0.5-0.4-1.1-0.5-1.7c-0.2,0.6-0.4,1.2-0.5,1.7c-0.2,0.5-0.4,1.1-0.5,1.5L1166.3,487.5
								 M1181.1,451.9h-0.7h-3.9h-0.7l-0.3,0.6l-22.2,54.3l-0.6,1.4h1.5h3c0.6,0,1.1-0.2,1.5-0.5c0.4-0.3,0.7-0.7,0.8-1.1l6.1-15.1
								h25.3l6.2,15.2c0.2,0.5,0.5,0.8,0.8,1.1c0.4,0.4,0.9,0.5,1.5,0.5h3h1.5l-0.6-1.4l-22.2-54.3L1181.1,451.9L1181.1,451.9z
								 M1167.8,486.5l10.5-26c0.1-0.1,0.1-0.3,0.2-0.4c0,0.1,0.1,0.2,0.1,0.4l10.5,26.1H1167.8L1167.8,486.5z"/>
						</g>
						<g>
							<path d="M1225.4,468.4c1.2,0,2.2,0.1,3.2,0.4c1,0.2,1.9,0.6,2.8,1.1l-0.5,2.5c-0.1,0.4-0.3,0.6-0.8,0.6c-0.2,0-0.4,0-0.7-0.1
								c-0.3-0.1-0.6-0.2-1-0.3c-0.4-0.1-0.9-0.2-1.6-0.3c-0.6-0.1-1.3-0.2-2.1-0.2c-2.9,0-5.3,0.9-7.1,2.7
								c-1.9,1.8-3.4,4.4-4.5,7.8v24.8h-3.6V469h1.9c0.4,0,0.7,0.1,0.9,0.3c0.2,0.2,0.3,0.5,0.3,0.9l0.3,8.1
								c1.2-3.1,2.9-5.5,4.9-7.3C1219.9,469.2,1222.4,468.4,1225.4,468.4 M1225.4,467.4c-3.2,0-6,1-8.2,2.9
								c-1.3,1.1-2.4,2.5-3.4,4.1l-0.2-4.1c0-0.7-0.3-1.2-0.6-1.6c-0.4-0.4-0.9-0.5-1.6-0.5h-1.9h-1v1v38.2v1h1h3.6h1v-1v-24.7
								c1.1-3.1,2.5-5.6,4.2-7.2c1.7-1.6,3.8-2.4,6.4-2.4c0.8,0,1.4,0,1.9,0.1c0.6,0.1,1,0.2,1.4,0.3l0.2,0.1
								c0.3,0.1,0.6,0.2,0.8,0.3c0.4,0.2,0.7,0.2,1,0.2c0.9,0,1.6-0.6,1.8-1.4l0.5-2.5l0.1-0.7l-0.7-0.3c-0.9-0.5-1.9-0.9-3-1.1
								C1227.8,467.5,1226.7,467.4,1225.4,467.4L1225.4,467.4z"/>
						</g>
						<g>
							<path d="M1244,451.3l0,24.3c1.7-2.2,3.6-4,5.9-5.3c2.2-1.3,4.7-2,7.5-2c4.7,0,8.3,1.6,11,4.9c2.6,3.2,3.9,8.1,3.9,14.6
								c0,2.8-0.4,5.4-1.1,7.8c-0.7,2.4-1.8,4.5-3.2,6.3c-1.4,1.8-3.2,3.2-5.2,4.2c-2.1,1-4.4,1.5-7.1,1.5c-2.7,0-5-0.5-6.9-1.6
								c-1.9-1-3.6-2.6-5-4.6l-0.2,4.7c-0.1,0.6-0.4,1-1,1h-2.2v-55.9H1244 M1254.9,504.8c2.2,0,4.2-0.4,5.9-1.2
								c1.7-0.8,3.1-2,4.2-3.5c1.1-1.5,2-3.3,2.6-5.4c0.6-2.1,0.9-4.4,0.9-6.9c0-5.7-1-9.9-3.1-12.5c-2.1-2.7-5.1-4-9-4
								c-2.5,0-4.8,0.6-6.9,2c-2,1.3-3.9,3.1-5.5,5.4v20.2c1.5,2.2,3.1,3.7,4.8,4.6C1250.6,504.4,1252.6,504.8,1254.9,504.8
								 M1245,450.3h-1h-3.6h-1v1v55.9v1h1h2.2c1.1,0,1.9-0.7,2-1.8l0,0l0,0l0.1-2.1c1.1,1.1,2.3,2.1,3.6,2.8c2,1.1,4.5,1.7,7.4,1.7
								c2.8,0,5.4-0.6,7.6-1.6c2.2-1.1,4.1-2.6,5.6-4.5c1.5-1.9,2.6-4.1,3.4-6.6c0.8-2.5,1.1-5.2,1.1-8.1c0-6.7-1.4-11.8-4.2-15.2
								c-2.8-3.5-6.8-5.2-11.7-5.2c-2.9,0-5.6,0.7-8,2.1c-1.6,0.9-3,2.1-4.4,3.5l0-21.6L1245,450.3L1245,450.3z M1245,479
								c1.5-2.1,3.2-3.7,5-4.9c1.9-1.2,4-1.8,6.3-1.8c3.6,0,6.3,1.2,8.3,3.6c1.9,2.5,2.9,6.5,2.9,11.9c0,2.4-0.3,4.6-0.8,6.6
								c-0.5,2-1.4,3.6-2.4,5c-1,1.4-2.3,2.4-3.9,3.2c-1.5,0.7-3.4,1.1-5.5,1.1c-2.1,0-4.1-0.4-5.7-1.2c-1.5-0.8-3-2.1-4.3-4V479
								L1245,479z"/>
						</g>
						<g>
							<path d="M1284.8,452.4c0.5,0,0.9,0.1,1.3,0.3c0.4,0.2,0.8,0.4,1.1,0.7c0.3,0.3,0.6,0.7,0.7,1.1c0.2,0.4,0.3,0.9,0.3,1.3
								c0,0.5-0.1,0.9-0.3,1.3c-0.2,0.4-0.4,0.7-0.7,1.1c-0.3,0.3-0.7,0.5-1.1,0.7c-0.4,0.2-0.8,0.3-1.3,0.3c-0.5,0-0.9-0.1-1.3-0.3
								c-0.4-0.2-0.8-0.4-1.1-0.7c-0.3-0.3-0.6-0.7-0.7-1.1c-0.2-0.4-0.3-0.8-0.3-1.3c0-0.5,0.1-0.9,0.3-1.3
								c0.2-0.4,0.4-0.8,0.7-1.1c0.3-0.3,0.7-0.5,1.1-0.7C1283.9,452.5,1284.3,452.4,1284.8,452.4 M1286.6,469v38.2h-3.6V469H1286.6
								 M1284.8,451.4c-0.6,0-1.2,0.1-1.7,0.4c-0.5,0.2-1,0.5-1.4,0.9c-0.4,0.4-0.7,0.9-0.9,1.4c-0.2,0.6-0.3,1.1-0.3,1.7
								c0,0.6,0.1,1.2,0.4,1.7c0.2,0.5,0.6,1,0.9,1.4c0.4,0.4,0.9,0.7,1.4,0.9c0.5,0.2,1.1,0.3,1.7,0.3c0.6,0,1.2-0.1,1.7-0.4
								c0.5-0.2,1-0.5,1.4-0.9c0.4-0.4,0.7-0.8,0.9-1.3c0.3-0.5,0.4-1.1,0.4-1.7c0-0.6-0.1-1.2-0.4-1.7c-0.2-0.5-0.6-1-1-1.4
								c-0.4-0.4-0.8-0.7-1.4-0.9C1285.9,451.5,1285.4,451.4,1284.8,451.4L1284.8,451.4z M1287.6,468h-1h-3.6h-1v1v38.2v1h1h3.6h1
								v-1V469V468L1287.6,468z"/>
						</g>
						<g>
							<path d="M1306,455.6v14.6h12v2.7h-12v25.9c0,1,0.1,2,0.4,2.7c0.3,0.8,0.6,1.4,1.1,1.9c0.5,0.5,1,0.8,1.7,1.1
								c0.6,0.2,1.3,0.3,2.1,0.3c0.9,0,1.7-0.1,2.4-0.4c0.7-0.3,1.2-0.6,1.7-0.9c0.5-0.3,0.9-0.6,1.2-0.9c0.3-0.3,0.5-0.4,0.7-0.4
								c0.2,0,0.4,0.1,0.6,0.4l1,1.6c-1,1.1-2.2,1.9-3.7,2.6c-1.5,0.7-3,1-4.7,1c-2.6,0-4.6-0.7-6-2.1s-2.1-3.6-2.1-6.6v-26.1h-5.5
								c-0.3,0-0.5-0.1-0.7-0.2c-0.2-0.1-0.3-0.4-0.3-0.6v-1.4l6.5-0.5l0.9-13.7c0-0.2,0.1-0.4,0.3-0.6c0.2-0.2,0.4-0.3,0.7-0.3
								H1306 M1307,454.6h-1h-1.7c-0.6,0-1.1,0.2-1.4,0.6c-0.3,0.3-0.5,0.7-0.5,1.2l-0.9,12.8l-5.7,0.4l-0.9,0.1v0.9v1.4
								c0,0.7,0.3,1.2,0.6,1.4c0.3,0.2,0.7,0.5,1.3,0.5h4.5V499c0,3.3,0.8,5.7,2.4,7.4c1.6,1.6,3.9,2.4,6.7,2.4
								c1.7,0,3.5-0.4,5.1-1.1c1.6-0.7,3-1.7,4-2.8l0.5-0.6l-0.4-0.6l-1-1.6l0-0.1l0,0c-0.4-0.5-0.9-0.8-1.4-0.8
								c-0.6,0-1.1,0.4-1.4,0.6c-0.3,0.2-0.7,0.5-1.1,0.8c-0.5,0.3-1,0.6-1.6,0.8c-0.5,0.2-1.2,0.3-2,0.3c-0.6,0-1.2-0.1-1.7-0.3
								c-0.5-0.2-0.9-0.5-1.3-0.8c-0.4-0.4-0.7-0.9-0.9-1.5c-0.2-0.6-0.3-1.4-0.3-2.4v-24.9h11h1v-1v-2.7v-1h-1h-11v-13.6V454.6
								L1307,454.6z"/>
						</g>
						<g>
							<path d="M1343.4,468.4c1.2,0,2.2,0.1,3.2,0.4c1,0.2,1.9,0.6,2.8,1.1l-0.5,2.5c-0.1,0.4-0.3,0.6-0.8,0.6c-0.2,0-0.4,0-0.7-0.1
								c-0.3-0.1-0.6-0.2-1-0.3c-0.4-0.1-0.9-0.2-1.6-0.3c-0.6-0.1-1.3-0.2-2.1-0.2c-2.9,0-5.3,0.9-7.1,2.7
								c-1.9,1.8-3.4,4.4-4.5,7.8v24.8h-3.6V469h1.9c0.4,0,0.7,0.1,0.9,0.3c0.2,0.2,0.3,0.5,0.3,0.9l0.3,8.1
								c1.2-3.1,2.9-5.5,4.9-7.3C1337.9,469.2,1340.4,468.4,1343.4,468.4 M1343.4,467.4c-3.2,0-6,1-8.2,2.9
								c-1.3,1.1-2.4,2.5-3.4,4.1l-0.2-4.1c0-0.7-0.3-1.2-0.6-1.6c-0.4-0.4-0.9-0.5-1.6-0.5h-1.9h-1v1v38.2v1h1h3.6h1v-1v-24.7
								c1.1-3.1,2.5-5.6,4.2-7.2c1.7-1.6,3.8-2.4,6.4-2.4c0.8,0,1.4,0,1.9,0.1c0.6,0.1,1,0.2,1.4,0.3l0.2,0.1
								c0.3,0.1,0.6,0.2,0.8,0.3c0.4,0.2,0.7,0.2,1,0.2c0.9,0,1.6-0.6,1.8-1.4l0.5-2.5l0.1-0.7l-0.7-0.3c-0.9-0.5-1.9-0.9-3-1.1
								C1345.8,467.5,1344.7,467.4,1343.4,467.4L1343.4,467.4z"/>
						</g>
						<g>
							<path d="M1369.6,468.4c2,0,3.8,0.3,5.4,1c1.5,0.7,2.8,1.6,3.8,2.8c1,1.2,1.8,2.7,2.3,4.4c0.5,1.7,0.8,3.6,0.8,5.8v24.9h-1.5
								c-0.8,0-1.2-0.4-1.4-1.1l-0.5-4.9c-1,1-2.1,1.9-3.1,2.8c-1,0.8-2.1,1.5-3.2,2.1c-1.1,0.6-2.3,1-3.6,1.3
								c-1.3,0.3-2.7,0.4-4.3,0.4c-1.3,0-2.6-0.2-3.8-0.6c-1.2-0.4-2.3-1-3.3-1.8c-0.9-0.8-1.7-1.8-2.3-3.1s-0.9-2.7-0.9-4.5
								c0-1.6,0.5-3.1,1.4-4.5c0.9-1.4,2.4-2.6,4.3-3.6s4.5-1.8,7.6-2.5c3.1-0.6,6.8-1,11.1-1.1v-4c0-3.5-0.8-6.2-2.3-8.2
								c-1.5-1.9-3.8-2.9-6.8-2.9c-1.8,0-3.4,0.2-4.7,0.8c-1.3,0.5-2.4,1.1-3.3,1.7c-0.9,0.6-1.6,1.2-2.2,1.7
								c-0.6,0.5-1,0.8-1.4,0.8c-0.5,0-0.9-0.2-1.1-0.7l-0.7-1.1c2-2,4.1-3.5,6.3-4.5C1364.3,468.9,1366.8,468.4,1369.6,468.4
								 M1365.1,505.2c1.5,0,2.8-0.2,4.1-0.5c1.2-0.3,2.4-0.8,3.5-1.3c1.1-0.6,2-1.3,3-2.1c0.9-0.8,1.8-1.6,2.7-2.6v-9.9
								c-3.6,0.1-6.8,0.4-9.4,0.8c-2.6,0.4-4.8,1.1-6.5,1.8c-1.7,0.8-3,1.7-3.8,2.7c-0.8,1.1-1.2,2.3-1.2,3.6c0,1.3,0.2,2.4,0.6,3.3
								c0.4,0.9,1,1.7,1.7,2.3c0.7,0.6,1.5,1,2.4,1.3C1363.1,505,1364.1,505.2,1365.1,505.2 M1369.6,467.4c-2.9,0-5.6,0.5-7.9,1.6
								c-2.3,1.1-4.5,2.7-6.6,4.7l-0.5,0.5l0.4,0.7l0.7,1.1c0.4,0.7,1.1,1.2,2,1.2c0.7,0,1.3-0.3,2.1-1c0.5-0.5,1.2-1,2.1-1.6
								c0.8-0.6,1.9-1.1,3.1-1.6c1.2-0.5,2.6-0.7,4.3-0.7c2.7,0,4.7,0.8,6,2.5c1.4,1.7,2.1,4.2,2.1,7.5v3c-4,0.1-7.4,0.5-10.3,1.1
								c-3.2,0.6-5.8,1.5-7.8,2.6c-2.1,1.1-3.7,2.4-4.7,3.9c-1,1.5-1.6,3.2-1.6,5c0,1.9,0.3,3.5,1,4.9c0.6,1.4,1.5,2.5,2.5,3.4
								c1.1,0.9,2.3,1.5,3.6,2c1.3,0.4,2.7,0.6,4.1,0.6c1.6,0,3.1-0.2,4.5-0.5c1.4-0.3,2.7-0.8,3.9-1.4c1.2-0.6,2.3-1.3,3.4-2.2
								c0.6-0.5,1.2-1,1.7-1.5l0.3,2.9l0,0.1l0,0.1c0.3,1.2,1.2,1.8,2.4,1.8h1.5h1v-1v-24.9c0-2.2-0.3-4.2-0.8-6.1
								c-0.6-1.9-1.4-3.5-2.5-4.8c-1.1-1.3-2.5-2.4-4.2-3.1C1373.7,467.7,1371.8,467.4,1369.6,467.4L1369.6,467.4z M1365.1,504.2
								c-0.9,0-1.8-0.1-2.6-0.4c-0.8-0.2-1.5-0.6-2.1-1.1c-0.6-0.5-1-1.2-1.4-2c-0.4-0.8-0.5-1.8-0.5-2.9c0-1.1,0.3-2.1,1-3
								c0.7-0.9,1.8-1.8,3.4-2.4c1.6-0.7,3.7-1.3,6.2-1.8c2.4-0.4,5.1-0.7,8.2-0.8v8.5c-0.8,0.8-1.6,1.5-2.4,2.2
								c-0.9,0.7-1.8,1.4-2.8,1.9c-1,0.5-2.1,1-3.2,1.3C1367.7,504,1366.5,504.2,1365.1,504.2L1365.1,504.2z"/>
						</g>
						<g>
							<path d="M1406,468.4c1.7,0,3.2,0.2,4.6,0.6c1.4,0.4,2.7,1,3.8,1.7h9.8v1.3c0,0.6-0.4,1-1.1,1l-5.8,0.4c0.7,1,1.3,2.1,1.6,3.3
								s0.6,2.5,0.6,3.9c0,1.8-0.3,3.5-1,5c-0.7,1.5-1.6,2.8-2.8,3.8c-1.2,1.1-2.6,1.9-4.3,2.5c-1.7,0.6-3.5,0.9-5.5,0.9
								c-2.2,0-4.2-0.3-6-1c-1.1,0.6-1.9,1.3-2.5,2.2c-0.6,0.8-0.9,1.7-0.9,2.5c0,1.1,0.4,1.9,1.2,2.5c0.8,0.6,1.8,1,3,1.3
								c1.3,0.3,2.7,0.4,4.3,0.5c1.6,0.1,3.3,0.2,4.9,0.2c1.7,0.1,3.3,0.2,4.9,0.5c1.6,0.2,3.1,0.6,4.3,1.2c1.3,0.6,2.3,1.4,3.1,2.4
								c0.8,1,1.1,2.4,1.1,4.1c0,1.6-0.4,3.1-1.2,4.6s-1.9,2.7-3.4,3.9c-1.5,1.1-3.3,2-5.4,2.7c-2.1,0.7-4.5,1-7.1,1
								c-2.7,0-5-0.3-7.1-0.8c-2-0.5-3.7-1.3-5.1-2.2c-1.4-0.9-2.4-2-3.1-3.2c-0.7-1.2-1-2.5-1-3.9c0-2,0.7-3.8,2-5.2
								c1.3-1.5,3.2-2.6,5.5-3.4c-1.3-0.4-2.3-1.1-3-1.9c-0.8-0.8-1.1-2-1.1-3.4c0-0.5,0.1-1.1,0.3-1.7c0.2-0.6,0.5-1.2,0.9-1.7
								c0.4-0.6,0.9-1.1,1.5-1.6c0.6-0.5,1.2-1,2-1.4c-1.8-1-3.2-2.4-4.2-4.2c-1-1.7-1.5-3.8-1.5-6.1c0-1.8,0.3-3.5,1-5
								c0.6-1.5,1.6-2.8,2.8-3.9c1.2-1.1,2.6-1.9,4.3-2.5C1402.1,468.7,1403.9,468.4,1406,468.4 M1406,490.3c1.6,0,3.1-0.2,4.4-0.7
								c1.3-0.5,2.4-1.1,3.2-2c0.9-0.8,1.5-1.9,2-3c0.4-1.2,0.7-2.5,0.7-3.9s-0.2-2.7-0.7-3.9c-0.5-1.2-1.1-2.2-2-3.1
								c-0.9-0.8-2-1.5-3.2-2c-1.3-0.5-2.7-0.7-4.3-0.7c-1.6,0-3.1,0.2-4.3,0.7c-1.3,0.5-2.4,1.1-3.2,2c-0.9,0.8-1.6,1.9-2,3.1
								c-0.5,1.2-0.7,2.5-0.7,3.9s0.2,2.7,0.7,3.9c0.5,1.2,1.1,2.2,2,3c0.9,0.8,2,1.5,3.2,2C1402.9,490.1,1404.4,490.3,1406,490.3
								 M1406.4,518.7c1.9,0,3.8-0.2,5.4-0.6s3.1-1,4.4-1.8c1.2-0.8,2.2-1.7,2.9-2.8c0.7-1.1,1-2.3,1-3.6c0-1.2-0.3-2.2-0.9-2.9
								c-0.6-0.7-1.5-1.3-2.5-1.7c-1-0.4-2.3-0.7-3.6-0.9c-1.4-0.2-2.8-0.3-4.3-0.4c-1.5-0.1-3-0.1-4.5-0.2
								c-1.5-0.1-2.9-0.2-4.2-0.5c-1,0.4-1.9,0.8-2.7,1.3c-0.8,0.5-1.5,1.1-2.1,1.7c-0.6,0.6-1,1.3-1.4,2.1
								c-0.3,0.8-0.5,1.6-0.5,2.5c0,1.1,0.3,2.2,0.9,3.1s1.4,1.8,2.5,2.5c1.1,0.7,2.5,1.3,4.1,1.7
								C1402.4,518.5,1404.3,518.7,1406.4,518.7 M1406,467.4c-2.2,0-4.2,0.3-5.9,0.9c-1.8,0.6-3.4,1.5-4.7,2.7
								c-1.3,1.2-2.3,2.6-3,4.2c-0.7,1.6-1.1,3.5-1.1,5.4c0,2.5,0.6,4.7,1.7,6.6c0.8,1.4,1.9,2.7,3.3,3.7c-0.3,0.2-0.6,0.4-0.8,0.7
								c-0.7,0.6-1.2,1.2-1.6,1.8c-0.5,0.7-0.8,1.3-1,2c-0.2,0.7-0.4,1.3-0.4,2c0,1.7,0.5,3.1,1.4,4.1c0.4,0.4,0.8,0.8,1.3,1.1
								c-1.5,0.7-2.8,1.7-3.8,2.8c-1.5,1.6-2.3,3.6-2.3,5.9c0,1.5,0.4,3,1.2,4.4c0.8,1.4,1.9,2.6,3.4,3.6c1.5,1,3.3,1.8,5.4,2.4
								c2.1,0.6,4.5,0.9,7.3,0.9c2.7,0,5.2-0.4,7.4-1.1c2.2-0.7,4.2-1.7,5.7-2.9c1.6-1.2,2.9-2.6,3.7-4.2c0.9-1.6,1.3-3.3,1.3-5
								c0-1.9-0.5-3.5-1.3-4.7c-0.9-1.2-2-2.1-3.5-2.7c-1.3-0.6-2.9-1-4.6-1.3c-1.6-0.2-3.3-0.4-5-0.5c-1.7-0.1-3.3-0.2-5-0.3
								c-1.6-0.1-3-0.2-4.2-0.5c-1.1-0.2-2-0.6-2.7-1.1c-0.5-0.4-0.8-1-0.8-1.7c0-0.6,0.2-1.2,0.7-1.9c0.5-0.6,1.1-1.2,1.8-1.7
								c1.8,0.6,3.8,0.9,5.9,0.9c2.1,0,4.1-0.3,5.9-0.9c1.8-0.6,3.3-1.5,4.6-2.7c1.3-1.2,2.3-2.6,3-4.2c0.7-1.6,1.1-3.4,1.1-5.4
								c0-1.5-0.2-2.9-0.6-4.2c-0.2-0.7-0.5-1.4-0.9-2.1l4.1-0.3c1.2-0.1,2-0.9,2-2v-1.3v-1h-1h-9.5c-1.2-0.7-2.4-1.3-3.8-1.7
								C1409.4,467.6,1407.8,467.4,1406,467.4L1406,467.4z M1406,489.3c-1.5,0-2.8-0.2-4-0.6c-1.1-0.4-2.1-1-2.9-1.8
								c-0.8-0.7-1.4-1.6-1.8-2.7c-0.4-1.1-0.6-2.3-0.6-3.6c0-1.3,0.2-2.5,0.6-3.6c0.4-1,1-1.9,1.8-2.7c0.8-0.7,1.7-1.3,2.9-1.7
								c1.2-0.4,2.5-0.6,4-0.6c1.5,0,2.8,0.2,4,0.6c1.1,0.4,2.1,1,2.9,1.7c0.8,0.7,1.4,1.7,1.8,2.7c0.4,1.1,0.6,2.3,0.6,3.6
								c0,1.3-0.2,2.5-0.6,3.6c-0.4,1-1,1.9-1.7,2.7c-0.8,0.7-1.7,1.3-2.9,1.8C1408.9,489.1,1407.5,489.3,1406,489.3L1406,489.3z
								 M1406.4,517.7c-2,0-3.8-0.2-5.3-0.6c-1.5-0.4-2.8-0.9-3.8-1.6c-1-0.6-1.7-1.3-2.2-2.2c-0.5-0.8-0.7-1.7-0.7-2.6
								c0-0.7,0.1-1.4,0.4-2.1c0.3-0.7,0.7-1.3,1.2-1.8c0.5-0.6,1.2-1.1,1.9-1.5c0.7-0.4,1.5-0.8,2.3-1.1c1.2,0.2,2.6,0.3,4.1,0.4
								l4.4,0.2l0.1,0c1.6,0.1,3,0.2,4.2,0.4c1.3,0.2,2.4,0.4,3.4,0.8c0.9,0.3,1.6,0.8,2.1,1.4c0.5,0.5,0.7,1.3,0.7,2.3
								c0,1.1-0.3,2.1-0.9,3.1c-0.6,1-1.5,1.8-2.6,2.5c-1.2,0.7-2.5,1.3-4.1,1.7C1410,517.5,1408.2,517.7,1406.4,517.7L1406.4,517.7
								z"/>
						</g>
						<g>
							<path d="M1446.5,468.4c2.2,0,4.1,0.4,6,1.1c1.8,0.7,3.4,1.8,4.8,3.2c1.3,1.4,2.4,3.2,3.1,5.2c0.8,2.1,1.1,4.5,1.1,7.1
								c0,0.6-0.1,0.9-0.3,1.2c-0.2,0.2-0.4,0.3-0.8,0.3h-27.6v0.7c0,2.9,0.3,5.4,1,7.6c0.7,2.2,1.6,4,2.8,5.5
								c1.2,1.5,2.7,2.6,4.5,3.3c1.7,0.7,3.7,1.1,5.8,1.1c1.9,0,3.6-0.2,5-0.6c1.4-0.4,2.6-0.9,3.5-1.4c1-0.5,1.7-1,2.3-1.4
								c0.6-0.4,1-0.6,1.2-0.6c0.3,0,0.6,0.1,0.8,0.4l1,1.2c-0.6,0.8-1.4,1.5-2.4,2.1c-1,0.7-2.1,1.2-3.4,1.7s-2.6,0.8-4,1.1
								c-1.4,0.3-2.8,0.4-4.3,0.4c-2.6,0-5-0.5-7.1-1.4c-2.1-0.9-4-2.2-5.5-4c-1.5-1.7-2.7-3.9-3.6-6.4c-0.8-2.5-1.3-5.4-1.3-8.7
								c0-2.7,0.4-5.3,1.2-7.6c0.8-2.3,1.9-4.3,3.4-6c1.5-1.7,3.3-3,5.4-3.9C1441.4,468.9,1443.8,468.4,1446.5,468.4 M1433.1,484.3
								h25.1c0-2-0.3-3.9-0.8-5.5c-0.6-1.6-1.4-3-2.4-4.1c-1-1.1-2.2-2-3.7-2.6c-1.4-0.6-3-0.9-4.8-0.9c-2,0-3.7,0.3-5.3,0.9
								c-1.6,0.6-2.9,1.5-4,2.6c-1.1,1.1-2.1,2.5-2.8,4.1C1433.8,480.5,1433.3,482.3,1433.1,484.3 M1446.5,467.4
								c-2.8,0-5.4,0.5-7.7,1.5c-2.3,1-4.2,2.4-5.8,4.2c-1.5,1.8-2.8,3.9-3.6,6.3c-0.8,2.4-1.2,5.1-1.2,7.9c0,3.4,0.4,6.4,1.3,9
								c0.9,2.6,2.1,4.9,3.8,6.7c1.6,1.8,3.6,3.3,5.9,4.2c2.3,1,4.8,1.4,7.5,1.4c1.5,0,3-0.1,4.5-0.4c1.5-0.3,2.9-0.7,4.2-1.2
								c1.3-0.5,2.5-1.1,3.6-1.8c1.1-0.7,2-1.5,2.7-2.4l0.5-0.6l-0.5-0.6l-1-1.2c-0.4-0.5-0.9-0.8-1.6-0.8c-0.5,0-1.1,0.2-1.8,0.8
								c-0.5,0.4-1.2,0.8-2.2,1.3c-0.9,0.5-2,0.9-3.4,1.3c-1.3,0.4-2.9,0.6-4.7,0.6c-2,0-3.8-0.3-5.4-1c-1.6-0.7-3-1.7-4.1-3
								c-1.1-1.4-2-3.1-2.7-5.1c-0.6-2-0.9-4.4-1-7h26.6c0.8,0,1.3-0.4,1.6-0.7c0.3-0.4,0.5-1,0.5-1.8c0-2.8-0.4-5.3-1.2-7.5
								c-0.8-2.2-1.9-4.1-3.4-5.6c-1.4-1.5-3.2-2.7-5.1-3.5C1450.9,467.8,1448.8,467.4,1446.5,467.4L1446.5,467.4z M1434.3,483.3
								c0.2-1.5,0.6-2.8,1.2-4c0.7-1.5,1.5-2.8,2.6-3.8c1-1,2.3-1.9,3.7-2.4c1.4-0.6,3.1-0.9,4.9-0.9c1.6,0,3.1,0.3,4.4,0.8
								c1.3,0.5,2.4,1.3,3.3,2.3c0.9,1,1.7,2.3,2.2,3.8c0.4,1.2,0.7,2.7,0.8,4.2H1434.3L1434.3,483.3z"/>
						</g>
						<g>
							<path d="M1488.7,468.4c2.1,0,3.9,0.3,5.5,1c1.6,0.7,2.9,1.6,4,2.9c1,1.2,1.8,2.8,2.4,4.5c0.5,1.8,0.8,3.8,0.8,6v24.4h-3.6
								v-24.4c0-3.6-0.8-6.4-2.5-8.4c-1.6-2-4.1-3-7.5-3c-2.5,0-4.8,0.6-7,1.9c-2.1,1.3-4.1,3.1-5.8,5.3v28.6h-3.6V469h2
								c0.7,0,1,0.3,1.1,1l0.3,5.8c1.7-2.2,3.8-4,6.1-5.3C1483.3,469.1,1485.9,468.4,1488.7,468.4 M1488.7,467.4
								c-3,0-5.8,0.7-8.2,2.2c-1.7,1-3.3,2.2-4.7,3.7l-0.2-3.3l0,0l0,0c-0.2-1.1-1-1.8-2.1-1.8h-2h-1v1v38.2v1h1h3.6h1v-1v-28.3
								c1.6-2,3.3-3.6,5.3-4.8c2-1.2,4.1-1.8,6.5-1.8c3.1,0,5.3,0.9,6.7,2.7c1.5,1.8,2.2,4.5,2.2,7.8v24.4v1h1h3.6h1v-1v-24.4
								c0-2.3-0.3-4.4-0.9-6.3c-0.6-1.9-1.4-3.5-2.6-4.9c-1.1-1.4-2.6-2.4-4.3-3.2C1492.9,467.8,1490.9,467.4,1488.7,467.4
								L1488.7,467.4z"/>
						</g>
						<g>
							<path d="M1523.6,468.4c2.3,0,4.4,0.3,6.2,1c1.8,0.7,3.5,1.7,5,3.1l-0.8,1.3c-0.2,0.4-0.5,0.5-0.8,0.5c-0.3,0-0.6-0.2-1.1-0.5
								c-0.4-0.3-1-0.7-1.8-1.1c-0.7-0.4-1.6-0.7-2.7-1.1c-1.1-0.3-2.4-0.5-3.9-0.5c-1.4,0-2.6,0.2-3.8,0.6
								c-1.1,0.4-2.1,0.9-2.9,1.6c-0.8,0.7-1.4,1.4-1.9,2.3c-0.4,0.9-0.7,1.8-0.7,2.8c0,1.2,0.3,2.2,0.9,3s1.4,1.5,2.4,2
								c1,0.6,2.1,1,3.4,1.5c1.3,0.4,2.6,0.8,3.9,1.2c1.3,0.4,2.6,0.9,3.9,1.4c1.3,0.5,2.4,1.1,3.4,1.9c1,0.7,1.8,1.6,2.4,2.7
								c0.6,1.1,0.9,2.4,0.9,3.9c0,1.7-0.3,3.2-0.9,4.6c-0.6,1.4-1.5,2.7-2.6,3.7c-1.1,1-2.5,1.9-4.2,2.5c-1.7,0.6-3.6,0.9-5.7,0.9
								c-2.7,0-5-0.4-6.9-1.3c-1.9-0.9-3.7-2-5.2-3.4l0.9-1.3c0.1-0.2,0.3-0.3,0.4-0.5c0.2-0.1,0.4-0.1,0.6-0.1
								c0.3,0,0.7,0.2,1.2,0.6c0.5,0.4,1.1,0.9,1.9,1.3c0.8,0.5,1.7,0.9,2.9,1.3c1.2,0.4,2.6,0.6,4.3,0.6c1.6,0,3-0.2,4.3-0.7
								c1.2-0.4,2.2-1.1,3.1-1.8c0.8-0.8,1.4-1.7,1.9-2.7c0.4-1,0.6-2.1,0.6-3.3c0-1.3-0.3-2.3-0.9-3.2c-0.6-0.8-1.4-1.6-2.4-2.1
								c-1-0.6-2.1-1.1-3.4-1.5c-1.3-0.4-2.6-0.8-3.9-1.2s-2.6-0.9-3.9-1.3c-1.3-0.5-2.4-1.1-3.4-1.8c-1-0.7-1.8-1.6-2.4-2.7
								c-0.6-1.1-0.9-2.4-0.9-4c0-1.4,0.3-2.7,0.9-3.9c0.6-1.3,1.4-2.4,2.5-3.3c1.1-0.9,2.4-1.7,4-2.3
								C1519.9,468.7,1521.7,468.4,1523.6,468.4 M1523.6,467.4c-2.1,0-3.9,0.3-5.6,0.9c-1.7,0.6-3.1,1.4-4.3,2.5
								c-1.2,1-2.1,2.3-2.8,3.6c-0.6,1.4-1,2.9-1,4.3c0,1.8,0.4,3.3,1.1,4.5c0.7,1.2,1.6,2.2,2.7,3c1.1,0.8,2.3,1.5,3.6,2
								c1.3,0.5,2.6,1,4,1.4c1.5,0.5,2.8,0.9,3.9,1.2c1.2,0.4,2.3,0.9,3.2,1.4c0.9,0.5,1.6,1.1,2.1,1.9c0.5,0.7,0.7,1.5,0.7,2.6
								c0,1-0.2,2-0.6,2.9c-0.4,0.9-0.9,1.7-1.6,2.4c-0.7,0.7-1.6,1.2-2.7,1.6c-1.1,0.4-2.4,0.6-3.9,0.6c-1.6,0-2.9-0.2-4-0.6
								c-1.1-0.4-2-0.8-2.7-1.2c-0.7-0.4-1.3-0.9-1.8-1.2c-0.7-0.6-1.3-0.9-1.9-0.9c-0.5,0-0.9,0.1-1.2,0.3
								c-0.3,0.2-0.5,0.4-0.7,0.8l-0.9,1.3l-0.5,0.7l0.6,0.6c1.6,1.4,3.4,2.6,5.5,3.5c2.1,0.9,4.5,1.4,7.4,1.4c2.2,0,4.3-0.3,6-1
								c1.8-0.7,3.3-1.6,4.5-2.7c1.2-1.1,2.2-2.5,2.9-4.1c0.6-1.5,1-3.2,1-5c0-1.7-0.4-3.2-1.1-4.4c-0.7-1.2-1.6-2.2-2.7-3
								c-1.1-0.8-2.3-1.5-3.6-2c-1.2-0.5-2.6-1-4-1.4c-1.3-0.4-2.6-0.8-3.9-1.2c-1.2-0.4-2.3-0.8-3.2-1.4c-0.9-0.5-1.6-1.1-2.1-1.8
								c-0.5-0.6-0.7-1.4-0.7-2.4c0-0.8,0.2-1.6,0.6-2.3c0.4-0.8,0.9-1.4,1.6-2c0.7-0.6,1.6-1.1,2.6-1.4c1-0.4,2.2-0.5,3.5-0.5
								c1.4,0,2.6,0.1,3.6,0.4c1,0.3,1.8,0.6,2.5,1c0.7,0.4,1.2,0.7,1.7,1c0.6,0.5,1.2,0.7,1.7,0.7c0.7,0,1.4-0.4,1.7-1l0.8-1.2
								l0.4-0.7l-0.6-0.6c-1.6-1.5-3.4-2.6-5.3-3.3C1528.2,467.8,1526,467.4,1523.6,467.4L1523.6,467.4z"/>
						</g>
					</g>
				</g>
			</g>
		</g>
	</g>
</g>
</svg>
