<svg id="Camada_1" data-name="Camada 1" xmlns="http://www.w3.org/2000/svg" xmlns:xlink="http://www.w3.org/1999/xlink" viewBox="0 0 1439.03 913.36"><defs><style>.cls-1{fill:none;}.cls-2{clip-path:url(#clip-path);}.cls-3{fill:#0b151e;}.cls-4{fill:#005f87;}.cls-5{fill:#d6d6d8;}</style><clipPath id="clip-path"><rect class="cls-1" x="-0.99" y="0.18" width="1441" height="913"/></clipPath></defs><title>CLA_logo</title><g class="cls-2"><rect class="cls-3" x="-0.03" width="1439.08" height="913.36"/><polygon class="cls-4" points="1000.93 268.96 871.8 268.86 892.16 316.73 980.58 316.73 868.58 572.31 915.46 572.31 1000.93 376.3 1086.41 572.31 1133.29 572.31 1000.93 268.96"/><path class="cls-5" d="M630.14,269V594.38h76.37a133.43,133.43,0,0,0,35,31.9,136.06,136.06,0,0,0,43.55,17.42H579.25V269Z"/><path class="cls-5" d="M557.09,579.32c-20.63,11.59-43.86,17.49-69.76,17.49q-40.09,0-70.78-18a121,121,0,0,1-47.18-50q-16.49-32-16.5-71.55,0-38.55,18-70.78t48.21-51a122.1,122.1,0,0,1,65.7-18.78q36.33,0,72.3,20.72V283.22c-5.17-2-10.46-3.88-16-5.55a199.78,199.78,0,0,0-57.85-8.11q-52.26,0-93.6,24.61t-64.69,68q-23.35,43.39-23.34,97.67,0,50.74,23.08,92.85t66,67q42.87,24.87,99.19,24.86,32,0,59.12-9.89c2.83-1,5.44-2.1,8.11-3.16Z"/><path class="cls-4" d="M870.28,594.54h267.11s-44.52,49.16-133.56,49.16S870.28,594.54,870.28,594.54Z"/><polygon class="cls-5" points="1004.46 572.31 872.11 268.96 739.75 572.31 786.63 572.31 872.11 376.3 957.59 572.31 1004.46 572.31"/><path class="cls-5" d="M741.45,594.54h267.11S964,643.7,875,643.7,741.45,594.54,741.45,594.54Z"/></g></svg>