<svg id="Camada_1" data-name="Camada 1" xmlns="http://www.w3.org/2000/svg" xmlns:xlink="http://www.w3.org/1999/xlink" viewBox="0 0 1439.03 913.36"><defs><style>.cls-1{fill:none;}.cls-2{clip-path:url(#clip-path);}</style><clipPath id="clip-path"><rect class="cls-1" x="-0.47" y="-0.14" width="1441" height="913"/></clipPath></defs><title>CLA_logo</title><g class="cls-2"><polygon points="876.08 269.43 896.32 317.03 896.91 317.03 876.11 269.37 876.08 269.43"/><polygon points="1002.38 269.37 897.05 269.28 917.89 317.03 982.07 317.03 949.91 390.42 973.11 443.59 1002.38 376.46 1087.67 572.04 1134.44 572.04 1002.38 269.37"/><polygon points="905.46 491.86 870.32 572.04 917.09 572.04 928.76 545.29 905.46 491.86"/><path d="M631.58,269.36v324.7h76.21a133.13,133.13,0,0,0,34.91,31.83,135.76,135.76,0,0,0,43.46,17.38H580.8V269.36Z"/><path d="M558.69,579c-20.59,11.57-43.76,17.45-69.61,17.45q-40,0-70.63-18a120.76,120.76,0,0,1-47.08-49.86q-16.45-31.9-16.46-71.39,0-38.47,18-70.63T421,335.77A121.83,121.83,0,0,1,486.55,317q36.25,0,72.14,20.68V283.59c-5.16-2-10.43-3.87-15.94-5.54A199.34,199.34,0,0,0,485,270q-52.14,0-93.4,24.55t-64.55,67.83q-23.3,43.29-23.29,97.46,0,50.63,23,92.65t65.82,66.82q42.78,24.81,99,24.8,31.9,0,59-9.87c2.82-1,5.43-2.1,8.1-3.15Z"/><polygon points="1008.17 572.04 876.11 269.37 744.05 572.04 790.82 572.04 876.11 376.46 961.4 572.04 1008.17 572.04"/><path d="M742.85,594.23h266.52S965,643.28,876.11,643.28,742.85,594.23,742.85,594.23Z"/><path d="M1035.31,594.23l-11.69,12.91c-1.17,1.3-17.84,19.29-50,34.41a229.25,229.25,0,0,0,28.31,1.73c88.84,0,133.26-49.05,133.26-49.05Z"/></g></svg>