<svg id="Camada_1" data-name="Camada 1" xmlns="http://www.w3.org/2000/svg" xmlns:xlink="http://www.w3.org/1999/xlink" viewBox="0 0 1439.03 913.36"><defs><style>.cls-1{fill:none;}.cls-2{clip-path:url(#clip-path);}.cls-3{fill:#111;}.cls-4{fill:#6a6a6a;}.cls-5{fill:#e6e6e6;}</style><clipPath id="clip-path"><rect class="cls-1" x="-0.47" y="-0.14" width="1441" height="913"/></clipPath></defs><title>CLA_logo</title><g class="cls-2"><rect class="cls-3" x="-23.95" y="-13.17" width="1486.95" height="958.77"/></g><polygon class="cls-4" points="1000.96 268.96 871.83 268.86 892.18 316.73 980.61 316.73 868.61 572.31 915.48 572.31 1000.96 376.3 1086.44 572.31 1133.31 572.31 1000.96 268.96"/><path class="cls-5" d="M630.17,269V594.38h76.37a133.43,133.43,0,0,0,35,31.9,136.06,136.06,0,0,0,43.55,17.42H579.27V269Z"/><path class="cls-5" d="M557.12,579.32c-20.63,11.59-43.86,17.49-69.76,17.49q-40.09,0-70.78-18a121,121,0,0,1-47.18-50q-16.49-32-16.5-71.55,0-38.55,18-70.78t48.21-51a122.1,122.1,0,0,1,65.7-18.78q36.33,0,72.3,20.72V283.22c-5.17-2-10.46-3.88-16-5.55a199.78,199.78,0,0,0-57.85-8.11q-52.26,0-93.6,24.61t-64.69,68q-23.35,43.39-23.34,97.67,0,50.74,23.08,92.85t66,67q42.87,24.87,99.19,24.86,32,0,59.12-9.89c2.83-1,5.44-2.1,8.11-3.16Z"/><path class="cls-4" d="M870.31,594.54h267.11s-44.52,49.16-133.56,49.16S870.31,594.54,870.31,594.54Z"/><polygon class="cls-5" points="1004.49 572.31 872.13 268.96 739.78 572.31 786.65 572.31 872.13 376.3 957.61 572.31 1004.49 572.31"/><path class="cls-5" d="M741.48,594.54h267.11S964.07,643.7,875,643.7,741.48,594.54,741.48,594.54Z"/></svg>