<svg id="Camada_1" data-name="Camada 1" xmlns="http://www.w3.org/2000/svg" xmlns:xlink="http://www.w3.org/1999/xlink" viewBox="0 0 1127 939"><defs><style>.cls-1{fill:none;}.cls-2{clip-path:url(#clip-path);}</style><clipPath id="clip-path"><rect class="cls-1" width="1127" height="939"/></clipPath></defs><title>CLA_logo</title><g class="cls-2"><polygon points="693.79 167.75 710.63 207.36 711.12 207.36 693.81 167.7 693.79 167.75"/><polygon points="798.89 167.7 711.24 167.63 728.58 207.36 781.99 207.36 755.22 268.44 774.53 312.68 798.89 256.82 869.86 419.57 908.78 419.57 798.89 167.7"/><polygon points="718.23 352.85 688.99 419.57 727.91 419.57 737.62 397.31 718.23 352.85"/><path d="M490.33,167.7V437.9h63.41a110.79,110.79,0,0,0,29,26.49A113,113,0,0,0,619,478.85H448.07V167.7Z"/><path d="M429.67,425.4c-17.13,9.63-36.42,14.52-57.92,14.52q-33.28,0-58.77-15a100.49,100.49,0,0,1-39.18-41.49q-13.69-26.55-13.7-59.4a118.46,118.46,0,0,1,15-58.77,114.86,114.86,0,0,1,40-42.33,101.38,101.38,0,0,1,54.55-15.59q30.16,0,60,17.21v-45c-4.29-1.65-8.68-3.22-13.27-4.61a165.88,165.88,0,0,0-48-6.74q-43.39,0-77.72,20.43a143.35,143.35,0,0,0-53.71,56.45q-19.39,36-19.38,81.1,0,42.13,19.16,77.09t54.77,55.61q35.6,20.65,82.36,20.64a142.33,142.33,0,0,0,49.09-8.21c2.35-.86,4.52-1.74,6.74-2.62Z"/><polygon points="803.71 419.57 693.81 167.7 583.92 419.57 622.84 419.57 693.81 256.82 764.79 419.57 803.71 419.57"/><path d="M582.92,438H804.71s-37,40.82-110.89,40.82S582.92,438,582.92,438Z"/><path d="M826.29,438l-9.73,10.74c-1,1.08-14.84,16-41.57,28.64a190.77,190.77,0,0,0,23.56,1.44c73.93,0,110.89-40.82,110.89-40.82Z"/><path d="M280.57,652.85a.82.82,0,0,1,.61.26l1.43,1.54a23.53,23.53,0,0,1-3.44,3A21.37,21.37,0,0,1,275.1,660a24.28,24.28,0,0,1-4.84,1.47,30.31,30.31,0,0,1-5.79.52,24.55,24.55,0,0,1-9.66-1.85,21.49,21.49,0,0,1-7.53-5.23,24.17,24.17,0,0,1-4.89-8.19A31,31,0,0,1,240.64,636a29.47,29.47,0,0,1,1.81-10.54,23.91,23.91,0,0,1,5.09-8.19,22.77,22.77,0,0,1,7.86-5.3,26.27,26.27,0,0,1,10.09-1.88,28.83,28.83,0,0,1,5,.41,22.89,22.89,0,0,1,4.29,1.18,19.81,19.81,0,0,1,3.75,1.92,28.67,28.67,0,0,1,3.44,2.65l-1.11,1.61a1,1,0,0,1-.89.43,1.52,1.52,0,0,1-.82-.37l-1.28-.93c-.51-.37-1.14-.78-1.86-1.22a15.32,15.32,0,0,0-2.6-1.21,21.48,21.48,0,0,0-3.48-.93,24.19,24.19,0,0,0-4.48-.38,22,22,0,0,0-8.49,1.6,18.84,18.84,0,0,0-6.67,4.55,20.62,20.62,0,0,0-4.36,7.16A27,27,0,0,0,244.4,636a27.92,27.92,0,0,0,1.54,9.6,20.72,20.72,0,0,0,4.27,7.16,18.53,18.53,0,0,0,6.43,4.48,20.64,20.64,0,0,0,8,1.56,29.33,29.33,0,0,0,4.86-.36,19.38,19.38,0,0,0,3.92-1.07,17.9,17.9,0,0,0,3.34-1.76,25,25,0,0,0,3-2.43,2.63,2.63,0,0,1,.33-.23A.75.75,0,0,1,280.57,652.85Z"/><path d="M315.18,661.38a1.23,1.23,0,0,1-1.33-1l-.5-4.55c-1,1-2,1.81-2.92,2.58a17.26,17.26,0,0,1-3,1.93,15.11,15.11,0,0,1-3.41,1.21,18.44,18.44,0,0,1-4,.41,11.81,11.81,0,0,1-3.55-.54,8.77,8.77,0,0,1-3-1.65,8.12,8.12,0,0,1-2.13-2.85,9.88,9.88,0,0,1-.81-4.18,7.4,7.4,0,0,1,1.29-4.19,10.61,10.61,0,0,1,4-3.37,26.68,26.68,0,0,1,7.06-2.29,62.58,62.58,0,0,1,10.38-1v-3.73q0-4.95-2.13-7.61a7.61,7.61,0,0,0-6.32-2.67,11.85,11.85,0,0,0-4.39.72,15.81,15.81,0,0,0-3.06,1.57,19.88,19.88,0,0,0-2,1.58,2.2,2.2,0,0,1-1.33.72,1.14,1.14,0,0,1-1.07-.65l-.61-1a20.76,20.76,0,0,1,5.88-4.23,16.38,16.38,0,0,1,7-1.43,12.81,12.81,0,0,1,5,.91,9.31,9.31,0,0,1,3.56,2.62,11.4,11.4,0,0,1,2.14,4.12,19,19,0,0,1,.72,5.39v23.22Zm-14.34-1.9a15,15,0,0,0,3.82-.45,14.13,14.13,0,0,0,3.23-1.25,15.65,15.65,0,0,0,2.78-1.92q1.29-1.11,2.54-2.4v-9.29a64.21,64.21,0,0,0-8.77.77,25.41,25.41,0,0,0-6.05,1.7,8.82,8.82,0,0,0-3.52,2.57,5.42,5.42,0,0,0-1.13,3.38,7.44,7.44,0,0,0,.59,3.1,6.27,6.27,0,0,0,1.56,2.15,6.16,6.16,0,0,0,2.26,1.24A9.07,9.07,0,0,0,300.84,659.49Zm13.23-40h-2.33a1.25,1.25,0,0,1-1-.43l-5.59-5.84a1.6,1.6,0,0,1-.4-.4.78.78,0,0,1-.18.23l-.18.16-5.62,5.84a1.81,1.81,0,0,1-.44.3,1.14,1.14,0,0,1-.54.12h-2.4l7.81-8.81h3Z"/><path d="M327.29,662V626.3h1.87a1,1,0,0,1,1.07.89l.33,5.16a22.36,22.36,0,0,1,2.22-2.69,14.75,14.75,0,0,1,2.52-2.09,11.42,11.42,0,0,1,2.87-1.36,10.42,10.42,0,0,1,3.2-.49,8.54,8.54,0,0,1,6.24,2.28,11.9,11.9,0,0,1,3.16,6.32,12.32,12.32,0,0,1,1.8-3.83,11.43,11.43,0,0,1,2.67-2.67,11.09,11.09,0,0,1,3.27-1.58,13,13,0,0,1,3.63-.52,12.33,12.33,0,0,1,4.76.88,9.58,9.58,0,0,1,3.59,2.6,11.8,11.8,0,0,1,2.27,4.23,19,19,0,0,1,.79,5.73V662h-3.4v-22.8q0-5.23-2.26-8a7.87,7.87,0,0,0-6.45-2.74,9.58,9.58,0,0,0-3.57.68,8.6,8.6,0,0,0-3,2,9.8,9.8,0,0,0-2.08,3.35,13,13,0,0,0-.77,4.66V662h-3.41v-22.8q0-5.19-2.08-8a7.12,7.12,0,0,0-6.06-2.75,9.15,9.15,0,0,0-5.37,1.73A16.53,16.53,0,0,0,330.7,635V662Z"/><path d="M407.08,661.38a1.23,1.23,0,0,1-1.33-1l-.5-4.55c-1,1-2,1.81-2.92,2.58a17.26,17.26,0,0,1-3,1.93,15.11,15.11,0,0,1-3.41,1.21,18.44,18.44,0,0,1-4,.41,11.81,11.81,0,0,1-3.55-.54,8.77,8.77,0,0,1-3-1.65,8.12,8.12,0,0,1-2.13-2.85,9.88,9.88,0,0,1-.81-4.18,7.4,7.4,0,0,1,1.29-4.19,10.61,10.61,0,0,1,4-3.37,26.68,26.68,0,0,1,7.06-2.29,62.58,62.58,0,0,1,10.38-1v-3.73q0-4.95-2.13-7.61a7.61,7.61,0,0,0-6.32-2.67,11.85,11.85,0,0,0-4.39.72,15.81,15.81,0,0,0-3.06,1.57,19.88,19.88,0,0,0-2,1.58,2.2,2.2,0,0,1-1.33.72,1.14,1.14,0,0,1-1.07-.65l-.61-1a20.76,20.76,0,0,1,5.88-4.23,16.38,16.38,0,0,1,7-1.43,12.81,12.81,0,0,1,5,.91,9.31,9.31,0,0,1,3.56,2.62,11.4,11.4,0,0,1,2.14,4.12,19,19,0,0,1,.72,5.39v23.22Zm-14.34-1.9a15,15,0,0,0,3.82-.45,14.13,14.13,0,0,0,3.23-1.25,15.65,15.65,0,0,0,2.78-1.92q1.29-1.11,2.54-2.4v-9.29a64.21,64.21,0,0,0-8.77.77,25.41,25.41,0,0,0-6.05,1.7,8.82,8.82,0,0,0-3.52,2.57,5.42,5.42,0,0,0-1.13,3.38,7.44,7.44,0,0,0,.59,3.1,6.27,6.27,0,0,0,1.56,2.15,6.16,6.16,0,0,0,2.26,1.24A9.07,9.07,0,0,0,392.73,659.49Z"/><path d="M419.19,662V626.3H421a1.29,1.29,0,0,1,.88.25,1.27,1.27,0,0,1,.3.86l.29,7.53a17,17,0,0,1,4.59-6.8,10.47,10.47,0,0,1,7.05-2.45,12.34,12.34,0,0,1,3,.33,11.89,11.89,0,0,1,2.58,1l-.47,2.36a.64.64,0,0,1-.72.58,2,2,0,0,1-.61-.14c-.26-.1-.59-.2-1-.33a12,12,0,0,0-1.45-.32,11.49,11.49,0,0,0-2-.15,9.16,9.16,0,0,0-6.64,2.51,17.87,17.87,0,0,0-4.22,7.24V662Z"/><path d="M468.62,661.38a1.23,1.23,0,0,1-1.33-1l-.5-4.55c-1,1-2,1.81-2.92,2.58a17.26,17.26,0,0,1-3,1.93,15.11,15.11,0,0,1-3.41,1.21,18.44,18.44,0,0,1-4,.41,11.81,11.81,0,0,1-3.55-.54,8.77,8.77,0,0,1-3-1.65,8.12,8.12,0,0,1-2.13-2.85,9.88,9.88,0,0,1-.81-4.18,7.4,7.4,0,0,1,1.29-4.19,10.61,10.61,0,0,1,4-3.37,26.68,26.68,0,0,1,7.06-2.29,62.58,62.58,0,0,1,10.38-1v-3.73q0-4.95-2.13-7.61a7.61,7.61,0,0,0-6.32-2.67,11.85,11.85,0,0,0-4.39.72,15.81,15.81,0,0,0-3.06,1.57,19.88,19.88,0,0,0-2,1.58,2.2,2.2,0,0,1-1.33.72,1.14,1.14,0,0,1-1.07-.65l-.61-1a20.76,20.76,0,0,1,5.88-4.23,16.38,16.38,0,0,1,7-1.43,12.81,12.81,0,0,1,5,.91,9.31,9.31,0,0,1,3.56,2.62,11.4,11.4,0,0,1,2.14,4.12,19,19,0,0,1,.72,5.39v23.22Zm-14.34-1.9a15,15,0,0,0,3.82-.45,14.13,14.13,0,0,0,3.23-1.25,15.65,15.65,0,0,0,2.78-1.92q1.29-1.11,2.54-2.4v-9.29a64.21,64.21,0,0,0-8.77.77,25.41,25.41,0,0,0-6.05,1.7,8.82,8.82,0,0,0-3.52,2.57,5.42,5.42,0,0,0-1.13,3.38,7.44,7.44,0,0,0,.59,3.1,6.27,6.27,0,0,0,1.56,2.15,6.16,6.16,0,0,0,2.26,1.24A9.07,9.07,0,0,0,454.28,659.49Z"/><path d="M508.83,658.84h24V662h-27.7V611.25h3.66Z"/><path d="M546,614a2.74,2.74,0,0,1-.27,1.21,3.56,3.56,0,0,1-.7,1,3.21,3.21,0,0,1-1,.68,3.1,3.1,0,0,1-2.43,0,3.31,3.31,0,0,1-1-.68,3.36,3.36,0,0,1-.68-1,3,3,0,0,1-.25-1.21,3.15,3.15,0,0,1,.25-1.23,3.25,3.25,0,0,1,.68-1,3.17,3.17,0,0,1,1-.68,3,3,0,0,1,2.43,0,3.09,3.09,0,0,1,1,.68,3.43,3.43,0,0,1,.7,1A2.92,2.92,0,0,1,546,614Zm-1.51,12.3V662h-3.4V626.3Z"/><path d="M557.5,661.49V609.34h3.4l0,22.73a18.76,18.76,0,0,1,5.48-5,13.67,13.67,0,0,1,7-1.83q6.56,0,10.24,4.53t3.67,13.64a25,25,0,0,1-1,7.29,17.1,17.1,0,0,1-3,5.88,14.3,14.3,0,0,1-4.88,3.93,14.86,14.86,0,0,1-6.65,1.43,12.48,12.48,0,0,1-11.06-5.73l-.21,4.37a.88.88,0,0,1-1,.89Zm15-33.51a11.7,11.7,0,0,0-6.42,1.83,18.1,18.1,0,0,0-5.13,5.09v18.81a12.18,12.18,0,0,0,4.53,4.32,13.85,13.85,0,0,0,11.23.09,10.84,10.84,0,0,0,4-3.24,14.75,14.75,0,0,0,2.41-5,24.2,24.2,0,0,0,.8-6.43q0-8-2.94-11.71T572.45,628Z"/><path d="M609.71,625.26a14.7,14.7,0,0,1,5.58,1,12.5,12.5,0,0,1,4.44,3,13.84,13.84,0,0,1,2.94,4.89,19.37,19.37,0,0,1,1.06,6.67,1.8,1.8,0,0,1-.23,1.08.9.9,0,0,1-.73.29H597v.68A24.16,24.16,0,0,0,598,650a14.48,14.48,0,0,0,2.65,5.1,11,11,0,0,0,4.16,3.1,13.73,13.73,0,0,0,5.44,1,16.51,16.51,0,0,0,4.66-.59,17.43,17.43,0,0,0,3.31-1.33,18.69,18.69,0,0,0,2.13-1.32,2.41,2.41,0,0,1,1.15-.59.81.81,0,0,1,.72.36l.93,1.14a9.73,9.73,0,0,1-2.28,2,16.15,16.15,0,0,1-3.15,1.59,23.1,23.1,0,0,1-3.73,1.06,20.43,20.43,0,0,1-4,.4,16.94,16.94,0,0,1-6.67-1.28,14.21,14.21,0,0,1-5.17-3.71,17,17,0,0,1-3.33-6,25.48,25.48,0,0,1-1.17-8.08,22,22,0,0,1,1.09-7.08,16.2,16.2,0,0,1,3.16-5.59,14.29,14.29,0,0,1,5-3.67A16.58,16.58,0,0,1,609.71,625.26Zm.05,2.54a13.34,13.34,0,0,0-4.94.86,10.82,10.82,0,0,0-3.77,2.47,12.44,12.44,0,0,0-2.57,3.87,17.3,17.3,0,0,0-1.31,5h23.47a15.79,15.79,0,0,0-.79-5.14,11,11,0,0,0-2.22-3.85,9.52,9.52,0,0,0-3.43-2.42A11.38,11.38,0,0,0,609.76,627.8Z"/><path d="M632.89,662V626.3h1.8a1.29,1.29,0,0,1,.88.25,1.27,1.27,0,0,1,.3.86l.29,7.53a17,17,0,0,1,4.59-6.8,10.47,10.47,0,0,1,7.05-2.45,12.34,12.34,0,0,1,3,.33,11.89,11.89,0,0,1,2.58,1l-.47,2.36a.64.64,0,0,1-.72.58,2,2,0,0,1-.61-.14c-.26-.1-.59-.2-1-.33a12,12,0,0,0-1.45-.32,11.49,11.49,0,0,0-2-.15,9.16,9.16,0,0,0-6.64,2.51,17.87,17.87,0,0,0-4.22,7.24V662Z"/><path d="M671.07,662a7.6,7.6,0,0,1-5.62-2q-2-2-2-6.21V629.38h-5.13a.93.93,0,0,1-.65-.22.73.73,0,0,1-.25-.61v-1.32l6.09-.44.85-12.76a1,1,0,0,1,.27-.58.8.8,0,0,1,.61-.25h1.6v13.62h11.22v2.54H666.84v24.19a7.6,7.6,0,0,0,.37,2.53,4.71,4.71,0,0,0,1,1.74,4.07,4.07,0,0,0,1.56,1,5.81,5.81,0,0,0,1.94.32,6,6,0,0,0,2.22-.37,9.7,9.7,0,0,0,1.61-.82,10.62,10.62,0,0,0,1.11-.82,1.23,1.23,0,0,1,.68-.37.77.77,0,0,1,.58.36l.93,1.5a9.91,9.91,0,0,1-3.46,2.42A10.71,10.71,0,0,1,671.07,662Z"/><path d="M709.66,661.38a1.23,1.23,0,0,1-1.33-1l-.5-4.55c-1,1-2,1.81-2.92,2.58a17.26,17.26,0,0,1-3,1.93,15.11,15.11,0,0,1-3.41,1.21,18.44,18.44,0,0,1-4,.41,11.81,11.81,0,0,1-3.55-.54,8.77,8.77,0,0,1-3-1.65,8.12,8.12,0,0,1-2.13-2.85,9.88,9.88,0,0,1-.81-4.18,7.4,7.4,0,0,1,1.29-4.19,10.61,10.61,0,0,1,4-3.37,26.68,26.68,0,0,1,7.06-2.29,62.58,62.58,0,0,1,10.38-1v-3.73q0-4.95-2.13-7.61a7.61,7.61,0,0,0-6.32-2.67,11.85,11.85,0,0,0-4.39.72,15.81,15.81,0,0,0-3.06,1.57,19.88,19.88,0,0,0-2,1.58,2.2,2.2,0,0,1-1.33.72,1.14,1.14,0,0,1-1.07-.65l-.61-1a20.76,20.76,0,0,1,5.88-4.23,16.38,16.38,0,0,1,7-1.43,12.81,12.81,0,0,1,5,.91,9.31,9.31,0,0,1,3.56,2.62,11.4,11.4,0,0,1,2.14,4.12,19,19,0,0,1,.72,5.39v23.22Zm-14.34-1.9a15,15,0,0,0,3.82-.45,14.13,14.13,0,0,0,3.23-1.25,15.65,15.65,0,0,0,2.78-1.92q1.29-1.11,2.54-2.4v-9.29a64.21,64.21,0,0,0-8.77.77,25.41,25.41,0,0,0-6.05,1.7,8.82,8.82,0,0,0-3.52,2.57,5.42,5.42,0,0,0-1.13,3.38,7.44,7.44,0,0,0,.59,3.1,6.27,6.27,0,0,0,1.56,2.15,6.16,6.16,0,0,0,2.26,1.24A9.07,9.07,0,0,0,695.32,659.49Zm12-49.39-7.74,9.07a1.56,1.56,0,0,1-.59.48,1.89,1.89,0,0,1-.73.12h-2l5.62-8.53a2,2,0,0,1,2.12-1.14Z"/><path d="M721.77,662V626.3h1.8a1.29,1.29,0,0,1,.88.25,1.27,1.27,0,0,1,.3.86l.29,7.53a17,17,0,0,1,4.59-6.8,10.47,10.47,0,0,1,7.05-2.45,12.34,12.34,0,0,1,3,.33,11.89,11.89,0,0,1,2.58,1l-.47,2.36a.64.64,0,0,1-.72.58,2,2,0,0,1-.61-.14c-.26-.1-.59-.2-1-.33a12,12,0,0,0-1.45-.32,11.49,11.49,0,0,0-2-.15,9.16,9.16,0,0,0-6.64,2.51,17.87,17.87,0,0,0-4.22,7.24V662Z"/><path d="M756.15,614a2.74,2.74,0,0,1-.27,1.21,3.56,3.56,0,0,1-.7,1,3.21,3.21,0,0,1-1,.68,3.1,3.1,0,0,1-2.43,0,3.31,3.31,0,0,1-1-.68,3.36,3.36,0,0,1-.68-1,3,3,0,0,1-.25-1.21,3.15,3.15,0,0,1,.25-1.23,3.25,3.25,0,0,1,.68-1,3.17,3.17,0,0,1,1-.68,3,3,0,0,1,2.43,0,3.09,3.09,0,0,1,1,.68,3.43,3.43,0,0,1,.7,1A2.92,2.92,0,0,1,756.15,614Zm-1.51,12.3V662h-3.4V626.3Z"/><path d="M790,661.38a1.23,1.23,0,0,1-1.33-1l-.5-4.55c-1,1-2,1.81-2.92,2.58a17.26,17.26,0,0,1-3,1.93,15.11,15.11,0,0,1-3.41,1.21,18.44,18.44,0,0,1-4,.41,11.81,11.81,0,0,1-3.55-.54,8.77,8.77,0,0,1-3-1.65,8.12,8.12,0,0,1-2.13-2.85,9.88,9.88,0,0,1-.81-4.18,7.4,7.4,0,0,1,1.29-4.19,10.61,10.61,0,0,1,4-3.37,26.68,26.68,0,0,1,7.06-2.29,62.58,62.58,0,0,1,10.38-1v-3.73q0-4.95-2.13-7.61a7.61,7.61,0,0,0-6.32-2.67,11.85,11.85,0,0,0-4.39.72,15.81,15.81,0,0,0-3.06,1.57,19.88,19.88,0,0,0-2,1.58,2.2,2.2,0,0,1-1.33.72,1.14,1.14,0,0,1-1.07-.65l-.61-1a20.76,20.76,0,0,1,5.88-4.23,16.38,16.38,0,0,1,7-1.43,12.81,12.81,0,0,1,5,.91,9.31,9.31,0,0,1,3.56,2.62,11.4,11.4,0,0,1,2.14,4.12,19,19,0,0,1,.72,5.39v23.22Zm-14.34-1.9a15,15,0,0,0,3.82-.45,14.13,14.13,0,0,0,3.23-1.25,15.65,15.65,0,0,0,2.78-1.92q1.29-1.11,2.54-2.4v-9.29a64.21,64.21,0,0,0-8.77.77,25.41,25.41,0,0,0-6.05,1.7,8.82,8.82,0,0,0-3.52,2.57,5.42,5.42,0,0,0-1.13,3.38,7.44,7.44,0,0,0,.59,3.1,6.27,6.27,0,0,0,1.56,2.15,6.16,6.16,0,0,0,2.26,1.24A9.07,9.07,0,0,0,775.68,659.49Z"/><path d="M853.36,661.49a1,1,0,0,1-1-.93l-.36-5.62a19,19,0,0,1-5.55,5.13,13.6,13.6,0,0,1-7.12,1.9q-6.57,0-10.24-4.55t-3.68-13.66a25.33,25.33,0,0,1,1-7.3,17.28,17.28,0,0,1,3-5.87,14.3,14.3,0,0,1,4.88-3.93,14.76,14.76,0,0,1,6.66-1.43,13.68,13.68,0,0,1,6.28,1.35,13.18,13.18,0,0,1,4.6,3.92V609.34h3.4v52.15Zm-13.08-2.29a11.72,11.72,0,0,0,6.42-1.83,18.31,18.31,0,0,0,5.13-5.09V633.47a12.65,12.65,0,0,0-15.76-4.41,10.72,10.72,0,0,0-4,3.24,14.68,14.68,0,0,0-2.41,5,24.15,24.15,0,0,0-.81,6.43q0,8,2.95,11.71T840.28,659.2Z"/><path d="M880.64,625.26a14.7,14.7,0,0,1,5.58,1,12.5,12.5,0,0,1,4.44,3,13.84,13.84,0,0,1,2.94,4.89,19.37,19.37,0,0,1,1.06,6.67,1.8,1.8,0,0,1-.23,1.08.9.9,0,0,1-.73.29H868v.68a24.16,24.16,0,0,0,.93,7.06,14.48,14.48,0,0,0,2.65,5.1,11,11,0,0,0,4.16,3.1,13.73,13.73,0,0,0,5.44,1,16.51,16.51,0,0,0,4.66-.59,17.43,17.43,0,0,0,3.31-1.33,18.69,18.69,0,0,0,2.13-1.32,2.41,2.41,0,0,1,1.15-.59.81.81,0,0,1,.72.36l.93,1.14a9.73,9.73,0,0,1-2.28,2,16.15,16.15,0,0,1-3.15,1.59,23.1,23.1,0,0,1-3.73,1.06,20.43,20.43,0,0,1-4,.4,16.94,16.94,0,0,1-6.67-1.28,14.21,14.21,0,0,1-5.17-3.71,17,17,0,0,1-3.33-6,25.48,25.48,0,0,1-1.17-8.08,22,22,0,0,1,1.09-7.08,16.2,16.2,0,0,1,3.16-5.59,14.29,14.29,0,0,1,5-3.67A16.58,16.58,0,0,1,880.64,625.26Zm.05,2.54a13.34,13.34,0,0,0-4.94.86,10.82,10.82,0,0,0-3.77,2.47,12.44,12.44,0,0,0-2.57,3.87,17.3,17.3,0,0,0-1.31,5h23.47a15.79,15.79,0,0,0-.79-5.14,11,11,0,0,0-2.22-3.85,9.52,9.52,0,0,0-3.43-2.42A11.38,11.38,0,0,0,880.7,627.8Z"/><path d="M263.75,758.09h-2.83a1.25,1.25,0,0,1-.82-.27,1.82,1.82,0,0,1-.5-.69l-6-14.73h-24.9l-5.95,14.73a1.57,1.57,0,0,1-.51.68,1.31,1.31,0,0,1-.86.29h-2.8l20.75-50.71H243Zm-33.94-18.42h22.73L242.18,714c-.16-.4-.33-.87-.5-1.38s-.33-1.06-.51-1.63c-.16.57-.33,1.11-.5,1.63s-.33,1-.51,1.42Z"/><path d="M293.54,727.19c-.12.12-.23.22-.34.3a.71.71,0,0,1-.45.12,1.88,1.88,0,0,1-1-.48,13.92,13.92,0,0,0-1.67-1.06,14.32,14.32,0,0,0-2.6-1.06,13,13,0,0,0-3.78-.48,13.09,13.09,0,0,0-5.47,1.09,10.94,10.94,0,0,0-4,3.14,14.5,14.5,0,0,0-2.49,4.95,22.8,22.8,0,0,0-.86,6.52,23.11,23.11,0,0,0,.88,6.67,14.16,14.16,0,0,0,2.5,4.89,10.52,10.52,0,0,0,3.9,3,12.19,12.19,0,0,0,5.09,1,13.31,13.31,0,0,0,4.32-.61,13.93,13.93,0,0,0,2.86-1.33,12.86,12.86,0,0,0,1.8-1.32,1.84,1.84,0,0,1,1-.61.83.83,0,0,1,.72.36l.93,1.14a10.24,10.24,0,0,1-2.08,2,14.22,14.22,0,0,1-2.83,1.62,18,18,0,0,1-3.42,1.06,19.36,19.36,0,0,1-3.85.37,15.3,15.3,0,0,1-6.22-1.24,13.54,13.54,0,0,1-4.84-3.59,16.76,16.76,0,0,1-3.15-5.75,26.79,26.79,0,0,1-.05-15.2,16.71,16.71,0,0,1,3.13-5.81,14,14,0,0,1,5.06-3.78,16.58,16.58,0,0,1,6.86-1.35,16.2,16.2,0,0,1,6.18,1.11,15.09,15.09,0,0,1,4.71,3Z"/><path d="M316.26,721.85a17,17,0,0,1,6.86,1.31,14,14,0,0,1,5.11,3.7,16.49,16.49,0,0,1,3.17,5.79,26.87,26.87,0,0,1,0,15.14,16.48,16.48,0,0,1-3.17,5.76,13.81,13.81,0,0,1-5.11,3.69,18.89,18.89,0,0,1-13.73,0,14,14,0,0,1-5.12-3.69,16.28,16.28,0,0,1-3.2-5.76,26.87,26.87,0,0,1,0-15.14,16.29,16.29,0,0,1,3.2-5.79,14.16,14.16,0,0,1,5.12-3.7A17.06,17.06,0,0,1,316.26,721.85Zm0,34a13.2,13.2,0,0,0,5.57-1.09,10.57,10.57,0,0,0,4-3.13,13.8,13.8,0,0,0,2.38-4.93,26.69,26.69,0,0,0,0-12.92,13.83,13.83,0,0,0-2.38-5,10.59,10.59,0,0,0-4-3.17,14.52,14.52,0,0,0-11.15,0,10.62,10.62,0,0,0-4,3.17,14.12,14.12,0,0,0-2.4,5,26.19,26.19,0,0,0,0,12.92,14.1,14.1,0,0,0,2.4,4.93,10.6,10.6,0,0,0,4,3.13A13.24,13.24,0,0,0,316.26,755.86Z"/><path d="M341.45,758.09V722.43h1.8a1.29,1.29,0,0,1,.88.25,1.27,1.27,0,0,1,.3.86l.29,7.53a17,17,0,0,1,4.59-6.8,10.47,10.47,0,0,1,7.05-2.45,12.34,12.34,0,0,1,3,.33,11.89,11.89,0,0,1,2.58,1l-.47,2.36a.64.64,0,0,1-.72.58,2,2,0,0,1-.61-.14c-.26-.1-.59-.2-1-.33a12,12,0,0,0-1.45-.32,11.49,11.49,0,0,0-2-.15,9.16,9.16,0,0,0-6.64,2.51,17.87,17.87,0,0,0-4.22,7.24v23.18Z"/><path d="M395.2,758.09a1,1,0,0,1-1-.93l-.36-5.62a19,19,0,0,1-5.55,5.13,13.6,13.6,0,0,1-7.12,1.9q-6.57,0-10.24-4.55t-3.68-13.66a25.33,25.33,0,0,1,1-7.3,17.28,17.28,0,0,1,3-5.87,14.3,14.3,0,0,1,4.88-3.93,14.76,14.76,0,0,1,6.66-1.43,13.68,13.68,0,0,1,6.28,1.35,13.18,13.18,0,0,1,4.6,3.92V705.94h3.4v52.15Zm-13.08-2.29a11.72,11.72,0,0,0,6.42-1.83,18.31,18.31,0,0,0,5.13-5.09V730.06a12.65,12.65,0,0,0-15.76-4.41,10.72,10.72,0,0,0-4,3.24,14.68,14.68,0,0,0-2.41,5,24.15,24.15,0,0,0-.81,6.43q0,8,2.95,11.71T382.12,755.79Z"/><path d="M422.63,721.85a17,17,0,0,1,6.86,1.31,14,14,0,0,1,5.11,3.7,16.49,16.49,0,0,1,3.17,5.79,26.87,26.87,0,0,1,0,15.14,16.48,16.48,0,0,1-3.17,5.76,13.81,13.81,0,0,1-5.11,3.69,18.89,18.89,0,0,1-13.73,0,14,14,0,0,1-5.12-3.69,16.28,16.28,0,0,1-3.2-5.76,26.87,26.87,0,0,1,0-15.14,16.29,16.29,0,0,1,3.2-5.79,14.16,14.16,0,0,1,5.12-3.7A17.06,17.06,0,0,1,422.63,721.85Zm0,34a13.2,13.2,0,0,0,5.57-1.09,10.57,10.57,0,0,0,4-3.13,13.8,13.8,0,0,0,2.38-4.93,26.69,26.69,0,0,0,0-12.92,13.83,13.83,0,0,0-2.38-5,10.59,10.59,0,0,0-4-3.17,14.52,14.52,0,0,0-11.15,0,10.62,10.62,0,0,0-4,3.17,14.12,14.12,0,0,0-2.4,5,26.19,26.19,0,0,0,0,12.92,14.1,14.1,0,0,0,2.4,4.93,10.6,10.6,0,0,0,4,3.13A13.24,13.24,0,0,0,422.63,755.86Z"/><path d="M467.47,726.87a.84.84,0,0,1-.79.51,1.91,1.91,0,0,1-1-.45,17.31,17.31,0,0,0-1.65-1,14,14,0,0,0-2.51-1,12.84,12.84,0,0,0-3.63-.44,10.61,10.61,0,0,0-3.53.55,8.54,8.54,0,0,0-2.72,1.49,6.68,6.68,0,0,0-1.76,2.16,5.59,5.59,0,0,0-.63,2.59,4.39,4.39,0,0,0,.86,2.78,7.36,7.36,0,0,0,2.26,1.9,17.54,17.54,0,0,0,3.17,1.36l3.64,1.14q1.85.57,3.63,1.27a13.81,13.81,0,0,1,3.17,1.74,8.12,8.12,0,0,1,2.26,2.54,7.24,7.24,0,0,1,.86,3.66,11.13,11.13,0,0,1-.84,4.34,9.83,9.83,0,0,1-2.44,3.48,11.68,11.68,0,0,1-3.92,2.33,15.21,15.21,0,0,1-5.3.86,16,16,0,0,1-6.49-1.21,18.11,18.11,0,0,1-4.88-3.13l.82-1.22a1.41,1.41,0,0,1,.4-.43,1.09,1.09,0,0,1,.61-.14,2,2,0,0,1,1.15.57,12.7,12.7,0,0,0,1.77,1.24,14.29,14.29,0,0,0,2.72,1.24,12.07,12.07,0,0,0,4,.58,11.76,11.76,0,0,0,4-.62,8.31,8.31,0,0,0,2.86-1.7,7.16,7.16,0,0,0,1.74-2.53,8,8,0,0,0,.59-3.06,4.93,4.93,0,0,0-.86-3,7.35,7.35,0,0,0-2.26-2,16.07,16.07,0,0,0-3.17-1.39q-1.77-.58-3.66-1.15t-3.66-1.25a13.19,13.19,0,0,1-3.17-1.72,8.44,8.44,0,0,1-2.26-2.53,7.31,7.31,0,0,1-.86-3.71,8.56,8.56,0,0,1,.82-3.66,9.29,9.29,0,0,1,2.35-3.08,11.49,11.49,0,0,1,3.71-2.12,14.35,14.35,0,0,1,4.92-.79,16.47,16.47,0,0,1,5.79.95,14.22,14.22,0,0,1,4.64,2.89Z"/><path d="M511.78,722.12a14.7,14.7,0,0,1,5.58,1,12.5,12.5,0,0,1,4.44,3,13.84,13.84,0,0,1,2.94,4.89,19.37,19.37,0,0,1,1.06,6.67,1.8,1.8,0,0,1-.23,1.08.9.9,0,0,1-.73.29H499.09v.68a24.16,24.16,0,0,0,.93,7.06,14.48,14.48,0,0,0,2.65,5.1,11,11,0,0,0,4.16,3.1,13.73,13.73,0,0,0,5.44,1,16.51,16.51,0,0,0,4.66-.59,17.43,17.43,0,0,0,3.31-1.33,18.69,18.69,0,0,0,2.13-1.32,2.41,2.41,0,0,1,1.15-.59.81.81,0,0,1,.72.36l.93,1.14a9.73,9.73,0,0,1-2.28,2,16.15,16.15,0,0,1-3.15,1.59,23.1,23.1,0,0,1-3.73,1.06,20.43,20.43,0,0,1-4,.4,16.94,16.94,0,0,1-6.67-1.28,14.21,14.21,0,0,1-5.17-3.71,17,17,0,0,1-3.33-6,25.48,25.48,0,0,1-1.17-8.08,22,22,0,0,1,1.09-7.08,16.2,16.2,0,0,1,3.16-5.59,14.29,14.29,0,0,1,5-3.67A16.58,16.58,0,0,1,511.78,722.12Zm.05,2.54a13.34,13.34,0,0,0-4.94.86,10.82,10.82,0,0,0-3.77,2.47,12.44,12.44,0,0,0-2.57,3.87,17.3,17.3,0,0,0-1.31,5h23.47a15.79,15.79,0,0,0-.79-5.14,11,11,0,0,0-2.22-3.85,9.52,9.52,0,0,0-3.43-2.42A11.38,11.38,0,0,0,511.83,724.66Z"/><path d="M597.57,758.09h-2.83a1.25,1.25,0,0,1-.82-.27,1.82,1.82,0,0,1-.5-.69l-6-14.73h-24.9l-5.95,14.73a1.57,1.57,0,0,1-.51.68,1.31,1.31,0,0,1-.86.29h-2.8l20.75-50.71h3.66Zm-33.94-18.42h22.73L576,714c-.16-.4-.33-.87-.5-1.38s-.33-1.06-.51-1.63c-.16.57-.33,1.11-.5,1.63s-.33,1-.51,1.42Z"/><path d="M603.88,758.09V722.43h1.8a1.29,1.29,0,0,1,.88.25,1.27,1.27,0,0,1,.3.86l.29,7.53a17,17,0,0,1,4.59-6.8,10.47,10.47,0,0,1,7.05-2.45,12.34,12.34,0,0,1,3,.33,11.89,11.89,0,0,1,2.58,1l-.47,2.36a.64.64,0,0,1-.72.58,2,2,0,0,1-.61-.14c-.26-.1-.59-.2-1-.33a12,12,0,0,0-1.45-.32,11.49,11.49,0,0,0-2-.15,9.16,9.16,0,0,0-6.64,2.51,17.87,17.87,0,0,0-4.22,7.24v23.18Z"/><path d="M632.7,758.09V705.94h3.4l0,22.73a18.76,18.76,0,0,1,5.48-5,13.67,13.67,0,0,1,7-1.83q6.56,0,10.24,4.53T662.55,740a25,25,0,0,1-1,7.29,17.1,17.1,0,0,1-3,5.88,14.3,14.3,0,0,1-4.88,3.93,14.86,14.86,0,0,1-6.65,1.43,12.48,12.48,0,0,1-11.06-5.73l-.21,4.37a.88.88,0,0,1-1,.89Zm15-33.51a11.7,11.7,0,0,0-6.42,1.83,18.1,18.1,0,0,0-5.13,5.09v18.81a12.18,12.18,0,0,0,4.53,4.32,13.85,13.85,0,0,0,11.23.09,10.84,10.84,0,0,0,4-3.24,14.75,14.75,0,0,0,2.41-5A24.2,24.2,0,0,0,659,740q0-8-2.94-11.71T647.66,724.58Z"/><path d="M677.39,710.13a2.74,2.74,0,0,1-.27,1.21,3.56,3.56,0,0,1-.7,1,3.21,3.21,0,0,1-1,.68,3.1,3.1,0,0,1-2.43,0,3.31,3.31,0,0,1-1-.68,3.36,3.36,0,0,1-.68-1,3,3,0,0,1-.25-1.21,3.15,3.15,0,0,1,.25-1.23,3.25,3.25,0,0,1,.68-1,3.17,3.17,0,0,1,1-.68,3,3,0,0,1,2.43,0,3.09,3.09,0,0,1,1,.68,3.43,3.43,0,0,1,.7,1A2.92,2.92,0,0,1,677.39,710.13Zm-1.51,12.3v35.66h-3.4V722.43Z"/><path d="M698.21,758.66a7.6,7.6,0,0,1-5.62-2q-2-2-2-6.21V726.08h-5.13a.93.93,0,0,1-.65-.22.73.73,0,0,1-.25-.61v-1.32l6.09-.44.85-12.76a1,1,0,0,1,.27-.58.8.8,0,0,1,.61-.25H694v13.62H705.2v2.54H694v24.19a7.6,7.6,0,0,0,.37,2.53,4.71,4.71,0,0,0,1,1.74,4.07,4.07,0,0,0,1.56,1,5.81,5.81,0,0,0,1.94.32,6,6,0,0,0,2.22-.37,9.7,9.7,0,0,0,1.61-.82,10.62,10.62,0,0,0,1.11-.82,1.23,1.23,0,0,1,.68-.37.77.77,0,0,1,.58.36l.93,1.5a9.91,9.91,0,0,1-3.46,2.42A10.71,10.71,0,0,1,698.21,758.66Z"/><path d="M714,758.09V722.43h1.8a1.29,1.29,0,0,1,.88.25,1.27,1.27,0,0,1,.3.86l.29,7.53a17,17,0,0,1,4.59-6.8,10.47,10.47,0,0,1,7.05-2.45,12.34,12.34,0,0,1,3,.33,11.89,11.89,0,0,1,2.58,1l-.47,2.36a.64.64,0,0,1-.72.58,2,2,0,0,1-.61-.14c-.26-.1-.59-.2-1-.33a12,12,0,0,0-1.45-.32,11.49,11.49,0,0,0-2-.15,9.16,9.16,0,0,0-6.64,2.51,17.87,17.87,0,0,0-4.22,7.24v23.18Z"/><path d="M763.48,758.09a1.23,1.23,0,0,1-1.33-1l-.5-4.55c-1,1-2,1.81-2.92,2.58a17.26,17.26,0,0,1-3,1.93,15.11,15.11,0,0,1-3.41,1.21,18.44,18.44,0,0,1-4,.41,11.81,11.81,0,0,1-3.55-.54,8.77,8.77,0,0,1-3-1.65,8.12,8.12,0,0,1-2.13-2.85,9.88,9.88,0,0,1-.81-4.18,7.4,7.4,0,0,1,1.29-4.19,10.61,10.61,0,0,1,4-3.37,26.68,26.68,0,0,1,7.06-2.29,62.58,62.58,0,0,1,10.38-1v-3.73q0-4.95-2.13-7.61a7.61,7.61,0,0,0-6.32-2.67,11.85,11.85,0,0,0-4.39.72,15.81,15.81,0,0,0-3.06,1.57,19.88,19.88,0,0,0-2,1.58,2.2,2.2,0,0,1-1.33.72,1.14,1.14,0,0,1-1.07-.65l-.61-1a20.76,20.76,0,0,1,5.88-4.23,16.38,16.38,0,0,1,7-1.43,12.81,12.81,0,0,1,5,.91,9.31,9.31,0,0,1,3.56,2.62,11.4,11.4,0,0,1,2.14,4.12,19,19,0,0,1,.72,5.39v23.22Zm-14.34-1.9a15,15,0,0,0,3.82-.45,14.13,14.13,0,0,0,3.23-1.25,15.65,15.65,0,0,0,2.78-1.92q1.29-1.11,2.54-2.4v-9.29a64.21,64.21,0,0,0-8.77.77,25.41,25.41,0,0,0-6.05,1.7,8.82,8.82,0,0,0-3.52,2.57A5.42,5.42,0,0,0,742,749.3a7.44,7.44,0,0,0,.59,3.1,6.27,6.27,0,0,0,1.56,2.15,6.16,6.16,0,0,0,2.26,1.24A9.07,9.07,0,0,0,749.14,756.19Z"/><path d="M787.35,721.82a15.54,15.54,0,0,1,4.32.57,13.24,13.24,0,0,1,3.57,1.62h9.14v1.18c0,.6-.33.92-1,1l-5.41.4a10.41,10.41,0,0,1,1.54,3.06,12,12,0,0,1,.54,3.64,11.38,11.38,0,0,1-.93,4.67,10.42,10.42,0,0,1-2.6,3.59,12,12,0,0,1-4,2.31,15.26,15.26,0,0,1-5.16.82,15.94,15.94,0,0,1-5.59-.93,7.4,7.4,0,0,0-2.36,2,3.91,3.91,0,0,0-.86,2.29,2.79,2.79,0,0,0,1.08,2.36,7,7,0,0,0,2.85,1.2,24.65,24.65,0,0,0,4.05.48l4.62.23q2.34.13,4.62.45a14.83,14.83,0,0,1,4.05,1.13,7.23,7.23,0,0,1,2.85,2.26,6.35,6.35,0,0,1,1.07,3.86,8.83,8.83,0,0,1-1.11,4.26,11.42,11.42,0,0,1-3.2,3.62,17,17,0,0,1-5.08,2.52,21.69,21.69,0,0,1-6.67,1,24.85,24.85,0,0,1-6.59-.78,15.67,15.67,0,0,1-4.75-2.08,9.16,9.16,0,0,1-2.89-3,7.34,7.34,0,0,1-1-3.66,7,7,0,0,1,1.86-4.88,12,12,0,0,1,5.13-3.15,6.81,6.81,0,0,1-2.85-1.76,4.51,4.51,0,0,1-1.06-3.19,4.72,4.72,0,0,1,.29-1.58,6.34,6.34,0,0,1,.86-1.63,9.34,9.34,0,0,1,1.38-1.52,9.75,9.75,0,0,1,1.88-1.28,10.7,10.7,0,0,1-4-3.91,11.16,11.16,0,0,1-1.42-5.69,11.64,11.64,0,0,1,.92-4.68,10.39,10.39,0,0,1,2.58-3.6,11.55,11.55,0,0,1,4-2.33A15.76,15.76,0,0,1,787.35,721.82Zm13.22,38.67a4,4,0,0,0-.88-2.71,5.77,5.77,0,0,0-2.34-1.59,14.09,14.09,0,0,0-3.39-.81c-1.28-.16-2.61-.26-4-.34l-4.21-.21a32.5,32.5,0,0,1-3.94-.44,17,17,0,0,0-2.53,1.24,9.33,9.33,0,0,0-2,1.58,6.75,6.75,0,0,0-1.29,1.94,5.68,5.68,0,0,0-.47,2.31,5.6,5.6,0,0,0,.81,2.92,7.05,7.05,0,0,0,2.36,2.33,13.27,13.27,0,0,0,3.82,1.56,21.24,21.24,0,0,0,5.2.57,20.23,20.23,0,0,0,5.07-.61,14.13,14.13,0,0,0,4.08-1.72,8.82,8.82,0,0,0,2.73-2.65A6.16,6.16,0,0,0,800.57,760.49Zm-13.22-18.18a11.68,11.68,0,0,0,4.08-.66,8.47,8.47,0,0,0,3-1.84,7.69,7.69,0,0,0,1.85-2.83,10.33,10.33,0,0,0,.62-3.66,9.94,9.94,0,0,0-.65-3.67,7.78,7.78,0,0,0-1.88-2.85,8.61,8.61,0,0,0-3-1.83,11.8,11.8,0,0,0-4-.65,12,12,0,0,0-4.05.65,8.61,8.61,0,0,0-3,1.83,7.78,7.78,0,0,0-1.88,2.85,10.11,10.11,0,0,0-.65,3.67,10,10,0,0,0,.65,3.66,7.76,7.76,0,0,0,1.88,2.83,8.76,8.76,0,0,0,3,1.84A11.59,11.59,0,0,0,787.35,742.31Z"/><path d="M825.19,721.85a14.7,14.7,0,0,1,5.58,1,12.5,12.5,0,0,1,4.44,3,13.84,13.84,0,0,1,2.94,4.89,19.37,19.37,0,0,1,1.06,6.67,1.8,1.8,0,0,1-.23,1.08.9.9,0,0,1-.73.29H812.5v.68a24.16,24.16,0,0,0,.93,7.06,14.48,14.48,0,0,0,2.65,5.1,11,11,0,0,0,4.16,3.1,13.73,13.73,0,0,0,5.44,1,16.51,16.51,0,0,0,4.66-.59,17.43,17.43,0,0,0,3.31-1.33,18.69,18.69,0,0,0,2.13-1.32,2.41,2.41,0,0,1,1.15-.59.81.81,0,0,1,.72.36l.93,1.14a9.73,9.73,0,0,1-2.28,2,16.15,16.15,0,0,1-3.15,1.59,23.1,23.1,0,0,1-3.73,1.06,20.43,20.43,0,0,1-4,.4,16.94,16.94,0,0,1-6.67-1.28,14.21,14.21,0,0,1-5.17-3.71,17,17,0,0,1-3.33-6,25.48,25.48,0,0,1-1.17-8.08,22,22,0,0,1,1.09-7.08,16.2,16.2,0,0,1,3.16-5.59,14.29,14.29,0,0,1,5-3.67A16.58,16.58,0,0,1,825.19,721.85Zm.05,2.54a13.34,13.34,0,0,0-4.94.86,10.82,10.82,0,0,0-3.77,2.47A12.44,12.44,0,0,0,814,731.6a17.3,17.3,0,0,0-1.31,5h23.47a15.79,15.79,0,0,0-.79-5.14,11,11,0,0,0-2.22-3.85,9.52,9.52,0,0,0-3.43-2.42A11.38,11.38,0,0,0,825.24,724.39Z"/><path d="M848.37,758.09V722.43h1.87a1,1,0,0,1,1.07.89l.33,5.37a20.12,20.12,0,0,1,5.68-5,14.16,14.16,0,0,1,7.23-1.88,13.38,13.38,0,0,1,5.18.93,9.47,9.47,0,0,1,3.7,2.69,11.77,11.77,0,0,1,2.22,4.22,19.08,19.08,0,0,1,.75,5.59v22.8H873v-22.8q0-5-2.29-7.86t-7-2.85a12.47,12.47,0,0,0-6.53,1.8,19,19,0,0,0-5.37,5v26.74Z"/><path d="M906.79,726.87a.84.84,0,0,1-.79.51,1.91,1.91,0,0,1-1-.45,17.31,17.31,0,0,0-1.65-1,14,14,0,0,0-2.51-1,12.84,12.84,0,0,0-3.63-.44,10.61,10.61,0,0,0-3.53.55,8.54,8.54,0,0,0-2.72,1.49,6.68,6.68,0,0,0-1.76,2.16,5.59,5.59,0,0,0-.63,2.59,4.39,4.39,0,0,0,.86,2.78,7.36,7.36,0,0,0,2.26,1.9,17.54,17.54,0,0,0,3.17,1.36l3.64,1.14q1.85.57,3.63,1.27a13.81,13.81,0,0,1,3.17,1.74,8.12,8.12,0,0,1,2.26,2.54,7.24,7.24,0,0,1,.86,3.66,11.13,11.13,0,0,1-.84,4.34,9.83,9.83,0,0,1-2.44,3.48,11.68,11.68,0,0,1-3.92,2.33,15.21,15.21,0,0,1-5.3.86,16,16,0,0,1-6.49-1.21,18.11,18.11,0,0,1-4.88-3.13l.82-1.22a1.41,1.41,0,0,1,.4-.43,1.09,1.09,0,0,1,.61-.14,2,2,0,0,1,1.15.57,12.7,12.7,0,0,0,1.77,1.24,14.29,14.29,0,0,0,2.72,1.24,12.07,12.07,0,0,0,4,.58,11.76,11.76,0,0,0,4-.62,8.31,8.31,0,0,0,2.86-1.7,7.16,7.16,0,0,0,1.74-2.53,8,8,0,0,0,.59-3.06,4.93,4.93,0,0,0-.86-3,7.35,7.35,0,0,0-2.26-2,16.07,16.07,0,0,0-3.17-1.39q-1.77-.58-3.66-1.15t-3.66-1.25a13.19,13.19,0,0,1-3.17-1.72,8.44,8.44,0,0,1-2.26-2.53,7.31,7.31,0,0,1-.86-3.71,8.56,8.56,0,0,1,.82-3.66,9.29,9.29,0,0,1,2.35-3.08,11.49,11.49,0,0,1,3.71-2.12,14.35,14.35,0,0,1,4.92-.79,16.47,16.47,0,0,1,5.79.95,14.22,14.22,0,0,1,4.64,2.89Z"/><path d="M907.4,553.79c-28.66.39-57.32.55-86,.84l-86,.48c-28.66.21-57.32.17-86,.25l-86,.16-86-.15c-28.66-.08-57.32,0-86-.24l-86-.48c-28.66-.29-57.32-.45-86-.84,28.66-.39,57.32-.56,86-.84l86-.48c28.66-.21,57.32-.16,86-.24l86-.15,86,.16c28.66.08,57.32,0,86,.25l86,.48C850.08,553.24,878.74,553.41,907.4,553.79Z"/></g></svg>